<svg xmlns="http://www.w3.org/2000/svg" viewBox="0 0 141.73 141.73" xmlns:v="https://vecta.io/nano"><defs><clipPath id="A"><path d="M0 0h141.73v141.73H0z" fill="none"/></clipPath></defs><path d="M0 0h141.73v141.73H0z" fill="#570044"/><g clip-path="url(#A)"><path d="M126.75 94.9c.07-.2.11-.42.09-.55-.28-1.91 1.14-3.36.54-5.28-.43-1.38-.34-2.15-.16-3.49.08-.55-.26-.93-.53-1.36-.25-.39-1.02-.68-1.43-.79-2.02-.54-2.5-1.03-2.48-3 .01-1.09-.43-1.79-1.22-2.33 1.78-2.22-1.25-4.13-2.19-6.35-.64-1.54-1.29-2.73-2.95-3.16-2.27-.58-4.19-4.62-5.66-6.38-1.14-1.37-2.83-2.05-4.26-3.05-1.2-.85-1.67-2.45-3.3-2.64-2.6-.31-5.13.87-7.77.5-1.02-.14-1.52.08-1.92.84-1.25-.75-2.38-1.53-3.45-2.65-1.75-1.84-3.38-3.04-5.73-4.04-2.61-1.11-5.69 1.28-7.94-.51h-.14l.28.17a1.88 1.88 0 0 0-.29-.14c-2.06-.91-4.04-2.1-6.25-2.63-2.69-.64-4.5 1.96-7.1 1.89-1.55-.04-3.81-2.69-5.41-1.5-.77.57-.93 1.65-1.73 2.22-.99.7-2.22.23-3.2.87-.2.13-.36.28-.55.42-2.68-2.85-8.18-3.77-11.72-4.18-.88-.1-1.62.13-2.38.57-2.02 1.18-4.04 1.66-6.21 2.44-1.94.69-2.33 2.92-4.36 3.53-1.33.4-1.81 1.43-2.54 2.54-2.42 3.67-3.78 8.48-7.84 10.64-.17.09-.31.3-.21.51 1.62 3.29.27 6.05.74 9.46.24 1.73.87 3.38 1.12 5.12.22 1.56-.3 3.04-.76 4.49-.71 2.23-4.02 9.99-.44 11.22 1.15 6.05 6.07 9.26 9.47 14.5 1.9 2.93 4.97 7 8.27 6.97l.25-.12c2.5.77 4.8-.77 6.87-2.34 3.71-2.82 8.48-3.75 12.04-6.86l.15-.4.22.21c5.28 4.76 11.3 7.51 18.39 7.94 4.01.24 7.7.58 11.58 1.67 1.91.54 3.8 1.04 5.71 1.4 3.64 3.36 8.59 5.76 13.31 7.13 2.48.72 6.08 1.44 8.4-.19.1.11.27.17.43.05 1.31-1 2.7-1.8 4.15-2.58 1.1-.59 1.55.01 2.35-.41.72-.37.45-2.13-.16-2.54-.98-.66-1.61-1.02-2.1-2.21-.21-.5-.42-1.06-.86-1.41-.63-.5-1.31-.83-2.01-1.07 2.7-2.75 6.14-1.97 9.66-2.95 2.96-.82 6.2-3.12 6.62-6.36a3.87 3.87 0 0 0-.13-1.36c-.36-1.21.04-.69.81-1.35 1.26-1.08 1.44-2.39 1.39-4-.12-3.49-1.83-6.72-5.44-7.13zm-54.84 6.99l-6.73-.72-1.71-5.72c-.16-.25 1.88-6.15 1.88-6.15l2.91-2.6 2.29-1.07s3.84-2.01 6.73 2.65c0 0 8.78 7.01-5.36 13.61z" fill="red"/><g fill="#1a171b"><path d="M33.03 64.95c5.45 2.77 9.2 7.74 11.4 13.35 1.1 2.78 1.71 5.77 2.07 8.74.29 2.36.55 4.3 1.77 6.39 2.06 3.54 6.44 6.36 10.51 6.59 1.77.1 3.2.2 4.89.9 1.04.43 2.2.95 3.36.85 3.24-.26 5.98 1.35 8.96 2.57.33.14.54-.36.21-.5-2.28-.98-4.86-2.64-7.34-2.96-.79-.1-1.67.19-2.48.14-1.69-.09-3.36-1.26-5.02-1.65-1.18-.28-2.57-.09-3.79-.22-1.81-.19-3.39-1.29-4.83-2.32-2.63-1.87-4.49-4.49-5.01-7.71-.4-2.5-.43-4.96-1.07-7.44-.65-2.53-1.66-4.95-2.9-7.23-2.4-4.42-6.01-7.74-10.71-9.55-.04-.01-.06.04-.02.06h0z"/><path d="M74.94 103.46c3.04.83 4.48 3.66 7.19 4.98 3.22 1.57 6.62 2.76 10.01 3.9 3.01 1.02 6.04 1.52 9.21 1.76 3.47.27 6.71.96 8.9 3.86.21.28.64.02.53-.29-1.85-5.25-10.78-4.2-15.01-5.11-4.01-.86-8.03-2.46-11.8-4.07-3.22-1.39-5.42-4.55-8.99-5.15-.07 0-.1.1-.03.12h0z"/><path d="M46.3 93.76c1.61 2.8 2.41 5.9 3.66 8.85 1.14 2.7 3.12 4.76 5.26 6.69 5.28 4.75 11.3 7.51 18.38 7.94 4.01.24 7.7.58 11.58 1.67 3.4.95 6.71 1.85 10.28 1.91 4.8.08 10.95-.11 14.53-3.75.31-.32-.22-.87-.55-.56-3.92 3.69-11.54 3.74-16.59 3.27-3.12-.29-6.13-1.35-9.14-2.14-3.3-.87-6.62-1-10.01-1.14-7.06-.3-12.79-3.11-18.14-7.63-2.59-2.19-4.45-4.63-5.81-7.74-1.1-2.51-1.94-5.07-3.4-7.41-.02-.04-.07 0-.05.04h0z"/><path d="M108.99 116.57c2.26.3 5.6.58 7.22 2.35.7.76.64 1.98 1.5 2.66.53.42 2.34 2.45.95 2.08-.3-.07-.8-.05-1.06.09-1.72.95-3.4 1.84-4.97 3.03-.34.26.06.79.4.53 1.31-1 2.7-1.8 4.15-2.57 1.1-.59 1.54 0 2.34-.41.73-.38.45-2.13-.15-2.54-.98-.66-1.62-1.02-2.1-2.21-.21-.5-.42-1.06-.86-1.41-2.19-1.71-4.8-1.6-7.42-1.65-.04 0-.04.05 0 .05h0z"/><path d="M113.12 126.73c-2.74 2.16-7.77.26-10.66-.76-4.27-1.51-7.56-4.37-11.46-6.51-.39-.21-.64.36-.37.62 3.66 3.49 8.75 5.96 13.58 7.37 2.7.79 6.73 1.6 8.99-.64.06-.05-.03-.13-.08-.09h0zm-77.45-8.06c-3.68-.44-6.97-6.27-8.9-9.55-2.86-4.86-5.96-6.91-8.12-12-.21-.5-.77-.23-.69.23 1.15 6.04 6.07 9.26 9.47 14.5 1.9 2.93 4.97 7 8.27 6.97.08 0 .05-.14-.02-.15h0zm10.19-39.08c-.79-4.68-3.52-9.21-3.23-14.01.22-3.63 2.4-7.08 5.02-9.46.83-.75 1.87-1.21 2.66-2.01 1.29-1.3 2.36-2.98 4.35-3.25 1.39-.19 2.21-.49 3-1.7 1.54-2.38 4.17.43 6.35.48 1.83.04 3.41-1.64 5.17-1.99 2.32-.46 5.35 1.74 7.38 2.64.36.16.59-.4.24-.56-2.06-.91-4.04-2.11-6.25-2.64-2.68-.64-4.5 1.97-7.1 1.9-1.55-.04-3.81-2.69-5.41-1.5-.77.57-.93 1.65-1.73 2.23-.99.7-2.22.23-3.2.87-.9.59-1.59 1.25-2.31 2.04-1.26 1.37-2.83 2.28-4.21 3.53-1.95 1.77-3.48 4.34-4.16 6.88-.71 2.66-.62 4.96.12 7.6.86 3.08 2.66 5.79 3.25 8.97 0 .03.05.02.05-.01h0z"/><path d="M76.81 49.69c1.28.97 2.41.87 3.94.58 2.8-.54 5.63.88 7.74 2.69 1.87 1.61 3.1 3.41 5.31 4.61 2.89 1.59 3.95 4.22 4.87 7.25 1.61 5.29-.55 10.81-1.38 16.05-.52 3.28-1.51 6.31-3.7 8.86-1.89 2.2-4.59 3.74-6.72 5.68-.14.13.02.36.18.25 2.2-1.66 4.84-2.87 6.77-4.85 2.03-2.08 3.19-4.57 3.94-7.35.85-3.2 1.14-6.6 1.84-9.84.56-2.59.66-5.17.14-7.77-.47-2.34-1.42-4.79-2.78-6.76-.46-.66-1.16-1.2-1.86-1.6-1.68-.94-3.13-1.83-4.48-3.25-1.75-1.84-3.38-3.04-5.73-4.04-2.61-1.11-5.8 1.23-8.05-.56-.03-.02-.06.02-.03.04h0z"/><path d="M94.11 57.36c.77-1.61 2.7-.6 3.97-.64 2.04-.07 5.54-1.31 7.01.46 1.78 2.13 4.4 3.02 6.17 5.15l2.9 3.79c.63.79.87 1.75 2 2.05 2.47.66 2.59 2.32 3.66 4.22.69 1.22 3.19 2.89 1.5 4.51-.22.21-.19.52.08.66 1.71.92.94 2.6 1.32 4.03.25.94 1.56 1.26 2.33 1.47 2.54.68 1.43 3.04 1.98 4.75.67 2.12-.7 3.63-.4 5.69.08.5.86.4.78-.1-.28-1.91 1.14-3.36.54-5.28-.43-1.38-.34-2.15-.16-3.49.08-.55-.26-.93-.54-1.36-.25-.39-1.01-.67-1.43-.79-2.03-.54-2.5-1.03-2.48-3 .01-1.28-.55-2.03-1.64-2.61l.07.66c2.48-2.38-.85-4.38-1.84-6.74-.64-1.53-1.29-2.73-2.95-3.16-2.26-.58-4.19-4.62-5.66-6.38-1.14-1.37-2.83-2.04-4.26-3.05-1.2-.85-1.67-2.45-3.3-2.64-2.6-.3-5.13.87-7.77.5-1.18-.16-1.67.1-2.1 1.21-.06.15.16.23.23.1h0z"/><path d="M126.61 93.91c1.43.92 2.96 1.31 4.04 2.76 1.69 2.26 1.81 7.11-1.1 8.25-.25.1-.3.39-.16.6 2.2 3.47-1.27 6.24-4.09 7.67-1.57.8-3.26.8-4.98.88-2.25.11-6.25.27-6.92 3.03-.1.41.47.56.7.29 2.74-3.15 6.32-2.22 9.98-3.25 2.96-.82 6.2-3.12 6.62-6.36.05-.39-.02-1-.13-1.37-.36-1.21.05-.69.81-1.34 1.26-1.08 1.44-2.39 1.39-4-.13-3.71-2.02-7.17-6.12-7.22-.02 0-.04.03-.02.05h0zM51.48 50.69c-2.48-3.22-6.9-3.43-10.63-3.87-.88-.1-1.62.13-2.38.57-2.02 1.18-4.04 1.67-6.21 2.44-1.94.69-2.33 2.92-4.36 3.54-1.33.4-1.81 1.43-2.54 2.54-2.42 3.67-3.78 8.48-7.84 10.64-.18.09-.31.3-.21.5 1.62 3.3.27 6.05.74 9.46.24 1.73.87 3.38 1.12 5.12.22 1.57-.3 3.04-.77 4.49-.71 2.22-4.02 9.99-.44 11.22.22.07.41-.21.21-.36-2.07-1.6-.64-5.56-.06-7.58.6-2.1 1.46-4.13 1.79-6.3.52-3.35-1.51-6.56-1.07-10.01.14-1.06.32-2.07.27-3.14-.07-1.54-1.34-2.55.25-3.57 2.48-1.61 3.38-4.79 4.63-7.29.68-1.35 1.49-2.69 2.33-3.94.7-1.04 1.73-1.32 2.94-1.6.24-.05.58-.15.73-.36.66-.9 1.7-2.44 2.52-2.79 1.02-.44 2.26-.58 3.34-.86 1.23-.32 2.29-1.07 3.41-1.63 1.2-.6 2.85.03 4.09.21 2.94.44 5.42 1.05 7.85 2.86.19.14.45-.1.3-.29h0zm-16.52 67.6c2.88 1.59 5.51-.17 7.84-1.94 3.71-2.82 8.48-3.75 12.04-6.86.45-.38-.11-1.12-.54-.73-2.99 2.68-6.77 3.69-10.12 5.71-2.89 1.75-5.39 5.42-9.17 3.7-.07-.04-.11.08-.05.11h0zm30.71-17.65c-.44-1.35-1.18-2.47-1.46-3.89-.31-1.61.13-3.27.77-4.73.66-1.52 1.83-2.82 3.04-3.93 1-.91 2.29-1.36 3.29-2.24.21-.19.08-.51-.2-.49-5.81.32-11.29 11.72-5.53 15.35.05.03.11 0 .09-.07h0zm10.71-12.56c3.18 1.42 2.57 4.93 1.38 7.55-1.16 2.54-2.99 4.26-5.39 5.56-.32.17-.33.72.1.76 5.39.45 10.97-12.61 3.93-13.93-.03 0-.05.04-.02.06h0z"/><path d="M70.61 87.26c.27 1.2 1.67 2.12 2.79 2.4 1.14.28 2.62-.22 2.44-1.66-.17-1.38-2.42-1.88-3.5-1.87-1.35.02-2.67.89-2.13 2.4.49 1.37 2.52 1.96 3.8 2.08 1.2.11 2.9-.61 2.76-2.04-.23-2.4-6.22-3.33-6.43-.54-.2 2.71 5.9 3.59 5.4 1.23-.25-1.17-1.96-1.77-2.97-1.99-.86-.2-2.44.17-2 1.4.48 1.35 4.99 2.28 4.91.34-.05-1.17-2.03-2.21-3.03-2.25-1.06-.03-1.67 1.04-1.17 1.96.6 1.11 1.99.97 2.98.55.43-.18.41-.77 0-.96-.58-.27-1.34-.75-1.98-.32-.36.23-.21.91.24.92.46.01 1.14-.13 1.36-.58.1-.21.01-.46-.16-.6-.84-.69-1.61 0-2.37.34-.22.1-.18.43.06.46.36.06 1.42-.2 1.67 0l-.15-.61c.14-.28-.15-.04-.27-.04l.24.92c.09-.06.87.41.96.45v-.95c-.51.21-1.44.51-1.73-.18-.3-.72 1.2 0 1.32.07.33.21.67.46.92.77.11.14.18-.05-.03.02-.51.17-1.2.02-1.7-.1-.24-.05-1.05-.24-1.11-.56-.05-.29 1.45.12 1.57.17.39.14 1.32.51 1.42.98.08.4-1.88-.04-2.09-.13-.37-.16-1.57-.87-1.23-1.42.47-.76 1.74-.58 2.45-.42.62.14 1.52.5 1.84 1.09.44.81-1.3 1-1.74.96a4.73 4.73 0 0 1-2.28-.9c-.79-.6-.46-1.27.42-1.37.79-.08 1.72.14 2.43.47.41.2.56.47.41.89-.19.52-.83.55-1.29.52-1.09-.08-2.55-.84-2.93-1.93-.02-.06-.13-.04-.12.03h0z"/><path d="M71.17 87.83c-3.24 2.01-6.47 4.15-7.3 8.14-.06.3.43.44.52.14 1.13-3.64 3.95-5.89 6.85-8.19.06-.04 0-.13-.07-.09h0zm.73.7c-2.35 1.05-4.07 4.02-3.94 6.58.01.26.37.22.42 0 .52-2.44 1.54-4.9 3.58-6.47.05-.04 0-.13-.06-.1h0zm1.34.22c-.52 2.21-1.46 4.21-2.11 6.37-.08.24.24.48.41.24 1.34-1.83 1.55-4.43 1.76-6.61 0-.04-.05-.05-.06 0h0z"/><path d="M73.51 89.08c.16.44.48.75.74 1.14.48.74.67 1.61.86 2.46.17.76.16 1.54.05 2.3-.08.6-.33 1.07-.24 1.69.03.21.26.29.43.18 1.26-.79.99-3.07.73-4.3-.24-1.19-1.24-3.23-2.55-3.51-.02 0-.03.02-.03.04h0zm1.15-.29c.99.45 1.85 1.02 2.5 1.9.59.79.72 1.82.99 2.74.08.29.47.17.52-.07.59-2.5-1.89-4.16-3.98-4.69-.07-.02-.09.09-.03.11h0zm-5.87-13.41c1.03 3.45 1.11 6.62.62 10.18-.03.19.26.22.3.04.76-3.42.22-6.95-.86-10.24-.01-.04-.07-.01-.06.02h0zm-4.03 2.38c2.23 1.75 3.51 4.66 2.93 7.48-.04.21.27.28.35.09 1.16-2.82-.89-6.09-3.2-7.67-.06-.05-.14.04-.07.09h0zm-2.68 2.49c1.67 1.78 2.61 4.05 2.88 6.46.01.11.19.09.18-.03-.29-2.44-1.26-4.72-2.96-6.5-.05-.06-.15.01-.1.07h0zm-5.18 1.29c2.95 2.32 5.15 5.62 6.62 9.05.05.12.27.08.23-.06-.93-3.6-3.79-6.96-6.73-9.12-.09-.07-.21.07-.11.14h0zm-.23 4.92c3.26 1.54 6.39 4.32 7.42 7.88.08.27.46.1.39-.16-.99-3.69-4.37-6.39-7.77-7.82-.08-.03-.12.08-.05.11h0zm-1.44 3.39c3.02 2.03 6.1 3.96 7.71 7.36.22.46.95.16.73-.3-1.8-3.68-4.93-5.29-8.41-7.11-.03-.02-.06.04-.03.05h0zm18.43-13.82a32.48 32.48 0 0 1-.58 4.04c-.33 1.59-1.08 3.02-1.47 4.58-.04.15.18.23.27.11 1.69-2.28 1.9-5.98 2.03-8.71 0-.16-.23-.19-.24-.03h0zm1.86 3.8c-.39 1.94-.57 4.01-1.8 5.63-.09.13.1.28.19.15 1.25-1.67 1.42-3.77 1.79-5.76.02-.12-.16-.14-.18-.02h0zm3.24.13l-2.98 6.21c-.08.19.18.34.31.18 1.42-1.77 1.96-4.27 2.73-6.37.01-.04-.04-.06-.06-.02h0zm2.75 1.72c-1.56 1.78-3.36 3.7-4.17 5.97-.08.21.22.41.36.21l4.09-5.95c.15-.19-.13-.4-.28-.22h0zm3.52.93c-1.66.35-2.87 1.49-3.95 2.74-.95 1.11-2.39 3.13-2.31 4.65.01.23.3.26.43.12.94-1.01 1.46-2.71 2.22-3.89.89-1.39 2.08-2.74 3.71-3.21.23-.07.13-.45-.11-.41h0zm2.1 3.57c-2.61.96-6.56 2.81-7.36 5.77-.05.2.2.29.34.2 1.12-.72 1.95-2.04 2.93-2.96 1.23-1.14 2.72-1.97 4.23-2.68.21-.1.08-.42-.14-.34h0zm.85 5.89l-5.5 1.13c-1.26.36-3.45 1.3-3.59 2.82-.02.16.16.25.29.17.65-.41 1.07-1.1 1.73-1.54.76-.51 1.6-.86 2.47-1.16 1.52-.52 3.11-.79 4.64-1.3.06-.02.04-.13-.03-.11h0zm-.13 4.21c-3.63-.28-8.76.12-11.14 3.34-.17.23.11.48.33.35 1.62-1.01 3.04-1.97 4.91-2.53 1.96-.59 3.86-1 5.9-1.09.04 0 .04-.06 0-.06h0zm-8.56 4.48c-1.67.4-3.33.49-4.96 1.09-.11.04-.04.21.07.17 1.52-.63 3.25-1.07 4.9-1.21.03 0 .03-.06 0-.05h0zm-5.59 2.33c4.44-2.08 8.7-2.47 13.51-1.83.2.02.22-.26.04-.3-4.61-1.12-9.42-.02-13.58 2.08-.03.01-.01.07.02.05h0zm3.29-7.3c2.21-1.72 4.57-3.28 7.16-4.37.15-.06.06-.27-.09-.22-2.73.9-4.76 2.99-7.1 4.56-.03.02 0 .06.03.04h0zm.31-9.2c.52-2.04 1.38-3.83 2.76-5.43.13-.16-.1-.32-.24-.19-1.51 1.49-2.25 3.56-2.7 5.6-.03.12.15.13.18.02h0zm-14.13-7.93c1.96 2.78 4.1 6.39 2.95 9.9-.06.19.22.3.28.12 1.1-3.62-1.1-7.23-3.18-10.05-.02-.03-.07 0-.05.04h0z"/><path d="M65.91 80.24c1.44 2.66 2.06 5.59 1.17 8.52-.05.15.16.24.22.09 1.23-2.75.12-6.21-1.28-8.68-.04-.06-.14 0-.1.06h0zm-7.87 5.79c2.63 2.29 5.78 4.83 4.84 8.7-.05.2.27.28.35.09 1.5-3.73-2.65-6.86-5.12-8.89-.06-.05-.13.05-.07.1h0z"/><path d="M55.68 88.83c3.42.76 5.76 3.6 7.54 6.44.04.06.13 0 .1-.07-1.81-2.85-4.19-5.68-7.63-6.43-.04 0-.05.05 0 .06h0zm-.91 4.06c3.65.76 7.25 2.19 8.42 6.06.05.17.32.09.29-.08-.71-4.04-5.18-5.44-8.71-6.04-.04 0-.04.05 0 .06h0zm3.35 4.04c1.37.19 2.64.71 3.91 1.24.04.02.06-.04.02-.05-1.27-.54-2.55-1.06-3.92-1.25-.04 0-.05.05 0 .06h0zm-3.23-1.94c.29.12.48-.33.19-.45s-.48.33-.19.45h0zm.17-7.59c.07.03.12-.08.05-.11s-.12.08-.05.11h0zm2.6-2.74l.05-.3c.03-.15-.19-.23-.27-.11-.14.21-.19.51.1.62.13.05.23-.12.12-.21h0zm.9-.78c.14.07.24-.16.09-.21-.14-.07-.24.16-.09.21h0zm.5 2.05c0 .05.01.11.02.16.02.13.18.2.29.12l.13-.1c.16-.12.14-.39-.06-.47-.19-.08-.4.08-.38.29h0zm-.61 1.09l-.72-.21c-.27-.07-.4.25-.16.39l.65.38c.34.2.61-.45.24-.56h0zm-1.58-1.4h-.16c-.14.02-.21.19-.12.29.03.04.07.08.1.13.13.16.39.13.47-.06s-.08-.4-.28-.37h0z"/><path d="M58.71 89.68c-.46.07-.81.33-1.15.65-.33.31.06.87.44.58.25-.19.5-.37.82-.38.54-.03.44-.93-.11-.84h0zm-2.35 2.53c-.33.17-.59.36-.76.7-.16.34.36.65.57.34.12-.18.27-.24.48-.3.48-.16.16-.96-.3-.73h0zm-2.1.01l-.1-.24c-.01-.03-.06 0-.05.02l.1.25c.01.03.06.01.05-.02h0zm2.9-11.24s.05-.04.02-.05-.05.04-.02.05h0zm24.98 1.01c-.09.18-.27.27-.36.45s.2.36.31.18c.11-.17.31-.25.41-.42.17-.26-.23-.49-.36-.21h0zm-2.61-1.81c-.25.02-.45-.03-.69-.11-.37-.14-.6.4-.24.56a2.38 2.38 0 0 0 1.01.21c.42 0 .35-.7-.09-.66h0zm-2.41-2.01c-.24-.08-.39-.05-.61.05a.25.25 0 0 0 .18.46c.14-.04.1-.06.22 0 .32.16.55-.39.21-.51h0zm-2.25-.85c-.21.09-.43.09-.64.18-.18.08-.11.4.09.35.22-.05.45-.01.67-.06.35-.09.19-.6-.12-.47h0zm-1.83.4l-.71.36c-.28.14-.12.54.18.45l.75-.24c.37-.13.12-.74-.23-.57h0zm-2.17 2.34l-.46.25c-.24.14-.11.47.16.39l.51-.14c.34-.09.1-.67-.2-.5h0zm-3.1-.29c-.33-.13-.7-.29-1.06-.16-.18.07-.07.33.12.28.26-.08.57.11.8.22.22.1.36-.25.14-.34h0zm-2.71-1.42c-.23.09-.53.14-.76.06-.11-.04-.18.13-.07.17.28.1.62.04.9-.05.11-.04.04-.21-.07-.18h0zm-1.67 3.56l-.73.3c-.07.03-.03.14.05.11l.73-.3c.07-.03.03-.14-.05-.11h0zm3.05-2.83a1.22 1.22 0 0 1-.17-.07c-.14-.06-.24.17-.09.22.06.02.12.05.17.07.14.06.24-.16.09-.22h0zm3.33-1.59l-.15-.1c-.17-.1-.29.17-.09.22.06.01.12.03.18.04.08.02.14-.11.07-.16h0zm2.12-.22c-.05.19 0 .35.18.44.18.08.29-.2.12-.28-.02-.01-.02-.02-.02-.05.05-.18-.23-.31-.28-.12h0zm4.03 1.64c-.34.32-.24.63.04.96.08.09.22-.02.14-.11-.19-.23-.34-.46-.07-.7.09-.08-.02-.23-.11-.15h0zm3.86 3.64l.1.24c.09.21.43.08.34-.14-.04-.08-.07-.16-.1-.24-.09-.21-.43-.08-.34.14h0zm3.19 2.82c.22.09.36-.25.14-.34-.22-.1-.36.24-.14.34h0zm2.6 1.1c-.16.44-.17.87.32 1.07.14.06.23-.15.09-.22-.33-.16-.26-.44-.13-.73.08-.18-.21-.3-.28-.12h0zm1.64 1.46c-.07.12-.2.18-.33.13-.21-.07-.3.24-.08.29a.54.54 0 0 0 .62-.3c.06-.12-.13-.23-.21-.12h0zm-1.31 1.49c-.25.12-.66.27-.67.6 0 .19.18.3.34.2.18-.12.33-.21.54-.29.33-.12.11-.65-.21-.51h0zm-1.03 2.02c-.24.11-.55.2-.75.38-.14.12-.05.34.14.33.27-.01.54-.16.79-.25.3-.11.1-.59-.18-.45h0zm-.97 2.36a.92.92 0 0 0 .57.47c.22.08.35-.23.14-.33-.15-.08-.25-.14-.32-.3-.11-.25-.52-.08-.39.16h0zm2.99.87c-.15.07-.35.16-.37.36s.06.39.26.46a.22.22 0 0 0 .28-.11c.03-.07.06-.12.05-.2-.02-.16-.17.12.02.05.37-.12.12-.73-.23-.56h0zm.26 1.15h.04c-.2-.03-.34.26-.16.38.21.13.43.08.59-.1.28-.3-.34-.66-.46-.28h0zm-.1 1.19c-.3-.06-.57.07-.82.2-.35.18-.15.68.23.56.11-.04.29-.12.4-.08.49.19.72-.59.19-.69h0zm-3.61 1.08c.05-.13.12-.12 0-.05-.06.04-.12.11-.17.17-.37.47.24 1.09.72.74-.07.05.09-.02.11-.03.13-.05.23-.15.31-.25.2-.24.15-.61-.09-.81-.29-.22-.75-.11-.89.23h0zm-.74 1.62c-.24.15-.51.41-.51.71-.01.45.4.71.79.47.09-.06.13-.18.12-.28-.03.15-.03.15.01 0 .04-.33-.03.02-.05.05-.05.07.06-.03 0 0 .04-.03.09-.04.14-.05.27-.09.38-.43.28-.68-.14-.33-.5-.37-.79-.22h0zm2.27 1.11c-.24.14-.41.36-.45.64s.12.47.35.61c0 0 .02 0 .02.01.2.11.52 0 .64-.17.04-.05.07-.1.09-.16-.11.08-.13.11-.06.11.31-.12.45-.49.33-.79-.16-.39-.6-.45-.92-.26h0zm-5.86 4.05l-.46.25c-.34.19-.15.67.23.56l.51-.14c.46-.13.14-.9-.27-.68h0zm6.12-8.8h-.13c.05.02.09.04.13.06.05.05.06.06.03.02-.06-.08-.18-.14-.28-.12-.06 0-.11.01-.16.04-.16.07-.29.25-.26.44.05.28.32.46.58.35.13-.05.21-.15.31-.24a.34.34 0 0 0-.22-.54h0zm1.57-4.46c-.25-.09-.3-.21-.18-.46.08-.17-.11-.34-.28-.28-.29.11-.48.34-.46.66.02.38.31.63.62.8.44.24.79-.54.31-.73h0z"/><path d="M83.44 84.77c-.13.06.05 0-.08.02.09 0-.08-.02-.08-.02-.19-.04-.33-.04-.52.05-.17.07-.25.25-.18.43.19.52.79.61 1.26.47.63-.19.23-1.22-.39-.96h0zm-1.64-1.9l-.45-.13c-.38-.11-.59.37-.24.57l.41.23c.41.23.74-.54.28-.67h0zm.15-2.26l-.72-.33c-.27-.12-.48-.24-.79-.21-.15.02-.24.21-.14.34.17.21.36.28.61.38l.83.32c.32.13.53-.36.21-.5h0zm-6.68.13c-.11.06-.04.1-.09-.01-.1-.21-.42-.08-.34.14.11.32.28.38.59.27.26-.09.09-.51-.16-.4h0zm-3.22-1.08l-.11-.32c-.1-.2-.46-.14-.41.11.06.25 0 .5.24.67.32.24.64-.3.28-.46h0zm-1.64-2.12c-.18.06-.31.03-.47-.04-.18-.08-.3.2-.12.28.24.1.45.13.7.05.19-.07.07-.35-.11-.28h0zm-5.27.72c-.02.05-.04.12-.07.17-.01.03.04.06.06.03.02-.06.05-.12.07-.17.02-.04-.04-.06-.06-.02h0zm-7.26 4.73c-.32.33-.4.66-.07 1.02.16.17.43-.02.29-.22-.16-.23-.09-.3.12-.46.27-.21-.09-.6-.34-.34h0zm1.04 2.93c-.03.06-.12.09-.17.12-.06.04-.08.11-.11.16-.07.15.16.29.26.15.08-.12.25-.12.34-.25.15-.22-.19-.42-.31-.19h0z"/><path d="M58.42 86.46l-.49.2c-.11.04-.04.21.07.17l.49-.2c.11-.04.04-.21-.07-.17h0zm-3.02 1.26c.06 0 .12 0 .18.01.18.01.27-.2.14-.32a1.54 1.54 0 0 1-.13-.12c-.31-.27-.59.41-.18.43h0zm.54.67c-.07.03-.3.19-.36.17-.25-.08-.36.29-.1.35.24.05.37-.13.57-.24.17-.09.07-.36-.11-.28h0zm-.37 5.71c.14.3.39.41.68.53.14.06.24-.16.09-.22-.22-.1-.45-.17-.55-.4-.07-.14-.29-.05-.22.09h0zm3.53 1.74l-.35-.08c-.17-.04-.28.23-.14.32l.31.19c.33.21.56-.33.18-.43h0zm-2.16-4.75c-.27-.12-.68-.35-.99-.24-.33.13-.33.55-.15.79.07.1.27.1.31-.03.03-.11.06-.19.05-.29 0-.09-.02 0-.05 0 .22 0 .44.14.64.22.29.12.48-.32.19-.44h0zm-.11-.91c-.04-.11-.07-.22-.16-.3-.05-.04-.12-.08-.19-.08.42.06.12.5.25.3.08-.12.02-.26-.12-.29-.13-.03-.26-.05-.37.03-.2.15-.13.4.02.54.09.08.22.08.32.05.05-.01.11-.04.16-.06.08-.03.11-.12.08-.2h0z"/><path d="M59.14 87.78c-.34-.15-.61-.37-.75-.72-.13-.33.03-.69.01-1.04 0-.1-.16-.17-.24-.1-.36.34-.36.87-.22 1.31.15.47.57.79 1.01.98.29.13.48-.32.19-.44h0zm.99-6.04l-.35-.71a.27.27 0 0 0-.5.2l.24.75c.13.41.81.14.62-.25h0zm5.16-1.36c-.17-.07-.35-.03-.45.12-.14.23.23.42.31.18.02-.04 0-.03.06-.02.17.02.24-.23.08-.29h0zm2.28-1.85c-.1-.15-.21-.34-.15-.53.06-.17.33-.23.48-.26.19-.04.15-.34-.04-.3-.3.07-.58.16-.72.44-.14.27.05.61.19.83.1.17.35-.02.24-.18h0zm8.05-.7c-.13.31-.2.54.14.69.03.02.05-.03.02-.05-.32-.15-.22-.37-.11-.62.01-.03-.03-.05-.05-.02h0zm2.22 2.48l.53.19c-.11-.04.17-.11.07-.17l-.5-.25c-.14-.07-.24.17-.1.22h0zm5.27 3.47l-.1.15c-.13.21.21.35.27.11.01-.06.03-.12.04-.17a.12.12 0 0 0-.21-.09h0zm-3-.03c-.21-.04-.5-.01-.67.12-.22.18-.17.64.17.64.08 0 .22-.04.3-.01.54.2.77-.63.2-.75h0zm-.85-1.55l-.62-.29c-.46-.21-.78.54-.3.73l.65.24c.44.17.71-.47.28-.67h0zm-4.03-2.88c-.36-.15-.68-.12-1.04 0-.44.15-.16.86.27.68.18-.08.32-.13.51-.06.4.13.66-.45.26-.62h0zm-1.54.45a.79.79 0 0 0-.34.03c-.04.02-.1.07-.13.07-.45.07-.46.74 0 .8.07.01.14 0 .21 0 .09 0 .11.01.02-.02.61.27.91-.79.24-.87h0z"/><path d="M67.86 78.12c.14.06.24-.16.1-.22-.15-.06-.24.16-.1.22h0zM33.68 65.64c-1.23-2.08-2.22-.08-2.05 1.39.22 1.88.88 3.43.2 5.3-.36 1.01-1.26 1.87-1.52 2.89-.15.61.25 1.1.63 1.53 1.74 2.04 3.2 3.68 4.4 6.14 1.08 2.23 2.02 4.47 3.6 6.4 1.98 2.44 4.88 3.87 6.85 6.34.18.23.56.26.74 0 .27-.42.63-.73 1.08-.92l-.73-.43c-.03 1.45-.1 1.78 1.52 1.66l-.49-.49c-.02 2.18.55 3.94 2.06 5.54.15.15.34.15.5 0 1.06-1.05 1.95-.3 2.55.78.13.23.52.09.39-.16-.26-.53-.98-2.05-1.74-1.95-.29.04-1.08.38-1.29.57-.94.86-1.62-4.58-1.62-4.66.01-.3-.19-.5-.49-.49-.64.02-.51-.11-.49-.68.01-.42-.38-.62-.73-.43-.53.3-.9.6-1.26 1.08l.74.01c-1.27-1.62-2.8-2.88-4.41-4.16-2.2-1.75-3.6-3.73-4.8-6.23l-2.48-5.03c-.78-1.37-1.99-2.39-3.05-3.54-.98-1.06 1.27-3.37 1.42-4.72.11-1.03-.15-2.06-.35-3.06-.21-1.08-.93-2.83.7-2.51.12.02.16-.11.12-.19h0z"/></g><path d="M62.9 114.11v-.14s-.01-.07-.01-.12l-.57-.32.02.48v.13c.07.88.03 1.92 0 2.9-.12 2.04-.37 4.77-1.33 7.73-1.16 3.61-2.79 6.46-5 8.72-2.69 2.75-6.53 4.56-10.52 4.96-.32 0-.64.03-.96.04-.76.03-1.54.06-2.26.02l-3.33-.43c-.71-.06-1.48-.19-2.47-.43l-.85-.21c-.23-.05-.46-.11-.7-.17l-1-.23c-.57-.13-1.13-.27-1.69-.43-3.16-.94-6.29-2.02-9.61-3.17L18.44 132a41.66 41.66 0 0 0-2.33-.73c-.42-.12-.83-.25-1.25-.38l-.56-.17c-1-.31-2.06-.63-3.1-.81l-3.73-.8-3.76-.37c-5.22-.42-10.47.62-14.76 2.92-5.21 2.8-8.39 7.24-10.13 10.46-2.52 4.49-3.82 9.23-4.67 12.85-.82 3.69-1.41 7.65-1.8 12.1-.62 7.21-.6 13.25-.59 17.66l.08 7.54.05.23h.46l-.05-7.16v-.6c0-4.4.02-10.43.67-17.61.42-4.41 1.02-8.34 1.85-12 .86-3.59 2.16-8.26 4.64-12.64 1.71-3.13 4.81-7.43 9.86-10.13 4.17-2.22 9.25-3.21 14.32-2.78l3.73.37 3.67.8c1.04.19 2.06.51 3.06.81l.52.16 1.27.38c.75.22 1.53.45 2.28.72l4.21 1.46c3.31 1.15 6.43 2.25 9.61 3.2.75.21 1.52.39 2.19.55l.05-.22h0l.04.25 1.13.28.95.23c.99.23 1.75.36 2.47.43l3.38.44c.81.04 1.59 0 2.34-.04l1.01-.05c4.2-.46 8.22-2.4 11.03-5.32 2.26-2.36 3.92-5.32 5.08-9.05.94-3.04 1.18-5.82 1.28-7.91.03-1.01.06-2.07-.02-2.96z" fill="#707173"/><g fill="#fff"><path d="M87.46 98.19l1.41-.59c.92-.39 2.25-1 3.88-1.89 1.62-.89 3.56-2.08 5.54-3.74 1.98-1.64 4-3.81 5.5-6.61 1.49-2.79 2.36-6.23 2.12-9.85-.21-3.62-1.4-7.36-3.42-10.77s-4.81-6.55-8.27-8.88c-1.73-1.16-3.65-2.09-5.7-2.58-2.04-.49-4.26-.49-6.2.37-1.93.86-3.39 2.54-5.35 3.44-.97.46-2.07.7-3.14.54-1.07-.12-2.08-.55-3-1.04-1.91-.95-3.34-2.58-5.19-3.38-.92-.4-1.86-.76-2.85-.68-.99.04-1.97.25-2.92.49-3.81 1.06-7.38 2.63-10.46 4.52-1.49 1.02-2.78 2.25-3.51 3.77-.75 1.5-.8 3.2-.57 4.74.53 3.11 1.73 5.82 2.52 8.29.83 2.46 1.4 4.66 1.69 6.5s.36 3.31.35 4.31l-.05 1.53h-.05l.02-1.53c-.01-1-.1-2.46-.42-4.29-.31-1.83-.92-4.01-1.79-6.45-.82-2.45-2.07-5.12-2.67-8.31-.25-1.58-.26-3.39.55-4.99.77-1.6 2.15-2.91 3.67-3.94 3.15-1.93 6.72-3.49 10.59-4.56.98-.25 1.98-.45 3.01-.5 1.06-.08 2.1.3 3.03.73 1.93.89 3.32 2.54 5.16 3.48.91.5 1.87.92 2.9 1.06 1.03.16 2.08-.05 3.03-.49 1.92-.86 3.4-2.51 5.38-3.39 1.98-.85 4.23-.89 6.3-.41 2.08.48 4.03 1.41 5.78 2.56 3.52 2.32 6.36 5.47 8.43 8.9 2.06 3.44 3.34 7.22 3.53 10.92.22 3.7-.69 7.2-2.23 10.02-1.55 2.83-3.61 5.01-5.62 6.65a31.49 31.49 0 0 1-5.62 3.69 47.59 47.59 0 0 1-3.92 1.82l-1.42.56-.02-.04zm-41.1-8.11s-.49-.48-1.19-1.54c-.71-1.06-1.58-2.71-2.48-4.91l-3.05-7.98-2.12-4.76c-.46-.75-1-1.63-1.85-1.89-.88-.21-1.64.69-2.15 1.49-1.03 1.71-1.6 3.8-1.63 5.97-.04 2.17.44 4.41 1.24 6.58 1.61 4.36 4.48 8.44 7.75 12.28 3.3 3.84 7.11 7.46 11.27 10.77 1.04.82 2.11 1.62 3.23 2.35.55.38 1.13.65 1.75.93.61.28 1.21.59 1.83.83 2.46 1.05 5.04 1.87 7.69 2.36 2.64.54 5.33.62 8.04.86 1.34.12 2.74.39 3.95 1.04l3.56 1.86c4.72 2.34 9.81 4.13 14.85 3.94 2.5-.12 4.94-.76 6.99-2.03 1.04-.61 1.94-1.38 2.81-2.2.89-.81 1.79-1.58 2.74-2.27.24-.17.48-.34.73-.5l.19-.12.04-.03c.02-.27-.04.35.16.31l-.08.03-.41.15c-.55.19-1.11.32-1.67.44-1.12.22-2.24.34-3.34.38-2.2.09-4.32-.09-6.33-.4-4.03-.63-7.6-1.76-10.69-2.92-3.09-1.17-5.69-2.4-7.81-3.46-2.11-1.07-3.73-1.98-4.84-2.61l-1.68-.98.02-.04 1.69.97c1.11.62 2.73 1.52 4.86 2.56 2.12 1.05 4.73 2.25 7.82 3.39 3.09 1.13 6.66 2.23 10.67 2.81 2 .29 4.11.45 6.28.34 1.08-.05 2.19-.18 3.28-.4a13.55 13.55 0 0 0 1.63-.44l.4-.14.12-.05c.26-.06.12.61.12.35l-.05.03-.18.12c-.24.15-.47.32-.7.49-.93.68-1.82 1.46-2.68 2.26-.86.82-1.8 1.64-2.87 2.26-2.1 1.33-4.63 2-7.19 2.11-5.17.19-10.31-1.63-15.07-4-1.19-.59-2.38-1.25-3.55-1.85-1.17-.63-2.46-.88-3.8-1-2.66-.24-5.4-.33-8.07-.87-2.67-.51-5.28-1.33-7.77-2.4-.64-.24-1.23-.56-1.84-.84-.6-.28-1.24-.58-1.79-.97-1.13-.75-2.19-1.56-3.23-2.4-4.15-3.36-7.93-7.03-11.22-10.9-3.28-3.87-6.05-8-7.74-12.36-.83-2.18-1.34-4.43-1.31-6.64.02-2.2.58-4.34 1.62-6.11.27-.44.58-.85.98-1.2.38-.34.94-.6 1.49-.45 1.06.33 1.59 1.26 2.09 2.02.95 1.62 1.58 3.27 2.16 4.82l2.94 8.01c.88 2.19 1.68 3.87 2.35 4.94.66 1.08 1.13 1.58 1.13 1.58l-.03.03z"/><path d="M81.02 99.02l1.25-.38c.8-.28 2.04-.52 3.5-1.14l2.44-.97 2.74-1.43a61.48 61.48 0 0 0 6.06-4.27c2.15-1.64 4.51-3.53 7.49-4.6l1.13-.39 1.18-.25c.79-.18 1.59-.27 2.41-.38l5.01-.44c1.7-.01 3.5.13 5.14.87a5.61 5.61 0 0 1 2.09 1.72c.51.78.81 1.69.63 2.66-.16.93-.62 1.73-.78 2.58-.17.87.03 1.63.6 2.38 1.12 1.27 3.01 1.73 4.52 2.85 1.71 1.18 1.75 3.43 1.24 5.16-.54 1.76-1.56 3.39-2.98 4.54-1.45 1.13-3.18 1.75-4.86 2.24l-5.06 1.19-4.96.73-4.82.16-4.55-.29-4.21-.62-3.81-.88c-1.21-.3-2.31-.72-3.37-1.04l-1.53-.49-1.38-.57-2.43-1.01-3.3-1.65-1.16-.6 1.17.58 3.32 1.6 2.44.97 1.39.55 1.53.47 3.37.99 3.81.85 4.19.59c1.45.19 2.97.17 4.52.26 1.55.07 3.14-.13 4.77-.19 1.62-.14 3.27-.51 4.95-.76l5.02-1.21c1.66-.5 3.33-1.11 4.71-2.2 1.35-1.09 2.33-2.68 2.83-4.36.08-.43.25-.85.24-1.29l.04-.65-.09-.62c0-.41-.28-.83-.45-1.24-.23-.29-.49-.67-.86-.9-1.38-1.07-3.28-1.48-4.6-2.97-.55-.68-.88-1.78-.65-2.68.18-.93.65-1.72.79-2.57.16-.8-.09-1.69-.56-2.38a5.14 5.14 0 0 0-1.94-1.61c-1.56-.71-3.31-.87-4.99-.87-1.69.02-3.35.2-4.97.41l-2.39.37-1.16.24-1.11.37c-2.93 1.03-5.28 2.89-7.44 4.53-2.13 1.7-4.22 3.09-6.12 4.22l-2.78 1.39-2.46.94c-1.47.61-2.71.82-3.52 1.09l-1.25.36zM53.59 50.24s-.02-.47-.56-1.05c-.56-.57-1.69-.99-3.14-1.17-1.46-.19-3.25-.17-5.3-.02-2.04.17-4.37.33-6.78 1.04-2.39.69-5 1.87-6.7 4.23-1.88 2.22-3.06 5.03-4.18 7.99-.54 1.5-1.53 2.85-2.49 4.14-.95 1.3-1.93 2.67-2.14 4.27-.45 3.26 1.05 6.49 1.1 9.93 0 .84.04 1.68-.14 2.54-.1.86-.31 1.68-.54 2.5-.38 1.62-1.15 3.23-.88 4.8.24 1.58 1.21 2.98 2.18 4.24l1.51 1.9 1.37 1.97c1.74 2.65 3.01 5.46 4.5 7.92 1.38 2.57 3.89 4.04 6.32 4.59 2.44.58 4.79.51 6.81.22 2.03-.29 3.74-.82 5.12-1.33 1.36-.55 2.39-1.09 3.07-1.49l1.03-.64-1.02.66c-.67.42-1.7.97-3.05 1.54-1.37.54-3.09 1.1-5.13 1.42-2.03.32-4.4.43-6.89-.15-1.24-.29-2.51-.77-3.64-1.56-.6-.36-1.1-.86-1.61-1.36-.43-.55-.92-1.11-1.25-1.75l-4.54-7.88-1.37-1.95-1.52-1.89c-.99-1.28-2.01-2.69-2.28-4.41-.28-1.77.51-3.35.87-4.96.23-.81.42-1.62.51-2.43.18-.8.13-1.65.13-2.49-.02-3.3-1.52-6.57-1.04-9.98.24-1.73 1.28-3.14 2.23-4.43.98-1.31 1.92-2.57 2.47-4.05 1.12-2.92 2.37-5.84 4.27-8.04 1.74-2.41 4.44-3.61 6.85-4.29 2.45-.72 4.8-.84 6.84-.97 2.05-.12 3.86-.11 5.32.11 1.46.21 2.59.65 3.15 1.23.54.6.5 1.09.54 1.06z"/></g></g></svg>