<?xml version="1.0" encoding="UTF-8"?>
<svg id="Layer_1" data-name="Layer 1" xmlns="http://www.w3.org/2000/svg" viewBox="0 0 250 250">
  <defs>
    <style>
      .cls-1 {
        fill: #262626;
      }

      .cls-2 {
        fill: #003893;
      }

      .cls-3 {
        opacity: .2;
      }

      .cls-4 {
        fill: #cee4f2;
      }

      .cls-5 {
        opacity: .22;
      }

      .cls-6 {
        opacity: .44;
      }

      .cls-7 {
        opacity: .11;
      }

      .cls-8 {
        opacity: .66;
      }

      .cls-9 {
        opacity: .55;
      }

      .cls-10 {
        fill: #c22e1b;
      }

      .cls-11 {
        fill: #abcae2;
      }
    </style>
  </defs>
  <path class="cls-10" d="M245.5,126c0,1.13-.02,2.27-.05,3.39-1.8,64.71-54.82,116.6-119.95,116.6-3.18,0-6.33-.13-9.45-.37C54.2,240.82,5.5,189.09,5.5,126,5.5,59.72,59.23,6,125.5,6s120,53.72,120,120Z"/>
  <path class="cls-3" d="M245.46,129.4c-1.8,64.71-54.82,116.6-119.95,116.6-3.18,0-6.33-.13-9.45-.37l-50.49-50.48-13.08-19.26-23.88-23.89s72.96-45.64,76.73-49.71c3.77-4.08,40.61-49.2,40.61-49.2l33.85,33.85,9.89,9.89,7.77-15.45,.77,.76,.03,.04,23.15,23.14,24.07,24.08Z"/>
  <g>
    <g>
      <path class="cls-4" d="M150.52,105.56l23.28,49.66c1.05,2.23,.09,4.88-2.15,5.93l-82.92,38.87c-2.23,1.04-4.87,.08-5.92-2.15l-23.28-49.66c-1.04-2.23-.08-4.87,2.14-5.92l82.92-38.87c2.23-1.05,4.88-.09,5.93,2.14Z"/>
      <path class="cls-11" d="M198.71,82.97l23.28,49.66c1.05,2.23,.09,4.88-2.14,5.93l-40.13,18.81c-2.23,1.05-4.88,.09-5.93-2.15l-23.28-49.66c-1.04-2.23-.08-4.87,2.15-5.92l40.13-18.81c2.23-1.04,4.87-.08,5.92,2.14Z"/>
      <path class="cls-2" d="M198.71,82.97l2.87,6.12L62.39,154.33l-2.87-6.12c-1.04-2.23-.08-4.87,2.14-5.92l82.92-38.87c2.23-1.05,4.88-.09,5.93,2.14-1.04-2.23-.08-4.87,2.15-5.92l40.13-18.81c2.23-1.04,4.87-.08,5.92,2.14Z"/>
      <path class="cls-2" d="M221.69,132l.3,.64c1.05,2.23,.09,4.88-2.14,5.93l-40.13,18.81c-2.23,1.05-4.88,.09-5.93-2.15,1.05,2.23,.09,4.88-2.15,5.93l-82.92,38.87c-2.23,1.04-4.87,.08-5.92-2.15l-.3-.64,139.19-65.24Z"/>
      <path class="cls-2" d="M82.94,144.7c1.97,4.21,.16,9.21-4.05,11.18-4.2,1.97-9.21,.16-11.18-4.05-1.97-4.21-.16-9.21,4.05-11.18,4.2-1.97,9.21-.16,11.18,4.05Z"/>
      <path class="cls-4" d="M79.34,156.84c-4.73,2.22-10.38,.17-12.59-4.56-2.22-4.73-.17-10.38,4.56-12.59,4.73-2.22,10.38-.17,12.59,4.56,2.22,4.73,.17,10.38-4.56,12.59Zm-7.14-15.23c-3.67,1.72-5.26,6.1-3.54,9.77,1.72,3.67,6.1,5.26,9.77,3.54,3.67-1.72,5.26-6.1,3.54-9.77-1.72-3.67-6.1-5.26-9.77-3.54Z"/>
      <path class="cls-4" d="M81.31,149.59c-.08-.12-.17-.25-.3-.38-.01-.01-.02-.02-.03-.04,0,0,0,0,0,.01-.12-.12-.25-.25-.41-.37-.02-.02-.05-.04-.07-.06-.14-.1-.3-.2-.48-.3h0s-.04-.02-.07-.04c-.54-.28-1.27-.53-2.21-.7,1.32-2.16,1.64-3.63,1.64-3.63h0s-.66-.97-.66-.97c-.02-.02-.04-.04-.06-.04-.06,0-.1,.06-.07,.13l.35,.86-2.9,3.18c-.36-.09-.71-.18-1.04-.26-.29-.04-1.02-.28-1.52-.47-.35-.13-.65-.36-.87-.66l-.59-.82s-.04-.04-.07-.06c.38-.31,.63-.58,.76-.72,.06-.07,.08-.16,.07-.26,0-.03-.04-.05-.06-.03l-1.03,.85s-.02,0-.02,0c-.11-.01-.2,0-.26,0-.07,.01-.08,.12-.02,.17l.03,.02-1.5,.78s-.02,.07,.01,.08c.11,.03,.22,.03,.32,0,.26-.09,.82-.31,1.39-.62l.92,1.57c.48,.83,1.1,1.19,1.11,1.19,.04,.03,.08,.05,.11,.08,.16,.11,.34,.21,.53,.3,.07,.03,.15,.07,.24,.11l-3.23,1.98c-.2,.11-.4,.22-.59,.33-.04,.02-.08,.05-.11,.09,0,0,0,0,0,0l-1.24,.76-.24-.31s-.11-.01-.09,.05c0,.01,0,.02,.01,.03l.42,.56s.51-.1,1.33-.33c1.33-.38,3.5-1.1,5.69-2.33,1.69,.69,3.82,1.43,4.79,1.27,.23-.04,.36-.31,.26-.57-.04-.1-.1-.22-.17-.35-.02-.03-.04-.06-.06-.1Z"/>
      <g class="cls-6">
        <rect class="cls-11" x="96.62" y="121.99" width="27.98" height="2.81" transform="translate(-41.91 58.61) rotate(-25.11)"/>
      </g>
      <g class="cls-6">
        <rect class="cls-11" x="86.19" y="126.21" width="52.79" height="2.81" transform="translate(-43.52 59.84) rotate(-25.11)"/>
      </g>
      <g class="cls-6">
        <rect class="cls-11" x="160.5" y="92.98" width="29.29" height="4.63" transform="translate(-23.89 83.34) rotate(-25.11)"/>
      </g>
      <g class="cls-9">
        <rect class="cls-2" x="71.27" y="158.06" width="14.92" height="4.43" transform="translate(-60.58 48.56) rotate(-25.11)"/>
      </g>
      <g class="cls-5">
        <rect class="cls-2" x="85.54" y="140.75" width="60.25" height="4.43" transform="translate(-49.74 62.6) rotate(-25.11)"/>
      </g>
      <g class="cls-9">
        <rect class="cls-2" x="74.15" y="163.7" width="19.48" height="4.43" transform="translate(-62.48 51.29) rotate(-25.11)"/>
      </g>
      <g class="cls-5">
        <rect class="cls-2" x="92.98" y="146.39" width="55.68" height="4.43" transform="translate(-51.64 65.32) rotate(-25.11)"/>
      </g>
      <g class="cls-9">
        <rect class="cls-2" x="77.61" y="172" width="11.19" height="4.43" transform="translate(-66.07 51.78) rotate(-25.11)"/>
      </g>
      <g class="cls-5">
        <rect class="cls-2" x="88.15" y="154.69" width="63.98" height="4.43" transform="translate(-55.23 65.82) rotate(-25.11)"/>
      </g>
      <g class="cls-9">
        <rect class="cls-2" x="80.01" y="175.51" width="25.58" height="4.43" transform="translate(-66.65 56.18) rotate(-25.11)"/>
      </g>
      <g class="cls-5">
        <rect class="cls-2" x="104.94" y="158.2" width="49.59" height="4.43" transform="translate(-55.82 70.22) rotate(-25.11)"/>
      </g>
      <g class="cls-5">
        <rect class="cls-2" x="164.28" y="109.3" width="36.95" height="4.43" transform="translate(-30.05 88.1) rotate(-25.11)"/>
      </g>
      <g class="cls-5">
        <rect class="cls-2" x="168.77" y="115.91" width="34.15" height="4.43" transform="translate(-32.57 90.04) rotate(-25.11)"/>
      </g>
      <g class="cls-5">
        <rect class="cls-2" x="177.79" y="135.15" width="34.15" height="4.43" transform="translate(-39.88 95.68) rotate(-25.11)"/>
      </g>
      <g class="cls-5">
        <rect class="cls-2" x="169.3" y="122.45" width="39.23" height="4.43" transform="translate(-35.05 91.96) rotate(-25.11)"/>
      </g>
      <g class="cls-5">
        <rect class="cls-2" x="160.05" y="102.73" width="39.23" height="4.43" transform="translate(-27.55 86.17) rotate(-25.11)"/>
      </g>
      <g class="cls-5">
        <rect class="cls-2" x="176.79" y="129.02" width="30.41" height="4.43" transform="translate(-37.55 93.88) rotate(-25.11)"/>
      </g>
      <g class="cls-6">
        <rect class="cls-11" x="141.85" y="110.88" width="6.91" height="2.81" transform="translate(-33.92 72.28) rotate(-25.11)"/>
      </g>
      <g class="cls-7">
        <rect class="cls-2" x="81.85" y="175.83" width="57.51" height="4.53" transform="translate(-65.13 63.77) rotate(-25.11)"/>
      </g>
      <g class="cls-8">
        <rect class="cls-1" x="143.58" y="120.45" width="10.43" height="1.29" transform="translate(-37.33 74.59) rotate(-25.11)"/>
        <rect class="cls-1" x="145.93" y="125.17" width="10.43" height="1.87" transform="translate(-39.23 76.06) rotate(-25.11)"/>
        <rect class="cls-1" x="144.67" y="123.25" width="10.43" height=".35" transform="translate(-38.21 75.28) rotate(-25.11)"/>
        <rect class="cls-1" x="147.16" y="128.56" width="10.43" height=".35" transform="translate(-40.23 76.83) rotate(-25.11)"/>
        <rect class="cls-1" x="147.44" y="129.15" width="10.43" height=".35" transform="translate(-40.45 77.01) rotate(-25.11)"/>
        <rect class="cls-1" x="144.28" y="122.18" width="10.43" height=".8" transform="translate(-37.89 75.03) rotate(-25.11)"/>
        <rect class="cls-1" x="145.08" y="123.89" width="10.43" height=".8" transform="translate(-38.54 75.53) rotate(-25.11)"/>
        <rect class="cls-1" x="148.78" y="131.54" width="10.43" height="1.29" transform="translate(-41.54 77.85) rotate(-25.11)"/>
        <rect class="cls-1" x="151.13" y="136.26" width="10.43" height="1.87" transform="translate(-43.45 79.32) rotate(-25.11)"/>
        <rect class="cls-1" x="149.87" y="134.33" width="10.43" height=".35" transform="translate(-42.43 78.53) rotate(-25.11)"/>
        <rect class="cls-1" x="149.47" y="133.26" width="10.43" height=".8" transform="translate(-42.1 78.28) rotate(-25.11)"/>
        <rect class="cls-1" x="150.28" y="134.98" width="10.43" height=".8" transform="translate(-42.76 78.78) rotate(-25.11)"/>
        <rect class="cls-1" x="146.75" y="127.45" width="10.43" height=".8" transform="translate(-39.89 76.58) rotate(-25.11)"/>
        <rect class="cls-1" x="148.03" y="130.18" width="10.43" height=".8" transform="translate(-40.93 77.38) rotate(-25.11)"/>
        <rect class="cls-1" x="152.26" y="139.43" width="10.43" height=".35" transform="translate(-44.36 80.03) rotate(-25.11)"/>
        <rect class="cls-1" x="152.53" y="140.02" width="10.43" height=".35" transform="translate(-44.59 80.2) rotate(-25.11)"/>
        <rect class="cls-1" x="153.88" y="142.41" width="10.43" height="1.29" transform="translate(-45.68 81.04) rotate(-25.11)"/>
        <rect class="cls-1" x="156.22" y="147.13" width="10.43" height="1.87" transform="translate(-47.58 82.51) rotate(-25.11)"/>
        <rect class="cls-1" x="154.97" y="145.21" width="10.43" height=".35" transform="translate(-46.56 81.72) rotate(-25.11)"/>
        <rect class="cls-1" x="154.57" y="144.14" width="10.43" height=".8" transform="translate(-46.24 81.47) rotate(-25.11)"/>
        <rect class="cls-1" x="155.37" y="145.85" width="10.43" height=".8" transform="translate(-46.89 81.98) rotate(-25.11)"/>
        <rect class="cls-1" x="151.84" y="138.32" width="10.43" height=".8" transform="translate(-44.03 79.77) rotate(-25.11)"/>
        <rect class="cls-1" x="153.13" y="141.05" width="10.43" height=".8" transform="translate(-45.07 80.57) rotate(-25.11)"/>
        <rect class="cls-1" x="157.86" y="150.91" width="10.43" height="1.29" transform="translate(-48.9 83.53) rotate(-25.11)"/>
        <rect class="cls-1" x="158.55" y="152.63" width="10.43" height=".8" transform="translate(-49.47 83.97) rotate(-25.11)"/>
        <rect class="cls-1" x="157.11" y="149.55" width="10.43" height=".8" transform="translate(-48.29 83.06) rotate(-25.11)"/>
      </g>
    </g>
    <g>
      <path class="cls-4" d="M105.68,87.92l35.88,41.48c1.61,1.87,1.41,4.68-.46,6.29l-69.26,59.92c-1.86,1.61-4.67,1.4-6.28-.46l-35.88-41.48c-1.61-1.86-1.4-4.67,.45-6.28l69.26-59.92c1.87-1.61,4.68-1.41,6.28,.45Z"/>
      <path class="cls-11" d="M145.93,53.09l35.88,41.48c1.61,1.87,1.41,4.68-.45,6.28l-33.52,28.99c-1.87,1.61-4.68,1.41-6.29-.46l-35.88-41.48c-1.61-1.86-1.4-4.67,.46-6.28l33.52-28.99c1.86-1.61,4.67-1.4,6.28,.45Z"/>
      <path class="cls-2" d="M145.93,53.09l4.42,5.11L34.1,158.77l-4.42-5.11c-1.61-1.86-1.4-4.67,.45-6.28l69.26-59.92c1.87-1.61,4.68-1.41,6.28,.45-1.61-1.86-1.4-4.67,.46-6.28l33.52-28.99c1.86-1.61,4.67-1.4,6.28,.45Z"/>
      <path class="cls-2" d="M181.35,94.04l.46,.54c1.61,1.87,1.41,4.68-.45,6.28l-33.52,28.99c-1.87,1.61-4.68,1.41-6.29-.46,1.61,1.87,1.41,4.68-.46,6.29l-69.26,59.92c-1.86,1.61-4.67,1.4-6.28-.46l-.46-.54,116.26-100.57Z"/>
      <path class="cls-2" d="M51.26,143.93c3.04,3.51,2.65,8.82-.86,11.86-3.51,3.04-8.82,2.65-11.86-.86-3.04-3.51-2.65-8.82,.86-11.86,3.51-3.04,8.82-2.65,11.86,.86Z"/>
      <path class="cls-4" d="M51.09,156.59c-3.95,3.42-9.94,2.98-13.35-.97-3.42-3.95-2.98-9.94,.97-13.36,3.95-3.42,9.94-2.98,13.35,.97,3.42,3.95,2.98,9.94-.97,13.36Zm-11-12.72c-3.07,2.65-3.4,7.3-.75,10.37,2.65,3.06,7.3,3.4,10.37,.75,3.07-2.65,3.4-7.3,.75-10.37-2.65-3.06-7.3-3.4-10.37-.75Z"/>
      <g class="cls-6">
        <rect class="cls-11" x="58.12" y="114.51" width="27.98" height="2.81" transform="translate(-58.26 75.42) rotate(-40.86)"/>
      </g>
      <g class="cls-6">
        <rect class="cls-11" x="48.76" y="118.03" width="52.79" height="2.81" transform="translate(-59.82 78.28) rotate(-40.86)"/>
      </g>
      <g class="cls-6">
        <rect class="cls-11" x="111.95" y="69.03" width="29.29" height="4.63" transform="translate(-15.83 100.21) rotate(-40.86)"/>
      </g>
      <g class="cls-9">
        <rect class="cls-2" x="43.97" y="157.84" width="14.92" height="4.43" transform="translate(-92.18 72.66) rotate(-40.86)"/>
      </g>
      <g class="cls-5">
        <rect class="cls-2" x="52.16" y="131.16" width="60.25" height="4.43" transform="translate(-67.2 86.33) rotate(-40.86)"/>
      </g>
      <g class="cls-9">
        <rect class="cls-2" x="48.19" y="161.87" width="19.48" height="4.43" transform="translate(-93.23 77.89) rotate(-40.86)"/>
      </g>
      <g class="cls-5">
        <rect class="cls-2" x="60.94" y="135.18" width="55.68" height="4.43" transform="translate(-68.25 91.57) rotate(-40.86)"/>
      </g>
      <g class="cls-9">
        <rect class="cls-2" x="53.93" y="170.04" width="11.19" height="4.43" transform="translate(-98.19 80.92) rotate(-40.86)"/>
      </g>
      <g class="cls-5">
        <rect class="cls-2" x="58.38" y="143.36" width="63.98" height="4.43" transform="translate(-73.22 94.6) rotate(-40.86)"/>
      </g>
      <g class="cls-9">
        <rect class="cls-2" x="56.92" y="170.82" width="25.58" height="4.43" transform="translate(-96.22 87.78) rotate(-40.86)"/>
      </g>
      <g class="cls-5">
        <rect class="cls-2" x="75.76" y="144.14" width="49.59" height="4.43" transform="translate(-71.24 101.45) rotate(-40.86)"/>
      </g>
      <g class="cls-5">
        <rect class="cls-2" x="119.84" y="82.68" width="36.95" height="4.43" transform="translate(-21.84 111.18) rotate(-40.86)"/>
      </g>
      <g class="cls-5">
        <rect class="cls-2" x="126.02" y="88.2" width="34.15" height="4.43" transform="translate(-24.28 115.65) rotate(-40.86)"/>
      </g>
      <g class="cls-5">
        <rect class="cls-2" x="139.92" y="104.27" width="34.15" height="4.43" transform="translate(-31.41 128.66) rotate(-40.86)"/>
      </g>
      <g class="cls-5">
        <rect class="cls-2" x="128.2" y="93.67" width="39.23" height="4.43" transform="translate(-26.7 120.07) rotate(-40.86)"/>
      </g>
      <g class="cls-5">
        <rect class="cls-2" x="113.95" y="77.19" width="39.23" height="4.43" transform="translate(-19.4 106.73) rotate(-40.86)"/>
      </g>
      <g class="cls-5">
        <rect class="cls-2" x="137.36" y="99.15" width="30.41" height="4.43" transform="translate(-29.14 124.51) rotate(-40.86)"/>
      </g>
      <g class="cls-7">
        <rect class="cls-2" x="58.19" y="166.3" width="57.51" height="4.53" transform="translate(-89.09 97.96) rotate(-40.86)"/>
      </g>
      <g class="cls-8">
        <rect class="cls-1" x="103.02" y="102.69" width="10.43" height="1.29" transform="translate(-41.23 95.99) rotate(-40.86)"/>
        <rect class="cls-1" x="106.64" y="106.58" width="10.43" height="1.87" transform="translate(-43.08 99.38) rotate(-40.86)"/>
        <rect class="cls-1" x="104.7" y="105.1" width="10.43" height=".35" transform="translate(-42.09 97.57) rotate(-40.86)"/>
        <rect class="cls-1" x="108.54" y="109.54" width="10.43" height=".35" transform="translate(-44.05 101.16) rotate(-40.86)"/>
        <rect class="cls-1" x="108.96" y="110.03" width="10.43" height=".35" transform="translate(-44.27 101.55) rotate(-40.86)"/>
        <rect class="cls-1" x="104.09" y="104.17" width="10.43" height=".8" transform="translate(-41.78 97) rotate(-40.86)"/>
        <rect class="cls-1" x="105.33" y="105.6" width="10.43" height=".8" transform="translate(-42.41 98.15) rotate(-40.86)"/>
        <rect class="cls-1" x="111.03" y="111.95" width="10.43" height="1.29" transform="translate(-45.33 103.49) rotate(-40.86)"/>
        <rect class="cls-1" x="114.65" y="115.84" width="10.43" height="1.87" transform="translate(-47.19 106.88) rotate(-40.86)"/>
        <rect class="cls-1" x="112.71" y="114.36" width="10.43" height=".35" transform="translate(-46.19 105.06) rotate(-40.86)"/>
        <rect class="cls-1" x="112.1" y="113.43" width="10.43" height=".8" transform="translate(-45.88 104.49) rotate(-40.86)"/>
        <rect class="cls-1" x="113.34" y="114.86" width="10.43" height=".8" transform="translate(-46.52 105.65) rotate(-40.86)"/>
        <rect class="cls-1" x="107.9" y="108.57" width="10.43" height=".8" transform="translate(-43.73 100.56) rotate(-40.86)"/>
        <rect class="cls-1" x="109.87" y="110.85" width="10.43" height=".8" transform="translate(-44.74 102.41) rotate(-40.86)"/>
        <rect class="cls-1" x="116.4" y="118.62" width="10.43" height=".35" transform="translate(-48.08 108.51) rotate(-40.86)"/>
        <rect class="cls-1" x="116.82" y="119.11" width="10.43" height=".35" transform="translate(-48.3 108.91) rotate(-40.86)"/>
        <rect class="cls-1" x="118.89" y="121.03" width="10.43" height="1.29" transform="translate(-49.36 110.84) rotate(-40.86)"/>
        <rect class="cls-1" x="122.51" y="124.92" width="10.43" height="1.87" transform="translate(-51.22 114.23) rotate(-40.86)"/>
        <rect class="cls-1" x="120.57" y="123.44" width="10.43" height=".35" transform="translate(-50.22 112.42) rotate(-40.86)"/>
        <rect class="cls-1" x="119.96" y="122.51" width="10.43" height=".8" transform="translate(-49.91 111.85) rotate(-40.86)"/>
        <rect class="cls-1" x="121.2" y="123.94" width="10.43" height=".8" transform="translate(-50.54 113) rotate(-40.86)"/>
        <rect class="cls-1" x="115.76" y="117.65" width="10.43" height=".8" transform="translate(-47.75 107.91) rotate(-40.86)"/>
        <rect class="cls-1" x="117.73" y="119.94" width="10.43" height=".8" transform="translate(-48.77 109.76) rotate(-40.86)"/>
        <rect class="cls-1" x="125.03" y="128.12" width="10.43" height="1.29" transform="translate(-52.51 116.59) rotate(-40.86)"/>
        <rect class="cls-1" x="126.1" y="129.61" width="10.43" height=".8" transform="translate(-53.05 117.59) rotate(-40.86)"/>
        <rect class="cls-1" x="123.87" y="127.03" width="10.43" height=".8" transform="translate(-51.91 115.5) rotate(-40.86)"/>
      </g>
    </g>
  </g>
</svg>