<?xml version="1.0" encoding="UTF-8"?>
<svg id="Layer_1" data-name="Layer 1" xmlns="http://www.w3.org/2000/svg" viewBox="0 0 50 50">
  <defs>
    <style>
      .cls-1 {
        fill: #e6e5e5;
        fill-rule: evenodd;
      }
    </style>
  </defs>
  <path class="cls-1" d="M43.89,0C47.26,0,50,2.74,50,6.11V43.89c0,3.37-2.74,6.11-6.11,6.11h-10.4V31.16h6.5l1.24-8.07h-7.74v-5.24c0-2.21,1.08-4.36,4.55-4.36h3.52V6.63s-3.19-.55-6.25-.55c-6.38,0-10.54,3.86-10.54,10.86v6.15h-7.09v8.07h7.09v18.84H6.11c-3.37,0-6.11-2.74-6.11-6.11V6.11C0,2.74,2.74,0,6.11,0H43.89Z"/>
</svg>