<svg xmlns="http://www.w3.org/2000/svg" viewBox="0 0 401.49 285.5" xmlns:v="https://vecta.io/nano"><path d="M-5.11 30.85H406.8v257.44H-5.11z" fill="#a48d96"/><path d="M-5.11-5.56H406.8v60.83H-5.11z" fill="#192365"/><path d="M399.97 53.71l-5.9 1.82c-29.98 1.43-59.33-.61-89.14-.29-66.16-.46-132.31.38-198.44-.06-21.6.16-43.23-.28-64.82.57-17.53.69-33.05-.29-45.68-2.04-2.17-1-1.53-1.87 5.68-2.48l404.94.29-6.64 2.17z" fill="#221625"/><path d="M406.72 130.42l.09 153.87c0 3.42-.62 4.12-3.82 4.1l-86.59-.1c-1.33-4.01-1.3-8.05-.26-12.11.5-1.93 1.35-3.71 2.3-5.43 3.84-6.99 6.77-14.17 8.74-22.23 3.83-15.66 6.59-31.3 6.74-47.5.04-4.42.73-8.91 2.19-13.15.11-.76.2-1.53.29-2.3-.97-8.74 5.86-13.89 8.42-21.01 1.73-2.31 3.02-5.02 5.35-6.78 7.25-6.93 13.81-14.67 22.54-19.77 7.08-4.14 14.22-8 22.12-9.73 4.03-.88 8.33-1.12 11.89 2.14z"/><path d="M339.47 187.37c-2.49 13.57-1.92 27.43-3.93 41.06-.9 6.13-3.75 11.74-4.53 17.83-1.28 9.97-5.65 18.59-10.9 26.93-1.67 2.65-2.9 5.6-1.96 8.99.64 2.29-.78 4.15-1.68 6.1h-18.99c-.65-4.63 3.75-4.33 5.98-6.15 3.67.2 5.86-1.61 6.84-5.05.41-1.44.98-2.8 1.84-4.02 2.5-3.56 2-7.11 0-10.66-1.92-5.2-1.17-10.91-3.06-16.11.42-2.67-1.38-5.08-.92-7.75 1.85-1.91 3.57-3.86 3.67-6.77.03-.99.63-2.07 1.49-2.5 4.45-2.25 3.47-5.35 1.59-8.72-1.22-2.19-2.14-4.53-2.6-6.99-1.33-7.16-4.33-13.6-8.35-19.59-2.08-3.11-3.27-6.5-4.04-10.11-1.31-6.12.09-8.53 6.98-11.82 5.45-2.61 7.74-2.01 11.61 2.65 2.03 2.44 3.31 5.39 5.51 7.61-4.92-9.35-11.74-14.85-23.32-13.01-6.67 1.06-13.59.61-20.35 1.54-1.33.18-2.63.48-3.89.88-4.67 1.48-5.71 5.75-2.44 9.94.04 1.17-.47 2.06-1.42 2.72-6.1.89-9.44-2.02-9.2-8.02.46-11.62 1.82-12.52 13.82-13.63 10.31-.95 20.55-.93 30.83-.31 6 .36 11.35 2.04 14.89 7.44 2.27 3.47 5.41 6.32 7.48 9.95 2.08 3.66 5.74 5.4 9.04 7.58z" fill="#0f0908"/><path d="M91.63 288.29H78.64c-2.58-2.01-1.82-4.57-1.18-7.11 2-3.96 1.31-8.15 1.01-12.31.06-2.05.24-4.1-.64-6.05-.39-1.56.07-3.15-.12-4.71-.3-2.61-.51-5.22-.47-7.84 1.38-4.33-3.21-6.42-3.86-10.11-.33-1.87-1.58-3.58-.76-5.63.35-.72.9-1.31 1.29-1.99.15-.53.22-1.07.18-1.62-.07-.6-.2-1.18-.4-1.75-.26-1.29-.29-2.65-1.08-3.79-1.44-3.36-2.57-6.79-2.84-10.46.05-1.45-.42-2.82-.68-4.22a8.5 8.5 0 0 1-.48-2.11c-.25-1.21-.55-2.41-.67-3.64-.21-1.25-.63-2.49-.26-3.78.23-2.78.34-5.56-.45-8.29-1.08-4.79-.72-9.85-2.91-14.47-.58-1.22-.56-3.54.91-4.04 5.48-1.86 4.21-6.67 5.08-10.57.99-4.03.7-8.15.85-12.23 0-.93.11-1.86.27-2.77.21-1.28.2-2.52-.88-3.48-.48-.7-.94-1.41-1.48-2.06-.48-.51-.9-1.05-1.25-1.66-1.13-1.51-2.02-3.06-1.03-5 1.27-2.42 3.1-4.01 5.99-3.39 2.86.62 4.58 2.51 5.14 5.41.18 3.12-.06 6.31 1.21 9.29-.18 1.5.09 2.9 1.07 4.12-.2 2.25.92 3.27 3.09 3.35a3.1 3.1 0 0 1 1.34 1.68c.27 1.02-.09 1.93-.51 2.82.09.91-1.63 1.09-.86 2.25 1.72.4 2.58 1.49 2.72 3.18-.84 3.99.6 8.48-2.67 11.92-2.52.84-5.05 2.02-3.2 5.21 4.92 8.47 6.18 18.82 12.94 26.24 4.45 4.89 6.64 11.27 11.45 15.83 1.79 1.69.95 3.5-.86 4.51-1.62.9-3.2 1.72-4.23 3.31-2.94 3.86.88 7.22.79 10.86-.14 1.02-.34 2.03-.34 3.06 1.22 4.23.81 8.54.73 12.84.06 2.13.27 4.28-.66 6.3-.57 1.4-.95 2.87-1.5 4.27-.26 1.67-1.05 3.2-1.35 4.87-.22.96-.5 1.9-.57 2.9-.96 3.93-.6 8.46-4.89 10.9z" fill="#060306"/><path d="M161.58 288.29H131.6c-2.06-4.28-.7-6.94 5.41-10.56-5.08.4-5.36-.1-5.1-5.19.28-5.55 1.05-11.24-1.78-16.49-.96-1.67-1.27-3.58-1.93-5.35-1.13-2.96-3.46-5.34-4.19-8.5-3.33-7.35-2.85-15.94-7.44-22.88 1.65-6.07-1.89-11.12-3.29-16.59-.24-2.19-.27-4.44-2.01-6.14-.56-3.21-4.95-4.88-3.63-8.86 1.02-1.61 2.29-2.93 4.2-3.47q9.59-.24 13.66 9.17c.97 2.26 1.86 3.25 4.84 1.97 7.5-3.22 12.66-4.16 20.19 3.38 2.6 2.6 6.21 3.09 9 5.18.46.25.85.57 1.19.97 3.64 2.1 3.66 5.49 3.25 9.03-1.4 3.09-3.9 3.42-6.62 2.26-3.33-1.43-6.9-2.36-9.24-4.08.11.07.94.45 1.71.95 1.59 1.06 4.08 1.75 2.88 4.35-1.11 2.38-3.51 2.1-5.69 1.72-1.53-.27-2.56-1.48-3.84-2.21-.83-.47-1.83-1.19-2.64-.12-.93 1.23-.1 2.18.84 2.95 1.16.95 2.55 1.54 3.87 2.22 2.45 1.25 4.81 2.51 3.89 5.97-.23.87.04 1.94.79 2.18 3.56 1.15 2.82 4.42 3.65 6.93.34 1.19.33 2.48-.5 3.32-1.85 1.89-1.21 3.33.15 5.18 1.56 2.13 3.26 4.8.12 6.91-2.8 1.88-4.52-.41-6.21-2.32-.55-.62-1.78-4.01-1.89.23.86 3.49 3.35 6.47 3.17 10.27-.38 1.72-2.03 3.42-.01 5.15 3.22 1.48 5.86 3.65 7.43 6.83.84 1.7 2.3 2.72 3.52 4.02 1.15 3.79 4.87 7.09 2.25 11.6z" fill="#020104"/><path d="M234.53 288.29h-14.99c-2.33-1.2-4.79-2.25-5.83-4.96-1.15-3.08-4.16-4.85-5.56-7.75-.29-.83-.56-1.67-1.06-2.41-.89-1.73-2.72-2.85-3.19-4.86l-1.05-1.72c-4.18-5.73-7.79-11.82-11.39-17.93-.73-2.42-1.12-4.91-1.49-7.4-.21-.81-.11-1.59.18-2.35.86-2.89 1.36-6.06 5.1-6.77 5.35 1.32 9.45 4.74 13.23 8.44 3.04 2.98 6.35 4.44 10.64 4.51 6.36.11 12.37 2.32 18.46 3.9 5.36 1.39 10.64 1.23 16.76.44-2.77-3.6-6.02-4.88-9.02-6.46-3.67-1.94-7.49-3.65-10.48-6.63-1.83-1.82-3.43-3.77-1.65-6.55.4-.4.87-.67 1.41-.83 2.73-1.08 5.02-.57 6.79 1.84 2.28 5.06 7.44 6.37 11.75 8.57 5.57 2.85 9.74 6.9 12.62 12.32 3.29 6.19.83 9.94-6.06 11.02-11.45 1.8-21.89.03-32.27-5.32-4.61-2.37-10.21-3.23-13.28-4.47 2.23.84 6.66 1.94 9.26 6.14.62 1 2.18.67 3.18 1.27 2.15 1.66 2.85 4.12 3.63 6.54 2.05 2.56 1.08 5.84 2.09 8.65 1.55 2.33 1.7 5.26 3.22 7.6.45 1.89.64 3.72-1.02 5.19z" fill="#0b0707"/><path d="M131.59 255.32c3.43 5.54 1.65 11.62 1.82 17.5.03 1.11-.89 2.46.24 3.25 1.28.88 2.04-.54 2.88-1.24 1.37-1.13 2.5-2.9 4.66-2 .4.17.73 1.11.68 1.65-.24 2.37-.75 4.72-3.41 5.56-4.09 1.29-6.13 4.2-6.86 8.24h-13.99c-.96-.9-1.5-2.06-1.98-3.26-.67-2.56-1.27-5.15-1.52-7.79 0-1.11 0-2.22-.17-3.32-.35-1.5-.24-3.08-.8-4.54-.13-1.18-1.02-2.11-1.07-3.32-1.04-2.86-1.12-5.83-.94-8.8.2-3.38-.71-6.19-3.59-8.17-.96-1.03-1.8-2.14-2.43-3.39-.91-1.28-2.03-2.39-3.01-3.61-3.23-3.2-3.74-7.67-5.41-11.6 1.72-2.23 4.18-3.13 6.92-3.48-8.36-12.08-18.75-22.52-22.4-37.09-.51-2.02-1.93-3.84-3.02-5.69-3.24-5.46-2.79-6.53 3.45-7.86 2.72 1.36 3.99 3.96 5.31 6.43 1.44 2.69 3.07 5.14 5.66 6.83 2.52 1.64 3.55 4.07 3.11 6.87-.68 4.33.57 7.88 3.6 10.89 1.47 1.46 1.14 3.85 2.74 5.22 5.05 11.34 12.88 21.17 17.81 32.57.61 1.41 1.63 2.48 2.62 3.59 1.9 3.1 2.77 6.55 3.36 10.09 1.56 2.23-.16 5.01 1.23 7.27 1.04 2.1.64 4.45 1.13 7.21 1.08-4.69 1.89-8.86 1.93-13.17.02-1.7-.69-3.73 1.45-4.84z" fill="#120c0b"/><path d="M161.58 288.29l-4.02-10.98c-1.77-2.83-1-4.73 2.19-5.53 1.19-.3 2.01-1.1 3.03-1.6 2.71-1.32 3.33-2.68 1.11-5.23-1.92-2.21-3.51-4.74-2.55-8.13.77-2.71-1.71-4.64-2.9-6.54-1.53-2.45-2.4-5.01-3.42-7.58-.58-1.5-1.76-2.82-1.4-4.6.38-2.04.43-4.26-1.39-5.43-3.15-2.02-2.44-5.23-2.73-7.97-.32-3.03 2.04-4.15 4.77-4.5 5.29-.68 10.43.72 15.64 1.04 3.07 1.86 3.74 4.73 3.41 8.03-.04 1.74.45 3.4.84 5.07 1.06 2.47 2.17 4.92 2.33 7.66 1.28 2.88 1.27 6.03 1.96 9.03.11.67.26 1.33.56 1.94.6 1 1.6 1.77 1.71 3.04-1.31 5.36-1.57 10.74-.45 16.16.26.7.56 1.38.74 2.1 1.11 4.02 2.19 8.06 3.48 12.03-.03.8-.41 1.44-.94 2.01h-21.98z" fill="#1c140e"/><path d="M289.96 286.92h-31.65c-1.79-2.72-3.1-5.62-3.18-8.95 2.11-2.86 1.38-7.7 6.08-8.77 3.61 1.43 7.55.57 11.26 1.55 1.82.48 3.21-1.08 4.47-2.29 4.43-4.25 8.16-8.91 10.55-14.73 3.2-7.8 12.36-9.4 18.05-3.48 1.65 7.2-.08 13.71-4.03 19.76-2.17 6.78-6.79 11.89-11.54 16.92z" fill="#170e0f"/><path d="M339.47 187.37c-4.61.02-7.65-2.33-10.18-6.07-2.78-4.11-6.02-7.93-9.2-11.76-5-6.01-12.23-5.21-18.9-5.8-8.12-.72-16.22-.07-24.35.54-8.89.66-10.03 2.45-10.9 11.19-.62 6.16 1.49 7.66 6.57 7.9-.42 6.1 2.67 11.3 4.19 16.92 1.59 5.9 5.15 10.3 9.14 14.43 2.13 2.21 2.66 5.11 4.61 7.47 4.33 5.24 8.3 10.85 10.17 17.68.92 3.37-1.14 5.25-2.41 7.65-2.35 1.64-5.04 2.8-7.79 2.84-5.24.09-8.29 3.04-11.42 6.71-1.89 2.21-2.79 6.46-7.3 5.37-4.22-5.78-3.18-11.05 2.81-14.27 1.02-.55 2.06-1.05 3.08-1.54 1.25-.41 2.57-.57 3.86-.89q6.77-1.71 5.48-7.99c.08-7.8-4.8-15.21-11.66-17.66-2.18-1.08-3.12-2.84-2.94-5.26.55-7.24-3.38-12.95-6.63-18.83-1.12-2.02-3.4-2.49-5.69-2.4-2.82.12-5.65.15-8.47.04-8.62-.33-12.55-5.02-11.32-13.49.23-2.18 2.27-2.77 3.54-4.05.87-.66 1.84-.92 2.91-.71 1.83.59 2.76 2.06 2.59 3.78-.39 3.93 1.75 4.95 5.04 4.93 1.94-.01 3.82 1.02 6.42.33-5.02-8.77-3.39-16.71 2.55-24.11.56-.38 1.15-.77 1.82-.78 14.4-.24 28.79-2.27 43.16-.94 5.4.5 11.85.12 15.43 6.02 3.83 5.14 6.73 11.04 12.03 15.01.9 1.6 1.85 3.17 3 4.62a8.62 8.62 0 0 0 .75 1.14v1.99z" fill="#0f0a09"/><path d="M136.52 14.52c-1.71-.1-3.53.31-4.92-1.15 1.64-.99 3.69-1.18 4.91-3.04.71-1.09 2-.89 3.02 0 5.15-2.42 10.57-2.37 16.05-1.8 5.49.24 8.44 2.81 8.26 8.61-.06 2.09.54 4.21.83 6.31a3.68 3.68 0 0 1 1.07 1.34c.43 1.43.52 2.81-.45 4.08-4.75 1.75-6.89.67-7.97-4.3-.62-2.87-.84-5.83-3.33-7.87-3.31-3.44-6.98-.32-10.47-.57-2.61.63-5.04.51-6.99-1.63z" fill="#29121c"/><path d="M100.66 213.35c-3.72-5.4-9.62-9.87-7.19-17.84.6-1.97-1.15-3.27-2.68-4.37-5.1-3.65-7.54-8.96-9.16-14.77 2.28-3.35 1.39-7.58 3.09-11.1.55-.46 1.15-.77 1.88-.82 2.52.31 4.42-.46 5.68-2.84.92-1.75 2.42-2.64 4.5-1.89 3.22.97 6.52.03 9.77.45 5.29.69 7.65 3.22 7.86 8.7-.78 1.63-2.45 2.29-3.74 1.56-3.96-2.26-6.29-.4-8.49 2.64-.61.85-1.74.88-2.77.67.78.18 1.58.14 2.37.13 1.45-.02 2.83.31 3.06 1.9.23 1.65-1.26 2.15-2.49 2.67-1.58.68-3.31.23-4.93.62 1.95-.36 3.94-.2 5.88-.87 2.63-.9 4.98.11 6.68 2.16 1.74 2.1.68 4-.95 5.71-.64.67-.53 1.52-.41 2.36.92 2.87 4.88 3.61 4.93 7.08-.15 2.62.34 5.17.93 7.7.2 1.46.83 2.76 1.31 4.13.55 1.56 2.36 3.29.83 4.86-1.44 1.47-3.31-.11-4.99-.33-2.02-.88-3.9-.24-5.74.56-1.68.74-3.33 1.5-5.23.92z" fill="#150d09"/><path d="M68.5 122.41a.9.9 0 0 1 .73-.14c3.36-2.1 6.59-1.48 7.78 2.09 1.22 3.68 3.98 5.54 6.45 7.9.54.94.65 1.93.37 2.97-1.34 2.25-3.41 3.6-5.71 4.68a2.52 2.52 0 0 1-1.42-.32c-3.35-5.41-4.33-5.65-8.91-2.18-.47.6-.76.52-.87-.24-2.66-3.09-2.04-6.32-.4-9.59-.71-2.26-.57-4.18 1.99-5.18z" fill="#170e38"/><path d="M76.69 139.6l.84-.17a3.8 3.8 0 0 1 1.21.51c1.78 1.68 3.6 3.3 5.8 4.43 1.03.71 1.84 1.55 1.78 2.92-.09.74-.4 1.37-.89 1.91-.63.63-1.49.94-2.13 1.57-.4.53-.86.98-1.46 1.29a2.89 2.89 0 0 1-1.3.17l-1.22-.52c-1.63-.52-1.21-2.14-1.74-3.25-2.67-2.71-1.62-5.8-.9-8.85z" fill="#915739"/><path d="M86.51 165.4l-1.79-.13c-.43-1.5-1.58-1.77-2.93-1.71-1.55-1.77 2.51-2.38.86-4.17l.92-1.88c1.47-1.43 3.91 0 5.26-1.8a4.1 4.1 0 0 1 1.99-.69c.74-.03 1.47.05 2.15.37 2.07 1.7 2.18 3.35.17 5.3-1.99 1.92-2.97 5.15-6.62 4.71z" fill="#412015"/><path d="M79.7 151.37c.21.05.42.08.63.09 1.75 1.13 3.48 2.26 2.43 4.8l-4.68 1.43c-1 .27-2.31 1.41-2.97-.07-.59-1.32.89-1.86 1.83-2.47 1.1-.71 2.16-1.48 2.66-2.78-.22-.25-.28-.48-.18-.7.1-.21.19-.31.28-.31z" fill="#61342a"/><path d="M82.76 156.26l-2.43-4.8 1.5-.37c3.56.99 5.62 3.75 7.68 6.52-2.04 3.08-3.99 1.27-5.95-.11l-.8-1.24z" fill="#c57d48"/><path d="M82.65 159.39c4.02 2.27-.41 2.81-.86 4.17-1.24.99-2.58 2.65-3.8.12-1.02-2.13 1.23-1.57 2.06-2.18l2.59-2.11z" fill="#744536"/><path d="M79.7 151.37l-.1 1.01c-1.37-.31-3.28.77-4.05-.91-.71-1.58 1.41-1.94 2.03-3.02l2.11 2.91z" fill="#3b1d1d"/><path d="M158.56 205.37c-3.74-1.47-7.01-3.61-9.94-6.41-6.04-5.78-13.07-5.56-18.61.57-1.74 1.93-3.08 1.82-4.29-.2-1.1-1.84-2.12-3.8-2.76-5.83-2.13-6.76-3.5-7.77-10.61-7.25-.66-3.5 2.57-4.48 4.21-6.5 6.29-4.65 13.22-4.95 20.75-4 7.04.89 14.25.19 21.38.23 3 .02 5.27-1.68 7.85-2.66 4.84.84 5.26 4.83 6.04 8.19-.03-.31.04.78.03.71-.87-5.6.94-7.46 6.28-4.65 2.98 1.57 5.27 4 7.81 6.12.97 1.31 2.13 2.58.82 4.32-3.81 1.94-8.15.02-12 1.63-.48.15-.97.25-1.47.31-3.31-.87-5.52-.35-5.01 3.85.14 1.12.09 2.3-.57 3.33-.69.78-1.42 1.5-2.49 1.75-2.6 1.16-5.15 1.56-7.52-.5a5.46 5.46 0 0 1-2.97-2.52c-4.21-7.74-11.65-9.09-19.35-9.92-1.41-.15-3.46-.64-3.89 1.12-.54 2.19 1.68 2.45 3.2 2.95 2.21.73 4.5.97 6.83 1.09 6.64.32 14.73 6.86 16.64 13.4.08.29-.16.62-.37.89z" fill="#070504"/><path d="M98.51 214.06c3.59-4.02 8.29-5.34 13.39-5.67 5.84 6.83 5.9 15.81 8.51 23.82 1.69 5.19 2.43 10.69 6.14 15l4.58 9.09c1.21 4.82 1.6 9.69.69 14.6-.54 2.93-1.77 5.12-5.34 3.77l-1.91-8.23c3.25-3.73 1.3-7.59.04-11.27-.91-2.65-2.4.75-3.65 0-7.55-13.67-17.49-26.01-22.44-41.13z" fill="#4e301a"/><path d="M169.55 222.34c-4.47 1.01-8.95-.46-13.41.05-2.6.29-6.35-1.05-3.97 4.72 1.03 2.49.54 5.03 3.65 6.81 2.51 1.44-.89 2.86-1.23 4.41-1.13.59-1.47-.4-2.01-1-1.84-1.06-4.21-1.08-5.93-3.05 1.43-1.46 3.22.72 4.64-.63-.48-1.73-2.27-1.46-3.45-2.04-1.59-.78-4.15-.81-4.31-2.84-.19-2.42 2.95-1.36 4.25-2.84-3.81-2.13-8.12-3.33-10.91-6.84-.69-.87-2.2-1.41-.58-3.12 3.68-3.9 3.51-3.92 5.58-2.81 2.92 1.56 5.02 5.19 9.68 3.65-2.65-3.03-7.24-3.42-8.97-7.52 5.7-.74 9.7 3.32 14.57 4.42 1.73.39 3.25 1.8 5.15.62 2 .31 2.39 3.29 4.82 2.9 1.48.56 2.67 1.42 3.17 3 .11.82-.08 1.55-.73 2.11zm-10.99-16.97c-2.62-3.68-6.09-6.55-9.27-9.69-2.18-2.16-5-2.31-7.89-2.33-3.85-.03-7.67-.52-10.88-2.85-1.64-1.19-2.99-2.92-2.35-5.1.66-2.26 2.84-2.06 4.61-1.97 9.35.51 18.71 1.03 24.26 10.46.55.94 1.72 1.53 2.6 2.28-1.06 2.2 1.43 3.48 1.39 5.42.15 1.04.08 2.04-.44 2.97-.32.44-.74.72-1.26.85a9.67 9.67 0 0 1-.76-.04zm-.97 35.96c.24 4.9 2.13 9.08 5.27 12.81.51.6.52 1.96.25 2.81-.89 2.74.3 4.81 1.81 6.85 3.69 4.97 3.16 6.88-2.98 9.09-2.32.84-4.43 1.45-4.38 4.43-4.15-2.73-5.8-8.16-10.79-9.98-1.7-2.02.09-4.16-.21-6.22l-2.99-10.77c1.81-2.67 2.23-2.75 4.21-.42 4.19 4.93 9.76 8.95 10.7 16.05.04.28.52.37 1.3.36-1.54-6.74-3.48-13.26-6.1-19.56-.63-1.51-1.87-2.69-.9-4.53 1.26-2.4 3.23-.45 4.79-.91z" fill="#120d09"/><path d="M157.59 241.33c-3.78.71-4.69 2.45-2.24 5.71 4.58 6.1 4.63 14.1 8.49 20.56 1.26 2.1-.09 3.69-2.62 2.87-3.33-1.07-5.97-2.27-6.46-6.91-.59-5.63-5.72-9.25-8.93-13.7-.44-.61-1.56-.03-2.25.48-1.22-2.15-3.27-5.3-1.17-6.62 2.56-1.61 3.54 2.27 5.07 3.95.11.12.19.27.29.4 1.06 1.44 1.81 3.26 3.97 3.36.72.04 1.32-.39 1.42-1.11.33-2.25-.88-3.8-2.59-4.96-3.1-2.1-3.18-3.9.24-5.77.77-.42 1.19-1.49 1.77-2.25l2.01 1 2.99 3z" fill="#100b0a"/><path d="M125.53 244.99c-4.64-3.23-6.98-8-7.73-13.66-1.02-7.72-2.24-15.37-5.26-22.55l3.35 3.15c.23-3.34-2.03-5.67-2.24-8.6.38-.32.42-1.06 1.1-1.01 1.79 5.42 5.08 10.46 3.47 16.72-.18.71.25 1.81.73 2.45 5.06 6.93 4.24 15.71 6.57 23.49z" fill="#241610"/><path d="M117.13 182.3c-.87 2.19-3.51 2.23-4.78 3.94-1.55.21-2.66 1.17-3.73 2.19l-3.67 1.29c-.87-2.52 1.31-3.21 2.3-4.56.8-1.1 2.64-1.93 1.56-3.71-.83-1.38-2.35-1.8-3.89-1.72l-9.87.61c-.56.02-1.15-.49-1.72-.76 4.44-1.8 9.27-1.91 13.88-3.02 3.22-.77 6.47-.9 9.19-3.13.95-.78 2.18-.74 3.16.27 2.57 3.82-.83 5.94-2.43 8.58z" fill="#b46b31"/><path d="M279.5 248.32q-8.57 4.29-6.99 13.97c1.63 4.67.47 7.56-4.01 10-2.83 1.88-2.11 5.84-4.63 7.9-.42-2.9.13-5.91-1.05-8.71-1.26.24-2.35-.07-3.21-1.06l-8.07-1.17c-5.12-1.27-10.21-2.64-15-4.92-3.29 1.11-6.12.54-8.38-2.23-.63-.78-1.36-1.47-2.52-.99-.15.07-.36.26-.44.21l-19.91-11.43c1.47-2 2.48-.8 3.43-.5 10.12 3.21 20.53 5.52 30.21 10.13 7.52 3.57 15.43.81 23.13.4 3.08-.16 3.82-2.82 2.41-5.67-2.81-5.67-6.72-10.11-12.64-12.89-4.4-2.07-9.46-3.65-11.29-9.06l.83-.97c.39-.45.62-.97.52-1.57-5.04-4.99-8.74-11.03-13.48-16.23-2.38-1.93-3.87-4.68-6.2-6.65-.18-.44-.34-.89-.48-1.34-5.67-11.32-15.45-15.51-27.47-15.83-1.46-.58-3.1-.69-4.38-1.72-.85-1.2-1.34-2.45-.61-3.89.78-.91 1.82-1.12 2.94-1.11 4.23.86 6.93-2.63 10.46-3.82 6.47-2.17 8.06-2.21 12.89 2.49 3.97 3.86 7.16 8.28 9.18 13.47 2.52 6.46 8.53 8.84 14.43 5.07 5.66-3.62 11.67-4.41 18.1-4.09 2.82.14 5.34.75 6.52 3.63 1.28 3.14-.32 5.43-2.46 7.5-.48.46-.93.95-1.44 1.38-6.01 5.06-5.97 5.42 1.06 9.06.44.17.87.39 1.27.64 2.84 3.85 6.19 7.05 10.66 9.02 1.7.75 2.23 2.32 1.95 4.15-.08.49-.16.99-.33 1.45q-2.1 5.85 3.75 5.23c1.51-.17 2.98-.34 4.27.73 2.14 2.61 2.01 4.96-.9 6.86-1 .65-1.48 1.65-2.13 2.55z" fill="#030202"/><path d="M233.53 230.29c1.39 4.64 5.51 6.42 9.18 8.58 3.86 2.27 7.84 4.31 11.79 6.43 2.07 1.11 4.57 2.12 3.65 5.08-.87 2.8-3.58 1.7-5.58 1.92-9.28.98-18.07-1.58-26.91-3.8-.64-.16-1.3-.62-1.9-.55-12.6 1.4-19.33-8.45-28-14.57 1.06-5.02 5.04-5.93 9.23-6.54 3.39-.51 6.79-.87 10.22-.61 1.43-.16 2.78.45 4.18.5 2.24.13 4.39.9 6.64.98 2.56.69 6.02-1.28 7.5 2.57z" fill="#17100b"/><path d="M114.54 59.39c-.27-2.33-.1-4.59 1.09-6.69 2.73-1.04 3.69 1.18 4.73 2.96 2.4-1.43 2.33-4.86 5.32-5.16.72 1.06.91 2.24.74 3.49l-.42 1.43c-2.1 3.29-5.47 4.99-8.65 6.95-1.69-.28-3.24-.71-2.81-2.99z" fill="#491836"/><path d="M124.82 53.23l.86-2.72 1.06-1.06c2.7-1.75 5.26-4.1 8.86-2.13 2.89 1.72 2.03 3.36-.11 4.96-3.6-.23-7.05 1.28-10.67.94z" fill="#6d2d66"/><path d="M261.75 271.02l4.22-10.52c5.06-11.38 14.48-15.94 26.28-16.8 3.6.05 6.92-1.32 10.35-2.1l1.38 5.1-.2 4.35c-5.87-2.6-12.22-.12-14.3 5.76-2.56 7.24-8.16 12.04-13.43 17.12-1.23 1.18-2.84 1.54-4.37.7-1.97-1.1-3.86-1.35-6-.56-2.82 1.05-3.87-.42-3.93-3.04z" fill="#1e1322"/><path d="M327.24 167.43l-3.75-1.02c-4.87-5-11.17-5.87-17.67-5.97-6.8-.1-13.67-.59-20.38.15-7.31.81-14.57 1.87-21.94 1.81-2.06.98-3.05 2.65-3.98 4.76-2.05 4.63-5.86 5.09-9.93 1.62-.65-2.76.24-5.5.12-8.25.79-1.39 1.63-2.74 2.84-3.82 1.94-1.05 4.46.2 6.23-1.56.74-.21 1.51-.29 2.26-.47 6.09-1.78 12.22-.23 18.34-.29 8.93-.63 17.87-.2 26.8-.39 5.05-.11 9.61 2.57 14.66 2.2 4.65 1.76 7.51 6.76 6.41 11.24z" fill="#1b1029"/><path d="M250.8 168.39c3.48 1.96 5.82.25 7.26-2.7 1.2-2.46 2.83-3.51 5.44-3.29-2.3 5.27-5.18 10.31-2.43 16.53.78 1.76 1.07 3.24 3.03 3.9 1.12.38 2.15 1.1 1.84 2.57-.24 1.12-1.15 1.62-2.18 1.75-5.2.66-10.24-.73-15.31-1.4-1.9-.25-1.88-2.47-1.83-4.18.06-1.76 1.27-3.57-.24-5.25-1.24-3.41.59-5.59 3.01-7.54a4.25 4.25 0 0 1 1.4-.4z" fill="#150f0c"/><path d="M241.37 180.25l-2.84.74c-7.68 1.8-10.54-.42-10.93-8.47 1.22-1.16 3.12-1.49 3.17-3.96.05-2.26 1.98-2.22 3.86-1.43-1.39-1.88-1.53-4.09-2.01-6.21.88-2.4-.63-5.09.91-7.4.31-.41.71-.71 1.18-.91 3.46-.41 5.81 3.54 9.47 2.41 1.05.25 1.78.86 2.17 1.87.12.48.13.97.05 1.45-4.11 4.96-4.96 10.38-2.23 16.27.43.93.37 1.91.52 2.88l-3.32 2.76z" fill="#c17533"/><path d="M244.69 177.49c-1.62-1.86-6.05-2.39-5.05-5.05 1.75-4.65-1.58-11.57 5.69-13.89 5.29 2.12 5.2 6.52 4.68 11.09-.63 2.54-2.12 4.62-3.63 6.68l-1.69 1.17z" fill="#e79345"/><path d="M283.49 34.56c2.7 4.48 6.65 8.33 7.09 13.96.95 3.16 3.7 1.51 5.61 2.1 1.35 2.85-2.01 3.36-2.56 5.26-1.7 2.91 1.63 6.86-1.91 9.39-.92.51-1.87.55-2.86.22-1.77-1.62-3.07-3.45-6.11-1.22-2.41 1.78-9.95-1.88-11.2-4.87-.64-1.52-.94-3.2-2.38-4.23-1.21-.87-2.43-1.43-2.75.84-1.1 8-2.81 8.68-9.54 3.84-.26-.19-.44-.48-.62-.77-.72-1.81.49-2.66 1.73-3.49l1.05-.89c2.02-1.85.32-4.26.95-6.31.02-.69.03-1.38.09-2.07.46-1.45.48-2.73-.36-4.2-1.44-2.52-.6-5.13 1.63-6.48 2.1-1.27 4.75-1.17 6.95.57 7.15 5.67 7.35 5.65 13.25-1.57l1.94-.09z" fill="#211110"/><path d="M260.56 32.77c-1.07.08-1.57.89-2.12 1.64-.7 1.76-.85 3.95-3.38 4.24-1.31.02-2.32-.63-3.26-1.45l-.31-.66c1.74-3.32 2.59-7.68 7.93-6.86l1.03 1c.65.56.65 1.15.07 1.76l.03.34z" fill="#b253b7"/><path d="M136.52 14.52c2.32-1.32 4.65-.24 6.98-.03 1.9 2.98 3.8 5.96 4.33 9.57-.86 1-1.73 1.98-3.07 2.34-2.7-.1-5.39 1.28-8.11.09-.74-.5-1.15-1.18-1.15-2.09-3.46-3.68-.68-6.72 1.01-9.88z" fill="#c76a60"/><path d="M135.51 24.4l1.27.77c.65 1.1 2.07 1.93 1.25 3.55-1.26 1.5-2.72 1.71-4.36.65l-2.07-1.87c.84-1.62 1.83-3.05 3.92-3.11z" fill="#2b1115"/><path d="M147.64 23.29l-7.52-3.73c2.15-1.28 3.88-2.58 3.38-5.07 3.88-1.79 7.82-3.01 12.01-.96 1.37 1.31 1.06 2.96.95 4.58-2.72 2.1-4.51 5.78-8.81 5.18z" fill="#d47a47"/><path d="M155.48 18.69l.03-5.15c3.64 2.7 1.91 7.26 3.68 10.71 1.23 2.4 2.15 4.35 5.14 4.27.39-.46.83-.52 1.33-.19.39 4.11-3.32 4.59-5.6 6.35-5.08.25-5.84-3.42-6.51-7.18-1.39-3.39-.86-6.36 1.94-8.82z" fill="#502813"/><path d="M291.5 178.38c-1.66-1-2.98-2.34-4.01-3.98 2.29.36 4.88.43 4.01 3.98z" fill="#0f0908"/><path d="M301.36 219.83l.13 10.53c-1.65-3.49-2.15-7-.13-10.53z" fill="#9b887f"/><path d="M113.64 169.21c-1.94-5.57-6-7.38-11.63-6.93-2.15.17-4.73.96-6.35-1.54-.58-4.76 4.36-5.37 6.33-8.23.52-.76 1.8-1.22 2.33-2.27 1.24-1.94 3.08-3.17 5.01-4.31 8.69-2.75 17.3-5.71 25.43-9.87 2.45-1.25 4.1.1 5.86 1.38 1.33.65 2.89.91 3.82 2.23 1.07 1.76.68 3.91-.06 5.28-1.89 3.5-2.42 6.97-2.32 10.91.07 2.94-1.99 4.97-5.45 3.73-1.56-.56-2.91-.49-4.44.69 4.41 1.57 8.26 3.87 11.44 7.19 1.57 1.64 3 3.25 1.23 5.61-2.62 1.92-4.91 1.02-7.12-.8-3.57-2.94-7.28-3.79-11.07-.44-3.18 2.8-6.5.63-9.78.42-1.86-.18-3.13-1-3.24-3.03z" fill="#050303"/><path d="M113.64 169.21c1.09.81 2.26 1.41 3.67 1.34 1.45.51 2.41 1.23 1.2 2.86-2.65 5.14-5 6.06-10.99 5.08-4.77-.78-9.44 1.04-14.2 1.11.15-2.99 2.62-.93 3.86-1.73 1.77-1.14 4.27-.19 6.52-1.98-3.78-1.48-7.89-.53-11.83-2.82 3.46-1.61 6.49-.24 9.32-1.06-1.33-1.96-4.13-.82-5.9-2.87 3.59-1.95 6.87.51 10.13.12.06-2.77-2.92-3.03-4.32-5.54 5.44.23 7.91 5.46 12.54 5.5z" fill="#d9893c"/><path d="M105.65 151.42c-2.92 3.55-7.49 5.33-9.99 9.32l-6.56 6.63c-.71.7-1.62 1.37-2.62.69-1.16-.8.02-1.76.03-2.66.12-2.95 3.45-2.6 4.64-4.51.85-1.36 3.4-2.08 1.38-4.33-.47-1.33-3.19-1.42-2.01-3.66 1.38-1.74 4-.23 5.33-2.06.3-.57.45-1.21.77-1.77.55-.88 1.31-1.41 2.36-1.48 2.38 1 6.01-.16 6.66 3.84z" fill="#90522c"/><path d="M79.92 108.44l2.7-2.97c2.67-3.73 5.71-5.58 10.84-4.89 4.07.55 7.91-2.8 12.17-3.37 3.48-.47 6.82-2.37 10.48-.96 1.79 5.49-.3 9.33-5.64 10.26-2.3.4-4.65.18-6.96.43-5.18.58-6.83 2.81-6.03 8.03 1.07 6.99.32 8.74-4.89 11.44-1.31.95-.75 2.09-.31 3.23.57 1.42.7 2.79-.34 4.06-3.32 1.46-6.6 2.55-9.22-1.25-2.57 1.54-6.06-.33-6.88-4.38-.79-3.93-2.82-5.68-6.62-5.79l1.43-1.88c1.11-2.64 1.37-5.92 4.98-6.71l2.05-2.21c.26-1.37.5-2.75 2.23-3.03z" fill="#0f0917"/><path d="M77.73 140.43l-.2-1.01c1.29-1.79 2.4-3.79 4.9-4.14 1.21-.68 2.3-.38 3.33.4.67.71 1.43 1.34 2.04 2.12.63 1.09 1.8 1.96 1.35 3.47a2.67 2.67 0 0 1-1.09 1.19c-3.73.76-7.14-.07-10.34-2.03z" fill="#d67ebb"/><path d="M84.65 137.44l-2.21-2.15.29-2.84c2.86 1.39 5.94.05 8.86.75.75-.49 1.48-.42 2.2.06.99 3.4-.86 4.39-3.8 4.65-1.83.16-3.51-.95-5.34-.46z" fill="#bb6e91"/><path d="M97.66 150.38l-.14 1.26c-3.98 1.94-9.62-.19-11.77-4.44l-2.26-1.71c-.45-.74-.52-1.5-.1-2.29 1.41-1.28 2.97-.63 4.5-.34 2.15.66 4.41.81 6.55 1.54 2.09 1.44 1.17 4.5 3.22 5.97z" fill="#cf854c"/><path d="M85.75 147.21c3.94 1.42 7.03 5.12 11.77 4.44.45.81 1.39 1.55.81 2.59-.87 1.54-1.99.44-2.9.04-1.5-.66-3.01-1.13-4.66-1-4.03.76-5.17-1.94-6.01-5l1-1.06z" fill="#491c0c"/><path d="M84.74 148.27l6.01 5c.39 1.2 2.83 1.3 1.78 3.28l-1.84-.17c-4.29-.76-6.77-3.79-8.98-7.16.19-2.93 2.17-.14 3.03-.95z" fill="#c67f42"/><path d="M83.68 143.36l-.19 2.14c-2.51-1.02-4.81-2.27-5.76-5.07l10.94.84c1.28-.49 2.18-.4 2.05 1.31-2.13 2.19-4.83-.71-7.04.77z" fill="#c17065"/><path d="M81.72 149.22l8.98 7.16-1.18 1.23c-4.29-.13-5.33-4.09-7.68-6.52-.27-.61-.66-1.21-.12-1.87z" fill="#53230f"/><path d="M118.51 173.41c.62-1.38-.46-2.05-1.2-2.86 3.71 1 6.96.62 10.03-2.15 3.76-3.39 7.46-1.22 10.7 1.15 2.03 1.49 3.82 3.12 6.54 2.82 2.14-2.51.18-4.02-1.53-5.26-2.38-1.72-2.85-3.88-2.35-6.55.91-4.87 4.54-6.49 8.17-3.18 2.32 2.12 3.46 2.23 6.08.32 3.95-2.89 7.93-.58 9.92 5.07.3 1.41-2.86 3.9 1.32 4.07 1.98.44 2.94 1.72 3.07 3.69-.4 1.42-.28 3.11-1.98 3.86-2.29 3.74-5.81 4.21-9.81 4.02-8.89-.44-17.8.42-26.72-.84-5.01-.71-9.74 1.23-13.62 4.72 1-2.88 1.59-5.82 1.38-8.89z" fill="#120d09"/><path d="M167.28 174.4c-.32-1.11-1.45-2.29.31-3.19 2.57-.45 4.41-3.49 7.5-2.14 3.3 3.22 5.94 7.31 11.13 8 1.12.15 1.82 1.31 2.12 2.49.04 1.57.21 3.15-.43 4.67-.75.78-1.56.9-2.44.22l-7.65-5.17c-1.1-.72-2.6-1.69-3.63-1-1.4.94-.63 2.66-.2 4.07.23.76.4 1.54.87 3.4-5.02-2.96-4.65-8.29-7.59-11.33z" fill="#b26c32"/><path d="M185.47 184.44l2-.81c1.16-.87 1.49-.14 1.69.87l1.5 2.82c.3.41.3.82-.01 1.23-.46.17-.9.14-1.32-.1l-1.8-1.16-2.05-2.84z" fill="#844f30"/><path d="M273.51 231.34c4.13-1.37 7.25-.66 8.92 3.87.67 1.81.72 3.11-.98 4.2l-6.01 2.27c-1.55.48-3.29 1.11-4.64-.4s-1.53-3.31-.47-5.05c1.01-1.66 1.2-3.86 3.18-4.89z" fill="#0f0a09"/><path d="M189.15 184.5l-1.69-.87c-.44-.99-2.37-1.99.02-2.97 2.8-.35 4.64.67 5.16 3.59l-.26.34-3.23-.1z" fill="#0e0907"/><path d="M134.32 51.49c1.71-.99 2.43-2.29 1.28-4.16-.66-2.94-2.65-5.61-1.83-8.86 1.34-1.35.24-3.62 1.84-4.87 1.15-.66 2.38-.69 3.64-.51 2.01.39 3.34 1.56 3.01 3.65-.26 1.64.84 2.31 1.54 3.31-.61 3.02-2.71 5.58-2.73 8.79.21 3.52 3.09 6.36 2.36 10.22-.36 1.91-.35 3.57-2.75 3.77-1.99-.93-1.55-3.46-3.07-4.69-1.05-1.83-2.29-3.54-3.46-5.29-.11-.48-.04-.93.19-1.36z" fill="#56251c"/><path d="M135.64 34.38c-.12 1.59.16 3.37-1.88 4.08l-.1-9.09 3.87-.88c.43-.39.88-.4 1.33-.03.99 3.09-.82 4.67-3.22 5.92z" fill="#854230"/><path d="M112.56 69.61c3.67-3.02 0-6.82 1.08-10.12a5.53 5.53 0 0 0 .9-.11l2.96 2.02c2.33.89 2.21 2.95 2.34 4.9-.33 1.57-.63 3.15-.79 4.75-.18 1.8-.91 3.09-3.04 2.86-1.3-.33-1.95-1.46-2.8-2.33-.41-.59-.6-1.26-.66-1.97z" fill="#9d4a71"/><path d="M134.32 51.49l.45 1.06c-1.04 5.24-4.85 7.26-9.58 8.2-.8-.08-1.46-.41-1.98-1.03-.96-2.03 1.11-3.32 1.23-5.09l.37-1.4c2.97-1.69 5.81-4.06 9.5-1.74z" fill="#dc7b9e"/><path d="M124.45 54.63l-.78 4.77c1.16 1.72-.35 3.2-.45 4.8-.21 1.29-.52 2.51-1.88 3.1-.79.25-1.55.17-2.28-.23l-.54-.58-1.02-5.09c1.36-3.23 5.52-3.6 6.94-6.78z" fill="#d06ea6"/><path d="M319.73 72.57c2.36 1.56 4.98-1.38 7.47.62 3.24 2.62 4.73 8.72 2.71 12.35-.54.98-.88 2.07-1.31 3.11 3.99 3.06 3.72 6.85 1.9 10.92-2.26 1.89-5.06 2.37-7.33.79-2.47-1.72-5.23-2.46-7.85-2.65-5.3-.39-9.65-1.83-12.3-7.22-1.34 3.86-2.6 7.3-3.2 10.89-.32 1.9-.51 3.65-2.55 4.4-2.29.84-4.56.24-5.87-1.54-2.36-3.23-5.37-3.71-9.06-3.78-5.18-.09-7.98-2.95-8.94-8.1 1.1-1.87 1.47-4.25 3.67-5.37 2.7-.3 2.6 1.76 3.07 3.5.81 2.94 2.33 2.81 4.09.72.43-3.02-1.53-5.69-1.18-8.67a4.4 4.4 0 0 1 .33-1.33c.38-.53.95-1.26 1.48-1 3.2 1.56.53-1.4 1.31-1.66.54-2.71 2.97-2.84 4.93-3.42 1.57-.46 3.26-.52 4.55-1.72.42-.32.89-.53 1.39-.67.75-.21 1.5-.21 2.24-.01 4.93.56 9.84 2.01 14.72-.61 1.18-.63 2.9-.18 4.33.3.46.07.92.12 1.38.16z" fill="#120806"/><path d="M299.4 74.39l-1.57.26c-5.46.76-10.81 2.17-16.48 1.48-4.89-.59-9.93-.56-14.82-.04-5.36.57-10.03-1-14.74-2.98-1.18-1.66-.02-2.4 1.28-2.84 1.54-.52 3.21-.59 4.77-1.06a8.07 8.07 0 0 1 2.35-.1c5.8 3.2 12.14 3 18.46 2.83 3.45-.09 5.49-2.76 8.06-4.48.46-.21.93-.35 1.43-.42 6.19-.19 12.4.39 18.57-.95 2.48-.54 5.26-.55 7.48 1.36-.16 3.12 3.39 1.97 4.38 3.79l1.15 1.32-.2-.01c-5.48.27-10.87 1.84-16.42.97-1.29-.2-2.61-.04-3.7.87z" fill="#985f2b"/><path d="M318.72 146.65l.75.77c1.02.86 1.2 1.93.77 3.15l1.34 6.74c-1.9 1.4-4.25 1.55-6.2.96-12.17-3.71-24.64-.96-36.92-1.94-2.54-4.89-1.09-10.06 3.56-12.61.87-.47 1.84-.75 2.78-1.06 7.62-2.53 7.58-2.52 7.02-10.32-.28-3.99.97-7.62 4.24-9.9 2.6-1.82 7.53.03 10.34 3.59 1.21 1.54 2.42 2.64 4.39 2.77 4.04 4.06 7.5 8.42 7.7 14.52l.23 3.33z" fill="#181013"/><path d="M192.22 173.55c-.61 1.28-.14 1.87 1.21 1.89.36 1.25 3.05.2 2.4 2.24-.49 1.54-1.88.6-2.91.55-1.09-.17-2.58-1.13-2.42 1.2l3.94 2.89c.76.53 1.35 1.26.84 2.04-.77 1.16-1.71-.37-2.62-.11l-5.16-3.6c-.4-1.4-1.5-2.43-2.72-2.61-4.91-.73-7.43-4.47-10.35-7.75.02-2.1 1.38-2.59 3.13-2.6 3.76 2.31 6.91 6.2 12.23 4.46.76-.25 1.83.55 2.44 1.4z" fill="#cb7f5b"/><path d="M218.43 167.24l.3-2.1c2.2.64 4.17.02 6.07-1.07.92-.52 1.98-1.59 2.66.3-2.98 1.04-4.97 5.2-9.03 2.87z" fill="#ae9681"/><path d="M190.49 179.43c-1.28-.91-2.81-1.54-3.57-3.3 2.3.21 4.28.77 6 2.09l-2.42 1.2z" fill="#481a0b"/><path d="M308.31 126.41l2.21 3.97c-1.76.03-3.23-.58-4.35-1.97l-1.27-1.52c-1.91-2.64-5.21-3.42-7.51-2.57-2.24.83-2.6 4.37-3.29 6.91-.2.73.24 1.62.31 2.44.7 8.65.77 9.05-7.68 10.79-7 1.44-7.16 6.78-8.26 11.86h-17.79c-1.59-.56-1.63-1.98-1.84-3.31-.21-.76-.21-1.53-.09-2.29-.02-1.21.22-2.4.48-3.57.1-1.36.33-2.69.73-3.99.44-1.57-1.23-3.01-.3-4.6 1.38-2.27 1.83-4.97 3.32-7.2.57-.85 1.06-1.81.37-2.75-1.22-1.68-2.44-3.39-.73-5.32 1.47-1.65 3.59-2.93 5.69-2.59 4.03.66 7.08-.59 9.83-3.33.98-.98 2.45-.86 3.73-1.17 5.19-1.23 10.52-.98 15.78-1.6 4.22-.5 7.58 2.08 9.24 6.08.78 1.87.37 3.98 1.42 5.74z" fill="#100b07"/><path d="M235.4 161.63c-1.04-2.43-2.38-4.01-5.53-3.56-6.07.88-10-4.57-15.47-5.63-1.18 1.3-2.51.51-3.8.26-.44-.19-.82-.46-1.16-.8-.63-.78-1.15-1.6-1.1-2.67.04-.51.21-.99.47-1.43a3.39 3.39 0 0 1 1.76-1.31c1.12-.4 2.22.12 3.56.12-.28-1.49-1.95-2.13-2.07-3.58-.61-1.49-.59-3.02-.34-4.57.47-.91.78-1.93 1.79-2.43 3.25.81 5.44-.95 7.44-3.14 3.78 1.81 5.89 4.96 7.08 8.84.09 2.87-.39 5.97 3.04 7.5 1.16 1.46 3.31 2.12 3.53 4.34l.82 8.07z" fill="#b0622b"/><path d="M234.58 153.56c-2.07-.12-3.06-1.62-4.04-3.15-.83-.91-.54-1.71.22-2.47 3.59.63 5.71-3.59 9.34-2.84 2.68 2.21 1.79 5.84 3.39 8.49v1.71c-3.12 1.09-5.02-2.69-8.04-2.02-.31.05-.6.15-.88.29z" fill="#68351b"/><path d="M235.45 153.27c3.98-4.51 5.36 1.35 8.04 2.02l.16 1.07c-3.35.62-6.51.71-8.2-3.09z" fill="#a76129"/><path d="M140.7 62.54c1.52-3.46 1.38-6.66-1.42-9.49-1.66-1.68-2.19-3.33.39-4.69 2.08-3.46 5.91-3.52 9.16-4.73 1-.15 1.96-.48 2.95-.69 4.27-1.39 8.07-3.73 11.64-6.32 2.52-1.82 5.57-1.97 8.17-3.46 1.45-.83 2.86.16 3.86 1.44l1.04 1.86.63.51c.27 3.71.76 7.46-1.77 10.7a2.6 2.6 0 0 1-1.43.45c-3.04-2.83-6.36-2.44-9.41-.31-3.16 2.21-6.3 4.06-10.3 4.08-1.35 0-2.26 1.29-3.4 1.92-4.14.9-3.2 4.02-2.96 6.83-.49 2.35-2.73 3.83-3.11 6.24-.65 1.3-1.14 2.72-2.16 3.78-1.55 1.6-3.04 1.77-4.21-.48-.39-2.91-.52-5.73 2.34-7.65z" fill="#260f0c"/><path d="M175.45 34.6c-4.19.4-7.89 1.9-11.39 4.29-3.8 2.6-7.8 5.01-12.52 5.68-.46-3 2.74-7.93 6.64-9.32 3.83-1.36 6.82-3.67 9.44-6.61l1-1.13c4.89-1.1 7.26 1.36 6.82 7.08z" fill="#200b3f"/><path d="M183.33 36.66l1.78 3.86a3.92 3.92 0 0 1-1.03 1.04c-2.9 1.33-4.44-1.29-6.56-2.24-.72-.74-.22-1.88-.85-2.65l-.18-.21c2.44-5.34 4.58-.51 6.84.2z" fill="#be599f"/><path d="M256.48 58.43c.83.05 1.68.28 2.47.13 2.23-.4 3.05 4.14 5.38 1.85 1.83-1.8-1.26-3.83-.8-5.99.29-1.38-.55-3.19 1.12-4.02 1.33-.66 2.54.42 3.65 1.06 2.15 1.24 4.19 2.55 5 5.21 1.66 5.46 5.55 7 11.06 4.74 2.95-1.21 5.02-.75 4.31 3.2l-.57.65c-4.42 1.42-9.15.29-13.57 1.69-7.45-.33-14.8.28-22 2.34-3.85.86-7.47 2.68-11.52 2.74-2.63-.11-5.4 1.42-7.86-.67-1.84-3.44-1.64-6.44 1.87-8.73.49-.27 1.02-.44 1.57-.52 3.62 1.12 6.86.96 8.93-2.84 2.75-.77 5.82.19 8.41-1.72.8-.59 1.88.02 2.55.87z" fill="#0d060c"/><path d="M245.53 52.55c1.55-.42 2.05-1.57 2.11-3.02 1.49-.64 2.93-1.5 4.67-.99 1.42.63 2.78 2.02 4.09-.35.69-1.25 1.52-2.64 3.28-2.77l1.71 1.16.23 1.97c.73 3.03.58 5.83-2.05 7.99h-.02c-4.18.76-8.32 1.79-12.57 2.16-1.25.02-2.22-.54-3.03-1.44-.52-.73-.69-1.55-.58-2.43.29-1.16.96-1.96 2.15-2.28z" fill="#874139"/><path d="M291.47 64.27c4.7.93 8.08-2.13 11.87-3.94 6.31-.18 12.42 1.58 18.66 2-.77 1.13-1.96 1.12-3.12 1.12-5.34-.02-10.57.58-15.52 2.75-4.76 2.08-9.71 1.51-14.65 1.15-.57-.12-1.05-.41-1.44-.86-.28-1.07.32-1.55 1.21-1.85l.17-.04 2.8-.33z" fill="#c77fd8"/><g fill="#563036"><path d="M246.4 57.25c4.32-1.44 8.76-.54 13.14-.7l-3.07 1.88c-3.24 2.73-7.24 1.74-10.94 2.25-.59.39-1.2.47-1.85.18-1.66-3.13 1.98-2.28 2.71-3.61z"/><path d="M259.57,56.54c1.01-2.58,1.94-5.18,2.05-8,1.15,3.14,2.15,6.23-2.05,8Z"/></g><path d="M259.68 45.41c-.12 2.44-1.67 4.44-1.68 7.06 0 2.65-2.45 2.35-3.92 1.09-1.17-1-1.74-2.71-2.57-4.11-2-2.19-.92-4.17.39-6.14 1.73-1.58 1.78-3.96 2.78-5.89l3.76-3.01c.03 3.71 1.72 7.23 1.24 11z" fill="#aa593c"/><path d="M254.68 37.42c.36 2.29 3.89 5.12-1.1 6.5-2.17.65-3.17-.62-3.89-2.37.49-1.68 3.94-2.1 2.06-4.79 1.06-.15 2.07-.09 2.93.66z" fill="#632c45"/><path d="M143.57 40.52l-5.2-1.11c-1.24-2.36 5.37-1.37 1.21-4.54-1.53-1.74-1.2-3.66-.55-5.61.14-.84.64-1.37 1.41-1.66 1.21-.39 2.17.31 3.24.69 1.05.37 2.38.82 2.36-1.16-.47-.99-1.26-1.81-1.32-2.95l2.92-.89c2.24-2.17 3.84-5.44 7.84-4.6.58 2.9-1.14 5.85.18 8.73 1.1 3.57.01 6.47-2.86 8.69-1.62 1.25-2.56 2.9-3.55 4.63-1.79 3.13-3.05 3.01-5.68-.21z" fill="#c36c29"/><path d="M144.72 24.18c1.83-.07 3.33.4 3.86 2.41 1.1.76 1.92 1.64.04 2.33-2.35.86-4.76 1.22-7.05-.28l-1.7-.54c-.26.87-.72.98-1.36.35l-.97.05-.75-3.32c2.78.77 5.29-.67 7.94-.99z" fill="#401c0d"/><path d="M143.57 40.52c1.05.27 2.76 1.81 2.98.8 1.31-5.86 9.31-7.21 9.12-13.91.86 2.27.59 5.3 3.95 5.87-.68 2.87-3.67 3.54-5.34 5.52-1.79 2.13-3.16 4.53-5 6.59-3.06 1.43-6.22 2.56-9.61 2.95-.93-.8-2.87-.86-2.63-2.49.26-1.77 2.69-.77 3.53-2.17-.01-1.93-2.29-.66-2.85-1.98 1.84-.97 4.23.72 5.84-1.19z" fill="#a75b21"/><path d="M149.28 45.41c2.04-5.24 5.16-9.55 10.34-12.11l5.79-4.41 2.22-.23c1.19 2.35.47 3.66-1.95 4.8-5.52 2.61-11.29 5.05-14.14 11.12l-2.26.83z" fill="#29121c"/><path d="M177.61 168.39c-1.32.21-2.37.88-3.2 1.91-2.31.02-4.03 4.44-6.82.92.03-1.57-.47-2.89-1.79-3.83-2.17-.69-2.26-2.45-2.21-4.29l-1.51-1.96c-3.13-3.88-5.25-3.65-7.52.86-.58 1.16-.81 2.72-2.47 2.7-1.53-.01-2.2-1.27-2.73-2.53-.13-.3-.24-.62-.41-.9-1.19-1.96-2.49-4.81-5.12-3.05-2.25 1.5-1.59 4.47-.27 6.71.74 1.25 2.07 2.14 2.85 3.38 1.31 2.1 1.23 3.81-1.83 4.06-3.51-7.47-10.74-8.89-17.99-11.16 2.36-1.72 4.97-2.96 6.92-5.09 1.66-1.82 2.89-.45 3.93 1.01.46.65.95 1.58 1.9.9.44-.32.9-1.28.72-1.69-2.64-6.11 1.98-10.55 3.51-15.68-.67-1.96-1.68-3-3.69-1.39-2.25-1.91-4.12-1.59-6.94-.34-7.49 3.31-15.02 6.67-23.08 8.51-.44-.29-.64-.71-.65-1.23.42-1.98 2.29-2.38 3.66-3.32 6.39-2.21 12.63-4.73 18.41-8.32 3.16-1.97 5.85-4.05 3.68-8.33-1.27-3.73-3.14-4.59-6.44-1.83-3.53 2.95-7.29 5.62-10.94 8.45-3.97 1.9-7.96 3.75-12.11 5.2-3.15 1.1-6.31 1.62-9.39-.26-2.08-.69-1.45-2.91-2.38-4.25l-2.11-.35-1.04-4c-.73-1.27-.38-2.51.09-3.75 4.84-2.1 5.94-5.61 4.26-10.46-1.77-5.13.56-9.1 5.88-10.23 1.59-.34 3.28-.27 4.93-.29 7.66-.1 8.06-.41 9.86-8.05-1.44-2.49.7-3.07 2.14-4.02 3.12-.93 6.3-1.7 9.19-3.29.75.03 1.45.22 2.06.68.8 3.27 2.84 4.85 6.12 6.04 6.9 2.5 8.53 6.88 6.42 14.32-1.14 4.03.72 7.29 3.43 9.84 6.74 6.33 11.38 14.21 16.29 21.84 3.02 4.69 4.39 10.33 7.42 15.13 1.81 2.87 3.91 4.84 7.36 5.16 2.43 1.35 4.64 2.79 2.33 5.99l-.73.3z" fill="#0c0806"/><path d="M109.75 146.58l.12.86-4.21 3.98-6.87-2.87c3.24-2.96 6.68-4.83 10.96-1.97z" fill="#582d1a"/><path d="M109.75 146.58l-10.96 1.97-1.12 1.84-3.85-1.96c-2.67-1.68-.21-2.04.77-2.77 1.09-2.59 4.51-1.53 5.85-3.73 1.73-1.18 3.7-1.14 5.66-1.15 2.31 1.75 5.51.68 7.83 2.43.2.47.09.88-.27 1.22l-3.89 2.14z" fill="#a6622f"/><path d="M118.56 93.76c-1.13.73-2.75.9-2.99 2.64-3.1 2.99-7.5 1.93-11.14 3.54-2.48 1.1-5.23 1.77-7.67 3.13-1.16.65-2.45 1.56-3.68.74-4.06-2.67-7.18-.18-10.46 1.65.6-4.17 4.41-6.42 6.02-9.98-.14-1.64 1.1-2.21 2.23-2.86 1.78-1.43 4.12-2.1 5.5-4.07.44-.61.98-.71 1.61-.3l2.57.42c1.83.31 4.08-1.66 5.47 1.02.6.82-.77 3.04 1.85 2.48 2.71-.58 5.64-.32 7.98-2.24.48-.13.96-.12 1.44 0 1.71.86 1.61 2.31 1.26 3.84z" fill="#1c1149"/><path d="M113.83 70.54c1.03.32 1.56 1.09 1.83 2.08.42.55.73 1.18 1.05 1.79 1.01 5.11 1.84 10.23 1.39 15.48-.13.47-.39.85-.76 1.17-.34-.06-.61-.22-.81-.51-2.45.92-5.13 2.42-5.28-2.19-1.33-4.9 1.71-9.15 2.08-13.8-.75-1.45-1.04-2.84.48-4.02z" fill="#c87652"/><path d="M111.27 88.36c.93 2.72 3.55 1.38 5.28 2.19.23 2.97-2.43 2.33-3.85 2.77-3.15.98-6.44 1.56-9.71 2.12-1.03.18-2.55.5-3.01-.97-.47-1.52 1.07-1.85 1.99-2.42 1.12-.7 2.33-1.27 3.5-1.9.65-1.49 1.83-1.97 3.37-1.79.82.58 1.63.74 2.43-.02z" fill="#ca78d7"/><path d="M95.68 136.37c8.5 3.01 14.85-2.63 21.89-5.47 2.57 2.88.98 4.9-1.38 6.77-3.88 2.31-8.48 2.05-12.63 3.49-1.64.57-3.05 1.09-3.86 2.68-.66.54-1.41.73-2.25.62-2.26-.7-5.03.27-6.79-2.07l-1.98-1.12c-.03-.25-.05-.51-.07-.76.2-.72.69-1.17 1.35-1.47 1.3-.36 2.51-.9 3.4-1.98.64-.72 1.32-1.27 2.34-.69z" fill="#ca6b8e"/><path d="M95.68 136.37l-1.5 1.91c-.34.69-.92.95-1.65.96-1.96-.51-4.04-.13-5.99-.74l-1.9-1.07c2.52-2.44 7.31.37 9.04-3.9 1.87.1 2.77.87 1.99 2.83z" fill="#6f364a"/><path d="M86.55 138.51c2.02-1.77 4.13-1.51 6.28-.28-.35 1.28-1.64 1.44-2.52 2.09l-1.71.19c-1.22-.12-2.05-.63-2.05-2z" fill="#430d15"/><path d="M97.5 143.57l2.31-.45a.63.63 0 0 1 .8.4c-.32 5.46-4.29.67-6.03 2.14-2.24-.44-4.78.61-6.7-1.36.41-2.5 2.38-.97 3.6-1.37 2.09-.68 3.91 1.35 6.03.64z" fill="#551c09"/><path d="M97.5 143.57c-3.11 1.52-6.58-1.73-9.62.73l-4.2-.94c2.14-1.68 4.65-.66 6.97-.97 2.33.13 4.66.26 6.85 1.18z" fill="#a6622f"/><path d="M125.82 59.39c2.61-2.78 5.47-5.22 8.95-6.85 2.28.51 3.56 2.25 4.9 3.93q.13 6.61-5.75 8.3c-.73.3-1.43.68-2.19.89-.79.12-1.54.02-2.24-.35-1.35-.82-1.4-2.49-2.33-3.58-.54-.72-1.27-1.35-1.34-2.34z" fill="#d8843b"/><path d="M132.62 63.49c3.49-1.2 7.13-2.24 7.05-7.02 1.51 1.82.72 4.04 1.03 6.06l-1.2 7.83c.05 2.8 1.7 5.86-1.31 8.17-2.94 1.88-4.92 5.31-8.92 5.47-1.72-.22-3.68.34-4.91-1.49-.31-2.28-1.35-4.76 1.57-6.24 1.64-.16 3.42.3 4.77-1.12 2.2-1.46 4.33-2.96 3.92-6.1 2.49-2.74-.39-3.58-1.76-4.95-.08-.21-.17-.41-.25-.62z" fill="#894b20"/><path d="M138.5 28.44l1.36-.35-.29 6.78-3.93-.49 2.86-5.94z" fill="#cf7154"/><path d="M115.63 74.5l.03-1.88c3.86-.69.82-4.6 2.86-6.13l.09.27c3.99 3.13 2.55 7.24 2.01 11.18-4.16 2.49-3.26-2.39-4.99-3.44z" fill="#9a4f3e"/><path d="M125.82 59.39l2.76 1.13c-.03 3.96-1.96 5.12-5.58 3.8-.41-.24-.78-.52-1.12-.86-.85-1.99.4-3.06 1.79-4.06l2.16-.01z" fill="#985337"/><path d="M119.61 78.44c-.05-3.92.39-7.88-.99-11.68l1.77-.09c.62.25 1.15.61 1.52 1.19.6 1.68 1.79 2.96 2.9 4.3 1.09 1.01 1.82 2.31 2.66 3.5.51.73.99 1.88-.78 1.86-.73.11-1.55.61-.84 1.19 3.53 2.92.63 2.66-1.35 2.9a2.22 2.22 0 0 1-1.35.74c-2.16-.42-4.29-.87-3.53-3.92z" fill="#bc6a30"/><path d="M120.71 68.48l-.31-1.81c.97-.85 1.22-2.03 1.48-3.21.23.05.45.08.68.08 1.35.26 2.04 1.13 2.26 2.45-.24 2.7-1.33 3.98-4.11 2.5z" fill="#e2876a"/><path d="M308.31 126.41c-2.66-.55-2.97-2.9-3.62-4.89-1.03-3.15-3.32-4.68-6.38-4.51-5.61.31-11.2 1-16.8 1.55-2.36.23-3.52 2.4-5.38 3.39-1.87.99-3.1 4.32-6.31 1-1.36-1.41-4.38.86-6.63 2.42 5.74 1.92 5.81 1.97 2.3 6.64-1.78 2.38-2.29 5.58-4.89 7.4-.95-.07-1.66-.6-2.32-1.22-.46-.48-.88-1-1.16-1.61-.77-1.75-.4-3.98-2.22-5.29-2.91-1.98-1.16-5.72-3.07-8.08-.56-2.13-1.97-3.6-3.72-4.81-3.18-2.08-5.81-4.54-6.06-8.65-.56-2.41.48-4.32 2.23-5.72 3.94-3.15 4.39-6.67 1.75-10.87-.87-1.38-1.59-2.94-1.45-4.71.68-2.25 1.99-4.02 3.98-5.28 7.05-.69 14.12-.91 21.14-2.06 5.16-.85 6.09.43 6.2 6.1-.43 1.7-.26 3.56-1.33 5.09 2.3 4.47 5.72 6.55 10.95 5.83 2.92-.41 5.97-.27 6.79 3.92.32 1.63 2.44 2.44 4.12 2.1 2.04-.42.57-2.14.8-3.27.87-4.4 3.17-8.53 1.79-13.33-.33-1.14 1.31-1.87 2.58-1.16 1.3.72 3.05 1.41 3.58 2.58 3.29 7.23 9.49 6.64 15.68 6.18.95-.07 1.91.16 2.04.98.57 3.45 3.39 3.04 5.7 3.53-1.47 2.57-2.05 5.62-4.23 7.8-1.32 1.46-2.41 3.06-2.87 5.01l-1.05.29c-1.36.37-1.43 1.88-2.33 2.65-1.74.88-2.03 2.32-1.57 4.05-.68 4.76-6.02 4.03-8.24 6.97z" fill="#010101"/><path d="M274.58 87.58c.11-3.69-1.34-5.9-5.33-4.9-6.84 1.71-13.81 1.61-20.76 1.76-2.77 1.88-5.59 3.21-8.79.91a2.56 2.56 0 0 1-.69-1.68c.39-2.11 2.15-3.29 3.81-3.33 4.45-.11 8.62-1.82 13.04-1.87 1.1-.02 2.19.07 3.28.21 2.69.27 5.37.81 8.08.22 4.03-2.42 8.41-3.33 13.09-2.93 5.74.08 11.38-2.09 17.16-.61-1.75 1.53-4 .87-5.98 1.39-1.73.45-3.46.91-4.11 2.9-3.65.21-6.85 1.46-9.42 4.12-1.28 1.13-.62 3.99-3.37 3.81z" fill="#251015"/><path d="M297.43 74.85c-6.56-.82-12.78 1.25-19.12 2.3-2.5 1.13-5.12.46-7.68.48-2.28.02-4.14.39-5.09 2.75-2.86 1.36-5.71 1.02-8.56-.04-1.88-3.59-6.35-.71-8.54-3.54 1.41-4.13-3.14-.93-3.47-2.93-.14-.54-.11-1.06.09-1.58 1.01-1.24 2.12-1.77 3.48-.53 10.67 2.84 21.6 1.93 32.43 2.28 5.61.18 11.24.04 16.86.04-.13.26-.26.52-.4.77z" fill="#7c4d2b"/><path d="M275.64 81.51c3.82-1.19 7.34-4.25 11.73-1.87l4.87 7.11c-4.54.08-4.42-5.09-7.8-5.36-2.03 2.05-1.25 4.66-1.43 7.08-.11 1.48.25 3-.27 4.43-.4 1.11-1.05 2.2-2.49 1.93-1.27-.24-1.17-1.38-1.25-2.37-.19-2.23.72-4.71-1.43-6.51-1.52-1.09-.62-3.25-1.93-4.45z" fill="#8f562e"/><path d="M277.6 84.58c3.67 2.13.26 6.48 3.09 9.46 1.26-2.95.68-5.71.81-8.35.11-2.15.36-3.94 2.93-4.3l-.09 1.27c-.69 3.54-.93 6.93 3.13 8.78.05 4.69-4.35 3.89-6.58 4.31-2.89.55-2.17-2.88-2.49-4.87-.18-1.13-.49-2.24-.74-3.36-1.01-.96-1-1.94-.06-2.94z" fill="#3c2011"/><path d="M299.4 74.39c3.36-3.65 7.85-2.39 11.86-2.33 2.72.04 5.5.47 8.27.49-6.45 3.51-13.19 3.76-20.13 1.84z" fill="#563327"/><path d="M287.48 91.44c-.76.46-1.01 1.99-2.23 1.39-1.84-.9-2.41-8.27-.9-10.18 1.16 2.89 1.29 6.14 3.13 8.78z" fill="#8f562e"/><path d="M277.6 84.58l.06 2.94c-1.47 1.31-.58 4.14-3.09 4.78v-4.71c1.44-1.83.22-4.13 1.06-6.07 2.44-.12 1.99 1.61 1.97 3.07z" fill="#b1743d"/><path d="M287.59 66.32c6.48.4 12.49-.98 18.7-3.1 4.78-1.63 10.44-.68 15.71-.88l4.55.13c.44.2 1.09.28 1.28.62.77 1.38-.5 1.14-1.13 1.17l-11.15.43a4.31 4.31 0 0 1-.71-.09c-7.15 3.51-14.85 3.48-22.53 3.52-1.62 0-3.27-.53-4.82.37h.02c-1.44.63-2.88 1.28-4.28-.09 0-3.73 2.19-2.9 4.36-2.08z" fill="#d38379"/><g fill="#bd7c3b"><path d="M283.4 68.27l4.11.2c-.07 2.86-1.06 4.02-4.38 4.33-6.24.59-12.39 1.05-18.59-.07-1.59-.29-3.35-.33-4.08-2.21 2.52-2.92 6.06-1.89 8.77-1.33 4.26.87 7.73-.32 11.33-1.96 1.14-.18 2.03.31 2.83 1.04z"/><path d="M287.49 68.49c3.82-2.23 8.05-.39 12.04-1.24 5.06-1.08 10.2-1.78 15.31-2.65-2.05 1.22 4.41 2.96-.24 4.02-3.91-1.19-7.79-1.19-11.78-.13-5.07 1.35-10.22.36-15.34 0z"/></g><path d="M255.16 70.33l3.37.17-6.97 2.01-2.89 1.02c-4.37 2.99-8.93 5.56-14.23 6.52-1.11-.18-2.25-.29-3.07-1.22-.67-1.13-.35-2.2.2-3.26 3.01-3.38 7.09-3.84 11.24-4.12 2.05.09 3.66-1.25 5.51-1.68 2.24-.53 4.74-1.74 6.84.55z" fill="#bd753f"/><path d="M201.6 154.48c-2.67 1.4-5.81 1.15-8.31 3.73-3.39 3.5-4.58 6.7-2.28 11.07.45.85.5 1.91.74 2.88-2.32 1.46-3.86.15-5.29-1.5-1.12-2.23-1.09-4.57-.71-6.95.44-1.74-.21-3.38-.52-5.05.95-3.3 2.34-6.48 3.04-9.86 2.26-2.32 6.05-3.35 6.27-7.42 1.29-3.78 2.89-7.17 7.89-6.27 3.94 1.41 3.2 4.93 3.6 7.93.07 1.38-1.08 2.39-1.15 3.73.33.85.95 1.46 1.56 2.08 1.18 1.06 2.73 1.56 3.94 2.57l.26-.03c.76 1.33-.24 2.21-.83 3.19.04.2-.02.37-.16.51.58 1.05.2 1.86-.63 2.56-3.15.54-4.39-3.38-7.4-3.16z" fill="#c4a774"/><path d="M214.7 160.34c-1.77-.64-3.34-1.87-5.34-1.83-.73-.03-1.15-.29-.81-1.1l1.08-2.32c1.66 1.78 5.98.99 5.06 5.25z" fill="#dfc194"/><path d="M209.8 154.58l.83-3.19 3.76 1.05c-.11 3.76-3.19 1.15-4.59 2.14z" fill="#b67049"/><path d="M247.74 134.46l-.02 9.1-1.39 3.23-2.84 6.79c-3.14-1.83-4.5-4.51-3.92-8.13-1.8-1.07-2.92-3.48-5.6-2.79-4.25 2.02-5.75-1.12-7.42-3.95-4.45-3.61-4.98-5.74-2.32-9.35q4.48-1.83 12.03 2.99c-1.55-1.38-3.8-2.34-4.06-4.58-.36-3.05 2.34-3.05 4.23-3.79.99-.08 1.79.48 2.67.78 1.58.36 3.25.94 4.75.04 4.94-2.96 4.91-3 7.95 1.64a4.1 4.1 0 0 1-.06 2.17c-1.36 1.92-2.09 4.29-4 5.84z" fill="#26160a"/><path d="M204.89 143.19c-1.84-1.94-1.26-4.76-2.54-6.91-.61-.33-1.22-.65-1.24-1.48.21-1.67 2.26-2.31 2.27-4.09 2.45-2.78 6.87-1.27 9.24-4.24 1.08-.06 1.94.33 2.49 1.3.45.98.04 1.91-.17 2.85-.82 1.91-1.75 3.75-2.7 5.6-1.29 2.89-.89 5.81-.13 8.74.05 1.08-.45 1.91-1.21 2.61l-1.26.86c-2.68.04-3.42-2-4.26-3.95l-.5-1.3z" fill="#e4c696"/><path d="M213.43 130.4l1.11-1.91c2.83-1.22 5.79-.42 8.69-.47 1.33-.03 2.63.53 2.24 2.39-4.25 3.94.5 5.57 2.05 8.02.94 2.79 3.41 5.03 2.92 8.32-.43 1.16-1.27 2.03-2.49 1.76-1.17-.26-.83-1.51-.91-2.42-.11-1.25.3-2.55-.41-3.73-1.24-3.49-3.99-5.92-6.14-8.78-.55.44-1.16.7-1.88.66-1.94-.99-4.08-1.71-5.18-3.83z" fill="#6a3829"/><path d="M210.91 147.58l-.54-3.12c.7-1.54 1.76-2.01 3.29-1.14l3.63 1.5c2.29.97 1.24 2.53.68 4-.82 2.13-2.28 2.11-3.92 1.08-1.1-.69-2.1-1.54-3.14-2.32z" fill="#301310"/><path d="M218.53 133.25l1.96.32.05.96c-.06 1.81 1.2 4.24-1.3 5.06-2.37.78-3.74-1.16-4.8-3.04-.82-1.62-.76-3.14.83-4.21 1.32-.89 2.4-.22 3.26.91z" fill="#ce7247"/><path d="M218.53 133.25c-3.18-1.16-3.12 1.7-4.09 3.3l-1.07 1.77c-2.46.67-2.49-1.11-2.71-2.69.19-2.13 1.67-3.58 2.76-5.23 1.86.67 4.64-.3 5.1 2.86z" fill="#aa5266"/><path d="M210.67 135.63l2.71 2.7.28 5-3.29 1.14c-1.74-3.01-1.01-5.93.3-8.83z" fill="#73403f"/><path d="M204.89 143.19l.59.16c1 2.24 2.66 4.05 3.98 6.08l.92 1.99c-1.71.04-3.37-.2-4.93-.96-1.9-.69-2.91-2.01-2.88-4.07l2.32-3.19z" fill="#d0b380"/><path d="M226.63 142.35c.91 1.09.86 2.43 1.05 3.73.24 1.65 1 1.44 1.89.42.7-.63 1.43-.64 2.19-.11.36.82.32 1.56-.42 2.16l-.79 1.86c-3.11.28-5.08-.43-4.07-4.22.32-1.2.12-2.55.15-3.83z" fill="#924c20"/><path d="M231.33 148.55l-.08-2.32c.49-2.05 1.19-4 2.62-5.62 4.41-1.34 6.05.57 5.71 4.84-2.59 1.45-3.74 6.74-8.25 3.09z" fill="#af6337"/><path d="M185.11 40.52l.44.92c.87.95 2.41 1.88 1.89 3.21-1.29 3.31 1.14 4.57 2.96 6.25.48 4.32-2.66 4.89-5.67 5.16-1.94.18-3.97.05-5.94-.26-3.39-1.27-4.56-3.72-3.12-6.96 1.12-2.51.17-5.12.92-7.57 2.55-2.06 5.31 1.99 7.86-.25a2.55 2.55 0 0 1 .67-.5z" fill="#af5632"/><path d="M178.63 54.5c4.02-.19 8.43.63 10.74-4.07-.42-.69-.43-1.34.21-1.91l1.98.98c.68.26.71.58.09.96l.04 2.04c1.05.97 1.75 2.13 2.03 3.55.39 1.68-.75 3.09-.85 4.69-1.92 2.04-2 5.13-4.03 7.13-.45.22-.92.32-1.42.31-1.69-.87-3.86-1.09-4.55-3.32.54-3.27-2.31-4.31-4.06-6.05-2.3-2.29-2.34-2.41-.18-4.29z" fill="#844343"/><path d="M189.59 48.52l-.21 1.91c-3.54.34-6.42.27-4.04-4.68.57-1.19.16-2.86.2-4.31 2.22-.22 4.11.89 6.05 1.31.64 2.57-3.6 3.08-2 5.77z" fill="#cf6a48"/><path d="M249.69 41.56c2.01-.39 2.5 1.72 3.89 2.36-.04 2.09-2.26 3.36-2.07 5.53-1.28.77-2.57.64-3.87.07 2.33-2.23-1.66-6.09 2.05-7.96z" fill="#ab5272"/><path d="M143.48 65.4c-1.2-3.08 2.4-2.84 3.16-4.56 1.22-2.6.56-5.86 2.8-8.11.7-1.32 1.4-3.12 2.98-3.02 5.97.37 9.8-4.27 14.86-6.01 3.87-1.33 6.15-.62 6.35 3.84.05.15.17.43.14.45-4.72 2.89-3.49 7.26-2.89 11.48-.21 1.01-1.47 1.64-1.05 2.88.46 2.36 3.57 3.37 3.16 6.17-.32 1.5-.45 3.03-.62 4.56-1.3 7.76-2.99 15.48-1.48 23.42.42 2.2-.27 3.93-2.53 4.78-3.19.28-3.48 3.02-4.43 5.22-1.35 3.69-3.03 7.19-2.9 11.36.09 2.89-.53 5.99-3.18 8.05-4.99 1.73-6.55.43-7.34-6.09 2.74-7.77 5.34-15.6 7.46-23.58l.19-1.47c3.42-4.26 6.8-8.53 5.54-14.57 1.44-10.11-5.62-16.42-15.63-13.96-.69.09-1.36-.1-2.03-.22-.89-.07-1.73-.36-2.57-.63z" fill="#0d0504"/><path d="M178.63 54.5c-.48.54-.53 1.76-.28 1.69 4.88-1.41 4.53 3.7 6.79 5.48 3.47 2.74.32 2.65-1.58 2.9-2.6.08-4.41 1.51-5.93 3.46-.49.12-.97.11-1.45-.01-1.21-.56-1.89-1.51-2.05-2.82-.14-1.42.3-2.99-1.07-4.1-.93-.63-1.86-1.24-2.3-2.34-.7-4.42 1.23-7.96 3.81-11.27l2.09-10.81 1.1 1.74c.64 1.09.71 2.11-.34 3.01 1.15 4.29-1.96 8.98 1.21 13.09z" fill="#71362c"/><path d="M174.58 47.48c-.39 3.76-.35 7.64-2.87 10.84-.49.99-1 1.93-2.27.86.09-1.8-.7-3.2-2.01-4.33-3.55-3.03-1.64-4.64 1.52-5.91 1.51-.61 3.34-.19 4.68-1.4l.95-.06z" fill="#422214"/><path d="M143.48 65.4l1.88-.9c.8.47 1.04 1.22 1.03 2.09-2.66 3.86-2.55 8.22-2.59 12.67-.04 4.11 1.45 8.53-1.62 12.27-1.51.7-2.51 0-3.34-1.19.29-4.37-2.24-8.48-1.23-12.93 1.09-2.22.09-5.01 1.89-7.05 3.04-.28 2.76-3.23 3.98-4.97z" fill="#512205"/><path d="M149.44,52.73c1.46,3.53,2.92,7.06-2.8,8.11-2.53-4.31-2.09-5.59,2.8-8.11Z" fill="#8e4d20"/><path d="M177.42 41.41l.34-3.01c2.65-.23 4.42 1.82 6.67 2.61-1.99 6.44-4.57 2.15-7.02.4z" fill="#cd6d49"/><path d="M242.5 72.49l-9.77 4c-2.79 1.93-5.99 1.4-9.07 1.52-8.01.3-16.03.67-23.82-1.83-2.26-2.2-5.83-3.61-4.81-7.82.72-1.03 1.81-1.27 2.96-1.34 1.31-.23 2.56-.08 3.73.57 1.7.62 3.22 1.8 5.17 1.7.63.21 1.27.42 1.91.58 1.06.24 2.11.58 3.22.58.88.01 1.76-.11 2.6.28 1.7.89 3.41.5 5.13.07 2.18-.11 3.8-1.88 5.98-1.99.98.02 1.96.08 2.92-.16 1.27-.04 2.46.35 3.65.72a15.15 15.15 0 0 1 1.25.84l7.98.35c.67.47 1.7.76.97 1.93z" fill="#d993df"/><path d="M279.26 69.14l-32.76 2.67c-2.05.89-4.14 1.98-5.61-.38 9.68-3.4 20.03-3.66 30.2-4.77 5.66 0 11.16-2.16 16.89-1.28l.23.81c-2.05.44-4.53.28-5.36 2.39l-3.6.57z" fill="#b777c5"/><path d="M287.47 65.5c-4.28-.22-8.57 1.61-12.84-.07 4.54-1.82 9.24-.74 13.87-.78l-1.03.85z" fill="#211110"/><path d="M141.57 28.63c2.19-1.17 5.76 2.35 7.01-2.05.99.02 2.11-.05 2.42 1.15.33 1.29-.7 1.69-1.69 1.93-2.71.67-5.63 2.76-7.75-1.03z" fill="#95501f"/><path d="M152.55 119.08l1.03 4.66c.58 2.25 1.86 1.65 3.19.7 3.05 1.84.99 5.76 3.24 7.92.57 1.2 1.63 2.13 1.98 3.46.83 1.53 1.81 2.99 2.2 4.72.57 1.21 1.23 2.36 2.18 3.31 2.56 3.66 4.95 7.47 6.62 11.57.87 2.12 2.56 3.36 3.59 5.19.25 1.09.05 2.03-.88 2.73-3.74 1.11-6.07-1.26-7.88-3.74-2.94-4.02-5.55-8.31-6.35-13.4-.41-2.58-1.77-4.82-3.49-6.52-5.69-5.61-9.16-12.93-15.1-18.44-4.09-3.79-6.5-9.04-2.18-14.72 1.09-1.44.45-2.83-.63-4.05-2.12-2.41-4.51-4.36-7.68-5.32-3.28-1-5.21-2.96-3.78-6.71.38-.34.82-.54 1.34-.57 7.84-.96 11.62 5.69 17.12 9.12 2.21 1.73 2.18 4.53 3.26 6.81 1.78 2.32.82 5.25 1.71 7.76.06 1.84.62 3.64.49 5.5z" fill="#170e1c"/><path d="M114.68 136.46c1.49-1.58 3.31-2.99 2.89-5.56 3.78-2.9 7.78-5.55 11.26-8.78 3.11-2.89 5.02-3.01 6.56 1.19.27.74.9 1.35 1.36 2.02.77 3.09-.38 6.16-2.7 7.42-6.76 3.69-12.72 9.04-20.58 10.59-1.87 1.19-4.1.34-6.16 1.19-1.34.55-.51-1.37-.72-2.15-.63-1.64.45-2.99 1.64-2.7 3.27.8 4.55-1.69 6.45-3.22z" fill="#c17234"/><path d="M129.61 90.45h-.99l-1.96.02c-2.95-6.43-2.92-6.49 2.92-8.02 2.51-1.94 4.56-4.63 8.03-5.03 2.41 3.75 4.39 7.58 2.12 12.15-3.28 1.38-6.71 1.03-10.12.89z" fill="#1e0804"/><path d="M113.47 143.35l18.75-11.11c2.58-1.55 3.67-4.18 4.53-6.91 2.04 3.7 1.08 6.7-2.27 8.97-6.46 4.36-13.3 7.97-20.83 10.14l-.17-1.09z" fill="#703e1d"/><path d="M129.58 82.45c-5.07 1.18-1.39 5.55-2.92 8.02-2.23 2.26-4.36 4.76-8.1 3.28l-1.2-2.7-1.01-1.64c.18-2.29 2.26-3.7 2.58-6.06.39-2.87 3.06-1.36 4.73-1.76l.84.02c1.53 1.31 3.36.76 5.08.83z" fill="#401111"/><path d="M159.02,155.09c-4.06-1.96-6.39-6.03-10.85-7.59-1.3-.45-1.79-4.03-2.09-6.25-.19-1.4,1.64-1.4,2.02-.53,2.48,5.7,9.09,8.13,10.92,14.37Z" fill="#050303"/><path d="M114.68 136.46c-.92 3.4-2.16 6.29-6.67 4.7-.29-.1-.94.79-1.42 1.22-2.05.12-4.14-.03-5.99 1.14a3.52 3.52 0 0 1-.8-.4c.26-3.37 3.47-3.77 5.42-4.09 3.29-.53 6.26-1.91 9.45-2.57z" fill="#cf7853"/><path d="M123.66 81.6c-1.8.98-5.02 1.5-1.19 4.15.75.51 1.69 1.33 1.14 2.43-.73 1.45-1.94.8-2.95.32-1.7-.8-3.14-.66-4.31.91l-.72-14.92c2.03.61 2.87 2.41 3.98 3.94.87 1.66 2.55 2.29 4.05 3.16z" fill="#854228"/><path d="M90.31 140.32c.47-1.14 1.27-1.88 2.51-2.09l1.36.06c.39 3.89-2.62 1.29-3.88 2.03z" fill="#bd6939"/><path d="M131.49 64.58l1.13-1.09.39.37c1.16.98 3.13-.82 3.97 1.13 1.07 2.47-1.76 2.83-2.42 4.37.41 3.33-1.64 5.37-3.82 7.36-.8.22-1.45-.05-2-.61-.52-1.64-1.8-2.95-2.04-4.72 1.33-2.45 2.64-4.93 4.79-6.81z" fill="#894b20"/><path d="M123.72 65.39l-1.16-1.85c2.4-.21 4.46-1.13 6.02-3.02 1.4 1.01 1.21 2.38.87 3.78l-.23.78c-1.71 2.2-3.54 2.33-5.49.3z" fill="#632c0d"/><path d="M131.49 64.58c-.31 2.94-1.08 5.6-4.09 6.95-3.45-.69-3.26-2.49-1.23-4.55.99-1 2.48-1.46 3.35-2.67l-.07-.01 2.04.27z" fill="#de8576"/><path d="M130.81 76.27c1.92-2.26 1.08-5.53 2.85-7.84 1.09-.36 1.62.16 1.85 1.17 1.93 1.28 2.25 2.68.23 4.14l-4.05 2.65c-.35.44-.65.43-.88-.11z" fill="#c9762e"/><path d="M135.5 69.59l-1.85-1.17c-.99-2.33 1.9-1.46 2.25-2.64-.3-1.73-3.19.62-2.9-1.92 2.25-.69 4.25-.59 5.15 2.02.81 2.37-.8 3.17-2.65 3.71z" fill="#4b1d08"/><path d="M130.81 76.27c.3.01.59.05.88.11-1.08 2.95-3.01 2.18-5 1.15.12-2.83-4.58-.84-4.07-4.06 3.17-2.09 5.06.11 7 2.1l1.19.71z" fill="#62230c"/><path d="M129.61 75.56l-7-2.1-1.91-4.98c2.04-.02 2.98-1.11 3.01-3.09 2.12.67 3.95-.24 5.8-1.08-.07 1.83-1.55 2.8-2.59 3.97-1.25 1.41-.62 2.3.47 3.24 1.61.86 2.01 2.39 2.22 4.03z" fill="#d8843b"/><path d="M246.52 89.53c.5 1.21.84 2.53 1.53 3.62 3.92 6.2 3.95 6.19-1.24 11.51-1.38 1.41-2.95 2.7-3.3 4.81-.72.58-.99 1.47-1.51 2.2-1.72 1.51-3.14 3.3-4.81 4.86a8.44 8.44 0 0 1-1.26.58c-3.23 1.46-7.74.18-9.61 4.52-1.79 1.7-4.02 2.54-6.28 3.34-2.54 1.44-5.57 1.07-8.19 2.24-2.04 2.53-5.61 1.59-7.94 3.48-.8 1.67-2.2 2.31-3.97 2.35-8.79-.29-11.77-2.98-11.02-9.92a20.79 20.79 0 0 1 .37-1.56c1.38-1.94 3.49-2.81 5.54-3.84 2.79-1.4 5.6-2.86 7.08-5.88 2.15-2.37 5.4-2.38 8.02-3.77 2.71-.1 4.87-1.56 7.07-2.91.63-.26 1.28-.47 1.96-.56 1.13-.1 2.04-.78 3.03-1.24 1.56-.17 2.85-.84 3.77-2.15 1.51-.99 3-2 4.55-2.92 2.79.55 4.15-1.33 5.55-3.2 2.66-3.54 5.91-5.98 10.65-5.56z" fill="#0c0705"/><path d="M239.52 84.47c-1.27.12-2.46.36-2.81 1.87-.36 3.37-3.82 3.08-5.6 4.76-3.13 1.69-6.47 2.61-10.03 2.69-.46.08-.93.13-1.4.15-4 .8-8.86-.22-10.73 5.09-.16.5-.42.93-.78 1.31-4.21 2.04-6.67-.44-8.92-3.45-1.18-3.31.59-5.44 3.42-5.88 3.75-.58 7.12-2.55 10.94-2.58.52-.03 1.03-.11 1.54-.22 6.02.09 10.89-3.62 16.45-5.03a35.95 35.95 0 0 1 1.49-.36c2.21-.32 4.56-1.96 6.45.68 0 .32-.01.65-.02.97z" fill="#351916"/><path d="M234.51 78.4c5.04-.69 8.53-5.89 14.16-4.87l-.24.81c-.1 2.33 2.53.51 3 1.97 2.88.97 7.87-2.19 8.05 4.09l-2.93.13c-4.9 1.04-9.94-.38-14.84.82-2.72-.2-5.84.56-7.2-2.96z" fill="#b66f34"/><path d="M241.58 80.62c4.99-.38 9.97-.96 14.97-.08-2.73 1.5-5.74.88-8.61.93-3 .05-5.82.42-8.4 2.02l-7.06.81c-.3-2.95 1.55-3.48 3.89-3.44 1.74.03 3.5.39 5.21-.24z" fill="#663722"/><path d="M267.52 80.45l-3.56-1.52-.06-1.46h15.61l-11.99 2.98z" fill="#633923"/><path d="M199.63 74.35c10.9 2.81 22.01 2.18 33.1 2.14l-1.29 1.92a2.76 2.76 0 0 1-1.21 1.18c-3.42.61-7.12 2.11-10.16 1.86-7.71-.63-15.82 1.17-23.17-2.68-.72-2.48-.43-4.34 2.74-4.41z" fill="#ea9d98"/><path d="M230.62 78.46c.27-.04.55-.05.82-.05h3.07l7.07 2.22c-2.42 2.74-6.78.69-9.1 3.69l-.02-.01q-2.3-.58-2.46-4.69a2.35 2.35 0 0 1 .61-1.14z" fill="#8e4f26"/><path d="M188.75 135.67l-2.18-2.28c-1.37-1.03-3.25-1.18-4.45-2.53-2.37-3.05-6.4-5.41-4.26-10.32 4.59-1.95 8.66-.28 12.66 1.86q.37 6.46 10.3 9.17c1.37 1.08.21 2.62.7 3.87l.82.85c-4.77-.5-4.36 4.41-6.72 6.44-3.88 1.88-3.11-2.76-5.05-3.6-1.46-.7-1.5-2.15-1.83-3.45z" fill="#1c1115"/><path d="M202.57 146.38l2.88 4.07c-3.14.75-3.72-2.32-4.87-3.85-.64-.85 1.24-.22 1.99-.22z" fill="#9d814f"/><path d="M211.53 126.32c2.38-1.59 5.17-2.1 7.84-2.9 4.57 1.61 9.18 1.19 13.8.26 1.52-.22 3.14-.66 3.55 1.59-.93.87-3.03.62-2.98 2.17.05 1.66 2.12 1.16 3.12 1.85 1.44.99 4.82.26 3.47 3.95-1.67 4.55-2.59 4.89-6.14 1.56-2.49-2.34-4.64-5.27-8.73-4.4-3.34-2.38-7.65.79-10.93-1.91-.17-1.34-1.15-1.07-2.03-1.02-.61-.14-.96-.5-.98-1.15z" fill="#3a211c"/><path d="M248.52 121.56l1.68 1.85c-.06 1.06 1.53 1.83.54 3.05-1.65-.43-1.86-2.74-3.66-2.92-1.11.77-.85 1.78-.75 2.76.25 2.35-.72 3.45-2.76 1.91-1.59-1.21-3.62-.49-5.05-1.75-.07-1.04-.2-2.09.58-2.96 2.42-1.89 3.97-6.11 8.23-3.06l1.2 1.12z" fill="#42261a"/><path d="M233.87 140.61c2.56 1.39 2.08 4.22 1.53 5.85-.74 2.18-2.65-.78-4.14-.24l-1.68.27c-1.4-2.51-1.58-5.33-2.05-8.08 1.62 2.18 3.28 4.22 6.35 2.19z" fill="#5b2c13"/><path d="M239.72 124.36l-1.2 2.1-1.79-1.19c-1.1-1.01-2.13-.04-3.19.12-.69-.69-1.95-.24-2.49-1.23.88-4.61 2.6-5.52 7.5-3.97 1.48 1.08 1.9 2.46 1.18 4.16z" fill="#7c433e"/><path d="M176.42 67.29l1.02-.01c3.23-4.54 6.65-.67 10-.24a10.83 10.83 0 0 0 .79.13c.18.19.37.38.56.56 1.26.8 3.56.66 3.27 2.92-.3 2.35-2.27 1.66-3.83 1.71-1.3.04-2.19 1.4-3.58 1.3-2.84-.91-5.95-.73-8.68-2.1-1.42-1.08-1.68-2.41-.85-3.97a1.22 1.22 0 0 1 1.31-.3z" fill="#bc9772"/><path d="M187.44 67.04c-3.33.22-6.71-1.42-10 .24.1-5.3 3.19-3.83 6.12-2.7 1.13 1.07 3.23.62 3.88 2.46z" fill="#b15d39"/><path d="M147.23 63.91c11.26-3 20.25 4.68 19.43 16.6-2.65 4.84-4.91 9.87-6.96 14.99l-.13-.06c-.83 3.86-2.97 7.28-3.78 11.16-.23 1.09-.74 2.28-2.31 2.09-2.63-3.03-1.67-6.13.02-9.09 1.01-1.78 1.56-3.21.97-5.48-.97-3.68-.59-7.38 1.67-10.92 2.8-4.37.11-11.84-4.77-14.53-.7-2.17-4.75-1.44-4.14-4.76z" fill="#b62"/><path d="M178.48 121.44c-2.82-2.27-7.79-1.33-9-6.02-1.27-3.5-1.82-7.21-3.03-10.72-.63-1.84-.9-3.53 1.36-4.48 3.12-3.51-.52-7.36.5-10.84 1.65-5.63-.44-11.84 2.81-17.17a1.95 1.95 0 0 1 1.34.18c2.78 2.09 4.42 4.23 1.58 7.68-1.18 1.44-.01 3.49.54 5.15.5 1.52 1.72 2.83 1.03 4.62-.44.86-.87 1.72-1.46 2.49-3.68 4.93-2.63 10.62 2.84 15.31 2.65.69 3.12 2.78 3.27 5.07.99 3.9 3.13 6.47 7.48 6.61 1.43.05 2.57.65 2.88 2.23a2.93 2.93 0 0 1-.09.84c-4.13 1.17-7.93-1.89-12.05-.95z" fill="#58412e"/><path d="M153.62,108.47c2.55-4.08,2.94-9.15,5.95-13.02-1.01,8.27-4.49,15.81-7.02,23.64-1.19-1.34-1.78-2.91-1.86-4.69,1.53-1.7-.49-5.16,2.93-5.93Z" fill="#975527"/><path d="M169.44 59.18l2.27-.85 2.89 1.17c2.07.16 3.18 1.16 1.19 2.65-1.28.96-1.98 2.48-3.47 3.15-2.46.52-3.62-1.08-4.68-2.86-.17-1.51.15-2.75 1.79-3.26z" fill="#6c2210"/><path d="M167.65 62.44c1.52 1.1 2.99 2.3 5.06 1.98.98-.88 1.94-.75 2.89.04l.83 2.83c-.23.16-.49.25-.76.28-1.07 1.38-2.23 2.36-3.98.98-.54-2.57-4.03-3.19-4.03-6.11z" fill="#3d160c"/><path d="M175.6 64.46l-2.89-.04c-1.17-1.49-3.69-3.37 1.04-2.84 1.58.18 2.96-.41.85-2.09.9-.91 1.8-.7 2.37.26 1.18 1.99-.51 3.25-1.38 4.71z" fill="#af5b39"/><path d="M145.41 66.75l.34 1.74c1.48 1.51 2.78 3.17 4.12 4.8 2.17-.27 1.96-3.7 4.52-3.14 2.7 4.63 4.89 9.27 1.24 14.47-2.14 3.06-1.96 6.44-1.01 9.84 1.24 4.39-1.59 7.82-2.8 11.61-.33 1.03-1.86 1.27-3 .39l-3-6.27c-1.64-3.05-5.55-4.91-4.79-9.21.99-3.89.87-7.77.36-11.74-.61-4.69-.02-9.2 4.01-12.5z" fill="#da8732"/><path d="M141.04 90.99c2.17 2.77 4.33 5.55 4.79 9.21-4.75-4.35-10.24-7.46-16.22-9.75 3.17-2.59 6.56-2.7 10.12-.89l1.31 1.43z" fill="#190e21"/><path d="M194.75 68.56c.23 0 .45.03.68.09.73 2.4 3.87 3.01 4.21 5.7-1.49.96-2.08 2.39-2.14 4.09-2.25 2.45-4.44 2.07-6.6-.12-.87-1.68-.22-3.42-.15-5.14 1.28-1.59 1.92-3.74 4.01-4.62z" fill="#d6869f"/><path d="M148.83 106.47c5.1-2.21 4.93-6.82 4.35-11.01-.61-4.44-.32-8.24 1.67-12.44 1.87-3.95 1.94-8.64-1.27-12.53-1.66.2-2.5-.37-2.07-2.17.05-.32.13-.62.24-.93 5.1 1.24 9.15 9.93 6.53 14.97-2.24 4.3-3.87 8.37-1.52 13.09.6 1.2.04 2.3-.7 3.21-2.38 2.9-2.72 6.27-2.44 9.81-.41 2.26-.33 4.75-2.93 5.93l-1.86-7.93z" fill="#cb732c"/><path d="M210.35 109.01l-6.93 4.33c-2.81.96-5.11 3.43-8.45 2.81-4.29-3.92-4.27-6.84.08-10.53 6.17-5.25 7.81-5.43 12.7-1.45.77.65 1.41 1.44 2.02 2.25.37.81 1.03 1.58.59 2.59z" fill="#d48d39"/><path d="M195.45 115.27c2.54-1.12 5.13-2.02 7.97-1.92-3.13 4.5-8.22 5.96-12.8 8.21-5.93-.07-10.64-2.1-12.84-8.09.54-.5 1.19-.82 1.89-1.02 2.79-.17 4.45 2.73 7.21 2.66 2.82 1.86 5.73-.8 8.57.17z" fill="#ddbe90"/><path d="M208.52 108.48c-1.87.46-1.95-.93-2.21-2.13-.6-2.48-.37-4.83 1.14-6.96l.24-1.42c3.15-2.35 5.76-.19 8.49 1.01 2.42 1.77 6.22 2.88 3.42 7.15l-2.03.42c-3.19-.18-5.92 1.81-9.04 1.93z" fill="#e1c39c"/><path d="M239.72 124.36l-2.22-3.08c-1.45-2.86-3.52-1.45-5.45-.76-1.62.58-2.67 2.59-4.8 1.94-1-.37-1.69-1-1.83-2.11 1.98-4.51 6.43-3.83 10.09-4.81 1.95 1.51 3.88 2.52 6.64 2.03 2.06-.37 4.18.6 5.18 2.87-1.5.05-3.08.04-3.66 1.82-.66 2.02-2.21 2.18-3.94 2.1z" fill="#33133c"/><path d="M225.41 120.34l2.02 1.11c1.41.89 2.96 1.57 4.18 2.76l1.92 1.17c-4.14 1-8.35 1.07-12.58 1.06-2.73-.01-2.53-1.25-1.57-3.03 1.8-1.44 3.69-2.71 6.04-3.08z" fill="#452445"/><path d="M207.45 99.39l-1.14 6.96c-1.82-3.67-4.2-3.47-7.04-1.12-3.19 2.65-7.71 4.72-3.81 10.03-2.52 3.34-5.31 4.97-8.92 1.4-.1-.67-.33-1.31-.41-1.98 1.37-5.6-2.62-9.73-4.02-14.58-.55-1.77-.52-3.5.41-5.16 1.27-1.25 1.92-3.15 3.86-3.72 2.4-.59 4.38 1.57 6.78 1.01 3.06.31 4.84 2.97 7.47 4.08 2.49.55 3.91 3.45 6.82 3.07z" fill="#bc742d"/><path d="M192.59 94.38c-2.3-.02-4.38-.68-6.23-2.05-1.14-.43-1.93-1.17-2.15-2.42-.27-2.49.15-4.65 2.8-5.72 6.76.31 13.36-2.02 20.16-1.25 1.47.17 3.1-.31 4.42.43 4.7 2.63 8.52-.22 12.32-2.08 1.81-.89 3.24-2.26 5.41-1.4 1.68 2.83.44 4.6-2.23 5.65-3.9 1.53-7.9 2.8-11.55 4.9-.32.05-.64.06-.96.05-3.41.62-6.57.84-9.93-1.04-3.93-2.19-8.87.16-12.06 4.92z" fill="#955629"/><path d="M192.59 94.38c-1.89-3.57-.35-5.48 3.04-6.8 3.33-1.29 6.85-.97 10.26-1.51.54-.09 1.68.36 1.7.63.41 4.9 4.16 3.5 6.99 3.8-3.65.83-7.32 1.56-10.93 2.52-1.56.42-3.96.45-3.02 3.31-3.03.79-5.43-.99-8.04-1.94z" fill="#794623"/><path d="M215.54 90.44c2.01-2.47 4.3-4.19 7.77-4.33 3.4-.13 4.58-3.28 6.23-5.65.07-.37.25-.66.55-.89l.54-.06c1.3.07 2.47.21 1.5 2.01-.52.97-.41 1.92.34 2.77-5.4 2.71-11 4.88-16.93 6.15z" fill="#663722"/><path d="M191.59 76.43c1.05 3.34 3.78 1.8 5.9 2.02 6.73 1.81 13.64-.5 20.6 1.37 3.57.96 8.14-2.06 12.53-1.36l.01 1.06-.16-.12c-2.72.59-5.18 1.68-7.63 3.08-3.61 2.05-7.42 2.9-11.83 1.64-5.43-1.56-11.13-.57-16.73-.3-6.1.29-7.3-1.45-5.21-7.34.83-.63 1.67-.64 2.52-.05z" fill="#d78646"/><path d="M231.62 124.22c-2.22.34-3.95-.08-4.18-2.76 2.2-1.47 3.57-4.13 7.2-3.33 2.25.5 2.67 1.41 2.85 3.16-2.83-.75-4.33 1.14-5.88 2.93z" fill="#612364"/><path d="M194.75 68.56c-.31 2.06-2.09 3.11-3.17 4.64-1.92 2.47-4.18 2.59-6.71 1-.5-.52-.57-1.1-.21-1.73 1.83-1.01 3.5-2.61 5.85-1.28.59-2.03-1.4-2.27-1.72-3.46 2.11-.59 4.08-.2 5.96.83z" fill="#d8bac4"/><path d="M184.66 72.47l.09 1c.21.8-.12 1.4-.69 1.92-5.9 1.12-6.87.56-8.6-4.98l.05-.01c3.07.61 6.28.61 9.15 2.08z" fill="#e6c697"/><path d="M175.46 70.4c2.7 1.37 4.17 5.13 8.07 4.16.58.38 1.08.83 1.33 1.5.29 1.56.11 3.14.2 4.71 1.27 3.28-2.25 6.69.25 9.94l1.04 1.62c-.9 1.07-.97 2.85-2.72 3.18-4.89 4.06-5.79 8.66-2.4 12.33 1.13 2.36 1.15 4.39-1.68 5.54l-1.76.08c1.17-2.38 1.39-4.25-2.18-4.11-2.5-2.55-1.75-6.27-3.32-9.24-.81-1.54-.52-3.76-1.34-5.59-.79-1.77-.05-3.16 1.71-3.96l1.83-1.18c1.11-.86.59-1.71-.04-2.53-.51-.67-.94-1.35-.96-2.23-.05-2.53.46-4.74 2.06-6.92 1.78-2.44-4.25-3.11-1.86-6.13l1.78-1.16z" fill="#bb9763"/><path d="M173.68 71.56c1.59 2.53 3.48 4.62 6.92 4.38-.33 1.63-1.55 2.24-2.56 2.94-3.15 2.17-4.26 4.77-2.21 8.34.73 1.27 1.07 2.68-1.35 2.16-.93-2.5-3.23-4.34-3.27-7.33-.01-.94-.69-2.19.18-2.69 3.81-2.14 1.09-4.47.37-6.75l1.91-1.05z" fill="#927140"/><path d="M151.51 66.25l2.07 2.63-.25 5.34c-.3 2.24-1.69 3.44-3.41 3.73-2.12.35-2.12-1.85-2.52-3.53-.62-2.63-2.15-4.99-1.65-7.96l5.77-.21z" fill="#e6865b"/><path d="M179.54 113.38c.9-1.57.69-3.32.79-5.01-.58-1.21-.1-1.99 1.02-2.52 3.22-.26 4.26 2.01 4.83 4.47.4 1.73.64 3.5 1.33 5.16l-.98 1.19c-2.88.08-5.59-.22-6.99-3.28z" fill="#51250f"/><path d="M181.33 106.18l-.99 2.19c-3.08-.02-4.02-1.93-3.67-4.55.3-2.25 1.13-4.43 1.49-6.68.72-4.5 2.5-4.97 5.48-1.62 1.01 1.14-.41 2.87.95 3.93-.95 2.31-.19 5.44-3.25 6.73z" fill="#e6c492"/><path d="M181.33 106.18c.18-2.68 2.01-4.56 3.25-6.73.73 2.01.81 4.05 2.71 5.84 3.12 2.94-.14 6.75.23 10.18l-6.19-9.29z" fill="#8a4c22"/><path d="M187.46 77.58l2.32-.79c-.63 3.25-.23 4.9 4 5.23 7.05.54 14.17 0 21.17 1.37 2.3.45 4.57-.22 6.59-1.57 2.69-1.8 5.7-2.54 8.92-2.41l-.93 1.07c-4.51.59-7.32 5.06-12.08 5.22-1.43.05-2.84.88-4.34.26-6.28-2.55-12.61-1.88-18.93-.22-2.28.6-4.52 1.13-6.69-.3-3.17-.69-3.04-3.07-2.82-5.49.31-1.52 1.76-1.69 2.79-2.37z" fill="#b76c30"/><path d="M293.682 171.977l-4.849 54.977-23.041-2.032 4.849-54.977z" fill="#0f0908"/><path d="M273.5 181.37c-2.35-.15-5.09-1.08-4.42-3.52.87-3.2.86-7.63 5.71-8.43 5.57-.92 11.14-1.81 16.8-2.04 5.13-.21 10.25-.71 15.37-.73 4.56-.02 8.75.88 11.83 5.04 3.25 4.38 7.69 7.91 8.82 13.64.27 1.37 1.51 3.13-.46 3.91-1.55.62-2.11-1.18-2.83-2.24l-7.53-11.12c-2.09-3.13-4.72-4.12-8.08-2.09-3.35 2.03-8.4 2.74-6.71 8.75.99 3.53 1.86 7.03 3.97 10.15 4.23 6.25 7.39 12.98 8.73 20.51.62 3.48 2.55 6.48 3.96 9.67.59 1.34 1.27 4.07 1.17 4.1-5.58 1.98-4.32 10.31-10.65 11.45-2.37-.21-2.5-2.42-3.45-3.89-1.79-5.57-3.4-11.2-5.65-16.62-.2-5.64-1.41-11-4.35-15.88-1.26-1.2-2.04-2.68-2.61-4.29-.4-2.71.56-5.62-1.12-8.16a45 45 0 0 0-1.59-3.97c-1.31-1.89-.96-4.15-1.43-6.22-.21-1.23-.83-2.06-2.18-2.19-5.17-.91-9.12 2.03-13.32 4.15z" fill="#060405"/><path d="M201.15 156.11h20.98v14.37h-20.98z" fill="#c4a774"/><path d="M235.4 161.63c-.34 3.69 2.17 6.92 1.97 10.77-2.75-.4-2.4-3.58-5.03-4.53 2.38 5.98-2.35 3.92-4.74 4.66.69-1.63 1.46-3.24 2.05-4.91.69-1.96.03-3.17-2.19-3.24-2.91.1-5.04 3.41-8.31 2-.46-.05-.91-.16-1.34-.33-1.5-1.76-3.63-2.91-4.81-4.99.27-3.11-3.86-3.13-4.13-5.87.03-.5.2-.95.48-1.37 1.71-1.01 3.56-1.75 5.32-2.67 3.36.22 6.47 1.24 9.33 2.99 1.73 1.06 3.56 1.95 5.59 1.81 4.19-.29 5.5 2.14 5.82 5.69z" fill="#351717"/><path d="M200.7 170.49c-2.39 1.7-6.62.7-7.28 4.95-1.84 1.13-2.51-.04-3.03-1.53-.19-.67-.32-1.35-.45-2.04-.56-3.51-2.71-6.74-1.51-10.55 2.13-6.75 7.49-7.84 13.49-7.94 2.54 1.38 4.41 3.06 2.9 6.29-.36.98-1.09 1.63-1.95 2.16-1.52.94-1.11 2.16-.52 3.46 1.01 2.21.04 3.83-1.65 5.2z" fill="#80684b"/><path d="M279.5 248.32c-1.02-3.34 4.57-5.23 1.95-8.91-.98-3.25-2.28-6.12-6.4-6.21-.86-.02-1.98-.45-1.53-1.85-1.23-2.8-5.89-1.23-6.36-4.99-5.58.73-4.52-3.97-5.64-6.9-.04-1.04-.48-.38-.81-.19l-6.52-3.63c-3.43-2.02-3.01-4.28.16-5.88 2.63-1.33 4.67-3.19 6.49-5.33 2.53-2.97 1.67-5.46-2.2-5.86-6-.61-11.89-.34-17.27 3.2-8.15 5.36-15.65 2.52-19.2-6.6-2.13-5.47-5.75-10.11-10.34-13.84-2.92-2.37-9.01-1.12-13.97 3.07-2.06 1.74-3.56 2.25-5.46.19-.01-.21-.02-.43-.04-.64-.13-2.04-3.17-2.62-2.53-5.05.26-.88.85-1.49 1.6-1.95.92-.68.72-1.82 1.08-2.74 1.04-3.75 3.74-5.12 7.36-5.2 5.96-.78 12.25.39 17.76-3.01 4.01.64 6.96-2.25 10.5-3.2 3.01.32 3.87 2.03 3.26 4.84-.35 1.61-.46 3.27-.98 4.83.23 5.6 1.16 6.55 6.69 6.33 1.7-.07 3.28-.27 4.29 1.46 1.07 3.41.25 7.53 4.47 9.71 4 2.06 8.13 1.46 12.21 1.28 7.06-.31 8.67.34 11.68 6.65 2.07 4.33 3.86 8.8 5.85 13.17.65 1.42.32 2.59-.54 3.7-1.7 2.2.1 2.84 1.58 3.64 6.29 4.76 8.76 11.94 11.81 18.74.31 1.71 1.24 2.96 2.74 3.87 3.52 2.14 1.68 3.83-.77 4.65-3.54 1.19-7.27 1.81-10.91 2.67z" fill="#0e0907"/><ellipse cx="268.23" cy="32.86" rx="6.17" ry="13.78" transform="matrix(.087851 -.996134 .996134 .087851 211.94 297.17)" fill="#211110"/><path d="M281.55 34.65c.43 4.61-4.27 10.6-8.1 9.23-2.26-.81-6.69-1.26-6.76-5.74-.03-2.01-1.8-1.69-3-1.46-2.38.44-3.48 2.12-2.6 4.35.76 1.91 1.64 3.61.29 5.55-1.3.4-2.24-.11-2.99-1.15-.33-3.64-1.86-7.14-1.31-10.89.38-1.51 1.34-2.43 2.87-2.73 6.07 1.65 12.43 1.36 18.57 2.65l3.03.18z" fill="#412a1a"/></svg>