<svg xmlns="http://www.w3.org/2000/svg" viewBox="0 0 197.21 112.5" xmlns:v="https://vecta.io/nano"><path d="M.21 64.75h196.8v47.75H.21z" fill="#908894"/><path d="M.24.08h196.97v68.17H.24z" fill="#322553"/><path d="M6.33 112.04l-6.01.02V80.8c1.51-1.41 2.7-.89 3.93.49.8.9 1.84 1.58 2.25 2.79.14 1.91-2.29 1.78-2.62 3.31-.61.85-.49 1.61.29 2.28 2.17 1.86 1.47 3.5-.35 5.08-1 1.43-1.89 2.9-1.21 4.75 0 .11.03.23.03.36-.02-.29-.09-.58-.17-.86-.11-1.48.48-2.19 1.95-1.55.79.35 1.52.89 2.22 1.43.57.67.7 1.46.64 2.3-.03.3-.11.6-.2.89l-.44 1.24c-.05.98-1.05 1.33-1.37 2.09.95.7 2.53.11 3.07 1.54.33.89.12 1.65-.53 2.3-1.8.28-3.72-.44-5.68.78 1.35 1.09 2.77.55 4.08.62.46.43.51.9.12 1.41z" fill="#746c70"/><path d="M.32 71.49l.72-.76c1.72-3.22 4.54-4.67 8.08-4.93.71.37.82 1.15 1.21 1.74.38.42.93.6 1.38.94.8.83 2.26 1.37 1.39 2.98-.03.93.76 1.42 1.14 2.13-1.33.01-2.53 1.12-3.94.5-.13-.78-.61-1.2-1.36-1.37-1.56-.21-3.14-1.57-4.65.12-2.63-.48-2.73 2.09-3.96 3.29v-4.66z" fill="#766669"/><path d="M50.39 101.42c.03-1.72-.58-3.28-1.28-4.81a1.69 1.69 0 0 1-.81-.53c-.44-.88-.74-1.82-1.14-2.72-.31-.95-.18-1.9.03-2.85.49-2.02-.29-3.93-.5-5.9 0-.34.08-.66.19-.97 1.5-3.84 4.11-4.29 6.78-1.15.78.92 1.67 1.91 1.87 3.1.81 4.89 4.75 8.13 6.47 12.53.33.83 1.11 1.36 1.92 1.77.46.25.8.62 1.05 1.08.7 2.25-.37 3.76-2.08 5.01-.45.29-1.02.43-1.31.96-.45 1.3.13 2.74-.58 4-4.48 2.02-7.77 1.08-9.74-2.76-.23-.28-.38-.6-.48-.94-.2-.99-.42-1.98-.69-2.97-.16-.98-.16-1.94.29-2.86z" fill="#060406"/><path d="M18.93 101.31l.88-3.44c.63-.44 1.22-.31 1.78.14.66 1.08 1.39 1.99 2.88 1.67.85-.18 2-.59 2.45.25.66 1.24-.95 1.45-1.46 2.19l-.59.79c-.57 1.44-1.76 1.18-2.9 1.04-1.11-.28-2.05-.82-2.73-1.76-.16-.27-.27-.56-.31-.87z" fill="#7e7b8b"/><path d="M31.6 98.76c.81.01.93 2.44 2.53.37 1.39-1.8 7.3-1.25 8.91.27l-.2.7c-.97.19-1.73-.56-2.66-.57-.48-.32-.94-.56-1.45-.04s1.46 2.06-.44 1.7c-2.19-.41-4.56 1.45-6.49-.53-.35-.36-.15-1.25-.21-1.89z" fill="#6c575a"/><path d="M52.41 110.72c.47-1.29-.83-2.53-.11-3.83.26.45.59.88.77 1.37.41 1.13-.17 3.01 1.67 3.06 1.99.06 4.39 1.26 5.84-1.32 1.28-1.38 2.92-.87 4.47-.82 1.04.37 1.72.99 1.45 2.22-4.65.4-9.29 1.05-13.98.71-1.69-.32.24-.95-.12-1.38z" fill="#382d2a"/><path d="M30.31 90.79c-.74.7-1.71.62-2.62.77l-2.12-.17c-.28-.49-.68-.94-.69-1.56-.13-.73-.61-1.39-.38-2.19.12-.31.31-.56.56-.78.44-.28.93-.34 1.43-.33 1.01.18 2.05.26 2.91.92 1.03.92 1.32 2.03.9 3.33z" fill="#837375"/><path d="M17.04 98.59c-.82 0-1.22-.43-1.21-1.23 0-.65.35-1.06.97-1.12.76-.08 1.3.24 1.38 1.06.09.83-.34 1.23-1.14 1.29z" fill="#495368"/><path d="M43.66,99.43c.36-1.46,1.54-1.33,2.63-1.34-.07,2.02-.88,2.61-2.63,1.34Z" fill="#535667"/><path d="M5.56 101.31s-.02.03-.03.03.03-.03.03-.03z" fill="#48434b"/><path d="M197.13 56.87l-.02 53.81c-1.1.91-2.41 1.01-3.75 1-8.96 0-17.92.03-26.89-.02-3.27-.02-4.65-1.53-3.7-4.61 2.48-8.12 3.02-16.47 3.37-24.85.08-1.96 1.37-3.49 1.31-5.4.79-4.77 3.74-8.09 7.43-10.9 1.49-1.01 2.42-2.62 3.91-3.64 2.59-1.8 5.24-3.48 8.03-4.98 2.98-1.6 6.1-1.44 9.24-1.52.6-.02.87.58 1.08 1.1z"/><path d="M168.55 76.06c-2.18 10.43-.36 21.4-4.33 31.61-.76 1.96-.12 3.68 2.36 3.62 10.18-.22 20.38.78 30.53-.6l.01 1.28-37.2-.15c-1.69-1.16-1.36-2.74-.99-4.4.7-3.16 2.08-6.21 1.64-9.56-.22-.65-.11-1.3.05-1.94.85-3.4.51-6.43-2.21-9.05-1.31-1.27-2.09-3.07-3.22-4.55-1.03-1.01-.83-3.83-3.28-2.71-2.29 1.04-2.21 3.2-1.16 5.13 2.13 3.9 3.44 8.13 5.15 12.2 2.08 4.98.82 7.39-4.75 8.56-.32-.06-.62-.19-.9-.37-1.33-1.57-1.12-3.89-2.63-5.37-1.22-.66-2.21-1.5-2.15-3.06-1.3-2.74-.91-5.71-1.24-8.59-.14-1.19-.96-2.11-1.29-3.22-.67-4.67-2.36-5.51-6.3-3.03-1.19.75-2.33 1.32-3.66.56-1.39-.8-1.8-2.13-1.77-3.65.05-2.73 1.45-4.73 3.44-6.43 6.36-.81 12.75-.35 19.12-.29 2.38.02 3.29 1.98 4.61 3.37.73.76.9 2.05 2.17 2.32 2.28 2.18 4.06 1.44 5.68-.89.5-.72 1.26-1.31 2.28-.75z" fill="#080503"/><path d="M197.12 36.07l.09 12.78c-1.56 1.58-3.47.9-5.28.82-.68-.25-1.19-.75-1.13-1.45.36-3.9-1.62-6.67-4.33-9.09-.6-.54-.84-1.28-1.16-1.97-1.15-1.9-3.06-1.92-4.93-1.94-5.14-.05-10.29 0-15.43-.02-2.16-.04-4.35-.06-3.55-3.28.83-1.22 1.85-.52 2.9-.36 2.76.42 5.52 1.02 8.33.58 2.39-.48 4.84.19 7.75-.35-2.64-1.11-4.29-2.83-5.92-4.58-.94-1.01-1.66-2.11-.91-3.57 5.6-1.37 10.65.04 15.26 3.19 2.83 1.93 4.55 4.58 4.28 8.19 1.32.48 2.97-.33 4.03 1.05z" fill="#634c4d"/><path d="M191.92 36.17c-2.13-1.2-2.11-1.18-.43-2.94.93-.97-.15-1.66-.6-2.12-4.63-4.8-9.84-8.4-17.01-7.51-3.02 2.17-6.55 2.01-8.71-.38.76-1.23 1.73-1.07 2.77-.42l29.26.06.01 11.36c-1.26 2.01-4.05-.09-5.3 1.95z" fill="#58434a"/><path d="M197.13 56.87c-7.16-1.08-12.67 2.38-17.95 6.49-1.63.68-2.98 2.43-5.07 1.3a1.27 1.27 0 0 1-.48-.92c4-2.81 7.79-5.92 12.29-7.97 3.01-.66 5.82-2.15 9.02-2.06.8.02 1.53 0 2.18.52l.01 2.65z" fill="#4c3a33"/><path d="M197.12 54.22l-11.26 2.54c-.59-1.79.93-2.7 1.95-2.94 2.36-.57 3.7-2.24 5.21-3.8 1.44-.24 2.89-.54 4.07.69l.03 3.52z" fill="#5a453e"/><path d="M197.08 50.7l-4.52.14c-.94.38-1.71.13-2.12-.78-.3-.68-.13-1.25.8-1.23l5.98.02-.13 1.86z" fill="#2f1d17"/><path d="M191.92 36.17c-.69-1.16-.47-1.94.98-1.99l4.32.04-.09 1.86-5.21.1z" fill="#2b1818"/><path d="M151.13 104.76c5.04-3.62 4.93-3.59 2.89-9.55-1.26-3.68-2.89-7.19-4.46-10.73-1.54-3.46-1-4.86 1.99-6.18 3.18-1.4 4.02 1.01 5.04 3.12-4.02 1.35-3.98 1.33-1.99 5.35.98 1.97 2 3.96 2.58 6.05.72 2.58 1.95 4.29 4.73 4.56.86 5.02-1.88 9.54-1.98 14.42l-7.26.17c-2.07-2.08-2.61-4.48-1.54-7.22z" fill="#0f0709"/><path d="M102.2 109.46l-.25-.1-.27.01h-.03c-.75-.69-1.22-1.48-.98-2.55.51-1.78 1.63-2.95 3.44-3.44 1.5-.06 2.33 1.03 3.24 1.95 1.4 1.41 3.04 2.44 4.77 3.41 1.79 1 1.79 1.24.83 2.98-2.54.03-5.09-.17-7.61.07-1.95.18-2.77-.64-3.15-2.32z" fill="#0c0707"/><path d="M102.2 109.46c.93 1.6 2.33 2.08 4.14 1.98l7.24-.07c1.08-1.7 2.86-1.36 4.47-1.52 4.17-.4 8.35.57 12.51-.11 3.19-.19 6.37.73 9.57.09 4.44.33 8.8-.94 13.25-.65.86.91 1.06 1.86.18 2.87l-47.91.03c-1.82 0-3.79.21-3.43-2.62z" fill="#272222"/><path d="M9.05 68.9l-.12-2.83c-.41-.88-1.21-1.57-1.26-2.63.02-.32.11-.61.25-.89 1.12-.9 2.2-1.88 3.82-1.6 1.86-.36 3.52-.14 4.59 1.68 2.02 2.36 3.24 5.55 6.78 6.33 1.01.22 1.71.94 1.64 2.13-.32 1.43-1.72 1.32-2.66 1.86-1.79.1-3.64-.11-5.22 1.05-.51.01-.92-.19-1.23-.59 1.09-2.53-1.94-.72-2.08-1.96-.25-.8.2-1.59.05-2.37-.4-1.52-1.43-.95-2.23-.56-.77.38-1.45.87-2.33.37z" fill="#776c7c"/><path d="M15.44 69.36c.53 1.73-1.85.87-1.88 2.1h-.24-.23c-.29-1.53-1.97-1.11-2.76-1.94 1.63-2.4 3.38-.79 5.11-.16z" fill="#928389"/><path d="M8.25 63.46c-.29 1 3.49.96.68 2.61-1.83.52-.86 2.94-2.43 3.64-1.05-.29-.22-1.51-1.13-1.96-.63 2.12-2.98 1.79-4.32 2.98l.06-1.37c-.09-3.4 3.24-4.27 4.85-6.42.52-.7 1.64-.17 2.31.52z" fill="#53454f"/><path d="M8.25 63.46c-2.72 1.56-5.39 3.18-7.15 5.9l.03-3.25c.44-2.89 3.58-3.55 4.82-5.78 1.08-.55 1.8-1.51 2.66-2.3.88-.81 1.94-1.41 3.2-.62.8 1.17.3 2.09-.65 2.81-1.05.8-1.9 1.78-2.78 2.75-.03.17-.07.34-.14.5z" fill="#2e252f"/><path d="M6.32 60.87c-.44 3.03-3.67 3.29-5.19 5.24l-.04-3.31c2.04-.62 3.07-2.83 5.21-3.31.44.45.38.91.02 1.38z" fill="#110c14"/><path d="M94.18 108.86l.15.66c.1 1.63-.26 2.56-2.3 2.51-5.91-.15-11.82-.06-17.72-.07-.22-.31-.22-.62-.03-.94 1.6-1.71 3.72-1.02 5.64-1.16 3.3-.24 4.05-1.49 2.58-4.49-.24-.5-.67-.89-.89-1.4-1.25-2.86.39-5.57 3.62-5.95 1.62-.19 3.33.33 4.86-.59 2.4-.21 3.37 1.14 3.64 3.28-.05.89-.05 1.77.35 2.61 1.34 1.82.39 3.69.11 5.54z" fill="#1b140e"/><path d="M65.62 111.37l-1.31-1.3c-1.6-.77-3.23-1.51-3.23-3.68.03-.33.13-.62.33-.88.18-1.64 1.78-2.52 2.18-4.04 2.68-.28 3.41 2.12 4.37 3.66.98 1.57 1.84 3.4 2.28 5.3-.37 2.04-2.25.9-3.28 1.54-.54.03-1.1.08-1.34-.59z" fill="#1a0e09"/><path d="M66.96 111.96c.83-.67 2.44-.25 2.61-1.85-1.65-3.21-1.63-3.29 1.22-3.66 2.34.83 3.5 2.48 3.44 4.98a2.5 2.5 0 0 0 .07.54h-7.34z" fill="#553e2d"/><path d="M47.08 84.1a4.48 4.48 0 0 1-.2-.62c-.33-.38-.63-.77-.84-1.23-.24-.79-.71-1.54-.43-2.42 1.89-5.4 2.8-10.8-.05-16.19a3.41 3.41 0 0 1-.18-2.88c2.3-2.24 4.14-2.15 6.45.33a7.95 7.95 0 0 1 .12.98c-.62 2.04-.39 3.89 1.11 5.52.75.81 1.41 1.71 1.44 2.9.08.8-.51 1.56-.11 2.37.44.75.94 1.45 1.53 2.08 1.42 1.31 1.77 2.86.6 4.42-.91 1.23-.58 2.08.49 2.77 1.58 1.03 2.54 2.73 4.28 3.63 1.4.72 2.15 2.46 1.49 3.72-1.96 3.71-.52 7.04.59 10.47-.05.33-.2.6-.44.82-.9-.06-2.03-.13-2.26-1.07-1.3-5.13-6.89-7.92-7.3-13.55-.06-.89-.87-1.77-1.47-2.56-2.08-2.74-3.28-2.59-4.82.52z" fill="#130b0b"/><path d="M62.92 100.76l.05-.67c-.61-.8-.92-1.72-1.19-2.68-.5-1.75-1.13-3.49 1.03-4.56 2.01-.99 3.84-.79 5.21 1.2.31.45.65.88 1.01 1.3l2.44 4.26c1.76 2.59.43 5.24-.5 7.8-3.24-.52-1.14 1.69-1.39 2.7l-5.98-8.65a22.14 22.14 0 0 1-.67-.7z" fill="#422b1b"/><path d="M61.63 106.08l2.68 3.99-4.61-.09c.62-1.33-.86-2.6-.12-3.94.69-.28 1.36.03 2.04.04z" fill="#7e706b"/><path d="M61.63 106.08l-.47 1.54-1.57-1.58c-.24-.76-1.24-1.79-.18-2.23 1.05-.45.89 1.6 2.01 1.7a3.1 3.1 0 0 0 .21.58z" fill="#aaa1a3"/><path d="M17.14 85.34c.24-2.44 2.16-1.8 3.57-1.81 1.19 0 2.38.38 3.57.59-.21 2.51-2.3 1.06-3.43 1.62-1.26.05-2.56.49-3.71-.41z" fill="#6a585b"/><path d="M26.45 87.43c1.16-2.33 2.55-2.49 4.32-.54.62.68 1.16.52 1.42-.34.47-1.54 1.68-1.06 2.73-1.04l.04 1.97c-1.85 1.96-3.87 2.05-6.04.57-.89.07-1.74-.04-2.47-.63z" fill="#574647"/><path d="M35.73 84.05c1.18-3.16 4.03-.82 5.99-1.73 1.46-.68 3.47-.16 5.23-.18l-.07 1.35c-3.76-.71-7.39 1.13-11.15.57z" fill="#78656d"/><path d="M168.55 76.06c-1.55 1.61-3.57 2.82-3.57 5.57 0 1.36-1.15 1.11-1.82.25-.75-.96-1.35-2.02-2.01-3.04-.17-.29-.2-.59-.05-.89.21-.24.47-.42.76-.55 1.65-.17 3.04-.97 3.58-2.48.68-1.91 1.9-3.39 3.04-4.99.47-.66 1.38-1.5.79-2.29-.51-.68-1.61-.45-2.5-.29-3.76.3-7.56 1.16-11.1-.99-.51-.81-.52-1.63-.07-2.47 1.48-1.74 3.69-1.02 5.51-1.64 3.81.07 7.54 1.26 11.38.96.88.34 1.38 1.26 2.47 1.42s1.74.93.9 2.12c-3.65 2.16-5.99 5.34-7.31 9.32z" fill="#2c1f1b"/><path d="M175.86 66.73c.15-1.89-2.18-1.28-2.61-2.58.14-.21.32-.25.54-.14 1.88.44 3.59-.48 5.39-.65l-3.33 3.38z" fill="#190f18"/><path d="M152.08 106.18l.88 3.14c-.08.94-.3 1.91-1.51 1.65-3.55-.77-7 .71-10.52.38-.37-1.32.65-1.74 1.5-2.2 1.22-.66 1.41-1.58.9-2.76.04-1.67-.4-3.2-1.31-4.59-.85-1.98-2.58-3.22-3.98-4.73-1.09-.94-1.82-1.8-1.74-3.58.14-3.06-3.06-5.74-6.23-5.85-2.36-.08-4.56.28-6.74 1.3-3.37 1.58-5.15 1.02-7.42-1.96-1-1.31-1.94-2.67-3.1-3.87-3.15-3.24-3.79-3.31-9.02-.58-3.94-.36-2.24-2.81-1.79-4.81.45-2.1 2.16-2.19 3.81-2.36 2.87-.03 5.62-1.49 8.55-.74.09 2.37 2.35 2.1 3.67 2.97 1.58 2.51 3.58 2.66 5.89 1.04.32-.33.61-.69.98-.97.98-.41 1.62-1.62 2.92-1.32.82.24 1.15.94 1.74 2.14-.12-2.9.17-5.29 2.81-6.24 1.69-.61 3.46-.68 4.56 1.25-.93 1.88-1.92 3.74-1.92 5.91 0 .78.19 1.58.88 2.05.87.6 1.51-.07 1.97-.64 1.79-2.19 4.25-2.6 6.59-1.73 2.41.89 2.26 3.49 2.48 5.67-.42 1.53.12 3.31-1.23 4.59a12.48 12.48 0 0 0 .96 7.16c1.16 1.99 2.65 3.7 4.4 5.19.41 1.48 1.44 2.82 1.02 4.49z" fill="#150d0c"/><path d="M134.6 73.45c-5.57-.19-5.55-.19-6.03 5.22-.12 1.39-.1 3.31-2.07 3.06-2.52-.32-1.5-2.04-.85-3.46.25-.55-.03-1.06-.37-1.51-1.31-1.01-.63-2.28-.47-3.49.16-.88.05-1.8.5-2.62.21-.29.47-.52.79-.69 1.12-.39 2.32-.44 3.45-.78 1.58-.79 3.26-1.14 5.02-1.38 4.84-.65 8.42-4.22 9.31-8.99.68-3.63 2.33-4.38 7.6-3.44.33.09.62.24.89.44 1.52 2.67 3.66 5.09 3.51 8.46v1.81c3.33 2.74 3.97 6.98 5.86 10.51.27.5-.14 1.06-.52 1.49l-.11.74c-1.74.04-2.78-.72-3.57-2.34-1.04-2.13-2.87-3.13-5.4-3.08-5.86.11-11.72.04-17.57.05z" fill="#190f18"/><path d="M161.91 97.38c-3.35 2.47-3.85 2.35-5.25-1.47-1.3-3.53-2.56-7.07-4.57-10.28-1.17-1.87-.87-3.63.58-5.15 1.75-1.83 2.65.44 3.91.94 1.57 2.22 3.06 4.47 4.8 6.59 2.34 2.86 1.13 6.2.53 9.38z" fill="#180e0b"/><path d="M143.37 97.32c-3.04-2.37-1.25-5.51-1.34-8.35 1.02-.39 1.75-1.94 3.16-.79 1.07 2.75 1.34 5.63 1.43 8.55-.95.9-1.97 1.46-3.24.6z" fill="#9f9185"/><path d="M143.37 97.32l3.24-.6.39.84q1.3-.69 1.69 1.04c-.36 1.16.5 2.62-.86 3.54l-4.46-4.82z" fill="#736259"/><path d="M147.83 102.14c.31-1.17-.18-2.54.86-3.54.82 1.95 1.69 3.89 1.93 6.02l-.87 1.51-1.93-4z" fill="#a38f82"/><path d="M191.23 48.83c-.95 1.59.72 1.45 1.33 2.01 1.96 1.4 2 2.17-.54 3.07-2.11.75-4.69.71-6.17 2.86-3.11 1.29-5.43 3.76-8.26 5.48-1.18.72-2.26 1.35-3.65 1.28-.26-3.35 2.85-4.17 4.53-6.07.83-.55 1.9-.48 2.71-1.09.86-.65 2.01-1.26 1.87-2.47-.12-1.07-1.37-.81-2.15-1.1-1.04-.38-2.16-.7-1.77-2.22 1.35-1.36 3.08-.46 4.42-.76-1.38-.28-3.14.61-4.53-.79.84-2.9-.25-4.98-2.35-7.06-2.18-2.15-1.92-4.08.12-6.55 2.63-.4 5.26-.28 7.89-.08 1.09.22 1.18 1.37 1.84 1.98 3.64 1.62 4.55 5.3 6.27 8.35.91 1.61-.74 2.24-1.55 3.16z" fill="#755c55"/><path d="M165.25 22.89c2.79 1.31 5.76.4 8.63.7 1.13 2.66 3.19 4.48 5.61 5.86 1.56.89 2.84 1.92 3.9 3.74-3.61.59-6.91.23-10.18.3-3.52-.98-6.3-3.13-8.79-5.69-1.1-1.14-2.41-1.89-3.78-2.64-1.13-.62-2.49-1.44-.87-2.99 1.94-.73 3.67.41 5.5.63v.08z" fill="#6f5558"/><path d="M159.26 22.88c5.75 2.1 9.4 6.94 13.94 10.62-2.41.02-4.83-.07-7.24.08-1.83.12-3.17-.48-4.18-1.95-2.3.19-4.35-1.04-6.6-1.14-.48-.08-.9-.28-1.21-.66-.72-1.24.63-1.55 1-2.29-1.5-1.18-4.23-1.24-3.68-4.17.31-1.07 1.24-1.37 2.12-1.74 1.98.29 4.16-.37 5.86 1.23z" fill="#7f6066"/><path d="M186.51 37.33c-.81.07-1.12-.45-1.31-1.1-2.9-.72-5.87-.6-8.74-.14-3.82.61-7.58.6-11.38.08-.91-.68-.84-1.29.14-1.84l18.1-.24c2.52-.09 3.4.91 3.19 3.25z" fill="#2c1818"/><path d="M165.22 34.32l-.63 1.08c-.13.74-.76 1.04-1.28 1.43a3.43 3.43 0 0 1-.95.26 3.96 3.96 0 0 1-.97-.06c-1.95-1.21-3.52-3-5.7-3.89-.9-1.11-1.95-2.2-.19-3.45 2.24.19 4.92-1.04 6.28 1.95.02 2.33 1.55 2.74 3.44 2.68z" fill="#35171e"/><path d="M179.24 58.79l-5.3 4.73a2.9 2.9 0 0 0-.14.48 1.95 1.95 0 0 0-.54.14L161.28 64c.14-2.03 1.74-1.89 3.09-2.02q5.59-.53 4.36-5.94c.06-2.84 2.04-3.87 4.33-4.61 1.4.27 2.74.77 4.22.75 1.81-.02 3.68.24 4.33 2.32.66 2.12-.91 3.21-2.35 4.28z" fill="#927462"/><path d="M130.92 111.34l-17.35.03c-3.46-2.03-7.08-3.87-9.42-7.34-.29-2.34 1.77-2.27 3.07-2.98 1.17-.15 2.21-.99 3.47-.73.91.23 1.83.46 2.77.54 1.36-.28 2.72.26 4.05-.02.44-.98-.68-1.28-.84-1.98-.57-.89-.84-1.81-.42-2.84.44-.75 1.11-1.25 1.86-1.65 1.66-.24 2.8.64 3.54 1.92 1.51 2.64 4.66 4.44 3.82 8.34-.25 1.18 1.78 1.69 2.84 2.41 1.53 1.05 3.4 1.86 2.62 4.3z" fill="#170f0c"/><path d="M130.92 111.34c-1.66-2.82-5.13-3.35-7.18-5.65-.55-.62-1.91-.75-1.62-1.85.4-1.55 1.8.65 2.61-.78-2.19-2.62-3.8-5.83-6.45-8.3-1.7.48-2.38-.72-3.09-1.87-2.36-4.81-6.49-7.14-11.54-8.18-.73-.65-.61-1.39-.23-2.15.05-.15.11-.3.16-.44.33-1.49 2.03-1.95 2.52-3.42.38-1.12 1.32-.58 2.23-.32 4.03 1.13 6.45 4.09 8.51 7.37 1.68 2.68 3.51 3.4 6.29 1.63 3.12-1.99 6.66-1.32 10.04-1.06 1.68.13 5.1 5.15 4.41 7.04-.7 1.91.99 1.82 1.33 2.74-.39.46-.48 1.11-.98 1.51-.4.27-.83.38-1.31.31-1.14-1.17-3.82.6-4.23-2.01.2 2.27 3.11 1.09 3.82 2.73 1.88 1.1 2.96 2.57 1.89 4.77-.66 1.35.48 1.64 1.09 2.27.19.27.32.58.39.88.11.06.22.09.38.02.82-.54 1.77-.69 2.61-1.11.31-.06.62-.06.93 0a1.64 1.64 0 0 1 .73.57c1.57 3.07 1.23 3.62-3.32 5.3h-10z" fill="#090505"/><path d="M90.28 11.57l.08 1.32c.25 1.48-.21 2.5-1.83 2.74-2.24-.2-3.31-1.41-3.38-3.67-.03-1.07 0-2.24-.86-3.11-1.68-1.89-4.2.26-5.97-1.24-.83-.72-1.51-1.47-.77-2.64 2.78-1.17 5.67-.67 8.52-.47 1.9.13 2.79 1.51 3.26 3.28.34 1.26-.04 2.7.94 3.8z" fill="#2e111a"/><path d="M77.56 4.97c.05.89.74 1.31 1.33 1.8-.19 1.79-1.02 3.41-1.4 5.16-.34.37-.71.63-1.23.34l-.15-.07c-2.02-3.41-1.65-5.3 1.45-7.24z" fill="#3f2f51"/><path d="M25.69 72.11l-1.36.84c-.91-.99-1.9-.99-3.08-.75-1.43.3-2.66-.03-2.35-2.52.18-1.41-.54-2.08-1.66-2.51-1.55-.61-2.85-1.65-1.64-4.06-.32-.49-.41-1-.14-1.57 1.12-.66 1.54.36 1.94 1.28.68 1.52 1.68 2.31 3.11 2.28 2.46-.39 4.91-1.46 7.39-.09 1.84 2.28 1.15 4.41-.27 6.48-.55.69-1.21.86-1.96.62z" fill="#857e8e"/><path d="M8.39 62.96c-.05-2.48 2.89-3.21 3.22-5.47-.23-.27-.32-.58-.25-.94.45-1.06 1.21-1.63 2.4-1.48 1.06.58 2.04 1.23 2.51 2.41.1.51.04.99-.18 1.46-1.51 1.27-3.54 1.93-4.46 3.88-1.13-1.12-2.15.34-3.25.13z" fill="#413848"/><path d="M11.65 56.86c0 .21-.02.42-.04.63l-5.28 3.38-.02-1.37 11.32-16.61c1.78-1.04 1.41-3.32 2.7-4.65.75.38.9 1.11 1.07 1.83.22.71.2 1.4-.14 2.07-3.3 4.84-6.02 10.07-9.62 14.72z" fill="#120d15"/><g fill="#352d40"><path d="M27.52 24.84l.8.05a.65.65 0 0 1 .83-.1c1.09 1 1.42 2.44 2.14 3.65 1.68 2.84 1.47 3.38-1.72 4.76-.83.02-1.59.47-2.44.4-.68-.11-1.29-.42-1.93-.64-.28-.19-.5-.44-.64-.74.05-2.68 0-5.41 2.42-7.32l.55-.07z"/><path d="M22.94 34.22c.07-.73.19-1.43.75-1.97.41-.4.83-.42 1.26-.03l.07.07c1.94 1.32 2.54 2.98 1.32 5.12-1.08 1.31-2.32 1.06-3.6.36-.36-.45-.41-.99-.41-1.54a3.49 3.49 0 0 1 .61-2z"/></g><path d="M24.95 32.22l-1.26.03c.5-2.71.27-5.74 3.28-7.34-1.92 2.09-1.34 4.87-2.02 7.31z" fill="#2c253f"/><path d="M22.94 34.22l-.03 2.06c-.67 1.43 1.13 4.47-2.57 3.93l-.01-1.98c1.47-.95 1.08-3.1 2.61-4.01z" fill="#251e29"/><path d="M70.97 107.4c-.56-1.4-1.45-2.67-.36-4.32.62-.93.47-2.16-.65-2.92-1.49-1-1.63-2.51-1.64-4.09-1.35-3.83-2.69-7.67-4.43-11.35.17-.69.66-1.11 1.21-1.49 1.18-.45 2.48-.63 3.5-1.48 3.2-2.03 3.94-1.85 5.16 1.55.44 1.23 1.19 1.91 2.38 1.87 5.27-.2 8.79 2.87 12.14 6.3.65.8 1.37 1.54 1.79 2.5.5 1.42.45 2.78-.42 4.06.25.56.89 1.27-.37 1.35-1.1.08-2.22-.02-3.32.05-3.46.22-4.2 1.7-2.26 4.6 1.17 1.75 1.24 3.75 1.45 5.72.19 1.76-1.17 1.58-2.24 1.6l-8.64.07c-1.72-.83-1.9-2.91-3.27-4.02z" fill="#040404"/><path d="M26.95 70.72c.34-1.65 1.29-3.21.68-5l.18-.45c1.33-1.28 3.02-1.21 4.64-1.29 1.22-.06 2.2-.27 2.24-1.83-.31-1.6-1.21-1.15-2.24-.84-1.62.49-3.07.31-3.53-1.84.02-.69-.25-1.35-.28-1.89 0 .75.35 1.9-.9 2.13-1.1.2-1.49-.68-1.77-1.66-.32-1.12-.7-2.22-.85-3.39-.18-.74-.34-1.47-.14-2.23.28-.8.76-1.41 1.49-1.79 3.64-.25 7.26-.96 10.93-.77h1.73c1.68.11 3.4-.28 5.05.36.47.3.79.74.97 1.28.28 2.24 1 4.37 1.51 6.55.62 1.3-.87 2.32-.42 3.59.03.93.32 1.63.88 2.45 2.56 3.73 2.02 14.15-.73 17.86l-1.24-.03c-1.02-.06-1.29-1.25-2.12-1.59a1.53 1.53 0 0 1-.36-.82c.02-1.06 1.01-1.34 1.46-2.05.47-.82 0-1.6-.1-2.39.02-1.53-.86-1.47-1.87-1.17-.79.27-1.54-.12-2.31-.1-1.31.1-1.91-1.13-2.86-1.7-.22-.24-.43-.49-.65-.73-1.27-.98-3.3.5-4.02-.99.34.61-.47 1.48-.66 2.45-.62 1.48-1.29 1.61-2.02.08-.24-1.62-2.28-.78-2.67-2.2z" fill="#948b99"/><path d="M64.3 84.9c3.05 2.2 4.96 7.54 4.01 11.17-.59-.65-1.13-1.36-1.78-1.94-1.26-1.11-2.51-.33-3.69.2s-.98 1.56-.71 2.57l.84 3.19c-2.31-2.92-3.52-6.1-1.94-9.76.81-1.87.5-2.81-1.45-3.9-1.83-1.02-3.21-2.94-4.62-4.6-.75-.87-.92-2.02.2-2.93 1.47-1.2.86-2.27-.23-3.3.04-.16.09-.31.13-.47 1.43-2.06 2.36-4.74 5.63-4.51.86.66 1.27 1.54 1.23 2.62.28 2.21-2.07 2.36-2.89 3.71-.24.5-.35 1.03-.3 1.58.22 1.52 1.31 1.42 2.42 1.31.32 0 .62.04.93.1 1.46.58 2.63 1.35 2.26 3.21-.09.58-.18 1.16-.03 1.75z" fill="#1a0e09"/><path d="M46.22 60.99c-.92-.79-.84-1.81-.66-2.85 1.04-1.12-.41-2.62.57-3.76.54-.81.85-1.86 2.11-1.86 1.06.19 1.92.95 2.07 1.82.44 2.49 2.21 4.03 3.66 5.83.05.35 0 .67-.17.98-.81.85-1.7 1.25-2.78.44-1.49-1.03-3.01-1.86-4.8-.61z" fill="#1c113a"/><path d="M53.72 70.8c-1.57-2.6-4.37-4.79-2.81-8.43.6.07 1.21.11 1.73.48.66.63 1.35 1.22 1.85 1.99.94 1.97 3.42 2.57 4.2 4.69-.01.51-.23.92-.59 1.27-.88.39-1.62 1.05-2.57 1.32-.97.06-1.55-.4-1.8-1.32z" fill="#b27351"/><path d="M51.6 64.1l-.69-1.73.11-.77 2.51-.97c.9.21 1.57.69 1.93 1.57.07.35.04.7-.07 1.04-.91 1.85-2.63.12-3.79.86z" fill="#ba7593"/><path d="M55.52 71.39c.21-1.26 1.19-1.16 2.1-1.19.94 1.04.2 1.79-.51 2.44-.89.81-1.41 1.87-2.15 2.77l-.02.21-1.98-2.16c-.19-1.98 1.87-1.17 2.56-2.06z" fill="#3e150a"/><path d="M55.52 71.39l-2.56 2.06c-.58.24-1.23.84-1.71.02-.33-.56.11-.96.64-1.28.65-.39 1.23-.91 1.84-1.38l1.8.58z" fill="#5d3b37"/><path d="M169.91 56.13c.56.94 1.17 1.82 1.31 2.97.42 3.51-.21 4.23-3.78 4.36-2.06.07-4.19-.43-6.17.55l-5.37.26c-2.29-2.25-3.75-4.9-4.03-8.14-.13-1.46 1.01-2.2 1.8-3.14 1.28-.93 2.43-1.41 4.23-.76 2.15.77 4.62.4 6.92.2 2.94-.25 4.63.76 5.09 3.7z" fill="#a4836e"/><path d="M161.25 78.09c-1.98-3.91-4.73-7.48-5.35-12l11.94-.04c2.38.52 1.42 2.22.82 3.22l-4.9 8.42c-.44.77-1.2.87-2.01.52l-.5-.12z" fill="#a98b6b"/><path d="M161.75 78.21c2.26-3.94 5.64-7.32 6.09-12.16.31-.1.63-.27.94-.28 1.29 0 2.98-.52 3.63.78.5 1-1 1.82-1.7 2.61-2.12 2.41-3.81 5.09-5.29 7.93-.81 1.57-1.93 2.47-3.68 1.13z" fill="#92765b"/><path d="M102.89 78.81c-.25 2.02-.13 2.59.69 3.31v.05c.25 2.04-2.5.63-2.61 2.27a1.94 1.94 0 0 1-1.33.28c-2.03-2.12-4.52-2.21-7.18-1.64-.92-.65-1.51-1.55-2.08-2.51-2.25-3.8-1.63-4.85 2.99-4.95 2.56 1.67 5.71 1.21 8.44 2.28.41.23.75.56 1.07.9z" fill="#a76b43"/><path d="M102.89 78.81c-.44 0-.87-.01-1.31-.02-1.14-1.06-1.28-2.53-1.59-3.92-.14-1.13.13-2.18.69-3.16 1.03-3.4 3.86-3.66 6.73-3.86a2.64 2.64 0 0 1 1.07.23c.99 1.44 3.41 2.58 1.05 4.76-2.56-.26-2.02 2.35-3.15 3.42-1.02 1.05-3.76-.27-3.49 2.54z" fill="#80694c"/><path d="M122.61 79.42c-3.49 2.92-5.99 2.47-7.4-1.33a.8.8 0 0 1-.1-.84c.67-1.11 3.2-.61 2.51-2.9v-3.49c0-.72.04-1.42.59-1.96 1.97-1.12 2.79.91 4.14 1.5.31.43.46.91.45 1.43-1.4 2.5-.33 5.06-.17 7.6z" fill="#bf7a3c"/><path d="M106.39 76.27c-.17-1.46-1.52-2.96-.14-4.37.83-.85 1.85-.4 2.72.21 1.43 1.79 2.74-.34 4.13-.14 1.62.7 4.15-.84 4.91 1.97-.82 1.58-1.77 2.83-3.76 1.52-2.69-.37-5.15 1.43-7.86.81z" fill="#b09673"/><path d="M111.93 75.41c1.39-.2 2.26-1.26 3.33-1.99.39-.38.86-.49 1.39-.37.68.3 1.05.83 1.14 1.56.03 1.64-1.51 2-2.38 2.9-.05.2-.11.39-.2.58-1.07.26-2.14.29-3.22 0-.74-.2-1.59-.33-1.62-1.3-.03-.99.84-1.13 1.55-1.37z" fill="#090505"/><path d="M122.61 79.42c-2.33-2.58-2.51-4.98-.54-7.37 1.8-.53 1.96.77 2.14 1.96.25 1.65-.16 3.2-.88 4.68l-.72.73z" fill="#e69340"/><path d="M123.33 78.7c-.52-2.2 1.02-4.78-1.26-6.65l-.09-1.22c.22-.49.62-.76 1.13-.88.5-.07.97.01 1.4.27 1.1.83.3 2.43 1.32 3.3l-.56 3.24c-.73.56-.88 1.71-1.94 1.94z" fill="#ce8b6d"/><path d="M135.27,96.71c.3-.5,.79-.63,1.33-.66,1.28,1.81,3.49,2.91,4.05,5.27-.09,.52-.39,.86-.89,1.02-2.77-.87-3.85-3.07-4.5-5.63Z" fill="#372e29"/><path d="M139.93 102.02l.72-.69c1.02 1.4 1.95 2.82 1.27 4.68a3.07 3.07 0 0 0-.53-.05c-1.24-1.03-2.34-2.12-1.47-3.93z" fill="#3e3431"/><path d="M154.56 54.81l-2.69 1.32-.32-.03h-.32c-.8.84-1.43.25-1.95-.31-.92-.98-2.07-1.37-3.31-1.11-4.98 1.02-10.06 1.96-13.18 6.61-.9 1.34-1.71 2.32-3.45 1.59-2.23-1.16-1.56-3.86-2.94-5.53-.58-.7-.78-1.76-1.33-2.57-.62-1.55-2.51-2.22-2.77-4.02-.29-1.9-.06-3.7.89-5.42.66-1.18 1.08-2.44.11-3.7-.41-1.53-1.44-3.04-.1-4.6 3.55-.93 7.21-.6 10.81-.83 2.23-.15 2.86 1.69 3.33 3.46.49 1.49.99 3.17 2.97 2.99 2.02-.18 4.1-.22 5.21-2.7 1.36-3.03 4.87-3.54 7-.98 1.33 1.6 2.73 2.29 4.7 2.59 1.91.29 3.6 1.21 3.7 3.57.19 1.24-.36 2.2-1.13 3.08-.32.5-.67.99-.95 1.52-.23.36-.52.68-.81 1-.3.29-.62.56-.99.77-.38.15-.78.28-1.14.47-1.25.56-.67 1.98-1.33 2.82z" fill="#030302"/><path d="M129.87 62.14c1.62-1.19 2.35-3.12 3.89-4.45 3.34-2.89 7.53-3.52 11.49-4.64 2.46-.69 3.63 2.65 5.97 3.06-.15.8.05 1.98-1.45 1.05-2.64-1.64-4.09-.93-4.48 2.1-.72 5.53-5.14 9.66-10.79 10.15-1.54.14-3.06.45-4.59.68-2.05-.81-1.33-2.5-1.28-3.98.84-1.19-.07-2.94 1.25-3.99z" fill="#130d09"/><path d="M130.11 65.34c-.14 1.99-1.01 3.95-.13 5.96-1.42 1.77-3.26 1.07-5.02.86-2.36-2.25-3.86-5.04-5.06-8.03.03-.51.18-.98.42-1.42 1.07-1.19 2.68-1.29 4.02-1.94 3.13 0 7-.93 5.77 4.56z" fill="#aca5a1"/><path d="M124.41 70.78l1.58.04-.16 2.69c-2.34.06-1.23-1.67-1.42-2.73z" fill="#d79aac"/><path d="M176.54 36.29c-.28 2.77.46 5.06 2.65 6.98 1.9 1.66 2.24 3.64 0 5.46-.46.68-1.09.73-1.8.5-.39-.24-.68-.56-.77-1.02-1.16-5.68-3.28-7.43-9.31-7.85-1.91-.13-4.1.44-5.39-1.73-.35-.97 0-1.73.7-2.4h-.01c4.65-.57 9.3-.7 13.94.06z" fill="#886d52"/><path d="M156 51.52l.57-.74c1.41-.73 2.91-.97 4.48-.96l14.57.03c1.28.01 2.71-.27 3.6 1.1 1.31.76 2.76.46 4.16.57 1.08.09 1.87.57 2.2 1.63.34 1.11-.17 1.96-1.04 2.51l-5.29 3.13c2.55-3.94 2.09-4.87-2.73-5.31-1.25-.12-2.37-.41-3.28-1.31-4.7.87-9.44.07-14.15.32-1.16.06-2.16-.33-3.09-.97z" fill="#896e51"/><path d="M179.22 50.95l-22.66-.17.68-.66c9.07-.66 18.15-.14 27.22-.3-7.53 0-15.06.02-22.59-.02-1.3 0-2.65.36-3.9-.33 0-.52-.03-1.05.54-1.34 5.45-1.53 11-.79 16.51-.7.95.02 1.68.51 2.25 1.24l1.91.05 6.23.12c1.18.03 1.93.62 1.66 1.86-.34 1.59-1.27.48-1.99.33-1.95-.4-3.91-.26-5.87-.1z" fill="#442f2d"/><path d="M176.54 36.29l-13.94-.06c.48-.71 1.27-.7 1.99-.83l16.81.17c1.29.02 2.66-.29 3.8.65l-8.66.07z" fill="#56413a"/><path d="M143.4 24.29l2.46-.11c2.02-.47 4.05-1.88 6.06.04 1.5 2.05 4.84 1.33 5.96 3.95-1.42.87-3.13-.06-4.55.76-2.1-.34-4.19-.03-6.28.13-1.86-.6-3.49-1.49-4.27-3.42-.03-.56.11-1.03.62-1.34z" fill="#5a2164"/><path d="M151.92 24.21c-2.02-.39-4.05 1.58-6.06-.03.39-2.56 2.4-1.73 3.92-1.82 1.21-.07 2.44-.11 3.58.47-.74.19-1.25.62-1.44 1.38z" fill="#75507f"/><path d="M155.51 29.69c-.45 1.33.51 2.18 1.08 3.17-.2.34-.47.6-.83.77-2.61.41-5.22.33-7.83.04-1.93-1.94-.34-2.26 1.2-2.41 1.49-.15 3.09.16 4.1-1.38a1.73 1.73 0 0 1 .82-.44l1.46.25z" fill="#7f4e3d"/><path d="M152.61 28.12l5.27.04c-.82 1.8-2.77.21-3.84 1.27l-.14.09c-.34.56-.85.84-1.49.93-1.03.04-2.06.09-2.73-.93-.04-2.59 1.63-1.63 2.94-1.4z" fill="#d08590"/><path d="M155.97 33.05c.2-.08.41-.15.62-.19 3.19-1.12 3.74 1.97 5.38 3.34.44 2.03-.12 4.06.06 6.1-.28 1.32.25 3.21-2.13 3.06-.9-2.17-2.86-2.41-4.79-2.47-1.68-.06-2.99-.25-3.34-2.3-.29-1.68-1.76-1.71-3.13-1.7-1.61 0-1.71.98-1.53 2.23.06.41.03 1.02-.23 1.25-2.26 2.01-5.18 1.34-7.8 1.58-1.97.18-2.52-1.76-2.52-3.57l.16-.39c1.12-.61 1.78.13 2.45.83a5.45 5.45 0 0 0 .62.35c.31.08.62.17.88.31-.02-.03.21-.07.21-.07l.07-.29c.01-.91-.06-1.8.23-2.65.3-1.2-.75-2.27-.32-3.48 1.08-1.45 2.71-1.72 4.34-2.01a3.09 3.09 0 0 1 .95.15c3.28.5 6.56 1.07 9.83-.09z" fill="#160a08"/><path d="M160.49 41.59c-1.39-2.31 1.92-3.34 1.48-5.39l.65.03-.12 2.6c.2 1.55-.39 2.53-2.01 2.76z" fill="#56413a"/><path d="M156 51.52h13.77c1.19 0 2.42-.13 3.47.65-1.43 1.05-3.42 1.64-3.33 3.96-1.38-2.2-3.39-2.78-5.91-2.7-2.39.07-4.83.47-7.18-.4-1.73-.64-1.39 1.33-2.25 1.78-.03-1.32.05-2.59 1.44-3.3z" fill="#9e815a"/><path d="M115.99 102.55c.15-1.24-1.57-2.06-.79-3.45a.73.73 0 0 1 .12-.45c.98.6 1.57 1.51 2.14 2.48 1.58 2.67-.51 1.44-1.48 1.41z" fill="#87746d"/><path d="M139.93 102.02l1.46 3.93-.92.08c-1.32.13-2.64-.75-3.96.02-3.29-.72-3.63-1.41-1.91-3.73.75-1.02.87-1.97-.84-1.81-1.72.16-.94-.56-.52-1.21-.25-1.22.33-1.81 1.49-1.95l.52-.65c2.18 1.22 3.26 3.41 4.67 5.3z" fill="#150d0c"/><path d="M134.75 97.36l-1.49 1.95c-1.31-1.08-3.16-1.33-4.24-2.82-.38-.53-1.62-.53-.87-1.65.36-.53.58-1.27 1.49-.84 1.49.7 2.1-.68 3.02-1.6.92 2.12-1.29 2.41-1.68 3.78.99 1.11 3.21-1.12 3.76 1.19z" fill="#3d3830"/><path d="M136.52 106.05c-.09-1.4.91-2.29 1.53-3.78l2.43 3.76c-.39 1.76-2.22 1.24-3.23 2.03-.67.19-.84-.11-.71-.71l-.02-1.3z" fill="#332d27"/><path d="M102.93 84.14l-.82.08c-.52.31-1 .27-1.43-.16l-.79-2.37c1.34-.6 2.29 1.94 3.7.48.77.64.26 1.29.02 1.94l-.67.03z" fill="#250d09"/><path d="M136.54 107.35l.71.71c-.29.16-.56.39-.87.46-.75.17-1.94.35-1.91-.55.03-1.39 1.31-.55 2.07-.62z" fill="#150d0c"/><path d="M85.73 7.59c.15.86.52 1.75.41 2.58-.26 1.98.37 3.49 1.88 4.71.56 1.64-.43 2.52-1.6 3.34-1.44.5-2.12 1.83-3.06 2.86-.86.94-1.83 1.52-3.12 1.5-.51 0-1.02 0-1.53-.02-.72-.05-1.37-.22-1.74-.93.69-1.5.91-3.04.37-4.64.16-.28.39-.49.68-.64.2-.08.41-.17.62-.16 1.21.1 2.34-.08 3.35-.81-.9-.21-1.77-.44-2.03-1.5.03-.85 0-1.7-.04-2.56 1.29-2.26 3.66-2.83 5.82-3.74z" fill="#9b552a"/><path d="M68.31 23.63c1.66-1.01 3.13-2.77 5.41-1.41.48.97-.28 1.51-.74 2.16-1.27 1.29-2.37 2.8-4.2 3.42-.74.16-1.39 0-1.97-.49-.65-.78-.64-1.59-.1-2.42.43-.54 1.1-.78 1.59-1.25z" fill="#330827"/><path d="M80.32 11.43c1 .27 2.54.25 2.41 1.57-.11 1.13-1.64.48-2.48.8-.67.9-1.57.83-2.51.63-.61-.19-.88-.8-1.39-1.11l-.08-1.04.73-.59c1.02-1.22 2.14-1.25 3.33-.26z" fill="#672d10"/><path d="M72.24 23.56l1.47-1.35a6.27 6.27 0 0 1 3.25-.59l2.01.19c.02 1.54-1.11 2.23-2.19 2.96-1.3-.32-2.71.44-3.96-.4-.28-.21-.47-.49-.58-.83z" fill="#783061"/><path d="M76.34 13.32l1.29.15c1.21 1.09 1.04 2.25.16 3.44-.15.04-.3.06-.46.08-2.53-.64-1.6-2.2-.99-3.68z" fill="#884c45"/><path d="M68.31 23.63l-.57 1.31c-2.4.31-4.8.78-7.15-.24l-.32-.46.01-.67 8.03.06z" fill="#1c1c3c"/><path d="M94.28 14.96l.12.78a1.74 1.74 0 0 1 0 .96c-2.4 2.86-6.08 3.64-9.07 5.54-.56 0-1.04-.18-1.41-.6-1.06-2.15 1.08-3.2 1.65-4.8.7-.8 2.01-.85 2.46-1.97 1.34 0 1.6-1.27 2.34-1.98 1.98-.59 3.47-.23 3.93 2.06z" fill="#1e0a2b"/><path d="M80.32 11.43l-3.33.26c-1.15-2.33-.76-4.06 1.9-4.92 1.35.42 2.55-.46 3.85-.46 1.16 0 2.49-.3 2.99 1.28-.76 2.74-3.09 3.29-5.41 3.84z" fill="#c77253"/><path d="M143.4 24.29l-.07 1.21c.36.76.8 1.51.53 2.41-2.26 1.59-7.03 1.99-8.6.24-1.47-1.65-3.18-2.23-5.14-2.65-.89-1.49-1.5-3.07-1.49-4.84.07-.49.24-.96.26-1.45.18-1.13-.34-2.61 1.23-3.11 1.36-.44 2.65-.09 3.65.97 1.2 1.28 2.33 1.7 4.03.59 1.6-1.05 3.19-.65 4.12 1.25 1.38 1.55 1.38 3.49 1.48 5.39z" fill="#231213"/><path d="M141.92 18.89c-1.32-1.08-2.72-1.16-3.76.2-1.98 2.6-3.45 1.86-4.88-.47-.22-.36-.6-.64-.93-.93-1.82-1.56-2.43-.7-2.5 1.25-2.02-.54-1.61-1.84-1.01-3.2.29-.31.64-.42 1.05-.31 2.19-.65 4.45-.38 6.68-.57.63 1.7 2.08 1.29 3.37 1.3 1.33.43 1.77 1.5 1.99 2.73z" fill="#372320"/><path d="M14.56 61.65l-.2-2.84-.04-1.3c-.93-1.42-1.13-3.06 1.16-3.33 2.95-.34 2.37 2.06 3.04 3.42 2.25 1.84 1.79 4.26 2.15 6.52a1.17 1.17 0 0 1-.34 1.27c-4.3 1.13-4.79-1.55-5.76-3.74z" fill="#776c7c"/><path d="M17.66 58.72c0-1.27.14-2.57-.53-3.86-1.51.48-1.34 1.67-1.55 2.65-.83-.46-1.7-.88-1.91-1.94.88-3.94 3.21-7.07 5.69-10.1.28-.34.82-.23 1.24 0 .96.77.56 1.95.9 2.91 1.15 1.45 2.04 2.94.9 4.81-.62 1.26-.91 2.64-1.48 3.9-.6 1.32-1.26 2.9-3.25 1.64z" fill="#4c424f"/><path d="M20.28 45.45c-2.76 3.01-3.38 7.41-6.61 10.12l-2.02 1.29c-.07-1.79.92-3.15 1.9-4.49 2.39-3.3 3.9-7.17 6.74-10.17.57.06.98.34 1.26.84.34 1.21.1 2.11-1.27 2.42z" fill="#251e29"/><path d="M21 42.89l-.71-.7.05-1.98c1.73-.74 1.76-2.59 2.57-3.93l.09 1.3c1.16 1.3 1.83 2.79.95 4.43-.59 1.11-1.58 1.88-2.95.88z" fill="#262028"/><path d="M41.84 24.34l15.16.09c1.39 1.32.47 2.67.05 4.02-.79 1.34-2.02 1.68-3.39 1.22-1.92-.64-3.41.08-4.82 1.24-1.64.86-3.28 1.46-5.22 1.04-1.28-.28-2.55.19-3.69.84-.31.09-.63.11-.96.08-.43-.06-.79-.34-1.21-.44-4.22-1.03-4.28-1.2-1.83-4.83 1.87-1.41 4.46.7 6.2-1.26-.21-.51-.63-.9-.77-1.43 0-.33.15-.53.48-.58z" fill="#7d6c86"/><path d="M56.32 28.21c-.15-1.33.31-2.55.67-3.78l3.27-.18.05.2c3.64-.5 5.9 1.28 7.34 4.42.71.83.86 1.74.36 2.72a6.46 6.46 0 0 1-.42.83c-.63 1.4-.47 2.97-.98 4.4-.4 1.06-.49 2.28-1.61 2.94-1.07.09-1.55-.59-1.88-1.45-.07-.65-.31-1.28-.34-1.94-.12-1.46 2.1-4.14-1.89-3.56-.87-.04-1.38-.62-1.89-1.21-.56-.68-.97-1.47-1.64-2.07-.5-.32-.96-.68-1.04-1.33z" fill="#948197"/><path d="M41.84 24.34a3.01 3.01 0 0 0-.4.47c-4.09 1.53-8.18 2.36-12.33.2l-.79-.11c4.46-1.31 9.01-.39 13.52-.56z" fill="#2c253f"/><path d="M21.64 52.18c1.32-2.76-1.87-1.46-2.34-2.6-.04-.09-.1-.24-.06-.3.1-.15.26-.27.39-.4 1.24.39 1.32-.83 1.38-1.33.27-2.38.82-4.49 3.2-5.66.41-.2.75-.77.47-1.1-2.28-2.67 1.05-2.67 1.81-3.88 1.6-1.42-.26-3.16.44-4.66l2.69-.05c1.73 1.51.74 3.55 1.05 5.34-.31 2.74.42 4.44 3.69 3.98 1.22-.17 2.44.26 2.96 1.55.45 1.11-.28 1.83-1.12 2.43-1.65.49-3.21 1.15-4.57 2.24-.58.44-1.22.75-1.91.97-.26.1-.53.14-.8.17-.5.04-.95.18-1.19.7-.43.68-1.3 1.05-1.32 2l-.7 1.21c-.21.3-.49.49-.84.58-1.18-.13-2.49.12-3.22-1.2z" fill="#6c6175"/><path d="M29.69 38.23l-.07-6.01c.73-.7 3.9-.98.27-2.37-2.6-1-.43-3.22-.78-4.83l12.33-.2c.98.19 2.05.05 2.87.82-1.43 1.47-2.96 2.47-5.18 1.67-1.14-.42-2.17-.03-2.86 1.04-.28.69-.64 1.37-.82 2.09-.17.68.5 1.23.87.77 1.83-2.33 1.74.67 2.62.87-.38 1.68-1.17 3.18-2.07 4.63-.52.45-1.1.67-1.79.51-1.83-1.76-2.35.8-3.56 1.08-.62.29-1.23.37-1.83-.05z" fill="#867890"/><path d="M26.93 32.27c1.88.84 2.23 2.37 2.05 4.24-.14 1.46-.96 1.45-2.02 1.13-.47.31-.93.31-1.36-.07.17-1.8-.13-3.54-.57-5.27l1.91-.02z" fill="#323e5b"/><path d="M25.59 37.56l1.36.07-1.96 1c-.04.68.41.75.81.89.73.26 2.05-.26 1.95 1.12-.06.86-.8 1.82-1.61 1.91-3.02.34-3.96 2.12-4.18 4.87-.06.81-.81 2.17-2.34 1.45.83-1.03.66-2.25.65-3.44l.72-2.56c3.64-.66 1.33-3.54 2-5.31.86-.45 1.73-.16 2.59-.02z" fill="#504251"/><path d="M93.55 76.59c-1.11.25-2.06 1.25-3.46.51 1.73 1.64 2.08 3.75 2.9 5.63.52.79.07 1.38-.39 1.98l-1.48 2.1-.27 1.18c-.71 1.47-2.7 1.38-3.43 2.82l.17.65c.22.28.19.51-.15.67-3.59-3-7.22-5.77-12.35-5.44-1.49.1-3.56-.55-3.17-2.52 1.05-5.34-1.63-1.7-2.97-1.35-.47-.19-.75-.54-.89-1.01-.09-1.64-.42-3.17-1.87-4.21-.94-1.03-2.14-1.58-3.45-1.96-.88-.47-1.06-1.53-1.79-2.13l-.74-2.8a1.05 1.05 0 0 1-.13-.83c.45-.75 1.13-1.34 1.51-2.14 1.09-2.46 3.53-3.21 5.6-4.41 2.28-1.5 4.59-2.94 6.99-4.23.67-.36 1.5-.94 1.05-1.78-.63-1.16-1.55-.37-2.2.1-1.24.9-2.41 1.89-3.83 2.5-2.82 1.08-5.29 3.19-8.57 2.89-1.24-.14-1.96-1.21-3.03-1.65-.27-.15-.52-.33-.75-.55-1.73-1.45-.59-2.77.17-4.12-.14-1.89.3-3.71.19-5.61-.12-2.18 2.89-4.81 5.72-4.52 2.85.28 3.76-1.04 4.45-3.2.13-.31.31-.57.55-.81.87-.54 1.89-.66 2.81-1.06.96-.26 1.88-.79 2.94-.5 3.05 2.15 5.73 4.18 5.98 8.69.21 3.72 2.51 7.14 5.07 10.08.71.82 1.64.42 2.46.62.86.22 1.5.76 2.05 1.42.55 1.22 1.73 2.15 1.75 3.64-.66 4.8-.59 4.94 2.95 6.07.86.3 1.31 1.03 1.79 1.72.5.76.84 1.56.51 2.49-.57 1.14-1.52 1.38-2.68 1.11z" fill="#0c0806"/><path d="M66.98 76.03c4.07.54 1.26 3.56 1.93 5.33-.53 1.66-2.03 2.1-3.4 2.7l-1.2.84c-.94.07-1.56-.16-1.28-1.29 1.11-.79.95-2.2 1.57-3.23 1.9-.84 1.41-3 2.39-4.35z" fill="#9e673f"/><path d="M65.5 84.06l3.4-2.7.05 1.43c-.95.96-2.11 1.37-3.45 1.27z" fill="#130b0b"/><path d="M31.77 36.91l1.34-.68c.5.17.8.5.99.92.21.88-.23 1.95.94 2.56 2.33 1.59 3.75-1.25 5.8-.93.22-.09.46-.15.68-.21-.03-.03.22-.22.18-.25.04-.39.11-.75.31-1.09.58-.64 1.44-.84 2.23-1.16.36-.06.73-.08 1.1-.06.91.18 1.71.55 2.37 1.14.87.77-.42 2.14.98 2.77a3.33 3.33 0 0 1 .73.49c.39.35.56.87 1.06 1.13.46.03.8-.15 1.1-.43.28-.41.65-.73 1.12-.95.54-.19 1.1-.22 1.67-.22 1.02.01 1.96.18 2.5 1.07.63 1.55-.52 2.56-1.41 3.66-.9 1.17-1.77 2.35-2.22 3.74-1.75 1.99-2.83 4.78-6.6 4.41l-1.43 2.01c-2.17.19-1.37-2.32-3.02-2.6l-.01-1.46c-2.01-.75-4.01-1.6-5.97.09l-1.53.03c-2.15-1.27-4.51-.62-6.77-.51-1.42.07-2.72.35-3.35-1.16-.03-.37.12-.67.44-.91l.54-.02c1.88-1.09 4.43-.86 6.07-2.41.35-.28.6-.61.69-1.03.36-.6 2.11-1.23.06-1.78-.92-.25-1.98-.13-2.97-.12-4.92.07-5.25-.33-3.71-4.69l1.5-.69c1.37-1.13 3.04-.45 4.58-.62z" fill="#8d8193"/><path d="M21.64 52.18c1.11.19 2.34-.24 3.3.66-.07 1.1.46 1.5 1.51 1.33.8 1.16.32 2.57 1.04 4.64l.26-4.23c.13-.81.26-1.95 1.51-1.66 1.02.23 1.34 1.27 1.05 2.11-.43 1.26-.76 2.49-.68 3.82-.39.46-.08.96-.08 1.43.06.22.15.42.31.6.62.37 1.38.48 1.9.15 1.87-1.24 3.49-.45 5.14.42.55 2.66-1.01 2.79-3.06 2.78-2.07-.01-4.14.39-6.21.6.03-.53.04-1.42-.51-1.31-2.3.45-4.7-.37-6.94.58-2.13-.39-2.05-.34-1-1.89 1.25-1.85-1.63-2.05-1.53-3.48 1.8-.16 1.52-1.76 2.04-2.84.6-1.26 0-3.16 1.95-3.7z" fill="#867e8f"/><path d="M36.9 61.45c-2.93-.29-5.72 1.29-8.67.63-.55-.75-.54-1.44.23-2.04l1.18-1.19c.31.55.75 1.48 1.36 1.02 2.73-2.03 4.61-1.49 5.9 1.58z" fill="#655152"/><path d="M39 50.83c-.04-.96.23-2 1.31-1.86 2.03.26 3.96-.57 5.98-.43.33 1.76-1.4 1.44-2 2.19l-5.29.09z" fill="#705a61"/><path d="M42.31 71.41c.96 1.61.62 3.28.37 5.46-1.89-1.56-2.48-3.31-2.9-5.17l2.53-.29z" fill="#485a75"/><path d="M43.56 59.8c-.12.62-.46.96-1.12.85-.61-.1-.98-.5-.94-1.11.05-.71.65-.76 1.19-.77.7-.02.93.39.86 1.03z" fill="#54586a"/><path d="M66.98 76.03c1.27 1.29 1.73 2.54.56 4.29-.83 1.25-1.59 1.13-2.64.63-1.18.46-2.23-.69-3.4-.26l-.3-.03-.27.12c-1.36.33-3.08 1.36-2.79-1.44.09-.24.13-.5.09-.77-.12-.25-.19-.51-.23-.79.39-1.74 2.45-.88 3.19-2.07.51-.45 1.04-.87 1.73-1.01 1.55-.13 2.78.68 4.07 1.34z" fill="#c77f40"/><path d="M60.33 70.16c-.05.17-.09.35-.11.53-2.07 1.22-2.94 3.77-5.26 4.72-.61-2.5 2.9-2.9 2.66-5.21l.71-.7c.93-.57 1.74-.79 2 .66z" fill="#82573e"/><path d="M62.91 74.69c.36 1.22-.17 1.59-1.31 1.38-1.31.33-2.41 1.78-3.97.71.01-2.2 2.89-1.53 3.33-3.3.87.06 1.57.38 1.96 1.21z" fill="#2c1308"/><path d="M57.63 76.78c1.49.71 2.34-2.2 3.97-.71.08.46 2.12.84.1 1.36-1.11.28-2.35-.12-3.41.56-.14.3-.37.39-.68.25-.68-.49-.52-.98.01-1.46z" fill="#985928"/><path d="M57.61 78.24l.68-.25.71.25c.46.26.99.48.69 1.19-.4.25-1.27.35-.98.91.45.85 1.51.03 2.22.43-3.32 1.06-3.7.77-3.31-2.53zm3.88 2.45c1.19-.67 2.31-.37 3.4.26.12 1.41-.82 2.08-1.87 2.66.7-1.6-.28-2.33-1.53-2.92z" fill="#2c1308"/><path d="M48.24 52.8l4.8-5.24c.42-.35.98-.89 1.39-.74 2.75.99 4.45-.83 6.32-2.22.48-.19.97-.24 1.47-.14 2.17.72 3.93-1.35 6.07-.9-.28 2.56-1.54 3.87-4.29 3.86-4.41 0-5.82 1.53-4.96 5.69.37 1.78-.88 2.41-1.38 3.56-.74.61-1.62 1.04-1.58 2.28s-.85 1.67-2 1.65c-.28-.13-.54-.28-.81-.45-4.15-.77-3.76-4.62-5.03-7.35z" fill="#110917"/><path d="M53.26 60.15l1.02-.17c1.12-.19 2.25-.64 3.31.19l.06.04c.5 2.78-1.38 2.11-2.88 1.98-.73-.27-1.06-.85-1.24-1.55-.05-.19-.14-.35-.27-.48z" fill="#a76885"/><path d="M60.33 70.16l-2-.66c-1.81-1.04-3.8-1.86-4.71-3.97 1.94-1.08 3.34.77 5.05.92 1.48.34 3.12.46 3.52 2.38-.38.78-1.02 1.19-1.86 1.33z" fill="#612a0f"/><path d="M58.2 67.66l-4.59-2.13c-.43-.81-1.14-1.24-2.02-1.42 1.02-.81 2.56-.36 3.46-1.43.4-.28.84-.37 1.32-.24.6.26.97.73 1.26 1.3.21.39.3.84.54 1.22.48.9 2 1.8.02 2.71z" fill="#bb735b"/><path d="M56.31 62.91l-1.25-.24c-.06-.18-.16-.35-.29-.49.49-1.35 2.59-.35 2.88-1.98 1.16-.2 1.91.5 2.67 1.19-.75 2.06-2.36 1.85-4.01 1.51z" fill="#6a1f29"/><path d="M93.55 76.59l2.04-1.28c1.39-.9 3.06-.36 4.52-.88a1.16 1.16 0 0 1 .76.47c.97 1.16.67 2.56.72 3.9-2.89.02-5.77.03-8.04-2.2z" fill="#d0907f"/><path d="M99.72 84.07L91.63 84l1.36-1.27c.69-.07.9-.43.74-1.11-.55-2.38 1.06-1.81 2.01-1.21 1.52.96 3.33 1.71 3.97 3.66z" fill="#240e0a"/><path d="M107.51 68.68c-2.04 1.06-4.94.71-5.87 3.59-.79.19-1.46 0-1.97-.65-.64-1.35-.36-2.77-.34-4.17.21-1.1 1.19-1.46 1.95-2.03.89-.62 1.25-1.63 1.81-2.5.38-.3.81-.43 1.29-.32.77.34 1 1.14 1.49 1.72.56 1.45 2.72 2.31 1.64 4.37z" fill="#c0a579"/><path d="M107.51 68.68c-.78-1.38-2.45-2.17-2.63-3.95.71-2.75 1.68-3.16 3.58-1.47.9.8 1.73 1.68 2.45 2.65.27.52.3 1.07.2 1.63-.19.77-.6 1.36-1.36 1.66-.58.13-1.1-.02-1.57-.37l-.67-.16z" fill="#ba9b69"/><path d="M105.87 68.8l1.29.05c.95.15 1.93.2 2.75.81.98.93 1.09 2.03.66 3.24-1.04 1.36-2.45 1.22-3.79.75-.74-.26-1.44-.95-.13-1.59 1.39-1.48-.68-2.14-.78-3.27z" fill="#d2b490"/><path d="M100.32 71.32l1.32.94-.78 2.64-.3-.01h-.3c-1.2-.15-2.25-.5-2.39-1.95.16-.88.64-1.49 1.5-1.79.33-.03.65.02.94.18z" fill="#998779"/><path d="M118.7 68.95l-.21 1.96c-1.18 1.28-2.79.68-4.2.96-2.36.5-3.37-1.75-5.1-2.52-.61-.38-.89-.93-.85-1.64.8-1.21.84-2.49.29-3.81.04-.68.36-1.24.8-1.74.88-.8 1.94-1.31 2.97-1.86.72-.22 1.36.06 2.02.29.78.4 1.36.99 1.7 1.79.27.76.12 1.71 1.12 2.15 1.59.7 1.57 2.1 1.42 3.53.04.29.05.58.03.87z" fill="#a55f2e"/><path d="M115.41 77.51c.56-.95.09-2.53 1.73-2.82.51-.34 1-.31 1.48.08 1.17.39 1.52 1.31 1.12 2.32-.34.87-1.36.48-2.06.56-.74.08-1.51-.09-2.27-.15z" fill="#743d21"/><path d="M118.61 74.77l-1.48-.08-.57-1.2c-.26-1.49-2.75-.81-2.62-2.68 1.52-.23 3.04-.23 4.55.1l.12 3.86z" fill="#5e311c"/><path d="M122.33 68.94l.85 1.64-1.19.26c-1.52.11-2.17-1.29-3.28-1.88l-.13-.22c1.38-1.97 1.49-1.96 3.76.2z" fill="#a55f2e"/><path d="M113.94 70.81c.99.78 2.9.66 2.62 2.68l-1.31-.07c-1.58-.01-3.32 1.38-4.69-.52-.81-.73-1.07-1.74-1.34-2.74-.36-.47-.3-.9.11-1.31 1.95-.31 3.1 1.23 4.61 1.96z" fill="#3d1c15"/><path d="M104.27 62.85l-.66.67c-1.6.78-2.35-.75-3.47-1.28a2.5 2.5 0 0 1-.87-1.7c1-2.57-.3-6.08 3.13-7.68 1.55-.66 3.11-1.3 3.83-3.01l5.69-2.62c.46-.07.91-.12 1.36-.25 1.24-.47 2.41-1.06 3.18-2.21 1.4-.94 2.29-2.63 4.2-2.83 2.12.47 4.08-1.77 6.26-.39.92 1.71.73 3.38-.19 5.02-.77 1.37-1.2 2.82-1.18 4.39-1.17 1.04-2.46 1.89-4.03 2.19-3.64.61-6.21 3.43-9.57 4.61-1.96.23-3.49 1.28-4.63 2.79-.83 1.09-1.72 1.93-3.05 2.28z" fill="#0e0806"/><path d="M160.49 41.59c.26-1.21.92-2.14 2.01-2.76 4.2-.18 8.32-.14 12.17 2.03 3.59 2.03 4.35 3.99 2.62 7.81l-16.05.23c-.97.01-1.99.1-2.72-.77l1.38-2.78c1.03-1.13.52-2.49.59-3.77z" fill="#8f7165"/><path d="M145.89 34.16c-1.32 1.2-3.22.24-4.59 1.24-.17.82-.87 1.14-1.46 1.56-.63.31-1.15.74-1.45 1.4-.21.94-.95 1.36-1.73 1.75l-.11.26c-.64-2.27-1.77-3.23-4.45-2.8-2.88.46-5.9.07-8.86.05-.68 1.39-1.32 2.81-3.18 2.9-1.57-.47-2.59.83-3.89 1.24-1.34.43-2.6 1.04-4.06.74-.91-.04-1.83-.05-2.37-.98-.09-1.58 1.13-2.1 2.24-2.47 4.78-1.62 9.47-3.69 14.72-3.19 4.98.48 9.43-1.64 14.06-2.92 1.83-.09 3.79-.75 5.12 1.22z" fill="#2b1610"/><path d="M129.99 66.23c.07-2.9-2.43-1.03-3.47-1.87-.57-.99-2.26-.65-2.45-2.08-.08-.3-.09-.6-.05-.91.65-1.06.82-2.16.3-3.33-.03-.82-.15-1.64.24-2.41.37-.56.66-1.21 1.37-1.45 2.43 2.1 1.98 5.63 3.95 7.97.03 1.36 1.61 2.68.12 4.09z" fill="#958884"/><path d="M119.84 39.53l3.4-1.92c.59 1.25 1.59 2.37 1.35 3.91-1.87 1.2-3.79 2.17-6.11 1.29-1.06-1.72-.21-2.65 1.36-3.28z" fill="#070520"/><path d="M157.98 49.48h27.42v.65h-28.15l.73-.65z" fill="#210c0a"/><path d="M125.93 54.17l-.12 2.15c-1.59.48-1.99-1.26-3.11-1.65-.66-.43-1.46-.5-2.16-.81-.73-.33-1.62-.55-1.2-1.69.55-.61 1.5-.64 1.91-1.57.95-2.14 1.38-.16 2 .33l2.7 3.24z" fill="#8c767a"/><path d="M121.32 53c.74-.24 1.3.14 1.85.55.51 1.5.92 3.05 1.64 4.48.03 1.15.81 2.35-.22 3.44l.02.66c.82 1.13.17 1.94-.58 2.73a1.26 1.26 0 0 0-.22.52l-1.38 2.88c-.87.49-1.71-.02-1.98-.6-1.09-2.42-3.35-3.42-5.35-4.76l-1.21-1.4c-.93-1.59-1.67-3.17.06-4.72a6.43 6.43 0 0 1 2.62-1.22c1.16-.2 2.28-.45 2.7-1.78.55-.62 1.34-.58 2.04-.78z" fill="#381d0e"/><path d="M115.11 62.9c.95.3 1.87.28 2.87.07 2.25-.48 3.45.29 2.7 2.76-.51 1.67.65 2.05 1.76 2.53l-.1.68c-1.28.42-2.42-1.61-3.76-.2-.92-2.08-3.61-3.12-3.46-5.83z" fill="#5f2e14"/><path d="M143.21 28.21l.11-2.72 3.97 2.81c-.01 1.61-1.39 1.41-2.36 1.76-1.23.34-2.46.8-3.61-.2-.71-2.06 1.44-.89 1.88-1.66z" fill="#390c35"/><path d="M144.55 29.24l2.75-.94c1.76-.44 3.48-2.01 5.31-.18-1.09.12-2.26.09-2.81 1.34-1.82 1.5-3.58 1.76-5.25-.22z" fill="#c07abe"/><path d="M145.89 34.16l-5.21.12c-3.78.29-7.4 1.52-11.18 1.8-.7-.02-1.16-.49-1.66-.87-.49-1.13-2.3-1.35-2.08-2.99a1.91 1.91 0 0 1 .72-.77c1.98-.46 3.88-.08 5.86.26 2.93.51 5.66-.31 8.56-1.27 3.22-1.07 6.99 0 10.49-.55.43-.07.88-.04 1.25-.31l1.25-.05c.52 2.45-1.45 2.27-2.84 2.6-1.24.29-2.69-.26-3.68.98-.03 1.03-1.09.58-1.51 1.05h.01z" fill="#915b31"/><path d="M145.88 34.15l1.51-1.05 8.58-.05c-.15 1.37-.8 1.77-2.24 1.59-2.6-.32-5.23-.34-7.85-.49z" fill="#35171e"/><path d="M152.65 29.58c-.18.12-.36.33-.55.34-7.4.53-14.48 3.91-22.12 2.4-1.27-.25-2.63-.03-3.94-.03h-.52c-.55-.11-.98-.39-1.2-.93-.05-.38.03-.73.23-1.06.87-1.22 2.15-1.46 3.53-1.44 3.68 1.34 7.42.92 11.16.3.72-.16 1.45-.33 2.02.37l3.31-.28c1.73.49 3.5.24 5.25.22l2.84.12z" fill="#c8897a"/><path d="M137.18 37.59c-.5-1.98 1.18-1.25 1.99-1.6.61-.08 1.02.2 1.31.71.13.34.16.69.11 1.05-.43 1.67.01 3.6-1.42 4.99-.16.01-.33 0-.49-.04-.98-1.56-.06-3.68-1.5-5.11z" fill="#8d5d3e"/><path d="M139.95 36.85l-.78-.86c.61-.55 1.38-.52 2.12-.59.76.94 1.71 1.78 2.23 2.84.47.94-.18 1.12-.98.66-1.17-.3-2.05-.97-2.6-2.05z" fill="#664638"/><path d="M137.18 37.59c2.28 1.18 1.01 3.4 1.5 5.11-1.1-.53-.62-2.3-2.02-2.59l.52-2.52z" fill="#5d371c"/><g fill="#451f0c"><path d="M139.95 36.85c1.33.1 2.05.97 2.6 2.05-.99.9-.26 2.37-1.12 3.31-1.64-1-1.07-2.78-1.49-4.22v-.47l.02-.67z"/><path d="M139.17 42.73c.23-1.74-.34-3.6.76-5.21l-.02-.02c.38 1.54 1.61 2.98.58 4.7l-1.33.53z"/></g><path d="M140.5 42.2l-.58-4.7c1.22 1.34 1.52 2.97 1.51 4.7-.31.31-.62.36-.93 0z" fill="#7a553d"/><path d="M80.25 13.8c-.85-.31-1.66-.84-2.61-.33l.16 3.44c3.15 1.99 6.8.03 7.32-4.41-1.47 1.89-3.07 2.17-4.87 1.3z" fill="#c87436"/><path d="M85.56 16.85c.15 1.73-1.63 2.93-1.29 4.72-.28 2.55-.49 2.61-3.73 1.27a.89.89 0 0 1-.23-1.03c2.76-.58 3.2-3.63 5.25-4.96z" fill="#2b1718"/><path d="M80.31 21.81l.06.54c.37 1.42-.96 1.65-1.64 2.34a1.57 1.57 0 0 1-1.29.05c-.27-.15-.43-.38-.48-.68.23-1.14.9-1.88 2.01-2.23l1.33-.02z" fill="#451a0b"/><path d="M66.81 29.5c-1.16-.05-2.12-.03-1.97-1.81.2-2.38-.97-3.2-3.24-1.99-.79.42-.83.36-1.3-1.26 2.49-.05 5.01-.58 7.42.5-.36.6-.84 1.16-.68 1.95.71.94.56 1.8-.24 2.6z" fill="#876b85"/><path d="M72.24 23.56l.77.18c.75.87-.58 2.28.78 3.01.15.29.2.58.18.89-.49 1.53-1.86 1.66-3.13 1.94-1.09-.13-1.84-.71-2.2-1.75-.02-.34.08-.64.3-.89l3.3-3.38z" fill="#9a4f60"/><path d="M68.95 26.94l.12.86c.38.72.92 1.35 1.07 2.18a1.82 1.82 0 0 1-.28.96c-.87.89-1.73 1.82-2.99.55.34-.67.71-1.35-.05-1.99-1-.97.06-1.75.24-2.6l1.9.05z" fill="#9e4f64"/><path d="M73.4 26.93c-3.95-.6-.13-2.14-.38-3.19 1.37-.53 2.67-.21 3.95.32l.1.17a1.91 1.91 0 0 1 .31 1.07c-.77 1.88-1.97 2.73-3.97 1.63z" fill="#e18880"/><path d="M123.27 22.25l.57-1.22c.96-.79 1.8-.38 2.61.27 1.13 1.46.83 2.89-.07 4.31-.8 1.37-1.83 2.33-3.59 2.02-1.73-.62-3.65-.08-5.35-.88-1.35-1.46-2.97-1.65-4.87-1.33-2.07.35-4.21.62-6-.96-.09-2.25 1.73-1.59 2.76-1.57 4.36.07 8.71-.2 13.06-.12.32-.12.61-.3.87-.52z" fill="#7a4f58"/><path d="M125.27 25.43c.71-1.2.63-2.52.58-3.83-.6-.84-.78-1.68.02-2.51 1.67.56 1.64-.4 1.4-1.55.68-.56.15-2.49 1.98-1.74.23 1.04-.09 2.19.6 3.15l.18 1.39c.4.94.26 1.94.22 2.91-.13 3.32-1.93 4.1-4.98 2.19z" fill="#9b5241"/><path d="M101.55 20.87l.12 1.41.59.65c.3.34.53.73.8 1.09 1.38 1.89.55 3.24-1.05 4.42-.59.56-.74 1.4-1.3 1.98-.95.68-1.85.64-2.7-.17.08-2.46-2.72-3.72-2.61-6.19.68-1.17 2.03-1.35 3.03-2.06 1.04-.37 1.57-2.19 3.12-1.13z" fill="#854543"/><path d="M101.73 22.91c-.04-.21-.06-.42-.07-.63 7.98.21 15.95-.6 23.93.01.01.16.02.33.01.49-1.4.97-2.98.37-4.47.45-4.8.26-9.63-.36-14.43.59-1.61.32-3.55.58-4.98-.92z" fill="#4c475c"/><path d="M101.55 20.87c-1.54.32-1.04 2.04-1.93 2.8-3.02-.42-1.62-2.88-2.08-4.49 0-.6.21-1.1.7-1.47 1.17.98 3.63.62 3.31 3.16z" fill="#b8655a"/><path d="M98.23 17.71l.03 1.14c-1.72 2.56-2.8.99-3.88-.59-.24-.49-.3-.99-.13-1.52l.14-.5a2.09 2.09 0 0 0 0-.5c1.56.11 3.09.26 3.83 1.96z" fill="#ae607f"/><path d="M125.86 19.09l-.02 2.51-2.01-.57c-.63-2 1.11-1.55 2.02-1.94z" fill="#a56289"/><path d="M78.16 24.42c.28-1.17 1.35-1.51 2.21-2.08 1.27-.43 3.01 1.51 3.91-.78l1.33-.02c1.85-.54 3.37-1.79 5.17-2.48 1.08-.41 2.02-.64 3.03 0 1.15 1.47 1.14 2.94-.45 3.96-1.24.8-1.25 1.66-.8 2.8.36 1.33.75 2.66.71 4.07l-.05 2.83c-.68 2.57-.89 5.16-.67 7.82.22 2.62.46 5.31-2.22 7.05l-.4.81c-.38 1.03-1.11 1.9-1.34 2.99-.59 1.24-.35 2.69-1.04 3.9-.37.44-.81.76-1.39.87-1.61.07-2.48-.74-2.76-2.27.33-1.69.53-3.42 1.15-5.04 2.02-4.05 2.15-8.67 4.08-12.82 1.17-2.53-1.14-4.44-3.08-6-1.07-.77-2.6-.52-3.51-1.56-.26-.22-.36.03-.47.26-1.41 1.67-2.4 1.39-2.91-.65-.18-.74-.27-1.51-.51-2.25-.18-.48-.21-.95.02-1.42z" fill="#170806"/><path d="M93.58 19.58a10.08 10.08 0 0 0-5.3 1.56c-.81.51-1.64 1.23-2.68.41 2.33-2.76 5.93-3.41 8.78-5.31l.02.02c.23 1.23.75 2.54-.83 3.32z" fill="#2b1718"/><path d="M127.8 30.36l-3.07.54c-1.74 1.58-3.17.65-4.44-.66-1.08-1.12-.33-1.91.69-2.54.29-.2.6-.36.92-.5.32-.13.65-.18 1-.15 2.6-.07 5.05-.92 7.53-1.59 1.89-2.85 3.11-3.03 4.44-.26 1.23 2.56 2.76 3.38 5.46 2.64.86-.24 1.92.22 2.88.36l-1.97 1.31-1.32.62c-4.03.72-8.09-.2-12.13.22z" fill="#170813"/><path d="M130.42 25.47c-2.27 2.05-5.05 2.11-7.87 1.98-.04-.51.06-.84.68-.6 1.05.06 1.09-1.32 2.03-1.41q4.46.06 4.76-5.1c.91 1.65.56 3.4.4 5.13z" fill="#543e41"/><path d="M47.11 36.82l-.73.08c-1.32.03-2.64.09-3.83-.62-.67.11-1.34.43-2.01.02-1.34-1.18-1.15-2.68-.89-4.19 1.02-1.79 2.87-1.5 4.39-1.42 1.46.08 2.82-.09 4.21-.4.56.49.41 1.09.29 1.69-1.28 1.38.11 3.54-1.42 4.85z" fill="#867890"/><path d="M47.74 31.74l.51-1.46c.6-2.42 2.53-2.08 4.25-1.91 1.3.13 2.58.65 3.83-.15l2 .05c.54.86.45 1.7-.05 2.53-.78.77-1.73 1.12-2.83 1.07-1.76-.63-3.33.2-4.95.68-.99-.02-2.04.16-2.76-.81z" fill="#776270"/><path d="M56.06 28.52c.86-.62 1.21-1.44 1.17-2.4 1.54.57 1.03 2.07 1.7 3.03-.38 2.38 1.37 3.43 3.39 4.31.67.64 1.67 1.06 1.83 2.06l.76 1.52c-1.71 1.13-2.35 3.78-5.38 3.02-.36-.15-.65-.37-.86-.64-.11-.18-.17-.4-.19-.63-.2.41.22.71.22 1.1-.44 1.61-1.4 2.35-3.25 1.59l-2.64-.68c-1.73-1.64-4.51-1.25-6.37-2.64-.24-.3-.38-.64-.45-1.01.71-2.33 1.79-4.6 1.61-7.1 1.59-1.01 3.03-2.76 5.24-.88-.07 1.01-.83 1.88-.83 2.89 0 .92-.03 1.97 1.58 1.11 1.25-.79 1.96-1.82 1.84-3.23.18-.49.45-.94.62-1.43z" fill="#8f7a84"/><path d="M66.86 31.49c1.06.07 1.77-.64 2.57-1.15 1.45.56 1.79 1.75 1.79 3.14a4.36 4.36 0 0 1-.14.95c-.14.46-.4.85-.73 1.19-1.51 1.11.3 2.48-.28 3.67-.32.63-.86.91-1.54.96-1.84-.37-2.53-1.35-2.06-3.28.29-1.21.79-2.55-.2-3.75-.21-.55-.58-1.11.12-1.59l.48-.13z" fill="#984a3e"/><path d="M66.99 32.99c1.77-.56.67.75.73 1.19.23 1.82-1.13 3.82.61 5.47.61.78.59 1.49-.24 2.12-1.23.22-2.12-.54-3.09-1.09a1.07 1.07 0 0 1-.16-.9l.79-3.56c1.25-.74.3-2.4 1.35-3.23z" fill="#b77364"/><path d="M63.65 36.34c-.72-.07-1.44-.15-1.91-.81.54-1.36-1.78-2.01-.87-3.47.61-.77 1.18-1.78 2.35-1.44 1.27.37 1 1.61.96 2.52-.05 1.07 1.16 2.4-.53 3.2z" fill="#555467"/><path d="M64.85 39.79l.03.19c-.05 1.91-1.37 2.24-2.9 2.3-1.18-.56-2.6-.93-2.35-2.72 1.96.38 2.37-2.96 4.61-1.91 0 .77.01 1.54.61 2.15z" fill="#5d4553"/><path d="M66.99 32.99c-.14 1.21.26 2.64-1.35 3.23.63-1.47-.61-3.24.75-4.6l.61 1.37z" fill="#977881"/><path d="M35.07 36.91c-1.07 2.01-2.75.11-4.05.62-.08-1.16 3.54-1.68.58-3.35.72-.42 1.41-.91 2.17-1.23.94-.39 1.09.37 1.14 1.03l.15 2.93z" fill="#545171"/><path d="M84.32 53.43c.11 1.19.75 1.89 1.94 2.08 1.08 1.66 2.14 3.32.74 5.32-.75 1.16-1.48 1.87-2.7.39-3.35-4.04-6.69-8.05-6.24-13.8.1-1.28-.92-1.89-1.8-2.57-1.13-.88-2.16-1.87-2.66-3.28-1.04-1.68 0-2.8 1.25-3.53 1.97-1.14 3.28.36 4.58 1.55.54.99 1.29 1.81 2.14 2.54 1.53 1.9 1.47 4.35 2.29 6.5.03 1.62.43 3.2.46 4.81z" fill="#170e19"/><path d="M86.79 54.58c.2-1.26-.23-2.65.83-3.71.75-.5 1.42.15 2.14.14 1.08-.13 2.14-.04 3.17.33 1.55 1.03 3.18 1.97 4.2 3.61 1.83 1.35 1.75 3.78 3.06 5.42l.82 1.14c.25.73 1.09 1.26.75 2.18-3.88 2.76-6.38.42-8.7-2.81-.1.78.25.93.33 1.2.53 1.85 3.97 2.2 2.87 4.6-.72 1.56-1.95 3.09-3.27 4.39-1.59.15-1.92-1.05-2.38-2.16-.45-1.09-.35-2.34-1.03-3.36l-1.36-3.27c-.22-2.61-1.47-5.03-1.43-7.69z" fill="#9f9596"/><path d="M68.82 58.76c1.38-1.08 2.67-2.33 4.19-3.19.93-.53 1.75-2.9 3.33-.66 1.31 1.86 1.75 3.69-.51 5.07-2.61 1.6-5.22 3.24-8.16 4.22-1.53.37-2.94 2.68-4.66.31-.06-1.54.83-2.25 2.18-2.82 1.44-.62 3.07-1.16 3.64-2.93z" fill="#b16d35"/><path d="M68.82 58.76c.75 2.32-1.4 2.83-2.57 3.79-.78.64-1.92.9-2.68 1.69-.61.75-1.43 1.02-2.36 1.03-1.63.34-3.21.54-4.23-1.22l-.66-1.13c1.32-.56 2.49-1.49 4.01-1.51 3.24.43 5.76-1.46 8.49-2.65z" fill="#b96b70"/><path d="M78.78 40.2c-2.38-2.02-4.05-1.36-5.18 1.36l-2.52.7c-2.22-.24-3.32-1.01-1.05-2.8.98-.77 1.26-2.02 2.28-2.7 1.23-.51 2.19-1.53 3.46-1.93 1.36-.43 2.63-.32 3.45 1.09.75 1.52 1.25 3.01-.43 4.29z" fill="#250806"/><path d="M60.92 64.29l2.64-.06c1.38 1.79 2.73-.35 4.1-.03-1.88 1.48-4.19 2.44-5.47 4.63l-3.98-1.17c.79-1.46-.84-1.43-1.3-2.11 1.01-1.48 3.02.23 4.02-1.26z" fill="#965a33"/><path d="M94.82 73.52c.99-1.32 2.26-1.12 3.58-.67.59.71 1.71.93 1.87 2.04-1.41 1.78-3.02 1.44-4.68.43.2-.8-.51-1.2-.77-1.8z" fill="#b4a3a5"/><path d="M72.31 37.67c-.31 1.06 1.38 3.6-1.87 2.52-.19-.06-.73.26-.74.42-.05.93 1.01 1.01 1.38 1.65-.79.7-1.76.67-2.73.65-.44.37-.92.42-1.43.15a1.28 1.28 0 0 1-.27-.96c.24-.48.47-.95 1.12-.49.73-.49.42-1.28.58-1.94l1.4-.65c.25-1.6.78-2.68 2.57-1.35z" fill="#401212"/><path d="M93.64 71.45l.05.66q-4.07-.39-4.1-6.56l3.38 5.15c.39.11.62.35.67.76z" fill="#1a131c"/><path d="M57.6 60.17l-3.31-.19c.98-.61 1.33-1.55 1.53-2.64s.88-1.35 1.82-.67h2.89c-.05 1.41-.82 1.31-1.77 1.17-2.62-.38-2.24.82-1.16 2.33z" fill="#423639"/><path d="M67.01 42.88l1.33.02-.06.65c-1.58 1.94-3.7 2.25-6.01 1.98.12-3.47 2.71-2.57 4.74-2.66z" fill="#160b27"/><path d="M89.6 73.69c-.05.88-.56 1.3-.82 1.06-1.03-.93-1.88-2.05-2.25-3.42-.12-.45.49-.95.76-.66.92.99 1.66 2.14 2.31 3.01z" fill="#4e3f39"/><path d="M67.01 42.88c-1.25 1.46-3.75.71-4.74 2.66l-1.32.03c-4.58 1.78-4.66 1.77-5.89-1.31.38-1.1.92-2.09 1.89-2.8.96-.3 1.84-.69 2.08-1.81.13-.39.32-.43.58-.11.37.99 2.47.1 2.09 1.91.78 1.15 1.78.53 2.62.21 1.05-.4 1.89-.42 2.59.53l.08.67z" fill="#221346"/><path d="M36.38 37.43c1.7 1.08 3.24.8 4.66-.54a2.1 2.1 0 0 1 1.32-.54c.78.23 1.56.47 1.94 1.3l2.63 1.28c-.75.89-1.69.98-2.72.62h-.54c-.81.28-1.64-.48-2.58.54-1 1.08-2.71 1.52-4.14.13-1.72-.62-1.01-1.74-.56-2.79z" fill="#867890"/><path d="M55.07 44.26c1.65 1.83 3.83 1.29 5.89 1.31-2.07 2.92-4.91 2.79-7.92 1.99.36-1.3 1.23-2.27 2.03-3.3z" fill="#160b27"/><path d="M40.2 46.47c-.02.8-.03 1.61-1.21 1.42-.62-.1-1.34-.01-1.42-.96-.09-1.1.42-1.58 1.49-1.65.91-.06 1.12.45 1.14 1.19z" fill="#4e484c"/><path d="M42.51 45.31c.63.02 1.01.32.97.97-.05.78-.53 1.13-1.29 1.07-.59-.05-1.04-.32-1-.99.05-.79.58-1.07 1.32-1.05z" fill="#5f5a6f"/><path d="M44.21 39.57c.78-.78 1.75-.69 2.73-.62-.07.76-.02 1.63-1.03 1.82-.93.17-1.44-.36-1.69-1.19z" fill="#525072"/><path d="M59.69 79.43L59 78.24c1.11.01 2.3-.46 3.31.56-.73 1.06-1.74.56-2.62.63z" fill="#6e3408"/><path d="M60.92 64.29c-.66 2.58-2.77.54-4.02 1.26-.52-.17-1.25-.29-1.23-.9.02-.71.84-.43 1.3-.61l3.95.25z" fill="#723314"/><path d="M93.64 71.45l-.67-.76c.08-1.98.65-3.68 2.92-4.73-3.42-.28-3.75-2.97-5.11-6.07 2.22 1.39 5.52-2.13 5.64 2.96.04 1.7 1.21-.02 1.54.25 1.12.94 2.34.26 3.49.43.7.32.79.92.71 1.59-.17 1.09-1.53.89-1.92 1.75l.08 4.46c-.17.04-.35.07-.53.09-.47-1.08.42-2.81-1.59-3.15-2.61-.44-3.69 1.21-4.57 3.19z" fill="#aea4a4"/><path d="M104.27 62.85c1.43-3.13 2.98-6.12 7.19-5.88.45.18.72.51.85.97.04.3.03.6-.03.9-.09.91-.25 1.79-.86 2.52-.88 1.14-.8 2.41-.49 3.71-.07.47-.27.85-.71 1.06-1.25-.11-1.73-1.25-2.46-1.98-1.36-1.35-2.18-.96-2.88.57l-.62-1.88z" fill="#d4b591"/><path d="M107.9 66.1l-.14-1.28c-.07-.71-.56-1.67.42-1.96.87-.27.84.77 1.12 1.3.76.49 1.95.68 1.79 1.91-.18 1.41-1.4 1.35-2.45 1.43-.28.24-.49.19-.6-.17l-.13-1.23z" fill="#3e120b"/><path d="M108.03 67.33a1.16 1.16 0 0 1 .6.17l.7 1.35-.11 1.31c-.96-.01-1.8-.22-2.07-1.32l.87-1.52z" fill="#9e714f"/><path d="M107.96 60.73l1.24-2.48c2.1-.49 3.68-.26 3.4 2.48-.03 1.8-1.18 2.14-2.67 2.05-1.31-.06-2.05-.66-1.97-2.05z" fill="#c46f4c"/><path d="M112.61 60.74c-.46-1.75-2.39-1.5-3.4-2.49l.25-.11c2.73-2.61 3.6-2.73 5.14-.67l-.7 4.03-1.29-.76z" fill="#4c2923"/><path d="M107.96 60.73l1.97 2.05-.64 1.37c-.86-.56-1.43-.49-1.53.67-.88-1.41-.6-2.76.2-4.09z" fill="#834c33"/><path d="M112.19 48.28l-5.3 2.67c-1.42.47-2.56 1.98-4.33 1.16-1.33-3.8-1.11-4.26 3.81-7.91.93-.69 1.91-1.18 3.11-.78.5.19.89.51 1.13.99-.67 1.77 1.84 2.26 1.58 3.87z" fill="#c58a45"/><path d="M100.19 60.37c-2.15-.95-2.99-2.97-4-4.86-.42-.79-.18-1.41.47-1.94 1.76-.68 3.61-.27 5.41-.39.38.04.67.23.87.56-2.3 1.66-2.45 3.27.09 4.84.58.36 1.16.81.6 1.55-.53.68-1.14.26-1.74-.04-.59-.29-1.51-2.03-1.7.28z" fill="#231619"/><path d="M114.6 57.47c-1.91-1.25-3.48.03-5.14.67l-.32-1.21 6.08-3.97c1.32-1 2.71-.7 4.11-.79l2 .82-1.48 1.23c-1.18.55-1.95 1.49-2.58 2.59l-2.66.65z" fill="#46213f"/><path d="M119.84 39.53l-1.36 3.28c-1.38.79-1.67 3.05-3.82 2.81-2.03-.68-3.61-1.6-2.13-4.1 2.54-.27 4.49-2.73 7.31-1.99z" fill="#80747b"/><path d="M112.54 41.52c-.13 1.81 1.39 2.75 2.13 4.1-.62 1.55-1.45 2.82-3.43 2.52-.2-.23-.31-.49-.34-.79.6-2.34-1.4-1.2-2.22-1.65-.45-.2-.8-.5-.94-.99l-.52-.8c-.23-1.32.4-2.21 1.44-2.9.52-.12 1-.06 1.4.32l2.49.18z" fill="#371c5d"/><path d="M107.74 44.72l1.47.27c1.21.45 2.72.64 2.28 2.57a6.07 6.07 0 0 1-.24.59l-1.37.09-.89-.24c-.92-.27-2.19 1.48-2.69-.12-.33-1.04-.11-2.6 1.44-3.16z" fill="#debf9d"/><path d="M102.94 53.75l-.7-.12-.21-.35a1.22 1.22 0 0 1 .46-1.07l.38-.15c1.27-.64 2.47-1.49 4.02-1.11-.68 1.82-2.53 2.02-3.95 2.8z" fill="#d1ac7b"/><path d="M112.37 41.38l-1.51.12c-1.48 1.59-3.84 1.61-5.42 3.02-1.2.28-2.24.03-3.07-.92-1.2-3.7.88-5.96 5.22-5.69 1.58.1 3.2 1.08 4.72-.19 2.49.06 4.19-1.97 6.47-2.46 4.28.1 8.57-.41 12.82.32 3.72-1.18 7.52-1.6 11.4-1.26-4.31 1.32-8.6 2.63-13.21 2.49-6.24-.19-11.97 1.72-17.43 4.57z" fill="#734325"/><path d="M124.58 58.14c-2.67-.86-2.88-2.47-1.41-4.59 1.36.47 1.85 1.76 2.64 2.77l-.68 1.69c-.1.36-.29.4-.55.13z" fill="#422d30"/><path d="M117.26 56.82c-.16-1.01.7-2.15-.65-2.97 1.37-.64 2.3-.11 3.23.38 1.63 3.34-1.81 1.64-2.58 2.59z" fill="#683752"/><path d="M119.17 58.39c.47-.02.94.06.92.63-.02.64-.52.9-1.1.94-.46.03-.95-.13-.95-.64 0-.66.61-.78 1.13-.92z" fill="#4c2923"/><path d="M129.28 35.54c-4.4 1.2-8.89.47-13.34.66a.98.98 0 0 1-.29-.93 1.89 1.89 0 0 1 .93-1.16c1.79-.25 3.58-.5 5.18-1.45.49-.05.96-.02 1.43.15 1.49 1.65 3.88-.11 5.4 1.41l.69 1.32z" fill="#a16639"/><path d="M128.59 34.22l-4.72.73c-1.28.12-1.61-.4-.6-1.38.57-1.13 1.49-1.18 2.55-.85.87.6 2.67-.51 2.78 1.5z" fill="#6b2f0a"/><path d="M125.81 32.73l-2.55.85-1.35-.17c-.39-.53-.35-1.03.1-1.5 1.3-.68 2.53-.15 3.77.2l.25.17c-.08.14-.15.29-.22.44z" fill="#c8897a"/><path d="M121.94 28.23c-.09.55-1.91.45-.56 1.56.99.82 2.11 1.11 3.35 1.11a3.89 3.89 0 0 1-.21.51c-2.14.43-4.19 1.56-6.48.86-1.41-.97-1.99-2.39-.74-3.61 1.24-1.22 2.93-2.13 4.65-.43z" fill="#1b0824"/><path d="M117.94 31.52c2.2.45 4.39.32 6.58-.1l1.27.69-4.06.28c-1.77 1.87-4.1 1.9-6.42 1.95-.86-.29-1.78-.5-2.23-1.44-.04-1.22.8-1.51 1.76-1.68 1.06-.19 2.13-.44 3.1.3z" fill="#b87bb2"/><path d="M127.8 30.36c4.03-1.01 8.08-.41 12.13-.22-4.02 1.19-8.07 1.01-12.13.22z" fill="#bd8dbb"/><path d="M78.16 24.42l.6.57c1 .74.48 1.8.48 2.68.01 3.04-.55 3.33-3.43 1.92-.88-.96-.54-1.83.33-2.49.78-.6 1.22-1.2.86-2.19l.06-.69 1.1.19z" fill="#9b552a"/><path d="M77 24.92c2.76 2.48.08 2.99-1.43 3.92.15.6.49 1.17.33 1.82-.48 1.82-1.38 3.28-3.33 3.81-.9.11-1.67-.18-2.31-.81l-.82-3.33.3-.05c.36-.47.73-.91 1.34-1.07.86-.54 2.53.01 2.43-1.81a3.56 3.56 0 0 0-.1-.47l3.6-2.01z" fill="#ce7e48"/><path d="M73.51 27.4c1.02 2.75-.8 2.28-2.37 2.08-.22-.05-.33-.14-.31-.28.02-.16.05-.24.11-.24.38-1.32 1.94-.68 2.58-1.55z" fill="#7f3615"/><path d="M70.93 28.96l.2.53c.11 1.27-.38 1.48-1.39.8-.56-.74-.75-1.58-.68-2.48l1.87 1.15z" fill="#d98395"/><path d="M117.29 33.18l-2.59.8c-.91 2-2.28 1.93-3.88.89-.91-1.09-1.23-2.6-2.39-3.55-1.28.19-1.4 1.68-2.46 2.04-1.14.44-2.17.33-3.06-.57-.76-1.21.33-2.81-.85-3.93a3.29 3.29 0 0 1 .05-1.56c.78-1.51 2.47-2.12 3.42-3.48.73-.24 1.4-.15 2 .35l9.57.11c1.62 0 2.96.31 3.2 2.24-1.17 2.11-4.22.34-5.33 2.58-.45.27-1.15.39-.98 1.13.11.46.63.57 1.08.67.84.25 1.6.61 2.19 1.28.17.33.18.67 0 1z" fill="#806f81"/><path d="M115.1 31.54h-2.31c-1.26-1.17-1.47-2.43-.34-3.81 1.37-2.2 3.55-1.58 5.55-1.56 1.74.26 3.61-.48 5.23.69l-.68.6-.03.02c-.38.55-.97.45-1.48.39-2.55-.3-4.9-.32-5.14 3.15-.02.27-.47.42-.79.52z" fill="#9c7f85"/><path d="M108.96 24.11l-2.02.2c-1.82 1.79-3.52.86-5.2-.25l-.01-1.15 23.88-.12c.03 1.99-1.49.82-2.12.85-4.84.28-9.71-.47-14.53.47z" fill="#292031"/><path d="M92.38 29.48c-1.22-.84-1.66-1.86-.71-3.19.66-2.17 1.25-4.39 3.7-5.32 1.08 1.04.99 2.17.24 3.34 3.36 1.67 4.1 3.22 2.55 5.36-.72 1.24-1.83 1.65-3.2 1.51-1.03-.31-1.98-.73-2.58-1.69z" fill="#7c3b2f"/><path d="M94.88 30.24c1.06-.4 2.11-.8 3.28-.58.71.53 1.43.71 2.14 0 .54-.31.83.02 1.09.42.6 1.49-.65 2.42-1.1 3.59-.07.58.08 1.16-.06 1.74-.18.66-.54 1.18-1.13 1.54-1.5.65-2.96 1-4.16-.56-.52-1.49-1.99-2.59-1.89-4.35.27-.94.42-2.01 1.83-1.81z" fill="#bd9674"/><path d="M95.61 24.3l-.74-3.39c-.76-1.17-.85-2.28.29-3.28.71 1.23 1.39 2.51 3.09 1.22 1.18 1.4.16 3.41 1.35 4.81-1.23.89-2.65.57-4 .64z" fill="#ab5430"/><path d="M100.97 27.57l3.95-.62v1.29c.06 2.25-2.06 1.62-3.13 2.37-.34 0-.63-.14-.87-.39l-.61-.54c-.04-.78-.04-1.55.67-2.1z" fill="#9f8a94"/><path d="M95.17 17.64l-.29 3.28c-1.27 1.67-.16 4.76-3.21 5.37-1.28-1.6-2.72-3.21.64-4.1 1.39-.37 1.27-1.54 1.27-2.61l.83-3.32.76 1.38z" fill="#3e2016"/><path d="M86.11 29.13c4.63 2.29 5.67 5.45 3.07 9.89-1.82 3.1-2.04 6.74-3.65 9.88-.43.66-.88 1.22-1.66.41-1.1-4.06.17-8.02.83-11.94.24-1.4.28-2.49-.28-3.7-.02-1.1-.75-1.97-.99-3-.06-.78.13-1.45.79-1.94.67-.05 1.44-.58 1.9.39z" fill="#b16425"/><path d="M97.06 54.07l-.88 1.44c-.71-1.84-3.43-1.31-3.96-3.36-.92-1.78-3.12-2.7-3.33-4.95-.2-.96.43-1.66.76-2.45.93-2.22 1.26-.15 1.96.45-.11-4.26-.71-8.38.57-12.39a.96.96 0 0 1 .87-.12c.52.54 1.44 1.24 1.13 1.83-1.16 2.18.5 3.87.76 5.78-.96 2.34-2.22 4.67-.14 7.06.73.23 1.55.02 2.25.44.29.19.51.45.66.75.33 1.38.32 2.76.14 4.16-.1.54-.41.97-.78 1.36z" fill="#59412e"/><path d="M86.11 29.13h-1.74c-.83.39-1.33 1.12-1.88 1.8-.91.52-1.66 1.24-2.35 2.02-.38.31-.77.59-1.26.69-1.04.08-1.92-.39-2.82-.82-.82-.71-.5-1.85-1-2.68l.5-1.31q3.54.76 3.19-3.84c1.1.75.82 1.91.9 2.97.03.42.12.98.68.76.29-.11.4-.69.59-1.05.42-.49.87-.42 1.33-.07 1.06 1.07 2.95.07 3.85 1.53z" fill="#451a0b"/><path d="M82.26 27.6l-1.33.07c-.07-.29-.28-.63-.2-.87.29-.84-.1-2.11 1.26-2.34.58-.09 1.01.28 1.29.79.67 1.22-.25 1.76-1.02 2.35z" fill="#6f452f"/><path d="M84.26 49.46l1.27-.56-1.22 4.52c-.87-1.39-1.63-2.82-1.41-4.55.74-.47.92.34 1.35.59z" fill="#995e30"/><path d="M92.79 32.84c-.2 0-.41-.02-.61-.03l.2-3.33c.88.1 1.84-.05 2.5.76l-1.22 2.06c-.16.38-.4.64-.87.54z" fill="#4a2312"/><path d="M90.78 48.4l.02 5.12-3.18-2.41c.41-1.01.96-1.99 3.16-2.71z" fill="#9b9397"/><path d="M115.1 31.54c.33-4.81.5-4.93 5.16-4.11.73.13 1.5.04 2.25.05l-.58.77c-2.06.22-4.31.2-4 3.29-.8.55-1.7.63-2.64.55l-.2-.54z" fill="#543e41"/><path d="M76.33 32.17l2.56.63c1.11 1.31 1.48 2.5-.49 3.36-1.13-.92-2.21-.65-3.21.21-.84.73-1.74 1.27-2.88 1.29-1.23-.27-1.91.52-2.57 1.34-.89-1.32-3.07-2.57-.21-4.07.63.03.85-.3.79-.89a1.32 1.32 0 0 0-.06-.39h2.68c1.53.4 2.07-1.44 3.4-1.5z" fill="#733611"/><path d="M70.32 34.05c1.32.12 2.25.82 2.7 2.02.19.5-.35.74-.81.74-1.32 0-2.33-.49-2.69-1.88l.79-.89z" fill="#b36d3e"/><path d="M66.93 42.2l-4.71.74c-1.34.08-1.49-.58-.5-1.47 1.25-.08 2.12-.97 3.16-1.49 1.2.13 2.41.22 2.88 1.63l-.83.6z" fill="#b373be"/><path d="M84.26 49.46c-1.02 1.11-.75-.73-1.35-.59l-2.6-6.05c-.37-.42-.56-.92-.65-1.46v-5.77c1.37-2.27 4.22-1.28 5.98-2.71 1.24 4.3-.24 8.48-.65 12.7-.13 1.29-.83 2.53-.72 3.89z" fill="#d78536"/><path d="M80.23 41.72l.09 1.11c-1.07-.55-1.39-1.54-1.54-2.63.39-1.39.12-2.73-.38-4.04.69-1.04.52-2.21.49-3.36l.62-.66c.98.67.77 1.56.64 2.57-.31 2.33-.46 4.68.08 7.01z" fill="#754111"/><path d="M102.94 42.88c.79.63 1.72.68 2.67.64 1.02-.33 1.33.24 1.4 1.1-.18 1.04-.88 1.73-1.7 2.25-1.92 1.23-2.68 2.97-2.45 5.19l-.06.07c-1.05.77-2.04 1.93-3.49.68-.49-.65-.64-1.39-.58-2.18 1.34-2.28-.06-3.65-1.66-4.97-.34-.85-.24-1.66.15-2.46.52-.69.74-1.61 1.58-2.07 1.94-.76 2.86.91 4.13 1.74z" fill="#b9732e"/><path d="M107.01 44.62l-1.4-1.1c1.01-2.59 3.32-1.8 5.24-2.01.04 1.08-.27 1.96-1.32 2.45-.8.38-1.52 1.06-2.52.66z" fill="#49221e"/><path d="M97.06 54.07l-.08-1.22c.41-.36.87-.57 1.43-.53 1.04 1.13 2.69.37 3.81 1.23v.08c-1.58 1.79-3.42.54-5.17.44z" fill="#dfc7aa"/><path d="M111.48 47.56l-2.28-2.57c1.19.27 1.34-2.61 2.71-1.07.92 1.03 1.88 2.69-.43 3.64z" fill="#492794"/><path d="M102.23 53.55c-1.37-.08-2.78.03-4.02-.76.15-.98.64-1.08 1.38-.54 1.1.68 2.12-.67 3.21-.12l-.57 1.42z" fill="#bb864c"/><path d="M98.9 36.22l.72-1.19c1.18-1.43 2.41.03 3.62-.07 4.47-.19 8.94.76 13.4-.16.66-.14 1.27.24 1.62.88v.55c-1.59 1.27-3.27 2.33-5.31 2.71-.54.41-1.26.81-1.8.52-3.64-1.96-7.15-.21-10.7.26-1.21-.86-3.51-1.25-1.55-3.51z" fill="#bb723a"/><path d="M99.57 38.84c4.47-1.08 8.93-.66 13.38.11-1.19 1.98-2.65 1.2-4.23.52-3.19-1.36-5.75.19-5.78 3.4-1.5.09-2.71-.73-3.99-1.3-.81-1.14-1.09-2.17.63-2.74z" fill="#905321"/><path d="M118.26 35.69c-5.38.97-10.77.72-16.18.29-1.14-2.32-.84-2.77 2.45-3.74 4.16.84 8.21 2.43 12.58 1.86.72.19 1.55.13 2.03.89l-.89.7z" fill="#e69a90"/><path d="M116.83 34.95l-2.31-.12c-.28-.74-.45-1.42.76-1.29 2.33.64 4.19-1.38 6.45-1.14l.19 1.01c-1.48 1.23-3.17 1.76-5.09 1.54z" fill="#d78a9d"/><path d="M117.59 33.57l-.76 1.29c-4.36.28-8.62-.1-12.65-1.95-1.97-.19-3.63 2.63-5.8.6-.1-1.82 2.46-1.61 2.52-3.31l.82-.07c1.32-.76 2.5-.87 3.29.73.67.76 1.58.72 2.47.76 1.86-.89 3.33-.18 4.66 1.11 1.04.9 2.11.56 3.18.08l2.27.75z" fill="#bfa2b5"/><path d="M76.33 32.17c.36 3.87-1.79 2.08-3.4 1.5-1.1-2.27 2.05-1.96 2.14-3.51.74.47 1.05 1.21 1.26 2.02z" fill="#9c562b"/><path d="M99.57 38.84c-.68.8-.76 1.74-.63 2.74l-.68 1.95c-1.55.16-1.79 1.32-2.1 2.55-.28 1.11-.32 2.5-1.91 2.77-2.51-3.77-2.53-6.61-.06-8.65.39-1.57-2.58-4.17 1.41-4.65.83 1.54 2.17.57 3.29.68-.79 1.13 1.46 1.49.67 2.62z" fill="#b38d5b"/><path d="M95.61 35.55c-1.87 1.13-.67 3.19-1.41 4.65-2.6-2.05-.62-4.97-1.41-7.37l.87-.54c.2 1.35 2.76 1.29 1.95 3.25z" fill="#907041"/><path d="M98.39 33.52c2.05.94 3.71-1.89 5.8-.6-.81.95-2.72 1.14-2.1 3.07l-2.46-.95-1.23-1.51z" fill="#af6f86"/><path d="M85.64 32.88c-1.67 3.73-2.13 3.9-5.36 2.03-.52-1-.52-1.98.14-2.93 1.14-.89 2.47-1.07 3.87-1.01 1.04.23 1.3 1 1.36 1.92z" fill="#e48949"/><path d="M84.28 30.96c-.65 1.61-2.06 1.21-3.31 1.24-.92-1.07.29-1.7.52-2.53.87-.68 1.86-.67 2.88-.53l-.09 1.82z" fill="#da7d6a"/><path d="M94.26 48.85l1.61-7.11c1.46-.27 1.74 1.01 2.4 1.79l-.53 2.04c.87 1.52-.23 2.08-1.3 2.65-.55.83-1.05 1.82-2.17.62z" fill="#e0bb8d"/><path d="M96.43 48.23l1.3-2.65c2.99 1.63 3.39 2.82 1.76 5.35-2.05.32-1.47-1.91-2.51-2.57-.19-.03-.37-.07-.55-.13z" fill="#905423"/><path d="M96.99 48.36c2.12-.39 1.35 2.02 2.51 2.57l.1 1.32c-.55-.05-1.05.03-1.38.54l-1.23.06v-4.49z" fill="#5e2d10"/><path d="M81.49 29.66l-.52 2.53c-.72.78-.7 1.74-.7 2.71l-.05 6.81c-1.23-3.12-.39-6.39-.72-9.58.55-.92.96-1.94 1.98-2.48z" fill="#ae7242"/></svg>