<svg xmlns="http://www.w3.org/2000/svg" viewBox="0 0 281.8 164.2" xmlns:v="https://vecta.io/nano"><g fill="#e6e5e5"><path d="M157.5 114.3c-.4 15.5 2.9 30.8 5.6 46.1.3 1.8 1.5 2.3 3.2 2.2s2.5-1.3 2.9-2.7v-.3a342.67 342.67 0 0 1-6.1-45c-.2-3.3-5.5-3.7-5.6-.3z"/><path d="M153.3 119.9c5.82-3.83 6.94-4.43 10.8-5 3.7-.54 8.88.81 9.6 1 1.2.31 3.38 1.02 4.5-.1 1.2-1.2 1-2.8-.5-3.7-4.3-2.65-9.46-3.54-14.4-2.5-5.5 1.2-9.9 3.7-14.6 6.6-1.5.9-1.2 2.7.1 3.7 1.37.9 3.13.9 4.5 0zm6.6 19.3a19.33 19.33 0 0 1 3.1-3c.63-.49 3.81-2.86 8.74-3.75a22.25 22.25 0 0 1 3.76-.35c1.8-.6 2.5-1.9 1.5-3.5a5.31 5.31 0 0 0-5-2.1c-6.49 1.19-12.42 4.46-16.9 9.3-1.3 1.3-.8 2.7.6 3.7s2.9.5 4.2-.3h0zm19.4-23.5c.61 4.28 1.55 8.21 2.86 11.96.67 1.93 3.21 6.59 8.24 15.94 1.84 3.42 4.61 6.4 5.8 10.1.2.61.84 1.78 1.9 3 1.15 1.32 3.48 1.32 5.1.8 1.46-.47 2.78-2.84 5.4-7.6.11-.2.33-.65.29-1.21-.07-.97-.85-1.81-1.99-2.09-2.21-.55-4.3 1.21-4.4 1.3-.69.65-.45.79-1.8 2.8-1.22 1.81-1.85 2.36-1.65 2.73.12.21.59.54 3.15-.13-.92-1.9-2.34-4.77-4.2-8.2-1.29-2.38-2.56-4.52-3.46-6.07l-2.34-3.93c-4.14-7.1-5.11-14.25-6.5-19.8-.4-1.6-2.2-2.3-3.7-2.2s-2.1 1.1-2.7 2.6h0z"/><path d="M186 138.1a97.71 97.71 0 0 0 13.2-4.7c.53-.23 1.36-.8 1.52-1.67.22-1.21-.99-2.58-2.24-3.16-.7-.33-1.55-.47-3.67-.07-2.76.52-4.16 1.29-6.3 2a26.53 26.53 0 0 1-5.6 1.2c-1.14-.12-2.18.3-2.7 1.1-.4.62-.35 1.26-.34 1.42.12 1.27 1.42 2.23 2.84 2.98.8.5 2.2.4 3.3.9-.1-.1-.1 0 0 0zm-2.6-19.7c3.3-.3 7.4-.5 10.5-1.1.79-.15 1.87-.32 2.48-1.2.57-.8.65-2.03.13-2.85-.43-.68-1.23-1.15-3.42-1.25-5.4-.26-6.25 1.04-10.6 1.1-.65 0-1.98.04-2.75.9-.34.38-.52.92-.55 1.7a3.12 3.12 0 0 0 .21 1.07c.44 1.04 2.04 1.73 3.99 1.63z"/><path d="M205.7 108.1c-2 .3-4.1.3-5.9 1.4s-3.4 2.5-3.4 4.7c0 4.5 2.9 6.6 6.1 9.3 6.3 5.1 11.9 10.5 16.3 17.3 1.1 1.8.9 3.9 1.4 5.8.04.14.02.6-.15.65-.31.1-.77-1.51-1.75-2.35-.75-.64-2.12-1.09-4.8-.4-1.1 2.07-.75 3.45-.6 3.9.98 3.01 5.79 3.97 9.16 3.07 1.26-.34 2.49-1.11 3.64-2.47 1.4-1.6.9-4 .6-6a14.71 14.71 0 0 0-2-6c-4.6-7.4-10.6-13-17.5-18.3-.91-.7-4.33-2.46-4-3.8.12-.49.7-.81 1.6-1.3 1.67-.92 2.34-.6 3.03-1.36.55-.61.92-1.72.48-2.7-.37-.82-1.22-1.37-2.21-1.44h0zm7.3-2.8c6.1 13.1 12 26.9 18.5 39.7 2.2 4.3 6.2 1.6 4.5-2.8-5.2-13-11.2-27.6-17.7-40.1-2.2-4.2-4.4 1-5.2 3 0 .1-.1.1-.1.2z"/><path d="M208.9 108.6c4.93-2.53 9.42-5.84 13.3-9.8.65-.67 1.41-1.88 1.17-3.17-.18-.93-.91-1.91-1.82-2.06-1.04-.17-1.99.78-2.45 1.23-1.48 1.43-5.08 3.96-12.3 9-.49.34-1.53 1.06-1.74 2.24-.19 1.08.34 2.4 1.3 2.86.91.43 1.97-.02 2.54-.3z"/><path d="M223.7,95.9c7.7,9.4,16.7,19.8,25.3,28.8,2.9,3,5.5-1.2,3-4.4-7.6-9.7-16.1-20.7-25.1-29.6-3-3-5.8,2.1-3.2,5.2Z"/><path d="M230 93.5c3.6 1.04 6.15 1.43 7.6 1.6 2.66.3 5.22 1.19 7.5 2.6 5.2 3.3 10.5 6.7 16 9.7.68.37 2.47.24 3.44-.8.79-.85.75-2.11.73-2.62-.04-1.26-.76-2.14-.93-2.37-1.31-1.79-10.95-15.49-24.25-34.3-1.3-1.1-2.5-1-3.5.3-1.31 1.71-.6 4.44-.4 5.2.97 3.74 10.5 15.65 24.44 30.67l1.79-1.79c-3.3-3.45-8.47-8.18-14.94-11.63-2.85-1.51-4.58-2.42-7.08-2.85a63.3 63.3 0 0 0-8.9-.9c-1.55.01-2.93 1.02-3.4 2.5-.5 1.6-.5 3.2.9 4.4l1 .3zm33-5.73l-3.5-6.27-5-9.1c-3.5-5.8-7.6-11.7-11.8-17.3l-1.85 5.86L271.5 81c.2.12.68.39 1.27.34.88-.07 1.58-.81 2.13-1.64.8-1.2.7-3.4-.4-4.2-11.2-7.1-20.8-15.8-33.3-20.8-2.3-.9-3.5 3.7-2 5.8 3.9 5.5 8 11.9 11.8 17.9 1.9 3 3.3 6.3 5 9.4s2.9 6.4 5.7 8.8c.98.84 2.77-.38 3.4-1.4.55-.88.54-2.23-2.1-7.43z"/><path d="M261.3 74.4c.2-.53.56-1.49.4-2.7-.07-.51-.22-1.73-1-2.1-1.22-.58-3.1 1.39-3.3 1.6-1.34 1.43-1.64 3.07-1.9 4.5-.05.27-.61 3.51.6 4.9.21.24.41.35.59.41.93.3 1.94-.73 2.07-.86l2.55-5.75zm-20.5-23c12.3 6.1 23 14 34.5 21.5 2 1.3 3.8-1.8 3.5-4.1-.4-3.7.5-9.4 2.2-12.5 1.6-2.8.1-7.6-2.6-4.5-4.7 5.5-4.2 12.5-4.7 19.2l3.9-4c-11.21-8.4-23.09-15.9-35.5-22.4-1.51-.01-2.8 1.1-3 2.6-.3 1.7.8 2.8 1.7 4.2 0-.1.1 0 0 0zm-219-4.1c-4 8.5-6.6 20.2-9.7 28.4S5 89 .7 95.5c-2.1 3.2.7 7.1 3.3 5.5 11.8-7.2 23.5-11.9 36.3-16.6 1-1.25 1.19-2.96.5-4.4a3.4 3.4 0 0 0-3.6-2.2C22.5 81 12.2 86.2.7 95.5c.8 2.1 2.5 3.7 3.3 5.5 5.1-6.5 8.7-10.6 12.5-18.7s6.6-20.1 9.5-29.2c.64-1.9.3-3.99-.9-5.6-1.1-1.5-2.5-1.9-3.3-.2zm18.9 38.1c-7.2 9.4-18.9 25.7-26.9 32.7-3.27 2.86-4.12 3.78-3.96 4.12.24.51 1.4.02 2.35.82 1.23 1.04.55 2.91 1.49 3.45.88.51 2.43-.58 2.81-.89 11.3-9.3 19.8-22.9 28.6-34.4 1.2-1.6.6-3.4-.3-5-.28-.5-.75-1.41-1.73-1.63-1.22-.27-2.25.71-2.37.83zm6.3 9.3a237.52 237.52 0 0 1-31.7 34.1c-1.9 1.7 1.4 5.7 4 6 3.5.5 7.6 2.6 10.9 4.2 1.6.8 3.7 1 3.9-1.1s-1.2-3.6-2.9-4.6a63.13 63.13 0 0 0-14-5.7L21 134c10.1-10.7 19.2-22.2 29.4-33a3.89 3.89 0 0 0 .4-4.5c-.7-1.5-2.1-2.6-3.8-1.8 5.33 4.8 6.16 8.63 6.1 11-.08 3.2-3.52 7.67-10.4 16.6-2.22 2.88-3.88 6.15-6 9.1-1.2 1.68-2.32 3.16-2.4 5.3-.1 2.74 1.58 4.83 2.2 5.6 3.87 4.82 12.24 6.88 18 3.5 2.08-1.22 3.23-2.8 4.01-3.86 2.9-3.98 3.22-8.19 3.49-12.44.07-1.14-.19-4.46-.7-11.1 0 0-.38-4.91-3-13-.18-.56-.59-1.77-1.66-2.25-1.05-.47-2.41-.09-3.04.38-2.57 1.91 2.3 8.62 2.4 19.87 0 0 .07 7.84-3.8 14.1-.43.7-.99 1.25-1.03 1.29-.31.31-1.91 1.88-4.17 2.01-1.99.11-4.39-.89-5.17-2.53-.81-1.7.2-3.93 6.47-12.17 6.58-8.65 9.53-11.54 9.6-16.5 0-.37.01-2.18-.7-4.4-2.15-6.68-8.43-9.72-10.2-10.5zm33.4 15.7c-4.2-1.1-8.4-2.3-12.4.1-4.7 2.9-4.8 7-3.4 12s5.2 9.9 6.8 14.9c.61 1.86.88 3.55.89 5.19 0 2.12.19 4.95-1.59 7.31-.6.8-.97 1.24-1.46 1.47-1.67.77-3.65-.4-3.94-.57-2.97-1.81-2.06-5.03-4.7-6.2-1.34-.59-3.31-.55-3.79.32-.14.26-.19.58-.11.98a13.58 13.58 0 0 0 11.5 11.4c5.9.8 9.6-2.8 11-7.9 1.5-5.8-.3-10.2-2.5-15.5-2.1-5-6-9.5-6.4-15.1-.06-.65.02-1.16.2-1.6.65-1.6 2.18-2.35 2.5-2.5 1.27-.58 2.45-.48 3-.4l1.3.4c1.45.96 3.34.43 4.01-.87.57-1.09.23-2.59-.91-3.43zm7.3 3.6c-2.7 14.2-3.1 29.7-4.2 44-.3 4.4 5.1 5.7 6 1.3 2.7-14.3 2.4-29.8 3.6-44.1.4-4.5-4.5-5.6-5.4-1.2z"/><path d="M97.6 117l-.32 1.01c-1.16 3.44-2.01 5.98-4.06 7.56-.6.47-1.65 1.12-3.32 1.42-1.38.05-2.51.68-2.9 1.65a2.34 2.34 0 0 0-.1 1.25c.3 1.6 2.1 3.1 3.8 2.6 7.8-2.5 11.1-7.2 12.6-15.1.3-1.7-1.2-2.5-2.7-2.6s-2.4 1-3 2.2h0z"/><path d="M88.6 136.8l2.8 4.8c.97 1.85.88 3.18 1.3 6.8.6 5.2.8 10 3.6 14.6.22.36 2.07 1.49 3.45.85.93-.43 1.25-1.51 1.27-1.59.33-1.17-.29-2.28-.42-2.56-2-4.2-1.7-8.7-2.3-13.2-.5-5.24-2.8-10.15-6.5-13.9-1.16-1.11-2.99-1.07-4.1.09-.03.03-.06.06-.1.11-.68.87.25 2.63 1 4zm16.3-16.4a115.4 115.4 0 0 0-1.4 16.5c0 5.5.3 11.1.8 16.7.2 2.5.7 4.8 2.5 6.7 1.17 1.29 3.06 1.62 4.6.8 1.3-.6 2.1-2 2.8-3.2 1.46-2.46 2.54-5.12 3.2-7.9a50.85 50.85 0 0 0 1.1-8.6c.4-6.7 1.6-13.4 1-20-.3-3.6-4.7-2.9-5.2.5-.8 6-.8 12.7-1.5 18.9-.02.2-.03 4.49-1.1 8.8-.38 1.53-.66 2.61-1.4 3.9-1.08 1.87-2.31 2.78-2.04 3.26.15.26.75.4 2.74-.16-1.2-1.6-1.1-4.1-1.2-5.9l-.4-10.4a165.06 165.06 0 0 1 1.1-20c.09-1.25-.86-2.33-2.11-2.42-.16-.01-.33 0-.49.02-1.41.16-2.59 1.14-3 2.5z"/><path d="M119.6 121.9c.9 7.4 1.2 14.9 1.6 22.4l.7 11.1c.1 1.7-.2 3.5.8 5.1s2.7 2.1 4.5 2.3c3.3.5 7 .8 10-.7a10.41 10.41 0 0 0 5.7-7.1c1.53-6.35.78-13.04-2.1-18.9-3.3-6.8-8.7-12.4-13.9-17.4-2.6-2.5-6.5-.1-4.2 2.9 4.3 5.6 9.8 10.4 13 16.9 1.51 2.97 2.3 6.26 2.3 9.6 0 3.1-.3 6-2.6 8.3s-5.7 1.6-8.7.7c.87.9 1.36 1.31 1.49 1.21.06-.05.03-.22-.09-.51l-.5-7.7-1.04-17.33c.22-4.17-.7-6.94-.96-10.87-.1-1.54-1.36-2.75-2.9-2.8-1.27-.04-2.91 1.16-3.08 2.5-.01.12-.02.22-.01.3z"/></g><path d="M76 63.3c-3.9 2.7-3.9 8.7-1.2 12.5s7.4 6 12.1 7.2c1.6.5 3.4.8 4.6 2a9.68 9.68 0 0 1 1.6 2.5c4.64 9 12.44 15.98 21.9 19.6a42.19 42.19 0 0 0 29.5.2c2.9-1.1 5.6-2.5 8.5-3.4s6-1.4 9-2.1a44.93 44.93 0 0 0 21-11c5.81-5.42 9.62-12.64 10.8-20.5.9-6.9-.3-14.7 4.1-20.1 2-2.4 5-4.2 6.2-7.1-5.66.82-10.91 3.41-15 7.4a54.88 54.88 0 0 0-10 13.4c-1.7 2.9-3.3 6-6.1 7.9-3.7 2.6-8.7 2.7-13.3 2.9a83.59 83.59 0 0 0-29.8 7.7c-3.3 1.5-6.7 3.3-10.4 3.1-6.7-.5-11-7.3-16.9-10.6-3.4-1.9-7.3-2.5-10.9-3.6a41.55 41.55 0 0 1-15.4-8.5" fill="#d01a1c"/><path d="M75.9 63.2c-4 3-3.9 8.9-1.2 12.7a16.84 16.84 0 0 0 6.8 5.3 28.29 28.29 0 0 0 4 1.5c1.8.5 3.8.8 5.3 1.9s2.1 2.9 2.9 4.4c.71 1.29 1.51 2.53 2.4 3.7 5.52 7.64 13.44 13.2 22.5 15.8a42.66 42.66 0 0 0 18.8 1c7-1.2 13.1-4.9 20-6.4 6.5-1.4 12.6-3 18.4-6.4 5.45-3.14 10.05-7.57 13.4-12.9 1.91-3.06 3.32-6.4 4.2-9.9.9-3.7.9-7.6 1.2-11.4s.7-8.1 3-11.4c2-2.8 5.3-4.5 6.7-7.8 0-.1-.1-.2-.2-.1-9.4 1.2-16.6 7.9-21.7 15.4-1.4 2.1-2.7 4.3-4 6.4-1.1 2.13-2.52 4.09-4.2 5.8-3.6 3.4-8.8 3.5-13.5 3.8A85.25 85.25 0 0 0 133 81c-4.3 1.8-8.7 4.8-13.5 4.5s-8.6-4.2-12.1-7.2c-1.79-1.63-3.81-2.97-6-4-2.84-1.1-5.74-2-8.7-2.7-5.98-1.72-11.54-4.69-16.3-8.7-.1-.1-.3.1-.2.2 4.39 3.77 9.49 6.62 15 8.4 3 1 6.2 1.5 9.2 2.7a25.24 25.24 0 0 1 7.5 5c3.5 3 7.2 6.6 12.1 6.6s9.7-3.2 14.2-5a83.36 83.36 0 0 1 16.9-4.8c3-.5 6-.8 9-1 2.48-.08 4.95-.32 7.4-.7 2.26-.37 4.39-1.3 6.2-2.7 1.88-1.67 3.44-3.67 4.6-5.9 3-5.2 6.1-10.4 10.6-14.6a29.59 29.59 0 0 1 6.7-4.9 22.14 22.14 0 0 1 3.9-1.7 12.56 12.56 0 0 1 3.8-1c.6 0 .5 0 .2.6a2.3 2.3 0 0 1-.5.8 13.53 13.53 0 0 1-1.6 1.7c-1.02.88-1.98 1.82-2.9 2.8-1.74 1.85-2.95 4.13-3.5 6.6-1.4 5.7-.6 11.7-1.9 17.4a34.39 34.39 0 0 1-8.1 15.3 42.89 42.89 0 0 1-13.4 9.8c-2.58 1.2-5.25 2.17-8 2.9-2.9.8-5.9 1.2-8.8 2a62.83 62.83 0 0 0-8.2 3 36.65 36.65 0 0 1-8.5 2.6 41.61 41.61 0 0 1-43.5-19.1c-1.3-2.1-2-4.8-4.3-6s-5.1-1.5-7.5-2.5c-5-2-9.8-6-9.7-11.9-.02-2.42 1.09-4.71 3-6.2 0 0-.1-.2-.2-.1z" fill="#1d1d1b"/><path d="M188.8 48.2l1.3 1.1 11.4-5.5c3-1.4 6.3-3.4 6.7-6.5s-2.5-6.1-5.5-7.7c-6.7-3.6-14.9-4-21.4-7.9-5.9-3.5-9.8-9.5-15.3-13.7-6.3-4.6-14.3-6.7-22-7a30.62 30.62 0 0 0-11.3 1.2c-4.5 1.4-8.3 4.1-12.6 5.9-6.1 2.5-13.2 3-18.7 6.6-8 5.2-11 15.7-19 21-4.5 2.9-10.4 4.3-12.8 8.9-1.5 2.9-1.1 6.6.3 9.6 1.58 3.01 3.72 5.69 6.3 7.9 5.3 5.1 12 10 19.4 9.3a34.2 34.2 0 0 1-4.7-8.8c-1-3.2-1-6.8.7-9.6 2.9-4.6 9.2-5.6 14.3-7.6 6.7-2.6 12.1-7.4 18.1-11.2s13.4-6.6 20.4-4.5c6.5 1.9 11.1 7.7 17.2 10.5 4.6 2.1 9.9 2.5 14.9 3.4s10.3 2.3 13.7 6.1m-65.6 34.4a22.97 22.97 0 0 1-7.1-2.1c-2.24-1.05-3.92-3.02-4.6-5.4a15.27 15.27 0 0 1-.1-3.7 20.23 20.23 0 0 0-1.3-7.7c-.7-1.9-1.6-3.8-1.4-5.7.21-1.43.79-2.78 1.7-3.9a14.78 14.78 0 0 1 10.2-6.2 20.88 20.88 0 0 1 6.1.6l6 1.1a52.5 52.5 0 0 0 7.8 1c4 .1 8-.8 12-1.1s8.4.4 11.4 3c2.7 2.39 4.1 5.91 3.8 9.5-.28 3.5-1.72 6.81-4.1 9.4a7.11 7.11 0 0 1-1.5 1.5 7.52 7.52 0 0 1-3.8 1.1 35.67 35.67 0 0 1-8 0c-.4-1.3.8-2.4 1.6-3.6 1.7-2.53 1.5-5.89-.5-8.2-.76-.87-1.67-1.58-2.7-2.1-6.79-3.91-15.14-3.99-22-.2a13.83 13.83 0 0 0-5.5 5.2 7.86 7.86 0 0 0-.3 7.3c1.5 3 4.9 4.5 8.1 5.8.5.2 1.1.5 1.2 1.1-.03.49-.29.94-.7 1.2-1.96 1.58-4.38 2.49-6.9 2.6" fill="#d01a1c"/><path d="M124.6 84c-3.5-.7-7.4-1.4-10-4.2s-1.4-6.4-1.8-9.9a24.5 24.5 0 0 0-1.1-4.7c-.6-1.7-1.5-3.4-1.5-5.3.1-3.4 3.3-6.5 6-8.3 2.92-1.82 6.41-2.49 9.8-1.9 3.8.5 7.5 1.4 11.4 2 3.31.48 6.68.52 10 .1 3.5-.4 7-1.1 10.6-.6 3.8.4 7.5 2 9.5 5.3 1.7 2.98 2.1 6.52 1.1 9.8-1 3.3-3.3 7.8-7 8.6-1.81.36-3.65.53-5.5.5-.93.02-1.87-.02-2.8-.1a2.74 2.74 0 0 1-.9-.1c-.9-.7.1-1.8.5-2.4 1.5-2.1 2.4-4.3 1.6-6.9s-3.3-4.3-5.8-5.5a22.42 22.42 0 0 0-16.3-1.1c-5.4 1.7-12.1 6.4-10.5 13 .7 3.1 3.5 4.9 6.2 6.2l2.1.9c.32.09.62.23.9.4 1.3 1.1-.3 2-1 2.4a12.94 12.94 0 0 1-5.8 2c-.2 0-.2.3 0 .2 2.23-.17 4.37-.93 6.2-2.2 1.2-.8 2.1-2 .4-2.8-2.3-1.1-4.6-1.8-6.5-3.6-2.13-1.94-2.99-4.92-2.2-7.7 1.5-5.2 7.5-8.2 12.4-9.2 5.1-1.04 10.41-.26 15 2.2 2.8 1.5 5.2 3.7 5 7.1a7.02 7.02 0 0 1-1.6 4.1c-.79.79-1.2 1.89-1.1 3 0 0 .1.1.1 0 2.49.28 5 .32 7.5.1 1.81 0 3.57-.59 5-1.7 3.09-2.88 4.89-6.88 5-11.1a11.41 11.41 0 0 0-4.2-9.1c-3.5-2.7-8.3-3-12.5-2.6-4.8.4-9.5 1.3-14.4.7s-9.6-2.1-14.5-2.3c-3.78-.12-7.43 1.33-10.1 4a14.51 14.51 0 0 0-3.3 4.5 7.79 7.79 0 0 0 .3 5.6 26.92 26.92 0 0 1 1.9 7.9c.1 2.1-.4 4.5.4 6.6 1.8 4.5 7.2 5.7 11.4 6.5.2-.2.3-.4.1-.4z" fill="#1d1d1b"/><g fill="#e6e5e5"><path d="M74.2 62.8c-1.46.22-2.99 6.73-.84 11.94 2.58 6.25 9.67 8.72 11.92 9.5 3.47 1.21 4.21.54 8.82 2.15 1.42.5 4 1.48 8.7 4.2 8.46 4.89 7.6 6.02 12.31 8.14 1.93.87 8.01 3.52 15.45 2.3 1.34-.22 4.47-.76 7.91-2.68 3.1-1.73 3.49-2.91 7.53-5.36 1.41-.85 3.65-2.19 6.64-3.19 3.47-1.16 6.04-1.21 8.3-1.4 0 0 6.64-.56 14.17-3.19 13.13-4.59 21.3-18.43 19.79-24-.02-.07-.67-2.48-1.15-2.43-.5.06-.53 2.8-.54 3.31-.17 5.15-6.47 15.88-16.7 20.7-8.7 4.1-18.9 2.3-27.7 6.4-4.7 2.2-8.2 6.3-12.9 8.4a23.5 23.5 0 0 1-13.6 1.6c-5.1-.9-9.1-3.5-13-6.8-1.94-1.73-4.01-3.3-6.2-4.7-2.56-1.4-5.28-2.47-8.1-3.2-5.6-1.7-12-2.7-16.6-6.6-3.6-3.1-6.2-9.3-2.4-13.2.7-.72-1.16-2-1.8-1.9zm90.2 12.8c.8-.59 5.7-4.35 6.2-10.9.1-1.32.19-6.54-3.2-10.2-6.3-6.8-16.3-3.9-24.3-3.6-4.2.1-8.1-1-12.1-2-3.7-.9-7.7-1.6-11.4-.2-3.79 1.49-7.06 4.07-9.4 7.4-2.3 3.5-1.4 6.8.2 10.3.96 1.88 1.34 4 1.1 6.1-.42 3.67-.39 4.56.5 6.3.75 1.47 1.95 2.24 3.87 3.48.56.36 2.07 1.01 5.11 2.3 1.84.78 2.6 1.08 3.61.88 1.26-.25 2.39-1.19 2.26-1.65-.11-.37-1.02-.27-2.65-.51 0 0-1.56-.23-3.75-.98-1.88-.65-4.72-1.62-5.95-4.02-.39-.77-1.08-2.26-.6-5.1.27-1.59.23-3.22-.1-4.8-.8-2.9-3.1-5.8-2.4-8.9.8-3.4 4.5-6.1 7.4-7.7 6.5-3.6 13.6.7 20.3 1.4 7.5.9 15.5-2.6 22.8.4 1.4.57 5.99 3.86 6.4 8.7.26 3.05-1.19 6.89-3.66 9.38-1.49 1.51-3.29 2.45-3.04 3.22.2.62 1.6.72 2.8.7zm-12.4.2c3.5-2.9 5.4-8.8 2.6-12.8-1.4-2-3.8-2.9-6-3.8-2.55-1-5.26-1.58-8-1.7-2.72-.1-5.43.31-8 1.2a23.26 23.26 0 0 0-7 3.2c-3.7 2.6-6.4 7.4-4.6 12 1.9 4.8 7.4 6.7 12 7.8.84.2 1.56-1.42 1.33-2.02-.26-.71-1.8-.5-3.43-.78-2.58-.45-5.4-2.13-6.6-4.3-1.73-3.12-.59-7.74 1.7-9.8 3-2.7 7.6-4.1 11.6-4.7a21.87 21.87 0 0 1 13 2.6 5.37 5.37 0 0 1 2.9 5.5c-.25 1.9-1.86 4.13-3.1 5.8-.67.9-1.32 1.64-1.08 2.02.27.44 1.59.12 2.68-.22z"/><path d="M112.2 72.8c-2.12 1.21-4.37 2.18-6.7 2.9-.5.1-.3.9.2.7 2.38-.79 4.69-1.8 6.9-3 .4-.2 0-.9-.4-.6zm-.4-3.6l-1.54.31c-1.47.27-10.38 1.79-11.76 2.49-.11.05-.4.2-.4.4s.3.35.4.4c1.39.7 9.6-2.54 11.7-2.4.19.01.86-.34 1.7-.4a.43.43 0 0 0 .4-.4c-.2-.3-.3-.4-.5-.4zm-.75-2.35l-8.3 1.2c-2.83.27-5.67.33-8.5.2-.19 0-.35.16-.35.35s.16.35.35.35h0c2.83.13 5.67.07 8.5-.2l8.3-1.2v-.7zm-.85-2.65l-9.1-.8-9.4-.8c-.19 0-.35.16-.35.35s.16.35.35.35h0l9.4.8 9.1.8c.4.1.4-.6 0-.7zM110 60c-5.91-1.9-11.92-3.51-18-4.8-.5-.1-.7.6-.2.7 6.1 1.4 12 3 18 4.8.2 0 .4-.1.4-.3 0-.16-.08-.3-.2-.4zm.3-1.6a53.58 53.58 0 0 1-12.9-9.3c-.3-.3-.9.2-.5.5 3.82 3.81 8.21 7.01 13 9.5.4.1.8-.5.4-.7zm1.8-3.9a10.23 10.23 0 0 1-1.7-1.9c-.6-.7-1.1-1.5-1.6-2.2l-2.9-4.4c-.11-.19-.36-.26-.55-.15s-.26.36-.15.55l3.1 4.7 1.6 2.1c.52.74 1.12 1.41 1.8 2 .21.07.45-.04.52-.25.06-.16 0-.34-.12-.45zm4.9-3.9l-2.3-9.1c-.07-.19-.29-.28-.48-.21-.22.1-.32.2-.22.4l2.3 9.1c.07.19.29.28.48.21a.67.67 0 0 0 .22-.4zm8.8-2.3l-2.2-6.2-1.1-3.1c-.15-.76-.63-1.42-1.3-1.8-.4-.2-.7.5-.2.7.7.3.9 1.5 1.1 2.2l1 2.8 2 5.6c.1.4.9.2.7-.2zm6.9.9c-1.13-5.71-1.87-11.49-2.2-17.3 0-.5-.8-.5-.7 0a148.72 148.72 0 0 0 2.2 17.6c.1.4.8.2.7-.3zm5.77 1.39a24.45 24.45 0 0 0 .81-4.8l.58-5.57c.41-3.62.7-7.32 1-10.92.02-.51-.71-.59-.72-.08l-.97 10.51c-.11 1.74-.34 3.4-.55 5.16-.11 1.82-.39 3.63-.81 5.41-.13.43.53.72.66.29h0zm4.99 1.06c1.72-6.29 3.76-12.48 6.11-18.56.17-.41-.46-.76-.63-.35a193.44 193.44 0 0 0-6.19 18.77c-.07.41.55.56.71.14zm4.44-.65c1-5.3 3.6-10.1 5.3-15.2.1-.5-.6-.7-.7-.2-1.7 5.1-4.3 9.9-5.3 15.2-.2.4.6.6.7.2z" stroke="#e6e5e5" stroke-miterlimit="10" stroke-width=".5"/></g><path d="M154.2 50.8c.2 0 .4-.1.4-.3 0-.16-.08-.3-.2-.4-.2 0-.4.1-.4.3s0 .3.2.4z" fill="#1d1d1b"/><g fill="#e6e5e5"><g stroke="#e6e5e5" stroke-miterlimit="10"><path d="M154.6 50.6c.79-3.88 1.9-7.69 3.3-11.4.1-.5-.6-.7-.7-.2-1.4 3.71-2.51 7.52-3.3 11.4-.1.4.6.6.7.2zm6.4.6a58.72 58.72 0 0 1 4.4-8.2c.1-.2.1-.4-.1-.5s-.4-.1-.5.1h0a67.09 67.09 0 0 0-4.5 8.4c-.2.4.5.6.7.2zm2.1 1.1c3.5-2.7 6.9-5.4 10.2-8.2.4-.3-.1-.9-.5-.5-3.3 2.8-6.7 5.6-10.2 8.3-.4.2.1.7.5.4zm3.2 1.8a32.93 32.93 0 0 0 7.4-3.3l8.2-4.6c.4-.2.1-.9-.4-.7l-8 4.5c-2.34 1.39-4.82 2.53-7.4 3.4-.19.07-.28.29-.21.48v.02c.11.11.25.17.4.2zm2.4 3c3.8.1 7-1.3 10.4-2.7l5.6-2.4c.8-.37 4.32-2.01 4.8-2.4.04-.03.14-.13.15-.23.02-.26-.34-.49-.65-.27-1.46.91-3 1.67-4.6 2.3l-5.3 2.3c-3.4 1.4-6.6 2.9-10.3 2.8a.43.43 0 0 0-.4.4c0 .1.2.2.3.2z" stroke-width=".5"/><path d="M169.32 60.61c.9 1.47 9.03.61 10.73.9.59.1.83-.6.24-.7-3.54-.5-7.19-.3-10.73-.9-.13-.03-.34-.06-.42.04-.13.16.1.53.18.66z" stroke-width=".54"/><path d="M169.38 66.93c2.39.24 4.55 1.35 6.94 1.59.2-.04.37-.18.33-.37-.03-.15-.13-.28-.27-.35-2.37-.14-4.53-1.25-6.94-1.59-.2.04-.37.18-.33.37.03.15.13.28.27.35z" stroke-width=".5"/><path d="M139.88 72.07l9.44 2.98c1.08.24 2.43 0 1.62-.41-3.02-1.08-6.27-2.1-9.71-3.06-.27-.16-1.08-.08-1.35.08-.37.06-.52.19-.33.31.07.04.19.08.33.1z" stroke-width=".74"/><g stroke-width=".5"><path d="M138 73.1a5.06 5.06 0 0 0-.2 2.7l.2 2.9c0 .5.8.5.7 0l-.2-2.7c0-.4-.1-.9-.1-1.3-.07-.4-.03-.81.1-1.2.3-.4-.3-.8-.5-.4zm-1.8-2c-1.98 2.45-3.75 5.06-5.3 7.8-.2.4.4.8.6.4a59.8 59.8 0 0 1 5.3-7.8c.3-.4-.3-.8-.6-.4z"/><path d="M136.1 70.5l-10.5 5.8c-.4.2-.1.9.4.7l10.5-5.8c.16-.1.21-.32.11-.48 0 0 0-.01-.01-.02-.07-.19-.29-.28-.48-.21h-.02zm2.6-2.1c.38-1.47.52-2.99.4-4.5l.4-4.7c.1-.5-.7-.5-.7 0-.23 1.49-.37 2.99-.4 4.5-.1 1.5.1 3.2-.4 4.5-.2.4.5.6.7.2zm-1.8.6c-1.8-2.5-2.9-5.4-4.7-7.9-.3-.4-.8.1-.5.5 1.8 2.5 2.9 5.4 4.7 7.9.3.4.8-.2.5-.5z"/><path d="M136.2 69.6c-4-1-7.9-2.1-11.8-3.4-.5-.1-.7.6-.2.7 3.9 1.3 7.8 2.4 11.8 3.4.5.1.7-.6.2-.7z"/><path d="M135.5 70.1c-1.1-.07-2.21-.03-3.3.1-1.1 0-2.1.1-3.2.2a45.98 45.98 0 0 0-6.3.8c-.5.1-.3.8.2.7 2.11-.42 4.25-.69 6.4-.8 1.1-.1 2.1-.1 3.1-.1 1.03-.1 2.07-.1 3.1 0 .4 0 .4-.8 0-.9zm5.14-.06l13.1-2.02c.41-.04.42-.85-.19-.83l-13.1 2.02c-.32.16-.22.88.19.83zm-.94-1.14c2.69-2.62 5.53-5.09 8.5-7.4.4-.3-.1-.8-.5-.5-2.97 2.31-5.81 4.78-8.5 7.4-.4.3.1.8.5.5z"/></g></g><path d="M91.5 85c-1.21 1.38 5.92 12.75 17.48 19.87 2.8 1.73 8.9 5.39 17.52 6.23.96.09 5.35.53 11-.5 4.4-.8 8.4-2.6 12.5-4.1 8.6-3.2 18-3.6 26-8.4 6.71-4.03 12.12-9.89 15.6-16.9a37.64 37.64 0 0 0 3.4-10.8c.29-1.92.42-3.86.4-5.8 0-2.5-.3-5 .2-7.4 1-4.6 5.1-7.4 8.3-10.5 2.7-2.6 5-5.9 5.1-9.8.1-4.3-2.9-7-6.6-8.6-4.5-1.9-9.4-2.8-14-4.3-5.45-1.78-9-4.8-12.3-7.3-6.63-5.02-5.5-6.2-10.43-9.73-1.37-.98-9.75-6.8-21.27-6.77-5.14.01-9.32 1.19-11.8 1.91-4.92 1.42-5.27 2.36-11.8 4.69-6.89 2.47-8.05 1.97-13.1 4.1-2.16.91-6.65 2.28-10.4 5.9-5.5 5.3-8.7 12.7-14.7 17.6-3.1 2.5-7 3.5-10.3 5.5a10.17 10.17 0 0 0-5.1 9.3c.3 4.2 2.5 8 5.1 11.2 2.91 3.68 6.47 6.8 10.5 9.2 4.4 2.6 9.3 3.2 14 4.5 4.5 1.3 7.9 4.1 11.4 7.1 3 2.5 6.3 5.2 10.3 5.8 4.3.7 8-1.3 11.8-3a78.73 78.73 0 0 1 27.4-7.1c4.3-.3 8.6-.3 12.6-1.8s6.6-4.5 8.8-7.9c3.14-4.85 2.72-5.65 6.3-10.4 3.69-4.9 7.74-7.86 8.98-8.74 4.41-3.09 6.61-4.64 8.81-4.6.46 0 2.03.1 3.19-.89.58-.5 1.24-1.44 1.02-1.79-.8-1.25-14.45 2.54-22.2 12.51-1.53 1.97-1.41 2.35-6.5 9.7-4.7 6.78-5.78 7.95-7.4 8.9-3.6 2.1-8 2.2-12 2.5a83.79 83.79 0 0 0-13.2 1.7 76.12 76.12 0 0 0-12.7 3.9c-7.32 3.01-7.92 4.7-11.6 4.7-3.57 0-6.64-1.01-10.5-4.1-3-2.4-6.1-5.5-9.7-7.2-4.4-2.2-9.4-2.4-14-4.1-4.4-1.6-8.1-4.7-11.3-8-2.9-2.9-5.6-6.5-6.5-10.6-.46-2.12-.05-3.51.15-4.17.64-2.21 2.11-3.74 4.18-5.36 4.76-3.7 6.44-2.94 10.6-5.87 3.69-2.61 5.97-5.77 7.54-7.94 2.83-3.92 2.68-5.21 5.23-7.89 2.38-2.5 4.75-3.75 7.4-5.11 5.2-2.66 7.55-2.66 14.55-4.98 7.84-2.6 6.86-3.25 12.55-4.88 4.78-1.37 9.76-2.79 16.17-2.14 8.69.89 14.87 5.06 16.85 6.51 4.24 3.1 3.8 4.34 9.83 9.19 4.43 3.57 6.79 5.46 10.6 7.02 4.65 1.91 7.51 1.68 14.68 4.72 1.53.65 3.48 1.54 4.98 3.57.54.73 2.3 3.36 1.79 6.26-.22 1.25-1.13 2.07-2.75 3.77-1.58 1.66-2.88 2.65-3.55 3.19-.99.8-5.97 4.71-7.3 10.1-.47 1.92-.03 2.09-.19 6.68-.17 4.68-.78 8.52-1.1 10.1-1.63 8.15-7.02 14.01-8.51 15.62-6.78 7.36-14.84 10.37-20 11.6-4.6 1.1-9.2 1.9-13.6 3.5-4.1 1.5-8 3.3-12.3 4.2-13.8 2.8-29-2.9-38.1-13.5a36.01 36.01 0 0 1-5.4-8.5c-.13-.42-.51-1.49-1.33-1.7-.51-.13-1.09.09-1.27.3z"/><path d="M97.2 71.2c-2.6-3.3-5.2-7-5.7-11.3-.72-3.97 1.22-7.94 4.8-9.8 3.2-1.7 6.9-2.3 10.4-3.7a53.68 53.68 0 0 0 10.7-6.1c6.5-4.5 13.5-9.7 21.8-9.9 4.3-.1 7.9 1.6 11.3 4.1s6.6 5.4 10.4 7.2c8.6 4 19.3 1.8 27.1 7.6 1.3 1 2.6-1.2 1.3-2.1-7.5-5.6-17.3-4.1-25.7-7-4.3-1.5-7.7-4.7-11.4-7.4s-7.5-4.6-12-4.8c-8.7-.4-16.3 4.7-23.2 9.5-3.52 2.63-7.3 4.88-11.3 6.7-3.7 1.5-7.8 2-11.2 4.1-3.98 2.39-6.21 6.88-5.7 11.5.5 5.1 3.4 9.4 6.4 13.4 1.1 1 2.9-.8 2-2h0z"/></g><ellipse cx="138.2" cy="70.47" rx="2.2" ry="2.3" transform="matrix(.282844 -.959166 .959166 .282844 31.53 183.1)" fill="#d01a1c"/></svg>