<?xml version="1.0" encoding="utf-8"?>
<!-- Generator: Adobe Illustrator 24.3.0, SVG Export Plug-In . SVG Version: 6.00 Build 0)  -->
<svg version="1.1" id="Layer_1" xmlns:v="https://vecta.io/nano"
	 xmlns="http://www.w3.org/2000/svg" xmlns:xlink="http://www.w3.org/1999/xlink" x="0px" y="0px" viewBox="0 0 180 70"
	 style="enable-background:new 0 0 180 70;" xml:space="preserve">
<style type="text/css">
	.st0{fill:#1D1D1B;stroke:#000000;stroke-width:0.14;stroke-miterlimit:10;}
	.st1{fill:#1D1D1B;stroke:#000000;stroke-width:0.13;stroke-miterlimit:10;}
	.st2{fill:#1D1D1B;}
	.st3{fill:#008180;}
	.st4{fill:#008180;stroke:#1D1D1B;stroke-width:0.38;}
</style>
<g>
	<g>
		<g>
			<path class="st0" d="M87.9,35c0.1,6.5,0.4,13.1,0.6,19.7c0,0.1,0,0.3,0.2,0.6c0.2,0.4,0.9,0.7,1.4,0.4c0.5-0.2,0.6-0.8,0.6-0.8
				v-0.1l-0.6-19.7C90.1,33.5,87.9,33.5,87.9,35L87.9,35z"/>
			<path class="st0" d="M86.7,37.1c1.1-0.9,2.3-1.6,3.7-2.1c1-0.3,1.5-0.3,1.9-0.3c0.6,0.1,1.1,0.4,1.3,0.6c0.1,0.1,0.4,0.3,0.8,0.3
				c0.6,0,1.1-0.6,1.1-1.1c0-0.4-0.2-0.7-0.3-0.8c-1.3-1.5-3.3-1.5-5.1-1c-1.8,0.5-3.4,1.6-5,2.8c-0.4,0.4-0.4,1.2,0,1.5
				C85.6,37.5,86.2,37.5,86.7,37.1L86.7,37.1z"/>
		</g>
		<path class="st1" d="M88.4,44.8l0.6-0.5c0.1-0.1,0.3-0.3,0.7-0.5l1.1-0.8l0.6-0.4c0.2-0.1,0.6-0.3,1.2-0.5l0.6-0.2l0.1,0
			c0.5-0.2,0.9-0.8,0.7-1.4s-0.7-0.9-1.2-0.7c-2.2,0.6-4.2,1.8-5.8,3.4c-0.4,0.5-0.4,1.2,0.1,1.5C87.4,45.1,88.1,45.1,88.4,44.8
			L88.4,44.8z"/>
		<path class="st0" d="M95.3,36.2c-0.3,3.6-0.4,7.2-0.4,11v4.1c0,0.5,0,0.9,0.1,1.3c0.2,0.7,0.9,1.2,1.6,1c0.3-0.1,0.5-0.2,0.7-0.4
			c0.7-0.5,1.4-1.2,2.2-1.7c0.4-0.4,0.4-1.2,0-1.5c-0.4-0.4-1.1-0.4-1.5,0l-1.5,1.2c0.2,0.2,0.4,0.4,0.5,0.4c0.2-0.1,0.1-0.5,0.1-1
			c0-0.7,0-1.3,0-2v-4.1l0.4-8.1c0-0.6-0.4-1.1-1.1-1.1C95.8,35.2,95.4,35.6,95.3,36.2L95.3,36.2z"/>
		<path class="st1" d="M94.9,44.7c1.4-0.2,2.9-0.5,4.3-0.9c0.5-0.2,0.9-0.8,0.7-1.3s-0.7-0.9-1.3-0.7c-0.6,0.2-1.3,0.4-2,0.5l-1,0.2
			l-0.6,0.1c-0.1,0-0.4,0-0.7,0.2c-0.5,0.3-0.5,0.9-0.5,1c0,0.4,0.2,0.7,0.3,0.8c0.1,0.1,0.2,0.2,0.3,0.2
			C94.6,44.6,94.8,44.6,94.9,44.7L94.9,44.7z"/>
		<g>
			<path class="st0" d="M96.3,37.3h3.3c0.1,0,0.4,0,0.6-0.2c0.4-0.3,0.7-0.9,0.4-1.5c-0.2-0.5-0.8-0.6-0.8-0.6h-3.4
				c-0.6,0-1.1,0.5-1.2,1c0,0.2,0.1,0.4,0.2,0.6C95.7,37.2,96.3,37.3,96.3,37.3L96.3,37.3z"/>
			<path class="st0" d="M104.1,34.1c-0.6-0.4-1.4-0.5-2.2-0.4c-0.7,0.2-1.3,0.7-1.6,1.5c-0.5,1.5,0.3,2.9,1,4.2
				c1.3,2.5,2.4,5.2,2.2,8.1c0,0.7-0.2,1.5-0.5,2.2c-0.1,0.1-0.1,0.2-0.2,0.3l0.5-0.1c0,0-0.1-0.1-0.2-0.1c-0.3-0.3-0.4-0.5-0.5-0.8
				c-0.2-0.5-0.7-0.9-1.3-0.7c-0.5,0.2-1,0.8-0.7,1.4c0.5,1.4,2.2,3.5,3.8,2c0.5-0.5,0.8-1.4,1-2.1s0.3-1.5,0.4-2.4
				c0.1-3.2-1.1-6.2-2.6-8.9c-0.3-0.5-0.8-1.3-0.8-2c0-0.1,0-0.2,0-0.2c0-0.1,0.1-0.2,0.1-0.2c0,0,0,0,0,0c0.2,0,0.4,0,0.5,0.1
				c0.5,0.3,1.2,0.1,1.5-0.4C104.8,35.1,104.6,34.4,104.1,34.1z M106.7,34.8l-0.2,16.7c0,1.5,2.2,1.5,2.2,0l0.2-16.7
				C108.9,33.4,106.7,33.4,106.7,34.8z"/>
		</g>
		<path class="st1" d="M105.6,35.1c1.7-0.1,3.5,0,5.1,0.1c0.6,0,1-0.4,1-1s-0.5-1-1-1l-5.1-0.1c-0.6,0-1,0.5-0.9,1.1
			C104.6,34.6,105,35.1,105.6,35.1L105.6,35.1z"/>
		<g>
			<path class="st0" d="M111.7,34.6l-0.6,17c-0.1,1.5,2.2,1.5,2.2,0l0.6-17C113.9,33.1,111.7,33.1,111.7,34.6z M114,35.6l1.3,3.5
				c0.4,1.1,0.5,2.3,0.6,3.5l0.4,7.8c0,0.6,0.4,1.1,1,1.2c0.6,0,1.1-0.4,1.2-1v-0.1c0.5-5.2,1.7-10.3,3.5-15.2
				c0.2-0.5-0.2-1.2-0.7-1.4s-1.2,0.2-1.3,0.7c-1.9,5.1-3.1,10.4-3.6,15.8h2.2l-0.4-8c-0.1-1.3-0.3-2.5-0.6-3.7l-1.3-3.7
				c-0.1-0.2-0.3-0.6-0.7-0.7c-0.5-0.2-1.2,0.2-1.4,0.7C113.9,35.2,114,35.5,114,35.6L114,35.6z M121.2,49.9
				c0.1-1.3,0.6-2.5,1.1-3.6l1.3-3.8l2.1-7.9h-2.1c1.3,5.3,0.4,11,1,16.4c0,0.6,0.5,1.1,1.1,1.1s1.2-0.5,1.1-1.1
				c-0.7-5.6,0.3-11.4-1.1-17c-0.3-1-1.9-1.1-2.1,0c-0.5,2.7-1.3,5.4-2.2,8.1l-1.3,3.9c-0.5,1.3-0.9,2.5-1.1,3.9
				c0,0.1,0,0.5,0.3,0.8c0.4,0.5,1.3,0.4,1.6,0.1C121.2,50.4,121.2,50,121.2,49.9z"/>
			<path class="st0" d="M123.3,43.6h1.6c0.3,0,0.5-0.1,0.7-0.4c0.2-0.2,0.3-0.5,0.4-0.7c0-0.3-0.1-0.5-0.4-0.7
				c-0.2-0.2-0.4-0.3-0.7-0.4h-1.6c-0.6,0-1.1,0.4-1.1,1c0,0,0,0.1,0,0.1c0,0.3,0.1,0.5,0.4,0.8C122.7,43.4,123,43.6,123.3,43.6
				L123.3,43.6z"/>
		</g>
		<path class="st1" d="M126.2,33.2c0.8,5.8,1.2,11.7,1,17.6c0,1,1,1.4,1.6,0.7c0.9-0.9,2.3-2,3.6-1.6c1.2,0.4,1.7-1.8,0.5-2.1
			c-2-0.6-3.9,0.7-5.4,2.2l1.6,0.7c0.1-6.1-0.2-12.1-1.1-18.2c0-0.1-0.2-0.6-0.6-0.7c-0.4-0.2-0.8,0.1-1,0.4
			C126.2,32.5,126.2,33,126.2,33.2L126.2,33.2z M31.8,38.1l1.3,8.6c0.5,2.8,0.8,5.7,0.9,8.5c0,1.5,1.9,1.5,2,0
			c0.3-6.3,1.5-12.5,3.5-18.5c0.2-0.5-0.2-1.2-0.7-1.4s-1.1,0.2-1.2,0.7c-2,6.2-3.2,12.6-3.6,19h2c-0.1-3-0.4-6-1-9l-1.4-8.8
			c-0.2-0.5-0.7-0.9-1.2-0.7C32,37,31.8,37.5,31.8,38.1L31.8,38.1z M40,37.7l-0.7,17.9c0,0.6,0.5,1.1,1,1c0.5,0,0.9-0.5,0.9-1
			l0.7-17.9c0-0.6-0.4-1.1-0.9-1.2c-0.5,0-0.9,0.5-1,1V37.7z M43.4,37.5c-0.7,6-1.4,11.9-1.7,17.9c-0.1,1,1.1,1.5,1.7,0.7
			c0.7-0.8,1.7-1.5,2.8-1.5c0.5-0.1,0.8-0.8,0.7-1.4s-0.7-0.9-1.2-0.7c-1.4,0.3-2.7,1-3.7,2.2l1.7,0.7c0.4-5.8,1-11.6,1.7-17.4
			c0.2-0.5-0.2-1.2-0.7-1.4C44.1,36.6,43.4,36.8,43.4,37.5L43.4,37.5z"/>
		<path class="st0" d="M48.3,39.3l-0.5,8.3l-0.3,4.1c-0.1,0.6,0,1.3,0.3,1.9c0.3,0.5,0.8,0.9,1.4,1.1c2.2,0.6,4.2-1.5,5-3.3
			c0.9-2.2,0.9-4.6,0.2-6.8c-0.4-1.2-0.9-2.3-1.6-3.3c-0.9-1.2-1.9-2.3-3-3.2c-0.4-0.4-1.1-0.4-1.5,0c-0.5,0.5-0.5,1.1,0,1.5
			c1.4,1.3,2.9,2.7,3.7,4.6c0.7,1.6,0.9,3.5,0.6,5.2c-0.2,0.8-0.5,1.5-1,2.2c-0.4,0.5-1,0.9-1.6,1h-0.3c0.1,0.1,0,0.1,0-0.1
			c0-0.5,0-1.1,0.1-1.6l0.1-3.5l0.5-8c0-0.1,0-0.4-0.2-0.6c-0.3-0.4-0.9-0.7-1.4-0.4C48.4,38.5,48.3,38.9,48.3,39.3L48.3,39.3z"/>
		<path class="st1" d="M59.5,36.7c-1.6-0.4-3.2,0.5-4.1,1.8c-1.1,1.6-0.9,3.6-0.1,5.3c0.8,1.7,2,3,2.7,4.7c0,0,0.6,1.9,0,4.9
			c-0.1,0.5-0.3,0.9-0.6,1.1c-0.2,0.1-0.3,0.1-0.5,0c-0.1-0.1-0.2-0.1-0.3-0.2c-0.2-0.2-0.3-0.5-0.4-0.7c0-0.1-0.4-0.9-1-1
			c-0.4-0.1-0.7,0.3-0.8,0.3c-0.2,0.2-0.3,0.5-0.3,0.8c0.2,1.8,1.7,3.5,3.6,3s2.7-2.8,2.8-4.5c0.3-2-0.1-4-1-5.7
			c-0.8-1.6-2.4-3.1-2.7-5c-0.1-0.7,0.1-1.5,0.6-2.1c0.1-0.1,0.2-0.2,0.2-0.2c0.2-0.2,0.4-0.2,0.5-0.3c0.3-0.1,0.5-0.1,0.8-0.1
			C60.2,39.1,60.9,37,59.5,36.7L59.5,36.7z"/>
		<path class="st0" d="M62.1,36.5l-0.5,18.3c0,1.4,2.2,1.4,2.2,0l0.5-18.3C64.3,35.1,62.2,35.1,62.1,36.5z"/>
		<g>
			<path class="st1" d="M65.9,37.2l0,0.3c0,0.2,0,0.7-0.1,1.3c-0.1,0.3-0.2,0.5-0.3,0.7c-0.1,0.3-0.3,0.7-0.6,1.1
				c-0.2,0.3-0.6,0.7-1.1,1c-0.2,0.1-0.4,0.2-0.5,0.3c-0.5,0.2-0.9,0.7-0.7,1.4c0.2,0.5,0.7,0.9,1.3,0.7c2.8-0.9,4.4-3.9,4.2-6.7
				c0-0.6-0.5-1.1-1.2-1C66.4,36.3,66,36.8,65.9,37.2L65.9,37.2z"/>
			<path class="st1" d="M63.1,45.7C63.1,45.7,63.2,45.7,63.1,45.7c0.3,0.2,0.7,0.6,1,1.8c0.1,0.5,0.2,0.9,0.2,1.6l0.1,1
				c0.2,2,0.4,4.1,1.7,5.7c0.4,0.4,1,0.5,1.4,0.1c0,0,0.1-0.1,0.1-0.1c0.4-0.5,0.4-1.1,0-1.5c-1.1-1.4-1-3.4-1.2-5.2
				c-0.2-2-0.7-4-2.3-5.2c-0.5-0.4-1.2-0.1-1.5,0.4C62.5,44.8,62.6,45.4,63.1,45.7L63.1,45.7z"/>
		</g>
		<g>
			<path class="st0" d="M68.6,37c-0.3,2.2-0.4,4.5-0.3,6.7l0.4,6.5c0.1,0.9,0.4,1.9,1.1,2.6c0.4,0.5,1.2,0.6,1.8,0.3
				c0.4-0.3,0.7-0.9,1-1.4c0.5-0.9,0.9-2,1.1-3c0.2-1.1,0.3-2.3,0.3-3.4l0.4-7.8c0-1.5-2.2-1.5-2.2,0l-0.4,7.5
				c0,1.2-0.2,2.3-0.3,3.5c-0.1,0.5-0.3,1.1-0.4,1.5c-0.1,0.3-0.3,0.5-0.4,0.7c-0.3,0.3-0.4,0.6-0.4,0.7s0.4-0.1,0.7-0.3h-0.2
				l0.5,0.2c-0.5-0.3-0.4-1.7-0.5-2.4l-0.3-4c-0.2-2.6-0.1-5.3,0.2-7.9c0.1-0.5-0.5-1.1-1.1-1.1C69,36.1,68.6,36.5,68.6,37L68.6,37z
				"/>
			<path class="st0" d="M74.2,36.8l0.7,8.7l0.4,4.4c0.1,0.7,0,1.5,0.4,2.2s1,0.7,1.7,0.9c1.3,0.2,2.6,0.3,3.7-0.5s1.7-1.9,2-3.1
				c0.6-2.5,0.2-5.3-1-7.5c-1.2-2.6-3.2-4.6-5.3-6.6c-1-1-2.5,0.5-1.5,1.5c1.9,1.8,3.9,3.8,4.9,6.3c0.5,1.2,0.9,2.5,0.9,3.7
				c0,1.2-0.1,2.5-0.8,3.5s-2.2,0.8-3.2,0.4c0.3,0.4,0.5,0.6,0.6,0.5c0,0,0-0.1,0-0.3l-0.2-1.3l-0.2-1.8l-0.4-3.7l-0.6-7.4
				c0-0.6-0.5-1.1-1.1-1.1C74.6,35.7,74.2,36.1,74.2,36.8L74.2,36.8z"/>
		</g>
	</g>
	<path class="st2" d="M166.8,38.8c2.5,3.5,1.4,8.2-1.1,11.4c-3.1,3.7-7.8,5.5-12.3,6.7c-10.8,3.1-21.8,5.5-32.9,7.3
		c-11.2,1.8-22.4,3-33.8,3.6c-11,0.6-22,0.6-33-0.3C44,66.7,34,64.8,25.2,60c-1.1-0.5-2.1-1.2-3.1-1.9s-2,1-1,1.6
		c8.6,5.6,18.8,8.1,28.9,9.2c11.2,1.3,22.4,1.2,33.5,0.8c11.7-0.4,23.4-1.6,35.1-3.4c11.5-1.7,22.9-4.2,34.2-7.4
		c4.7-1.4,9.6-2.9,13.2-6.4c3.1-2.9,5.1-7.7,3.9-12c-0.3-1-0.7-2-1.4-2.9C167.7,36.9,166.1,37.8,166.8,38.8L166.8,38.8z"/>
	<path class="st2" d="M23.1,59.2c-0.6-1.7-1.3-3.5-1.2-5.3c0.1-0.9,0.4-1.8,0.9-2.5c0.5-0.6,0.9-1.2,1.3-1.9
		c0.6-1.3,0.6-3.1,0.7-4.7c0-1.5-0.2-2.9-1-4c-0.3-0.3-0.7,0.2-0.5,0.6c0.9,1.1,0.9,2.9,0.8,4.3c0,0.9-0.1,1.7-0.3,2.6
		c-0.3,0.8-0.6,1.6-1.2,2.1c-0.9,1.2-1.4,2.6-1.4,4.1c0.1,1.8,0.6,3.3,1.3,5L23.1,59.2L23.1,59.2z"/>
	<path class="st2" d="M23.2,50.9c0.4-0.7,1.1-0.8,1.7-0.8c0.9-0.1,1.8-0.1,2.7,0c0.5,0,0.5-0.8,0-0.8c-1-0.1-2-0.1-3,0
		c-0.7,0.1-1.5,0.3-2,1.2C22.4,50.9,22.9,51.4,23.2,50.9z M21.9,58.2c-1.6-0.2-3.2-0.2-4.8-0.2c-1.6,0-3.1,0.2-4.6,0.5
		c-2.4,0.6-3.7,3.1-3,5.5c0.4,1.4,1.3,2.5,2.4,3.2c0.3,0.2,0.6-0.3,0.3-0.5c-1.8-1.3-2.9-3.7-1.8-5.8c0.6-1,1.5-1.7,2.6-1.8
		c1.4-0.2,2.7-0.4,4.1-0.4c1.6-0.1,3.2,0,4.8,0.2C22.2,58.9,22.2,58.3,21.9,58.2L21.9,58.2z M7.4,60c-1.2,0.5-2.5,0.8-3.9,0.9
		c-0.2,0-0.2,0.4,0,0.4c1.4-0.1,2.7-0.5,4-1C7.7,60.2,7.6,59.9,7.4,60L7.4,60L7.4,60z"/>
	<path class="st2" d="M10,60.4c-1.9-0.5-4-0.8-5.4-2.3c-0.2-0.2-0.5,0.1-0.4,0.4c1.5,1.5,3.6,2,5.6,2.5C10.2,60.8,10.3,60.4,10,60.4
		L10,60.4L10,60.4z M22.3,58c-0.1-0.5-0.8-0.6-1.1-1c-0.8-0.8-1.5-1.9-2.1-3.1c-0.9-1.7-1.3-3.7-2-5.5s-1.4-3.7-2.4-5.3
		c-0.9-1.5-1.9-3.1-3.2-4.2c-1.4-1.1-3.1-1.5-4.8-1.2c-0.5,0.1-0.3,1,0.2,0.9c1.5-0.3,3,0.1,4.2,1.1c1.3,1,2.3,2.7,3.2,4.3
		s1.7,3.4,2.3,5.3c0.6,1.8,1.1,3.7,1.9,5.4c0.9,1.7,2,3.1,3.5,4.2C22.2,58.7,22.4,58.3,22.3,58L22.3,58z"/>
	<path class="st2" d="M16.2,46.3c-0.4-2.3-0.4-4.7,0.7-6.8c1.2-2.2,3.3-3.4,5.5-4.2c0.4-0.2,0.2-0.8-0.2-0.6
		c-2.3,0.9-4.7,2.3-5.9,4.5s-1.2,4.9-0.8,7.3C15.6,46.9,16.3,46.8,16.2,46.3C16.2,46.3,16.2,46.3,16.2,46.3z"/>
	<path class="st2" d="M19.2,36.8c0.8-2.3,0.5-4.7,0.1-7c-0.1-0.3-0.5-0.2-0.5,0.1c0.4,2.3,0.7,4.6-0.1,6.7
		C18.6,36.9,19.1,37.1,19.2,36.8z"/>
	<path class="st2" d="M19.6,32.5c-0.5-1-1.4-1.8-2.2-2.5c-0.1-0.1-0.3,0-0.4,0.1s0,0.3,0.1,0.4c0.8,0.6,1.5,1.5,2.1,2.4
		C19.3,33,19.7,32.7,19.6,32.5L19.6,32.5L19.6,32.5z M22.2,59.4c-2.2-1.9-4.8-3.1-7.1-4.8C12.9,53,10.8,50.8,10,48
		c-0.4-1.5-0.4-3.2,0-4.7c0.2-0.5-0.7-0.8-0.9-0.3c-0.9,2.8-0.2,5.9,1.5,8.4s4.2,4.2,6.8,5.7c1.5,0.8,3,1.8,4.3,3
		C22.1,60.5,22.8,59.8,22.2,59.4L22.2,59.4L22.2,59.4z"/>
	<path class="st2" d="M14.2,54.2c-1.9-0.7-3.9-1.1-5.9-1.3c-0.7,0-1.6-0.1-2.2,0.5c-0.6,0.6-0.4,1.4-0.9,2c-0.3,0.4,0.2,0.8,0.4,0.5
		c0.4-0.5,0.4-1.2,0.7-1.7c0.4-0.7,1.6-0.5,2.2-0.5c1.8,0.2,3.6,0.5,5.3,1.2C14.4,55,14.6,54.4,14.2,54.2L14.2,54.2z"/>
	<path class="st2" d="M6.3,53.4c-0.8,0.4-1.7,0.6-2.6,0.7s-1.8,0-2.6-0.3c-0.1,0-0.3,0-0.3,0.2c0,0.1,0,0.3,0.2,0.3
		c0.9,0.3,1.9,0.4,2.8,0.3c1-0.1,1.9-0.4,2.8-0.8C6.8,53.7,6.6,53.3,6.3,53.4C6.3,53.4,6.3,53.4,6.3,53.4z M9.5,47.4
		c-0.5-0.5-1.3-0.8-1.9-1.1C6.8,46.1,5.9,46,5,46c-0.8,0-1.7-0.2-2.5,0.1c-0.7,0.3-1.4,1-2.1,1.5c-0.3,0.2,0.1,0.5,0.4,0.4l0.9-0.7
		c0.3-0.4,0.6-0.5,1.1-0.7c0.7-0.2,1.5,0,2.2,0c1.5,0,3,0.2,4.2,1.2C9.4,48,9.7,47.7,9.5,47.4L9.5,47.4L9.5,47.4z"/>
	<path class="st2" d="M3,46.2c-0.4-0.5-0.7-1.1-1.2-1.5s-1-0.9-1.6-0.7c-0.1,0-0.2,0.2-0.2,0.3s0.2,0.2,0.3,0.2
		c0.2,0,0.4,0.1,0.7,0.2c0.5,0.3,0.8,0.7,1.1,1.1c0.1,0.2,0.3,0.4,0.5,0.8L3,46.2L3,46.2z M103.4,67.3c1-1,1.2-2.4,1.2-3.8
		c0-0.1-0.2-0.2-0.3-0.2s-0.2,0.1-0.2,0.2c0,1.2-0.1,2.6-1,3.4C102.9,67.2,103.3,67.6,103.4,67.3L103.4,67.3L103.4,67.3z
		 M104.8,67.3c0.3,0.1,0.8,0,2.4-1.6l1.7-1.7c0.2-0.8,0.1-1,0.1-1c-0.2-0.1-0.5,0.8-1.4,1.8c-0.7,0.8-1.3,1.3-1.5,1.4
		c-0.5,0.3-1,0.6-1.6,0.8C104.6,67.1,104.7,67.2,104.8,67.3L104.8,67.3z"/>
	<path class="st2" d="M104.3,63.7c-0.3-0.3-0.5-0.6-0.8-1l-0.6-1c-0.3-0.7-0.1-1.6,0.3-2.3s1-1.3,1.2-2c0.2-0.4,0.2-0.8,0.1-1.2
		c0-0.2-0.1-0.3-0.1-0.4c0.2,0.1,0.4,0.3,0.6,0.6c0.2,0.3,0.3,0.6,0.4,0.8c0.4,1.2,0.5,2.3,0.5,2.3c0.1,1.2,0.1,1.8-0.1,2.4
		C105.7,62.3,105.4,63.1,104.3,63.7z M109,64c-0.2-0.2-0.6-0.8-0.7-1.6c-0.1-0.7,0.1-1.3,0.2-1.5l0.3-0.4c0.8-0.8,1.5-1.2,2.3-1.6
		c0.7-0.4,1.3-0.8,1.9-1.3l-0.1,0.8c-0.2,1.7-0.7,3.3-1.2,4.5c-0.2,0.2-0.4,0.5-0.8,0.8C110.1,64.2,109.2,64,109,64z"/>
</g>
<path class="st3" d="M134.3,31.3c-1.1,1.4-0.5,3.6,0.9,4.7s3.3,1.4,5.1,1.4c0.6,0,1.4-0.1,1.9,0.3c0.4,0.2,0.6,0.5,0.8,0.7
	c2.7,2.8,6.2,4.5,10.1,4.8s7.7-0.8,10.8-3.1c0.9-0.7,1.8-1.5,2.7-2.2s2.1-1.2,3.1-1.7c2.7-1.5,4.9-3.6,6.5-6.3
	c1.5-2.6,2.2-5.7,1.7-8.7c-0.4-2.6-1.7-5.4-0.6-7.8c0.4-1.1,1.4-2.1,1.5-3.3c-2,0.9-3.6,2.4-4.7,4.4c-1,1.9-1.8,3.9-2.2,6
	c-0.3,1.3-0.5,2.5-1.4,3.5c-1.1,1.4-2.9,1.9-4.5,2.5c-3.7,1.4-7.1,3.5-10,6.1c-1.1,0.9-2.1,2-3.4,2.3c-2.5,0.5-4.8-1.5-7.3-2.1
	c-1.4-0.3-2.9-0.1-4.4-0.2c-2.2,0-4.5-0.5-6.5-1.5"/>
<path class="st2" d="M134.3,31.3c-1.2,1.6-0.4,3.7,0.9,4.8c0.9,0.6,1.9,1.1,3.1,1.2c0.5,0.1,1.1,0.1,1.6,0.1c0.7,0,1.4-0.1,2.2,0.1
	c0.7,0.3,1.1,0.8,1.5,1.3c0.4,0.4,0.8,0.7,1.3,1.1c2.8,2.2,6.3,3.4,9.9,3.4c2.4,0,4.8-0.6,6.9-1.6c2.4-1.2,4.2-3.3,6.6-4.5
	c2.2-1.2,4.2-2.5,6-4.4c1.6-1.7,2.9-3.9,3.5-6.2c0.4-1.4,0.5-2.7,0.4-4.1c-0.1-1.5-0.4-2.9-0.8-4.3c-0.4-1.5-0.6-3.1-0.1-4.6
	c0.4-1.3,1.4-2.3,1.6-3.6c0,0,0-0.1-0.1,0c-3.2,1.4-5.2,4.7-6.2,8c-0.3,0.9-0.5,1.8-0.7,2.8c-0.2,0.9-0.4,1.8-0.9,2.5
	c-1,1.6-2.8,2.3-4.5,2.9c-3.4,1.3-6.6,3-9.5,5.4c-1.4,1.1-2.7,2.7-4.4,3.1c-1.8,0.4-3.6-0.6-5.2-1.4c-0.8-0.4-1.7-0.6-2.6-0.8
	c-1.2-0.1-2.3-0.1-3.5-0.1c-2.3,0-4.7-0.5-6.9-1.5c-0.1,0-0.1,0.1-0.1,0.1c2,0.9,4.1,1.5,6.4,1.5c1.2,0,2.4-0.1,3.7,0
	c1.2,0.2,2.2,0.5,3.2,1c1.6,0.7,3.3,1.6,5.1,1.1s3.1-2.2,4.6-3.4c1.7-1.4,3.6-2.6,5.7-3.5c1-0.5,2.1-0.9,3.1-1.4
	c0.9-0.3,1.8-0.6,2.6-1.1c0.8-0.4,1.4-1,2-1.6c0.5-0.8,0.8-1.7,1-2.6c0.5-2.3,1.1-4.5,2.2-6.6c0.5-0.9,1.2-1.8,1.9-2.6
	c0.4-0.4,0.8-0.7,1.3-1.1c0.4-0.4,0.8-0.6,1.3-0.7c0.2-0.1,0.2,0,0.2,0.2c0,0.1-0.1,0.3-0.1,0.4c-0.1,0.3-0.3,0.6-0.4,0.8
	c-0.3,0.4-0.5,0.9-0.7,1.4c-0.4,0.9-0.6,1.8-0.5,2.8c0.1,2.3,1.1,4.4,1.2,6.6s-0.4,4.5-1.3,6.5c-0.9,1.9-2.2,3.6-3.9,5.1
	c-0.8,0.7-1.7,1.4-2.6,1.9c-1,0.6-2,1.1-3,1.7c-0.9,0.6-1.8,1.3-2.7,2c-0.9,0.7-1.8,1.4-2.8,1.9c-1.9,1-4.1,1.6-6.2,1.7
	c-4.3,0.3-8.5-1.2-11.7-4.1c-0.7-0.6-1.3-1.5-2.2-1.7s-2,0-3-0.1c-2.1-0.2-4.2-1.2-4.8-3.3C133.5,33,133.7,32.1,134.3,31.3
	C134.3,31.3,134.2,31.2,134.3,31.3L134.3,31.3L134.3,31.3z"/>
<path class="st3" d="M173.7,13.5l0.5,0.3l3.6-3.3c0.9-0.8,1.9-1.9,1.7-3.1s-1.5-2-2.9-2.3c-2.8-0.6-5.9,0.2-8.6-0.6
	c-2.5-0.6-4.6-2.5-7-3.4c-2.8-1.1-5.9-0.9-8.7-0.2c-1.4,0.3-2.8,0.9-4,1.6c-1.4,1-2.6,2.4-4,3.6c-2,1.6-4.5,2.6-6.1,4.4
	c-2.3,2.8-2.3,7-4.7,9.8c-1.3,1.5-3.3,2.7-3.7,4.6c-0.3,1.3,0.3,2.5,1.2,3.5c0.9,0.9,2,1.7,3.1,2.3c2.4,1.3,5.4,2.4,8,1.3
	c-1-0.8-1.9-1.7-2.7-2.7c-0.7-1.1-1.1-2.4-0.7-3.6c0.5-2,2.7-3.1,4.4-4.4c2.2-1.6,3.6-4,5.4-6.1s4.1-3.9,6.9-3.9
	c2.6,0,4.9,1.6,7.4,2c1.9,0.3,3.9-0.2,5.8-0.4s4.1-0.3,5.7,0.7"/>
<path class="st2" d="M173.7,13.6l0.5,0.3h0.1l3.9-3.6c0.8-0.8,1.8-1.9,1.4-3.2c-0.3-1.1-1.4-1.6-2.3-1.9c-1.5-0.4-3.1-0.4-4.6-0.4
	c-1.7,0-3.4,0-5.1-0.6c-1.4-0.5-2.8-1.4-4.1-2.1c-1.3-0.7-2.7-1.3-4.2-1.6c-1.5-0.3-3.1-0.3-4.7-0.1s-3.1,0.6-4.5,1.2
	c-1.4,0.6-2.5,1.4-3.5,2.4c-1.1,1.1-2.3,2.1-3.5,3l-3.5,2.3c-2.2,1.8-2.9,4.4-3.8,6.9c-0.4,1.4-1.1,2.7-1.9,3.9
	c-0.8,1-1.9,1.8-2.7,2.8c-0.8,0.8-1.2,1.9-1.1,3.1c0.2,1.4,1.1,2.5,2.2,3.4c1.2,0.9,2.5,1.6,3.9,2.2c1.4,0.6,2.9,1,4.4,0.9
	c0.7,0,1.4-0.2,2-0.5V32l0,0c-1.4-1.1-2.7-2.3-3.3-4c-0.5-1.6-0.1-3.1,1.2-4.3c1-0.9,2.2-1.6,3.2-2.5c1.2-1,2.3-2.2,3.2-3.5
	c1.9-2.4,4-5.2,7-6.1c1.6-0.4,3.2-0.2,4.8,0.4s3,1.3,4.6,1.4c3.7,0.4,7.8-1.7,11.3,0.3c0.1,0,0.1-0.1,0.1-0.1
	c-1.9-1.1-4.1-1-6.2-0.6c-1.4,0.3-2.6,0.4-4,0.4c-1.3,0-2.4-0.3-3.6-0.7c-2.1-0.7-4.1-1.7-6.3-1.3c-2,0.4-3.8,1.6-5.1,3.1
	c-1.5,1.6-2.8,3.5-4.3,5.2c-0.8,0.8-1.6,1.5-2.5,2.2c-0.8,0.5-1.5,1.1-2.2,1.6c-0.6,0.5-1.1,1.3-1.4,2.1c-0.2,0.9-0.1,1.9,0.3,2.8
	c0.5,1,1.3,2,2.2,2.7c0.2,0.2,0.4,0.4,0.6,0.5c0.3,0.3,0.4,0.3-0.1,0.4c-0.6,0.2-1.3,0.3-1.9,0.3c-2.3,0-4.7-1.1-6.7-2.3
	s-4.2-3.5-3-6c0.8-1.7,2.7-2.7,3.8-4.3c1.2-1.6,1.7-3.6,2.3-5.6c0.4-1,0.7-1.9,1.3-2.8c0.6-0.9,1.4-1.7,2.3-2.4
	c1.7-1.3,3.7-2.2,5.2-3.6c0.8-0.7,1.6-1.6,2.5-2.4c1-0.8,2.2-1.4,3.3-1.7c2.3-0.8,4.8-1.1,7.2-0.8c1.4,0.2,2.6,0.6,3.8,1.1
	c1,0.5,2,1.1,3,1.6c0.9,0.5,1.9,1,2.9,1.3c1.1,0.3,2.2,0.4,3.4,0.4c1.3,0,2.5-0.1,3.8,0c1.2,0.1,2.3,0.3,3.3,0.9
	c1.1,0.7,1.4,1.9,0.8,3c-0.6,1-1.6,1.8-2.5,2.6l-1.4,1.3l-0.7,0.6c-0.2,0.1-0.3,0.3-0.5,0.3C174,13.6,173.9,13.6,173.7,13.6
	C173.7,13.5,173.6,13.6,173.7,13.6L173.7,13.6L173.7,13.6z"/>
<path class="st3" d="M154.2,33.7c-0.9,0.2-1.9,0.2-2.8,0c-0.9-0.1-1.7-0.6-2.2-1.5c-0.2-0.5-0.4-0.9-0.4-1.4c-0.3-1-0.7-1.9-1.3-2.7
	c-0.4-0.6-1-1.2-1.2-1.9c-0.1-0.5,0-1.1,0.2-1.6c0.5-1.5,1.6-2.7,3.1-3.4c0.7-0.3,1.5-0.4,2.2-0.5l2.3-0.3c1-0.1,2-0.3,3-0.5
	c1.4-0.4,2.8-1.2,4.2-1.7s3.1-0.7,4.5-0.2c1.3,0.5,2.1,1.7,2.4,3.1c0.3,1.3,0.1,2.7-0.4,3.9c-0.1,0.3-0.2,0.5-0.4,0.7
	c-0.4,0.4-0.8,0.6-1.3,0.8c-0.9,0.4-1.9,0.6-2.9,0.9c-0.3-0.5,0-1,0.2-1.5c0.4-1.1-0.1-2.4-1.1-3c-0.4-0.3-0.8-0.4-1.3-0.5
	c-2.9-0.7-5.9,0.2-8,2.3c-0.7,0.7-1.2,1.5-1.4,2.5s0,2,0.6,2.7c0.9,0.9,2.2,1.1,3.5,1.3c0.2,0,0.4,0.1,0.5,0.3c0,0.2,0,0.4-0.1,0.5
	c-0.5,0.8-1.4,1.4-2.2,1.7"/>
<g>
	<path class="st2" d="M154.2,33.6c-1.4,0.2-2.9,0.3-4.1-0.5c-1.3-0.7-1.2-2.2-1.7-3.5l-0.9-1.6c-0.4-0.5-0.9-1.1-1.1-1.8
		c-0.4-1.3,0.5-2.7,1.3-3.7c0.9-1,2.1-1.6,3.3-1.7l4.3-0.5c1.3-0.2,2.5-0.6,3.7-1.1c1.3-0.5,2.4-1.2,3.8-1.4c1.4-0.3,3-0.1,4.1,0.9
		c1,0.9,1.4,2.2,1.4,3.5c0,1.4-0.4,3.2-1.6,3.9c-0.6,0.4-1.3,0.5-2,0.7l-1.1,0.3c-0.1,0-0.3,0.1-0.4,0.1c-0.4-0.2-0.2-0.6-0.1-0.9
		c0.4-0.9,0.4-1.8-0.2-2.7s-1.7-1.2-2.7-1.4c-2.2-0.3-4.3,0.2-6,1.4c-1.8,1.2-3.7,3.6-2.4,5.9c0.6,1.1,1.8,1.5,2.9,1.6
		c0.3,0.1,0.6,0.1,0.9,0.1h0.4c0.6,0.3,0.1,0.7-0.1,1c-0.5,0.6-1.2,1.1-1.9,1.4c-0.1,0,0,0.1,0,0.1c0.8-0.3,1.5-0.8,2.1-1.5
		c0.4-0.5,0.5-0.9-0.2-1.1c-0.9-0.2-1.9-0.2-2.8-0.6c-1-0.5-1.6-1.5-1.6-2.5c0-2.1,1.8-3.8,3.5-4.7s3.8-1.2,5.7-0.8
		c1.2,0.3,2.2,0.8,2.6,2.1c0.1,0.5,0.1,1.2-0.2,1.6c-0.2,0.4-0.3,0.8-0.1,1.2h0.1c0.9-0.2,1.9-0.5,2.7-0.8c0.7-0.2,1.2-0.6,1.6-1.2
		c0.8-1.4,1-3.1,0.6-4.6c-0.4-1.3-1.3-2.4-2.5-2.9c-1.5-0.6-3.3-0.2-4.9,0.4c-1.7,0.7-3.3,1.5-5.1,1.8s-3.7,0.3-5.5,0.7
		c-1.4,0.4-2.5,1.3-3.2,2.5c-0.4,0.6-0.6,1.3-0.7,2c0,0.7,0.2,1.5,0.7,2c0.6,0.8,1.2,1.7,1.5,2.7c0.3,0.7,0.4,1.7,0.9,2.4
		C150.5,34,152.6,33.8,154.2,33.6C154.3,33.7,154.3,33.6,154.2,33.6L154.2,33.6L154.2,33.6z M133.5,31.3c-0.8,1.6-0.3,3.5,1,4.8
		c1.4,1.5,3.6,1.8,5.6,1.9c2.2,0.1,4.6-0.3,6.9,0.4c2.1,0.6,3.9,1.8,6,2c1.9,0.2,3.8-0.2,5.5-1c0.8-0.4,1.5-0.9,2.2-1.5
		c0.7-0.7,1.4-1.5,2-2.4c0.6-0.9,1.4-1.6,2.2-2.4c0.8-0.5,1.6-1,2.5-1.5c1.8-0.8,3.7-1.5,5.2-2.6c3.4-2.5,5.4-6.6,5.1-10.9
		c-0.1-0.6-1-0.6-1,0c0.2,3.5-1.2,7-3.9,9.4c-2.7,2.5-6.7,2.9-9.4,5.4c-1.4,1.3-2.3,3.2-3.8,4.5c-1.4,1.2-3.1,1.9-4.8,2.1
		c-2,0.2-3.7-0.3-5.4-1.1c-0.9-0.5-1.8-0.8-2.8-1c-1.1-0.3-2.2-0.4-3.3-0.3c-2.2,0-4.7,0.3-6.8-0.6c-1.6-0.7-3.2-2.7-2.2-4.6
		C134.7,31.2,133.8,30.8,133.5,31.3L133.5,31.3L133.5,31.3z"/>
	<path class="st2" d="M167.8,26.2c0.7-1.5,1.3-3,1.1-4.6c-0.2-1.5-1-2.7-2.2-3.5c-3.1-1.8-6.3,0.4-9.3,1.4c-1.5,0.5-3.1,0.5-4.6,0.5
		c-1.4,0.1-3,0.3-4.1,1.2c-1.3,0.9-2.2,2.3-2.6,3.7c-0.4,1.5,0.3,2.6,1.2,3.8c0.5,0.5,0.9,1.3,1.1,2.1s0.3,1.6,0.8,2.3
		c1.3,1.4,3.2,1.4,5,1.3c0.6,0,0.6-1,0-1c-1.4,0.1-3,0.2-4.1-0.8c-0.5-0.5-0.6-1.1-0.7-1.8c-0.1-0.6-0.3-1.2-0.5-1.7
		c-0.6-1-1.8-1.8-1.8-3c-0.1-1.4,1-2.7,1.9-3.6c2-2,5.1-1.2,7.6-1.6c2.9-0.5,5.4-2.6,8.4-2.4c1.4,0.1,2.7,1.1,3.2,2.5
		c0.5,1.6-0.1,3.4-0.8,4.8C166.7,26.3,167.6,26.8,167.8,26.2L167.8,26.2L167.8,26.2z M163.2,27.8c1.1-1.2,0.9-3.9-0.4-5
		c-0.7-0.5-1.7-0.6-2.6-0.7c-1.1-0.1-2.1,0-3.1,0.3c-1,0.3-1.9,0.7-2.8,1.3c-0.8,0.5-1.5,1.2-2.2,1.9c-1.1,1.4-1.5,3.5-0.4,4.9
		c1.2,1.5,3.4,1.6,5.2,1.5c0.6,0,0.6-1,0-1c-1.3,0.1-2.8,0.1-4-0.7c-1.3-0.9-1.2-2.6-0.4-3.8c0.8-1.4,2.3-2.4,3.7-3
		c1.6-0.6,3.3-0.8,5-0.5c0.8,0.2,1.5,0.8,1.6,1.7c0.2,0.8,0,1.7-0.4,2.5c-0.2,0.3-0.7,1.1-0.5,1.3C162,28.6,162.8,28.3,163.2,27.8
		L163.2,27.8z"/>
</g>
<ellipse class="st4" cx="158" cy="27.2" rx="0.9" ry="0.8"/>
<g>
	<path class="st2" d="M151.9,34.2v0.3h0.3v-0.4L151.9,34.2L151.9,34.2L151.9,34.2z M148.9,31c-0.6,0.6-1.4,1.3-2.2,1.8
		c-0.2,0.1,0,0.4,0.2,0.3c0.8-0.5,1.5-1.2,2.2-1.8C149.2,31.1,149,30.9,148.9,31C148.9,31,148.9,31,148.9,31z M147.8,29.6l-2.9,1.4
		l-3.1,1c-0.2,0-0.1,0.4,0.1,0.3c1.1-0.3,2.1-0.6,3.1-1s1.9-0.9,2.9-1.4C148.1,29.8,148,29.5,147.8,29.6L147.8,29.6z M146.8,28.3
		c-1.2,0.2-2.2,0.5-3.4,0.7l-3.5,0.7c-0.2,0-0.1,0.3,0.1,0.3l3.5-0.7l3.4-0.7C147.1,28.6,147,28.3,146.8,28.3L146.8,28.3z
		 M146.3,27.2l-7.2,0.2c-0.2,0-0.2,0.3,0,0.3l7.2-0.2C146.4,27.4,146.4,27.3,146.3,27.2L146.3,27.2z M146.7,23.7
		c-1.6-0.3-3.2-1-4.7-1.8c-0.1-0.1-0.2,0.2-0.1,0.2c1.5,0.9,3.1,1.4,4.8,1.8C146.7,23.9,146.8,23.7,146.7,23.7L146.7,23.7z
		 M146.3,25.5c-2.2-0.3-4.5-0.7-6.8-1.2c-0.2,0-0.3,0.3-0.1,0.3c2.2,0.5,4.5,0.9,6.9,1.2C146.5,25.9,146.5,25.5,146.3,25.5
		L146.3,25.5z M147.9,21.9c-0.5-0.4-1-0.7-1.5-1.1c-0.5-0.3-0.9-0.7-1.3-1c-0.1-0.1-0.3,0.1-0.2,0.3c0.4,0.4,0.9,0.8,1.3,1
		c0.5,0.4,1,0.7,1.5,1.1C147.9,22.2,148.1,22,147.9,21.9z M149.6,20.7c-1-1.1-1.8-2.3-2.6-3.5c-0.1-0.1-0.3,0-0.2,0.1l2.7,3.5
		C149.5,21,149.7,20.9,149.6,20.7L149.6,20.7z M152.1,20.3c-0.4-1-1-1.9-1.5-2.7l-1.5-2.9c-0.1-0.2-0.4,0-0.3,0.2l1.5,2.9l1.5,2.7
		C151.9,20.6,152.1,20.5,152.1,20.3C152.1,20.3,152.1,20.3,152.1,20.3z M153.8,20c0-1.2-0.4-2.4-0.8-3.5l-1.1-3.6
		c0-0.1-0.1-0.1-0.2-0.1s-0.1,0.1-0.1,0.2l1,3.6c0.4,1.2,0.8,2.4,0.8,3.5C153.5,20.2,153.8,20.2,153.8,20L153.8,20L153.8,20z
		 M155.4,20l-0.6-7.8c0-0.2-0.3-0.2-0.3,0l0.6,7.8C155.1,20.1,155.4,20.1,155.4,20z M157.7,19.4c-0.1-2.4,0.1-4.7,0.3-7.1
		c0-0.2-0.3-0.2-0.3,0c-0.3,2.4-0.4,4.7-0.3,7.1c0,0.1,0.1,0.1,0.2,0.1S157.7,19.4,157.7,19.4L157.7,19.4z M161.4,18.2
		c0.1,0,0.1-0.1,0.1-0.2s-0.1-0.1-0.1-0.1C161.3,18,161.3,18,161.4,18.2C161.3,18.2,161.4,18.2,161.4,18.2z M161,18
		c-0.1-1.5-0.2-3,0-4.6c0-0.2-0.3-0.2-0.3,0c-0.1,1.5-0.1,3,0,4.6C160.7,18.2,161,18.2,161,18z M163,17.4l0.1-3.7
		c0-0.1-0.1-0.1-0.2-0.1s-0.1,0.1-0.1,0.1l-0.1,3.7C162.7,17.6,163,17.6,163,17.4L163,17.4L163,17.4z M166,13.9
		c-0.6,1.3-1.2,2.5-1.6,3.8c-0.1,0.2,0.2,0.3,0.3,0.1l1.5-3.7C166.3,13.9,166.1,13.8,166,13.9L166,13.9L166,13.9z M166,18.2
		c0.8-0.6,1.5-1.5,2.1-2.3l2.2-2.8c0.1-0.1-0.1-0.4-0.2-0.2l-2.1,2.8c-0.6,0.8-1.3,1.6-2.1,2.3C165.8,18.2,165.8,18.2,166,18.2
		L166,18.2C166,18.2,166,18.2,166,18.2z M167.2,18.7c1.1-0.5,2.1-1.3,2.9-2.1c1-0.9,2-1.9,2.8-2.9c0.1-0.2-0.1-0.4-0.2-0.2l-2.8,2.8
		c-0.8,0.9-1.8,1.5-2.9,2.1C166.9,18.5,167,18.8,167.2,18.7L167.2,18.7z M167.7,20c0.4,0,0.9-0.4,1.3-0.6l1.4-0.9
		c0.4-0.3,0.8-0.7,1.2-0.9c0.4-0.4,0.9-0.7,1.3-0.9c0.2,0,0.1-0.3-0.1-0.3c-0.4,0.1-0.8,0.4-1.2,0.7l-1.2,1l-1.3,0.9
		c-0.2,0.2-0.4,0.3-0.7,0.5S168,19.8,167.7,20c-0.1-0.1-0.1,0-0.1,0.1C167.6,19.9,167.7,20,167.7,20L167.7,20L167.7,20z M168.6,21.6
		c1.1-0.2,2.2-0.8,3.3-1.1c0.2,0,0.1-0.3,0-0.3c-1.1,0.2-2.2,0.8-3.3,1.1C168.3,21.4,168.4,21.7,168.6,21.6z M168.6,22.9
		c0.9,0,1.8,0.4,2.7,0.4c0.1,0,0.1-0.1,0.1-0.2s-0.1-0.1-0.1-0.1c-0.9,0-1.8-0.4-2.7-0.4C168.5,22.7,168.5,22.8,168.6,22.9
		C168.5,22.8,168.5,22.9,168.6,22.9z M158.6,28c0.8,0.2,1.4,0.5,2.2,0.7c0.2,0,0.4-0.2,0.1-0.3l-2.2-0.8c-0.1,0-0.2,0.1-0.2,0.2l0,0
		C158.4,27.9,158.6,27.9,158.6,28L158.6,28L158.6,28z M158.1,28.1c0,0.4,0.1,0.7,0.3,1l0.4,1c0.1,0.2,0.4,0.1,0.3-0.1l-0.4-1
		c-0.1-0.2-0.1-0.3-0.2-0.5s-0.1-0.3-0.1-0.5C158.4,27.9,158.2,27.9,158.1,28.1L158.1,28.1L158.1,28.1z M157.3,27.9
		c-0.3,1.1-0.5,2.2-0.5,3.4c0,0.2,0.3,0.2,0.3,0c0.1-1.1,0.3-2.2,0.5-3.3C157.5,27.9,157.3,27.8,157.3,27.9L157.3,27.9z M157,27.5
		l-3.1,3.3c-0.1,0.1,0.1,0.4,0.2,0.2l3.1-3.3c0.1-0.1,0-0.2,0-0.2H157z M157.9,26.3c0.1-1.2,0-2.5-0.1-3.6c0-0.2-0.4-0.2-0.4,0.1
		c0.1,1.2,0.2,2.4,0.1,3.5C157.6,26.5,157.9,26.5,157.9,26.3L157.9,26.3L157.9,26.3z M157.4,26.4c-0.9-0.7-1.6-1.7-2.6-2.4
		c-0.2-0.1-0.3,0.2-0.2,0.3c0.9,0.7,1.6,1.7,2.6,2.4C157.4,26.8,157.6,26.5,157.4,26.4z M156.9,27c-1.5,0.1-3.1,0.1-4.7,0
		c-0.2,0-0.2,0.3,0,0.3c1.5,0.1,3.1,0.1,4.7,0C157.1,27.4,157.1,27,156.9,27z M159,26.7c1.4-0.8,2.5-2,3.9-3c0.2-0.1,0-0.4-0.2-0.2
		c-1.3,0.9-2.5,2.1-3.9,3C158.6,26.5,158.8,26.8,159,26.7z M158.3,26.4l2.2-3.6c0.1-0.2-0.2-0.3-0.3-0.2l-2.2,3.6
		C158,26.4,158.2,26.5,158.3,26.4z"/>
	<path class="st2" d="M159,27c1.6-0.1,3-1.1,4.6-1.5c0.2,0,0.1-0.3-0.1-0.3c-1.5,0.4-2.9,1.4-4.5,1.5C158.8,26.8,158.8,27,159,27
		L159,27L159,27z M142.5,38.3c3.6,4.4,9.7,6.1,15.2,5c1.4-0.3,2.7-0.7,4-1.4c1.5-0.7,2.8-1.9,4.1-2.9c2.8-2.1,6.1-3.3,8.6-5.9
		c2-2.2,3.3-5,3.9-7.9c0.3-1.5,0.3-2.9,0.1-4.4c-0.1-0.7-0.3-1.5-0.4-2.2c-0.3-0.9-0.6-1.8-0.7-2.7c-0.1-1.8,1.1-3.3,1.9-4.7
		c0.7-1.3,1.2-2.7,0.8-4.2c-0.4-1.5-1.8-2.3-3.3-2.5c-1.8-0.2-3.7,0-5.6-0.1c-1.8,0-3.6-0.4-5.2-1.4c-1.4-0.8-2.8-1.7-4.4-2.3
		c-2.9-1-5.9-1.1-8.9-0.4c-1.4,0.4-2.9,1-4.1,1.7c-1.4,0.9-2.5,2.1-3.7,3.2c-1.3,1.2-2.9,2-4.3,2.9c-1.3,0.8-2.4,1.9-3.1,3.3
		c-1.4,2.6-1.8,5.6-3.4,8.1c-0.9,1.3-2.2,2-3.1,3.2c-1,1.1-1.4,2.6-0.9,4c0.5,1.5,1.8,2.7,3.1,3.5c1.4,1,3.1,1.8,4.8,2.3
		c1.9,0.5,3.7,0.2,5.6,0.2s3.3,0.6,5,1.4c1.4,0.6,2.9,1.2,4.4,1c1.6-0.2,2.8-1.4,4-2.4c2.7-2.5,5.9-4.3,9.2-5.6c1.5-0.5,3.1-1,4.4-2
		s1.9-2.4,2.3-3.8s0.6-3.1,1.2-4.5s1.4-2.8,2.4-4c1-1.1,2.2-2.1,3.6-2.8c0.5-0.3,0.1-1.1-0.4-0.8c-2.6,1.4-4.8,3.6-6,6.4
		c-0.6,1.4-1,2.8-1.3,4.3c-0.4,1.5-0.7,3-1.7,4.1c-1.1,1.2-2.7,1.6-4.1,2.2c-1.6,0.5-3.1,1.3-4.6,2.1c-1.4,0.8-2.9,1.7-4.2,2.8
		c-0.6,0.5-1.3,1-1.8,1.5s-1.2,1-1.9,1.5c-1.4,0.6-2.9,0.2-4.2-0.4c-1.4-0.5-2.8-1.4-4.3-1.6c-1.9-0.3-3.7,0.1-5.6,0
		c-1.8-0.1-3.4-0.8-5-1.7c-1.4-0.7-2.7-1.7-3.5-3.2c-0.7-1.5-0.4-2.7,0.7-3.8s2.2-1.8,3-3c0.7-1.2,1.4-2.5,1.8-3.7
		c0.4-1.4,0.9-2.6,1.5-4s1.7-2.4,3-3.3c1.4-0.9,2.9-1.6,4.1-2.6c1.2-1.1,2.2-2.4,3.6-3.3c2.4-1.6,5.3-2.5,8.3-2.4
		c1.4,0,2.9,0.3,4.3,0.7c1.5,0.5,2.9,1.4,4.2,2.2c1.4,0.8,3.1,1.4,4.8,1.5c1.8,0.2,3.6,0,5.4,0c1.4,0,3.3,0.2,3.7,1.8
		c0.4,1.5-0.4,2.9-1.2,4.1c-0.8,1.4-1.7,2.8-1.5,4.4c0.1,1.6,0.9,3.1,1.2,4.7c0.4,2.8,0,5.7-1.3,8.3c-1.4,2.7-3.4,5-6,6.4
		c-1.5,0.9-3.1,1.7-4.6,2.8c-1.4,1-2.6,2.1-4.1,2.9c-4.8,2.5-10.9,2.1-15.3-0.8c-1.1-0.7-2.1-1.5-2.9-2.5
		C142.8,37.1,142.1,37.8,142.5,38.3L142.5,38.3z"/>
	<path class="st2" d="M142.8,31.9c-1-0.5-2.7-2.3-3.3-3.5c-0.7-1.4-0.4-3.1,0.7-4.1c1-1,2.2-1.6,3.4-2.5c1.2-1,2.3-2.2,3.2-3.4
		c1.9-2.4,3.9-5,6.9-6c1.5-0.4,3.1-0.3,4.6,0.3c1.5,0.6,3,1.3,4.6,1.6c3.5,0.6,7.2-1.4,10.7-0.2c0.5,0.2,0.8-0.7,0.3-0.9
		c-3.3-1.3-6.8,0.4-10.1,0.2c-1.7-0.1-3.3-0.9-5-1.4c-1.6-0.6-3.2-0.9-4.9-0.4c-3.2,0.8-5.4,3.6-7.4,6c-1,1.4-2.2,2.5-3.4,3.6
		c-1.2,0.9-2.6,1.5-3.6,2.7c-1.2,1.3-1.5,3.2-0.8,4.8c0.7,1.8,2.2,3.1,3.8,4.2c0.3-0.1,0.7-0.3,0.7-0.5S143,31.9,142.8,31.9
		L142.8,31.9z M156.9,27.3l-5.2,2.2l0.1,0.3l5.2-2.2L156.9,27.3L156.9,27.3z M8.8,33.7c0,0-0.1-0.1-0.2-0.1c-0.1,0-0.2,0-0.2,0.1
		c-0.1,0.5-0.2,1.3-0.2,2.1c0,1,0.1,1.9,0.2,2.6h0.4c-0.1-0.8-0.2-1.6-0.2-2.4C8.6,35,8.7,34.3,8.8,33.7L8.8,33.7z"/>
</g>
</svg>
