<svg xmlns="http://www.w3.org/2000/svg" viewBox="0 0 180 70" xmlns:v="https://vecta.io/nano"><style><![CDATA[.a{stroke-width:.14}.b{stroke-width:.13}.c{fill:#1d1d1b}.d{fill:#d01a1c}]]></style><g class="c"><g stroke="#000" stroke-miterlimit="10"><g class="a"><path d="M87.94 34.96c.09 6.54.36 13.07.63 19.7 0 .06-.01.35.16.61.25.38.9.69 1.43.42.47-.24.56-.77.57-.84v-.09l-.63-19.7c0-1.54-2.25-1.54-2.16-.09z"/><path d="M86.68 37.13a11.34 11.34 0 0 1 3.69-2.09c.99-.33 1.54-.34 1.89-.27.62.11 1.08.42 1.35.64.08.08.36.34.77.34.61 0 1.09-.6 1.1-1.11 0-.38-.24-.66-.34-.77-1.26-1.45-3.33-1.45-5.05-1-1.8.55-3.42 1.64-4.96 2.82-.45.36-.36 1.18 0 1.55.45.27 1.08.27 1.53-.09z"/></g><path d="M88.41 44.75l.55-.54c.14-.14.35-.34.65-.54l1.13-.82.62-.36c.22-.11.56-.26 1.25-.54l.64-.25.08-.03c.54-.18.89-.81.71-1.36s-.71-.9-1.25-.72c-2.23.63-4.19 1.81-5.8 3.44-.45.45-.36 1.18.09 1.54.36.54.98.54 1.34.18z" class="b"/><path d="M95.26 36.24c-.27 3.63-.36 7.25-.36 10.97v4.08c0 .45 0 .91.09 1.27.18.73.89 1.18 1.61 1 .27-.09.54-.18.72-.36.72-.54 1.43-1.18 2.15-1.72.45-.36.36-1.18 0-1.54-.45-.36-1.07-.36-1.52 0l-1.5 1.2c.16.2.38.42.51.37.17-.07.12-.52.09-1.02-.04-.66 0-1.33 0-1.99v-4.08l.36-8.07c0-.63-.45-1.09-1.07-1.09-.54-.09-.98.36-1.07 1z" class="a"/><path d="M94.89 44.65c1.44-.18 2.87-.45 4.31-.9.54-.18.9-.81.72-1.34s-.72-.9-1.26-.72c-.63.18-1.35.36-1.97.45l-.99.18-.62.07c-.11 0-.41-.01-.7.17-.52.33-.54.94-.54.97 0 .39.19.66.26.75.06.07.15.15.28.22.21.12.4.14.52.15z" class="b"/><g class="a"><path d="M96.34 37.31h3.31c.13 0 .37-.01.6-.16.43-.28.67-.93.41-1.45-.24-.47-.76-.56-.83-.58h-3.4c-.63 0-1.07.45-1.16 1a1.14 1.14 0 0 0 .16.61c.29.49.84.57.92.58z"/><path d="M104.07 34.14c-.63-.36-1.44-.45-2.16-.36-.72.18-1.35.73-1.62 1.54-.54 1.54.27 2.91.99 4.18 1.35 2.45 2.43 5.18 2.16 8.08 0 .73-.18 1.54-.54 2.18-.09.09-.09.18-.18.27l.54-.09s-.09-.09-.18-.09c-.27-.27-.45-.54-.54-.82-.18-.54-.72-.91-1.35-.73-.54.18-.99.82-.72 1.36.54 1.36 2.25 3.54 3.78 2 .54-.54.81-1.36.99-2.09s.27-1.54.36-2.36c.09-3.18-1.08-6.18-2.61-8.9-.27-.54-.81-1.27-.81-2 0-.11.03-.18.03-.18.04-.1.12-.16.1-.18 0-.01-.04 0-.04 0 .18 0 .36 0 .54.09.54.27 1.17.09 1.53-.36.45-.54.27-1.27-.27-1.54zm2.62.63l-.18 16.71c0 1.45 2.16 1.45 2.16 0l.18-16.71c0-1.36-2.16-1.36-2.16 0z"/></g><path d="M105.62 35.08c1.73-.09 3.46 0 5.1.09.61 0 1.04-.44 1.04-1.05s-.52-1.05-1.04-1.05l-5.1-.09c-.61 0-1.04.52-.95 1.13-.09.52.35.96.95.96z" class="b"/><g class="a"><path d="M111.65 34.58l-.63 17c-.09 1.45 2.16 1.45 2.16 0l.63-17c.09-1.45-2.16-1.45-2.16 0zm2.34 1.02l1.26 3.54c.36 1.09.54 2.27.63 3.45l.36 7.8a1.18 1.18 0 0 0 .99 1.18 1.17 1.17 0 0 0 1.17-1v-.09c.54-5.17 1.71-10.34 3.51-15.23.18-.54-.18-1.18-.72-1.36s-1.17.18-1.35.73c-1.89 5.08-3.06 10.43-3.6 15.78h2.16l-.36-7.98c-.09-1.27-.27-2.54-.63-3.72l-1.35-3.72c-.07-.21-.3-.6-.69-.72-.51-.16-1.18.19-1.37.69-.11.29-.04.57 0 .67zm7.21 14.32c.09-1.27.63-2.45 1.08-3.63l1.26-3.81 2.07-7.89h-2.07c1.35 5.35.36 10.97.99 16.41 0 .63.54 1.09 1.08 1.09s1.17-.54 1.08-1.09c-.72-5.62.27-11.42-1.08-17.04-.27-1-1.89-1.09-2.07 0a62.77 62.77 0 0 1-2.16 8.07l-1.35 3.9c-.54 1.27-.9 2.54-1.08 3.9 0 .13.03.5.3.78.44.47 1.26.42 1.64.07.27-.25.3-.63.31-.76z"/><path d="M123.27 43.58h1.62c.27 0 .54-.09.72-.36.18-.18.27-.45.36-.73 0-.27-.09-.55-.36-.73-.18-.18-.45-.27-.72-.36h-1.62a1.04 1.04 0 0 0-1.08 1.09c0 .27.09.55.36.82.18.09.45.27.72.27h0z"/></g><path d="M126.25 33.16c.78 5.79 1.17 11.68 1.01 17.56 0 1 1.01 1.36 1.64.72.94-.91 2.26-1.99 3.59-1.63 1.17.36 1.72-1.81.47-2.08-2.03-.63-3.9.72-5.38 2.17l1.64.72c.08-6.07-.23-12.13-1.09-18.2-.02-.06-.17-.56-.6-.72-.42-.16-.83.12-1.03.38-.28.39-.27.91-.25 1.06zm-94.43 4.98l1.33 8.62c.5 2.81.83 5.71.91 8.53 0 1.45 1.9 1.45 1.99 0a69.81 69.81 0 0 1 3.48-18.5c.17-.54-.17-1.18-.66-1.36s-1.08.18-1.24.73c-1.99 6.17-3.23 12.61-3.56 19.05h1.99c-.08-2.99-.41-5.99-.99-8.98l-1.41-8.8c-.17-.54-.66-.91-1.24-.73-.41.27-.66.82-.58 1.45zm8.19-.46l-.7 17.9c0 .64.47 1.09 1.01 1 .47 0 .86-.45.86-1l.7-17.9c0-.64-.39-1.09-.86-1.18-.55 0-.94.45-1.01 1v.18zm3.36-.22c-.73 6-1.38 11.91-1.7 17.91-.08 1 1.14 1.45 1.7.73.73-.82 1.7-1.45 2.76-1.55.49-.09.81-.82.65-1.36s-.65-.91-1.22-.73a6.26 6.26 0 0 0-3.65 2.18l1.7.73c.41-5.82.97-11.64 1.7-17.36.16-.55-.16-1.18-.65-1.36-.57-.09-1.22.18-1.3.82z" class="b"/><path d="M48.3 39.35l-.54 8.31-.27 4.06c-.09.63 0 1.26.27 1.9.27.54.81.9 1.44 1.08 2.25.63 4.23-1.54 5.04-3.34.9-2.17.9-4.61.18-6.77-.36-1.17-.9-2.35-1.62-3.34-.9-1.17-1.89-2.26-2.97-3.16a1.22 1.22 0 0 0-1.53 0c-.45.45-.45 1.08 0 1.54 1.44 1.35 2.88 2.71 3.69 4.61.72 1.63.9 3.52.63 5.24-.18.81-.54 1.54-.99 2.17-.36.54-.99.9-1.62.99h-.27c.09.09 0 .09 0-.09 0-.54 0-1.08.09-1.63l.09-3.52.45-8.04c0-.14-.01-.37-.16-.6-.27-.43-.94-.71-1.43-.41-.33.19-.51.59-.48 1.02z" class="a"/><path d="M59.53 36.69c-1.6-.36-3.2.45-4.09 1.81-1.07 1.63-.89 3.63-.09 5.26.8 1.72 2.05 2.99 2.67 4.72 0 0 .61 1.94 0 4.9-.1.5-.27.92-.62 1.07-.18.08-.35.07-.47.05a1.18 1.18 0 0 1-.33-.21c-.25-.22-.31-.47-.41-.7-.05-.11-.42-.94-1.01-1.02-.41-.06-.74.28-.77.31-.19.19-.3.47-.3.78.18 1.81 1.69 3.45 3.56 2.99s2.67-2.81 2.85-4.54c.27-2-.09-3.99-.98-5.72-.8-1.63-2.4-3.09-2.67-4.99-.09-.73.09-1.54.62-2.09.08-.09.18-.16.18-.16.23-.18.44-.25.55-.29a2.18 2.18 0 0 1 .78-.1c1.24.36 1.87-1.72.53-2.09z" class="b"/><path d="M62.08,36.55l-.45,18.33c0,1.44,2.16,1.44,2.16,0l.54-18.33c0-1.44-2.16-1.44-2.25,0Z" class="a"/><g class="b"><path d="M65.95 37.22l.01.28c0 .24.02.74-.1 1.26-.07.27-.15.45-.27.73-.13.28-.3.66-.62 1.09-.24.31-.56.68-1.07 1-.19.12-.37.2-.53.27-.53.18-.89.73-.71 1.36.18.54.71.91 1.34.73 2.76-.91 4.37-3.9 4.19-6.71 0-.63-.53-1.09-1.16-1-.62.09-1.07.54-1.07 1z"/><path d="M63.09 45.69a1.06 1.06 0 0 0 .1.07c.24.17.59.55.88 1.73.12.48.16.87.25 1.63l.1.99c.18 1.99.36 4.07 1.7 5.7a1.02 1.02 0 0 0 1.52 0c.45-.45.45-1.09 0-1.54-1.07-1.36-.98-3.44-1.16-5.16-.18-1.99-.71-3.98-2.32-5.25-.45-.36-1.25-.09-1.52.36-.18.54 0 1.18.45 1.45z"/></g><g class="a"><path d="M68.58 37.04a42.06 42.06 0 0 0-.27 6.73l.45 6.55c.09.91.36 1.91 1.08 2.64.45.55 1.17.64 1.79.27.45-.27.72-.91.99-1.36.54-.91.9-2 1.08-3 .18-1.09.27-2.27.27-3.36l.36-7.82c0-1.45-2.15-1.45-2.15 0l-.36 7.55c0 1.18-.18 2.27-.27 3.45-.09.55-.27 1.09-.45 1.55-.09.27-.27.45-.36.73-.27.32-.43.61-.36.68s.37-.06.72-.32h-.18l.54.18c-.54-.27-.45-1.73-.54-2.36l-.27-4c-.18-2.64-.09-5.27.18-7.91.09-.55-.54-1.09-1.08-1.09-.72-.09-1.17.36-1.17.91z"/><path d="M74.16 36.85l.72 8.73.36 4.36c.09.73 0 1.55.36 2.18s.99.73 1.71.91c1.26.18 2.61.27 3.69-.45s1.71-1.91 1.98-3.09c.63-2.55.18-5.27-.99-7.55-1.17-2.64-3.24-4.64-5.31-6.64-.99-1-2.52.55-1.53 1.55 1.89 1.82 3.87 3.82 4.95 6.27.54 1.18.9 2.45.9 3.73 0 1.18-.09 2.55-.81 3.46s-2.25.82-3.24.36c.31.39.5.57.56.54.03-.02.03-.11-.02-.26l-.18-1.27-.18-1.82-.36-3.73-.63-7.36c0-.64-.54-1.09-1.08-1.09-.45 0-.9.45-.9 1.18z"/></g></g><path d="M166.8,38.76c2.52,3.45,1.44,8.18-1.08,11.36-3.06,3.73-7.84,5.45-12.26,6.73-10.81,3.09-21.81,5.55-32.89,7.27-11.17,1.82-22.44,3-33.79,3.55-10.99,.55-21.99,.64-32.98-.27-9.82-.73-19.83-2.55-28.57-7.36-1.08-.55-2.07-1.18-3.15-1.91s-1.98,1-.99,1.64c8.65,5.64,18.84,8.09,28.93,9.18,11.17,1.27,22.44,1.18,33.52,.82,11.72-.45,23.43-1.55,35.06-3.36,11.54-1.73,22.89-4.18,34.16-7.36,4.69-1.36,9.64-2.91,13.25-6.36,3.15-2.91,5.05-7.73,3.88-12-.27-1-.72-2-1.35-2.91-.81-.91-2.43,0-1.71,1Z"/><path d="M23.11 59.19c-.63-1.67-1.26-3.46-1.17-5.35.09-.89.36-1.78.9-2.45a12.78 12.78 0 0 0 1.26-1.9c.63-1.34.63-3.12.72-4.68 0-1.45-.18-2.9-.99-4.01-.27-.33-.72.22-.45.56.9 1.11.9 2.9.81 4.35a11.62 11.62 0 0 1-.27 2.56c-.27.78-.63 1.56-1.17 2.12-.9 1.23-1.35 2.56-1.35 4.13.09 1.78.63 3.34 1.26 5.02l.45-.33z"/><path d="M23.2 50.94c.36-.67 1.08-.78 1.71-.78.9-.11 1.8-.11 2.7 0 .45 0 .45-.78 0-.78-.99-.11-1.98-.11-2.97 0-.72.11-1.53.33-1.98 1.23-.27.33.27.78.54.33zm-1.27 7.31c-1.6-.16-3.19-.24-4.79-.16a22.75 22.75 0 0 0-4.63.48c-2.39.56-3.67 3.14-3.03 5.47.4 1.37 1.28 2.5 2.39 3.22.32.24.64-.32.32-.48-1.84-1.29-2.95-3.7-1.84-5.8.56-.97 1.52-1.69 2.63-1.85 1.36-.24 2.71-.4 4.15-.4 1.6-.08 3.19 0 4.79.16.32 0 .32-.56 0-.64zM7.4 59.98a12.9 12.9 0 0 1-3.87.94c-.22.05-.15.36.05.37 1.35-.13 2.71-.46 3.96-.98.19-.13.04-.41-.13-.34h0z"/><path d="M9.99 60.39c-1.89-.45-3.97-.82-5.41-2.27-.18-.18-.54.09-.36.36 1.53 1.45 3.6 2 5.59 2.45.36-.09.45-.55.18-.55h0zm12.36-2.4c-.07-.52-.76-.61-1.1-.95-.84-.85-1.54-1.87-2.14-3.07-.85-1.7-1.34-3.67-1.97-5.55s-1.41-3.67-2.4-5.28c-.92-1.52-1.9-3.13-3.17-4.21-1.41-1.07-3.1-1.52-4.79-1.16-.49.09-.28.98.21.9 1.48-.27 2.96.09 4.23 1.07 1.34.98 2.26 2.69 3.17 4.3s1.69 3.4 2.26 5.28c.56 1.79 1.06 3.67 1.9 5.37.85 1.7 2.04 3.13 3.45 4.21.18-.22.4-.56.35-.9z"/><path d="M16.19 46.3c-.36-2.27-.36-4.73.72-6.82 1.17-2.18 3.33-3.36 5.5-4.18.36-.18.18-.82-.18-.64-2.34.91-4.69 2.27-5.86 4.55s-1.17 4.91-.81 7.27c.09.45.72.27.63-.18h0z"/><path d="M19.16 36.85c.81-2.27.54-4.73.09-7-.09-.27-.54-.18-.45.09.36 2.27.72 4.64-.09 6.73-.09.27.36.45.45.18z"/><path d="M19.61 32.48c-.54-1-1.35-1.82-2.25-2.55-.09-.09-.27 0-.36.09s0 .27.09.36c.81.64 1.53 1.45 2.07 2.36.18.27.54 0 .45-.27h0zm2.64 26.93c-2.16-1.91-4.78-3.09-7.12-4.82-2.25-1.64-4.33-3.82-5.14-6.55-.45-1.55-.45-3.18 0-4.73.18-.55-.72-.82-.9-.27-.9 2.82-.18 5.91 1.53 8.36s4.15 4.18 6.76 5.73c1.53.82 2.97 1.82 4.33 3 .36.36 1.08-.36.54-.73h0z"/><path d="M14.23 54.23c-1.89-.73-3.88-1.09-5.86-1.27-.72 0-1.62-.09-2.25.45-.63.64-.45 1.36-.9 2-.27.36.18.82.45.45.45-.55.45-1.18.72-1.73.36-.73 1.62-.55 2.25-.45 1.8.18 3.6.55 5.32 1.18.45.18.63-.45.27-.64z"/><path d="M6.3 53.41c-.81.36-1.71.64-2.61.73s-1.8 0-2.61-.27c-.09 0-.27 0-.27.18 0 .09 0 .27.18.27.9.27 1.89.36 2.79.27.99-.09 1.89-.36 2.79-.82.27-.09 0-.45-.27-.36h0zm3.15-6c-.54-.45-1.26-.82-1.89-1.09-.81-.18-1.71-.27-2.61-.27-.81 0-1.71-.18-2.52.09-.72.27-1.44 1-2.07 1.55-.27.18.09.55.36.36l.9-.73c.27-.36.63-.55 1.08-.73.72-.18 1.53 0 2.25 0 1.53 0 2.97.18 4.24 1.18.18.18.54-.09.27-.36h0z"/><path d="M2.97 46.2c-.36-.55-.72-1.09-1.17-1.55s-.99-.91-1.62-.73c-.09 0-.18.18-.18.27s.18.18.27.18c.16.03.4.09.66.23.52.27.81.68 1.13 1.11.13.17.29.43.46.75l.45-.27zm100.47 21.11c.99-1 1.17-2.45 1.17-3.82 0-.09-.18-.18-.27-.18s-.18.09-.18.18c0 1.18-.09 2.55-.99 3.45-.27.27.09.64.27.36h0zm1.36 0c.31.14.82-.03 2.43-1.55l1.71-1.73c.16-.77.12-.96.05-.99-.16-.06-.49.8-1.38 1.83-.7.82-1.35 1.26-1.5 1.36a7.33 7.33 0 0 1-1.59.8c.05.09.13.21.27.27z"/><path d="M104.35 63.72a10.69 10.69 0 0 1-.79-.96l-.61-.96c-.3-.71-.1-1.62.3-2.33s1-1.32 1.2-2.02a2.07 2.07 0 0 0 .13-1.18c-.03-.16-.08-.3-.14-.41.17.12.41.31.63.6.22.3.32.57.39.78.42 1.24.5 2.33.5 2.33.09 1.21.14 1.81-.1 2.43-.13.33-.49 1.1-1.51 1.72zm4.61.27c-.19-.22-.61-.79-.72-1.64-.09-.71.08-1.27.18-1.55l.33-.4c.75-.83 1.52-1.15 2.33-1.6a16.08 16.08 0 0 0 1.94-1.27l-.07.82c-.19 1.74-.66 3.26-1.2 4.52-.15.22-.4.51-.79.76-.85.53-1.74.41-2 .36z"/></g><path d="M134.26 31.31c-1.08 1.45-.54 3.64.9 4.73s3.33 1.36 5.14 1.36c.63 0 1.35-.09 1.89.27.36.18.63.45.81.73 2.7 2.82 6.22 4.55 10.09 4.82s7.66-.82 10.81-3.09c.9-.73 1.8-1.55 2.7-2.18s2.07-1.18 3.06-1.73c2.7-1.45 4.87-3.64 6.49-6.27 1.53-2.64 2.16-5.73 1.71-8.73-.45-2.64-1.71-5.36-.63-7.82.45-1.09 1.35-2.09 1.53-3.27-1.98.91-3.6 2.45-4.69 4.36-.99 1.91-1.8 3.91-2.16 6-.27 1.27-.54 2.55-1.35 3.55-1.08 1.36-2.88 1.91-4.51 2.55-3.69 1.36-7.12 3.45-10 6.09-1.08.91-2.07 2-3.42 2.27-2.52.55-4.78-1.55-7.3-2.09-1.44-.27-2.88-.09-4.42-.18-2.25 0-4.51-.55-6.49-1.45" class="d"/><path d="M134.26 31.31c-1.17 1.55-.45 3.73.9 4.82.9.64 1.89 1.09 3.06 1.18.54.09 1.08.09 1.62.09.72 0 1.44-.09 2.16.09.72.27 1.08.82 1.53 1.27.36.36.81.73 1.26 1.09 2.79 2.18 6.31 3.36 9.91 3.36 2.43 0 4.78-.64 6.94-1.64 2.43-1.18 4.24-3.27 6.58-4.55 2.16-1.18 4.24-2.45 6.04-4.36 1.62-1.73 2.88-3.91 3.51-6.18.36-1.36.54-2.73.45-4.09-.09-1.45-.45-2.91-.81-4.27-.36-1.45-.63-3.09-.09-4.55.45-1.27 1.44-2.27 1.62-3.64 0 0 0-.09-.09 0-3.24 1.45-5.23 4.73-6.22 8-.27.91-.54 1.82-.72 2.82-.18.91-.45 1.82-.9 2.55-.99 1.64-2.79 2.27-4.51 2.91-3.42 1.27-6.58 3-9.46 5.36-1.35 1.09-2.7 2.73-4.42 3.09-1.8.36-3.6-.64-5.23-1.36-.81-.36-1.71-.64-2.61-.82-1.17-.09-2.34-.09-3.51-.09-2.34 0-4.69-.45-6.85-1.45-.09 0-.09.09-.09.09 1.98.91 4.15 1.45 6.4 1.45 1.17 0 2.43-.09 3.69 0 1.17.18 2.25.45 3.24 1 1.62.73 3.33 1.64 5.14 1.09s3.15-2.18 4.6-3.36c1.71-1.36 3.6-2.64 5.68-3.55.99-.55 2.07-.91 3.15-1.36a13.32 13.32 0 0 0 2.61-1.09c.81-.36 1.44-1 1.98-1.64.54-.82.81-1.73.99-2.64.54-2.27 1.08-4.45 2.25-6.55.54-.91 1.17-1.82 1.89-2.55.36-.36.81-.73 1.26-1.09.36-.36.81-.55 1.26-.73.18-.09.18 0 .18.18 0 .09-.09.27-.09.36-.09.27-.27.55-.36.82-.27.45-.54.91-.72 1.36-.45.91-.63 1.82-.54 2.82.09 2.27 1.08 4.36 1.17 6.64s-.36 4.45-1.26 6.55c-.9 1.91-2.25 3.64-3.88 5.09-.81.73-1.71 1.36-2.61 1.91-.99.64-1.98 1.09-2.97 1.73-.9.64-1.8 1.27-2.7 2a19.15 19.15 0 0 1-2.79 1.91c-1.89 1-4.06 1.64-6.22 1.73-4.33.27-8.47-1.18-11.72-4.09-.72-.64-1.26-1.55-2.25-1.73s-1.98 0-2.97-.09c-2.07-.18-4.24-1.18-4.78-3.27-.45-.91-.27-1.82.27-2.64.09 0 0-.09 0 0h0z" class="c"/><path d="M173.74 13.49l.54.27 3.6-3.27c.9-.82 1.89-1.91 1.71-3.09s-1.53-2-2.88-2.27c-2.79-.55-5.86.18-8.65-.55-2.52-.64-4.6-2.45-7.03-3.36-2.79-1.09-5.86-.91-8.74-.18-1.44.27-2.79.91-3.97 1.64-1.44 1-2.61 2.45-3.97 3.55-1.98 1.55-4.51 2.55-6.13 4.45-2.34 2.82-2.34 7-4.69 9.82-1.26 1.55-3.33 2.73-3.69 4.64-.27 1.27.27 2.55 1.17 3.45.9.91 1.98 1.73 3.15 2.27 2.43 1.27 5.41 2.36 8.02 1.27-.99-.82-1.89-1.73-2.7-2.73-.72-1.09-1.08-2.36-.72-3.64.54-2 2.7-3.09 4.42-4.36 2.16-1.64 3.6-4 5.41-6.09s4.15-3.91 6.94-3.91c2.61 0 4.87 1.64 7.39 2 1.89.27 3.88-.18 5.77-.36s4.06-.27 5.68.73" class="d"/><path d="M173.74 13.58l.54.27h.09l3.88-3.55c.81-.82 1.8-1.91 1.44-3.18-.27-1.09-1.44-1.64-2.34-1.91-1.53-.45-3.06-.36-4.6-.36-1.71 0-3.42 0-5.05-.55-1.44-.55-2.79-1.36-4.15-2.09-1.26-.73-2.7-1.27-4.24-1.64-1.53-.27-3.15-.27-4.69-.09s-3.06.55-4.51 1.18c-1.35.64-2.52 1.45-3.51 2.45a28.05 28.05 0 0 1-3.51 3l-3.51 2.27c-2.16 1.82-2.88 4.36-3.79 6.91-.45 1.36-1.08 2.73-1.89 3.91-.81 1-1.89 1.82-2.7 2.82-.81.82-1.17 1.91-1.08 3.09.18 1.36 1.08 2.55 2.16 3.36 1.17.91 2.52 1.64 3.88 2.18 1.35.64 2.88 1 4.42.91.72 0 1.35-.18 1.98-.45v-.09h0c-1.35-1.09-2.7-2.27-3.33-4-.54-1.64-.09-3.09 1.17-4.27.99-.91 2.16-1.64 3.24-2.45 1.17-1 2.34-2.18 3.24-3.45 1.89-2.45 3.97-5.18 7.03-6.09 1.62-.45 3.24-.18 4.78.36s2.97 1.27 4.6 1.45c3.69.45 7.75-1.73 11.26.27.09 0 .09-.09.09-.09-1.89-1.09-4.15-1-6.22-.64-1.35.27-2.61.36-3.97.45-1.26 0-2.43-.27-3.6-.73-2.07-.73-4.06-1.73-6.31-1.27-1.98.36-3.79 1.64-5.14 3.09-1.53 1.64-2.79 3.55-4.33 5.18-.81.82-1.62 1.55-2.52 2.18a22.51 22.51 0 0 0-2.16 1.64c-.63.55-1.08 1.27-1.35 2.09-.18.91-.09 1.91.27 2.82.54 1 1.26 2 2.16 2.73.18.18.45.36.63.55.27.27.36.27-.09.36a6.85 6.85 0 0 1-1.89.27c-2.34 0-4.69-1.09-6.67-2.27s-4.24-3.45-2.97-6c.81-1.73 2.7-2.73 3.79-4.27 1.17-1.64 1.71-3.64 2.34-5.55.36-1 .72-1.91 1.26-2.82.63-.91 1.44-1.73 2.34-2.45 1.71-1.27 3.69-2.18 5.23-3.64.81-.73 1.62-1.64 2.52-2.36.99-.82 2.16-1.36 3.33-1.73a16.26 16.26 0 0 1 7.21-.82c1.35.18 2.61.55 3.79 1.09.99.45 1.98 1.09 2.97 1.64.9.55 1.89 1 2.88 1.27 1.08.27 2.25.36 3.42.36 1.26 0 2.52-.09 3.79 0 1.17.09 2.34.27 3.33.91 1.08.73 1.44 1.91.81 3-.63 1-1.62 1.82-2.52 2.64l-1.35 1.27-.72.64c-.18.09-.27.27-.54.27-.36 0-.45-.09-.63-.09 0-.09-.09 0 0 0h0z" class="c"/><path d="M154.18 33.67c-.9.18-1.89.18-2.79 0-.9-.09-1.71-.64-2.25-1.45-.18-.45-.36-.91-.45-1.36-.27-1-.72-1.91-1.26-2.73-.45-.64-.99-1.18-1.17-1.91-.09-.55 0-1.09.18-1.64.54-1.55 1.62-2.73 3.06-3.36.72-.27 1.53-.36 2.25-.45l2.34-.27c.99-.09 1.98-.27 2.97-.45 1.44-.36 2.79-1.18 4.24-1.73s3.06-.73 4.51-.18c1.26.55 2.07 1.73 2.43 3.09a6.49 6.49 0 0 1-.45 3.91c-.09.27-.18.45-.36.73-.36.36-.81.64-1.26.82-.9.36-1.89.64-2.88.91-.27-.45 0-1 .18-1.45.36-1.09-.09-2.36-1.08-3-.36-.27-.81-.36-1.26-.45-2.88-.73-5.95.18-8.02 2.27-.72.73-1.17 1.55-1.44 2.55s0 2 .63 2.73c.9.91 2.25 1.09 3.51 1.27.18 0 .45.09.54.27 0 .18 0 .36-.09.45-.54.82-1.35 1.36-2.25 1.73" class="d"/><g class="c"><path d="M154.18 33.58c-1.35.18-2.88.27-4.06-.45-1.26-.73-1.17-2.18-1.71-3.45l-.9-1.64c-.36-.55-.9-1.09-1.08-1.82-.36-1.27.54-2.73 1.26-3.73.9-1 2.07-1.64 3.33-1.73l4.33-.55a13.38 13.38 0 0 0 3.69-1.09c1.26-.55 2.43-1.18 3.79-1.36 1.44-.27 2.97-.09 4.06.91.99.91 1.44 2.18 1.44 3.45 0 1.36-.36 3.18-1.62 3.91-.63.36-1.26.55-1.98.73l-1.08.27c-.09 0-.27.09-.36.09-.36-.18-.18-.64-.09-.91.36-.91.45-1.82-.18-2.73s-1.71-1.18-2.7-1.36c-2.16-.27-4.33.18-6.04 1.36-1.8 1.18-3.69 3.64-2.43 5.91.63 1.09 1.8 1.45 2.88 1.64.27.09.63.09.9.09h.36c.63.27.09.73-.09 1-.54.64-1.17 1.09-1.89 1.36-.09 0 0 .09 0 .09.81-.27 1.53-.82 2.07-1.45.36-.45.54-.91-.18-1.09-.9-.18-1.89-.18-2.79-.64-.99-.45-1.62-1.45-1.62-2.55 0-2.09 1.8-3.82 3.51-4.73s3.79-1.18 5.68-.82c1.17.27 2.25.82 2.61 2.09.09.55.09 1.18-.18 1.64-.18.36-.27.82-.09 1.18h.09c.9-.18 1.89-.45 2.7-.82a3.06 3.06 0 0 0 1.62-1.18c.81-1.36.99-3.09.63-4.64-.36-1.27-1.26-2.36-2.52-2.91-1.53-.64-3.33-.18-4.87.36-1.71.73-3.33 1.55-5.14 1.82s-3.69.27-5.5.73c-1.35.36-2.52 1.27-3.24 2.55-.36.64-.63 1.27-.72 2 0 .73.18 1.45.72 2 .63.82 1.17 1.73 1.53 2.73.27.73.36 1.73.9 2.36 1.26 1.82 3.33 1.64 4.96 1.36.09.09.09 0 0 0h0zm-20.64-2.27c-.81 1.64-.27 3.55.99 4.82 1.44 1.45 3.6 1.82 5.59 1.91 2.25.09 4.6-.27 6.85.36 2.07.64 3.88 1.82 6.04 2 1.89.18 3.79-.18 5.5-1 .81-.36 1.53-.91 2.25-1.55.72-.73 1.35-1.55 1.98-2.36.63-.91 1.35-1.64 2.16-2.36a21.44 21.44 0 0 1 2.52-1.45c1.8-.82 3.69-1.45 5.23-2.64 3.42-2.55 5.41-6.64 5.14-10.91-.09-.64-.99-.64-.99 0 .18 3.55-1.17 7-3.88 9.36-2.7 2.45-6.67 2.91-9.37 5.36-1.44 1.27-2.34 3.18-3.79 4.45-1.35 1.18-3.06 1.91-4.78 2.09-1.98.18-3.69-.27-5.41-1.09-.9-.45-1.8-.82-2.79-1a10.23 10.23 0 0 0-3.33-.27c-2.25 0-4.69.27-6.76-.64-1.62-.73-3.24-2.73-2.25-4.64.27-.55-.63-1-.9-.45h0z"/><path d="M167.79 26.22c.72-1.45 1.26-3 1.08-4.64-.18-1.45-.99-2.73-2.25-3.45-3.06-1.82-6.31.36-9.28 1.36-1.53.55-3.06.55-4.6.55-1.44.09-2.97.27-4.15 1.18-1.26.91-2.16 2.27-2.61 3.73-.45 1.55.27 2.64 1.17 3.82.54.55.9 1.27 1.08 2.09s.27 1.64.81 2.27c1.26 1.36 3.24 1.36 4.96 1.27.63 0 .63-1 0-1-1.35.09-2.97.18-4.06-.82-.54-.45-.63-1.09-.72-1.82-.09-.64-.27-1.18-.54-1.73-.63-1-1.8-1.82-1.8-3-.09-1.36.99-2.73 1.89-3.64 1.98-2 5.05-1.18 7.57-1.64 2.88-.45 5.41-2.64 8.38-2.36 1.44.09 2.7 1.09 3.24 2.45.54 1.64-.09 3.36-.81 4.82-.45.64.45 1.09.63.55h0zm-4.57 1.59c1.11-1.19.95-3.94-.45-5-.72-.55-1.71-.64-2.61-.73-1.08-.09-2.07 0-3.15.27a9.84 9.84 0 0 0-2.79 1.27c-.81.55-1.53 1.18-2.16 1.91-1.08 1.36-1.53 3.45-.36 4.91 1.17 1.55 3.42 1.64 5.23 1.55.63 0 .63-1 0-1-1.26.09-2.79.09-3.97-.73-1.26-.91-1.17-2.64-.45-3.82.81-1.36 2.34-2.36 3.69-3 1.62-.64 3.33-.82 4.96-.45.81.18 1.53.82 1.62 1.73.18.82 0 1.73-.45 2.45-.18.26-.71 1.07-.52 1.27.18.19.96-.14 1.42-.64z"/></g><ellipse cx="157.97" cy="27.22" rx=".9" ry=".82" stroke="#1d1d1b" stroke-width=".38" class="d"/><g class="c"><path d="M151.93 34.22v.27h.27v-.36h-.27v.09h0zm-3.03-3.24c-.63.64-1.35 1.27-2.16 1.82-.18.09 0 .36.18.27.81-.55 1.53-1.18 2.16-1.82.09-.18-.09-.36-.18-.27h0zm-1.08-1.34L144.94 31l-3.06 1c-.18 0-.09.36.09.27 1.08-.27 2.07-.64 3.06-1s1.89-.91 2.88-1.36c.18-.09.09-.36-.09-.27zm-1.03-1.35c-1.17.18-2.25.45-3.42.73l-3.51.73c-.18 0-.09.27.09.27l3.51-.73 3.42-.73c.18 0 .09-.27-.09-.27h0zm-.45-1.14l-7.24.18c-.19 0-.19.27 0 .27l7.24-.18c.09 0 .09-.09.09-.18l-.09-.09zm.34-3.45c-1.65-.32-3.23-.96-4.74-1.75-.15-.08-.23.16-.15.24 1.5.88 3.08 1.43 4.81 1.83.15-.08.23-.32.08-.32h0zm-.34 1.81c-2.25-.27-4.51-.73-6.76-1.18-.18 0-.27.27-.09.27 2.25.55 4.51.91 6.85 1.18.18.09.18-.27 0-.27zm1.6-3.58c-.53-.39-1.02-.69-1.46-1.1-.49-.3-.93-.72-1.34-1.05-.15-.14-.34.13-.19.26.44.42.85.75 1.34 1.05.53.39 1.02.69 1.46 1.1.12.05.31-.21.19-.26zm1.68-1.21c-.96-1.13-1.83-2.26-2.63-3.46-.08-.15-.32 0-.24.15l2.71 3.54c.08.08.24-.08.16-.23h0zm2.48-.41c-.45-.98-.99-1.86-1.53-2.74l-1.53-2.94c-.09-.2-.36 0-.27.2l1.53 2.94 1.53 2.74c.09.1.27 0 .27-.2h0zm1.71-.28c0-1.18-.45-2.36-.81-3.55l-1.08-3.64c0-.09-.09-.09-.18-.09s-.09.09-.09.18l.99 3.55c.36 1.18.81 2.36.81 3.55.09.18.36.18.36 0h0zm1.6-.07l-.63-7.82c0-.18-.27-.18-.27 0l.63 7.82c0 .18.27.18.27 0zm2.31-.57c-.09-2.42.09-4.73.27-7.15 0-.19-.27-.19-.27 0-.27 2.42-.36 4.73-.27 7.15 0 .1.09.1.18.1s.09-.1.09-.1zm3.67-1.17c.09 0 .09-.09.09-.18s-.09-.09-.09-.09c-.09 0-.09.09-.09.18s.09.09.09.09zm-.42-.22c-.09-1.55-.18-3 0-4.55 0-.18-.27-.18-.27 0a38.37 38.37 0 0 0 0 4.55c0 .18.27.18.27 0zm2.03-.58l.09-3.73c0-.09-.09-.09-.18-.09s-.09.09-.09.09l-.09 3.73c0 .18.27.18.27 0h0zm2.99-3.48c-.63 1.27-1.17 2.55-1.62 3.82-.09.18.18.27.27.09l1.53-3.73c.09-.18-.09-.36-.18-.18h0zm.03 4.29c.83-.65 1.46-1.46 2.09-2.26l2.21-2.83c.08-.1-.13-.35-.2-.16L168 15.8c-.63.81-1.26 1.61-2.09 2.26-.08.1-.07.19.02.18l.09-.01h0zm1.14.44c1.08-.55 2.07-1.27 2.88-2.09.99-.91 1.98-1.91 2.79-2.91.09-.18-.09-.36-.18-.18l-2.79 2.82c-.81.91-1.8 1.55-2.88 2.09-.09.09 0 .36.18.27h0zm.58 1.31c.45-.01.89-.39 1.34-.58l1.42-.94c.44-.28.8-.66 1.24-.94.35-.37.89-.66 1.33-.85.18 0 .08-.27-.1-.27-.45.1-.8.38-1.16.67l-1.24 1.03-1.33.94c-.18.19-.44.28-.71.47s-.53.29-.8.38c-.09 0-.09.09-.09.18 0-.18.09-.09.09-.09h0zm.81 1.65c1.15-.24 2.17-.82 3.32-1.06.18-.02.14-.29-.03-.27-1.15.24-2.17.82-3.32 1.06-.18.02-.14.29.03.27zm0 1.3c.9 0 1.8.36 2.7.36.09 0 .09-.09.09-.18s-.09-.09-.09-.09c-.9 0-1.8-.36-2.7-.36-.09 0-.09.09-.09.18 0 0 0 .09.09.09zm-9.95 5.09c.75.18 1.43.5 2.18.67.24.03.36-.25.13-.28l-2.22-.78c-.1.04-.2.07-.16.18h0c-.1.04.04.1.07.2h0zm-.54.05c0 .36.09.73.27 1l.36 1c.09.18.36.09.27-.09l-.36-1c-.09-.18-.09-.27-.18-.45s-.09-.27-.09-.45c.09-.18-.18-.18-.27 0h0zm-.81-.13a20.14 20.14 0 0 0-.54 3.36c0 .18.27.18.27 0a20.65 20.65 0 0 1 .54-3.27c0-.18-.27-.27-.27-.09h0zm-.24-.46l-3.15 3.27c-.09.09.09.36.18.18l3.15-3.27c.09-.09 0-.18 0-.18h-.18zm.9-1.18c.1-1.19.02-2.45-.11-3.63 0-.23-.36-.16-.35.06.12 1.17.25 2.35.15 3.53 0 .23.32.26.31.03h0zm-.48.1c-.9-.73-1.62-1.73-2.61-2.36-.18-.09-.27.18-.18.27.9.73 1.62 1.73 2.61 2.36.18.09.36-.18.18-.27zm-.55.63c-1.53.09-3.06.09-4.69 0-.18 0-.18.27 0 .27 1.53.09 3.06.09 4.69 0 .18.09.18-.27 0-.27zm2.07-.37c1.45-.82 2.48-2.04 3.91-2.95.17-.11-.04-.36-.21-.25-1.34.9-2.47 2.13-3.91 2.95-.17.11.04.36.21.25zm-.62-.26l2.25-3.64c.09-.18-.18-.27-.27-.18l-2.25 3.64c-.09.18.18.27.27.18z"/><path d="M159.02 27.05c1.62-.09 2.97-1.09 4.6-1.45.18 0 .09-.27-.09-.27-1.53.36-2.88 1.36-4.51 1.45-.18 0-.18.27 0 .27h0zM142.47 38.3c3.6 4.36 9.73 6.09 15.23 5 1.35-.27 2.7-.73 3.97-1.36 1.53-.73 2.79-1.91 4.15-2.91 2.79-2.09 6.13-3.27 8.56-5.91 1.98-2.18 3.33-5 3.88-7.91.27-1.45.27-2.91.09-4.36-.09-.73-.27-1.45-.45-2.18-.27-.91-.63-1.82-.72-2.73-.09-1.82 1.08-3.27 1.89-4.73.72-1.27 1.17-2.73.81-4.18-.45-1.55-1.8-2.27-3.33-2.45-1.8-.18-3.69 0-5.59-.09-1.8 0-3.6-.45-5.23-1.36-1.44-.82-2.79-1.73-4.42-2.27-2.88-1-5.95-1.09-8.92-.36-1.44.36-2.88 1-4.15 1.73-1.44.91-2.52 2.09-3.69 3.18-1.26 1.18-2.88 2-4.33 2.91-1.26.82-2.43 1.91-3.15 3.27-1.44 2.55-1.8 5.64-3.42 8.09-.9 1.27-2.16 2-3.15 3.18-.99 1.09-1.35 2.64-.9 4 .54 1.55 1.8 2.73 3.06 3.55 1.44 1 3.06 1.82 4.78 2.27 1.89.45 3.69.18 5.59.18s3.33.64 4.96 1.36c1.35.64 2.88 1.18 4.42 1 1.62-.18 2.79-1.36 3.97-2.36 2.7-2.45 5.86-4.27 9.19-5.64 1.53-.55 3.06-1 4.42-2s1.89-2.36 2.34-3.82.63-3.09 1.17-4.55 1.44-2.82 2.43-4a13.48 13.48 0 0 1 3.6-2.82c.54-.27.09-1.09-.45-.82-2.61 1.36-4.78 3.64-6.04 6.36-.63 1.36-.99 2.82-1.26 4.27-.36 1.45-.72 3-1.71 4.09-1.08 1.18-2.7 1.64-4.15 2.18-1.62.55-3.15 1.27-4.6 2.09-1.44.82-2.88 1.73-4.24 2.82-.63.55-1.26 1-1.8 1.55s-1.17 1-1.89 1.45c-1.44.64-2.88.18-4.24-.36-1.44-.55-2.79-1.36-4.33-1.64-1.89-.27-3.69.09-5.59 0-1.8-.09-3.42-.82-4.96-1.73-1.35-.73-2.7-1.73-3.51-3.18-.72-1.45-.36-2.73.72-3.82s2.16-1.82 2.97-3c.72-1.18 1.35-2.45 1.8-3.73.45-1.36.9-2.64 1.53-4s1.71-2.45 2.97-3.27c1.35-.91 2.88-1.55 4.06-2.64 1.17-1.09 2.25-2.36 3.6-3.27 2.43-1.64 5.32-2.45 8.29-2.36 1.44 0 2.88.27 4.33.73 1.53.55 2.88 1.36 4.24 2.18 1.44.82 3.06 1.36 4.78 1.55 1.8.18 3.6 0 5.41 0 1.44 0 3.33.18 3.69 1.82.36 1.45-.45 2.91-1.17 4.09-.81 1.36-1.71 2.82-1.53 4.45.09 1.64.9 3.09 1.17 4.73a13.79 13.79 0 0 1-1.26 8.27c-1.35 2.73-3.42 5-6.04 6.45-1.53.91-3.15 1.73-4.6 2.82-1.35 1-2.61 2.09-4.06 2.91-4.78 2.55-10.9 2.09-15.32-.82-1.08-.73-2.07-1.55-2.88-2.55-.63-.55-1.35.18-.99.64z"/><path d="M142.83 31.85c-.98-.51-2.67-2.29-3.33-3.55-.72-1.36-.45-3.09.72-4.09.99-1 2.25-1.64 3.42-2.45 1.17-1 2.34-2.18 3.24-3.36 1.89-2.36 3.88-5 6.85-6 1.53-.45 3.06-.27 4.6.27 1.53.55 2.97 1.27 4.6 1.55 3.51.55 7.21-1.45 10.72-.18.54.18.81-.73.27-.91-3.33-1.27-6.76.36-10.09.18-1.71-.09-3.33-.91-4.96-1.45-1.62-.64-3.24-.91-4.87-.45-3.24.82-5.41 3.55-7.39 6-.99 1.36-2.16 2.55-3.42 3.64-1.17.91-2.61 1.55-3.6 2.73-1.17 1.27-1.53 3.18-.81 4.82.72 1.82 2.25 3.09 3.79 4.18.33-.1.71-.26.72-.47s-.34-.38-.45-.44zm14.08-4.59l-5.22 2.17.12.31 5.23-2.17-.13-.31zM8.84 33.71s-.09-.11-.19-.12a.31.31 0 0 0-.23.12c-.09.55-.18 1.26-.19 2.09-.02 1.04.08 1.92.19 2.56h.42a12.15 12.15 0 0 1-.21-2.38c0-.93.11-1.71.21-2.26z"/></g></svg>