<?xml version="1.0" encoding="UTF-8"?>
<svg id="Layer_1" data-name="Layer 1" xmlns="http://www.w3.org/2000/svg" viewBox="0 0 300 300">
  <defs>
    <style>
      .cls-1 {
        fill: #262626;
      }

      .cls-2 {
        fill: #003893;
      }

      .cls-3 {
        fill: #cee4f2;
      }

      .cls-4 {
        opacity: .22;
      }

      .cls-5 {
        opacity: .44;
      }

      .cls-6 {
        opacity: .11;
      }

      .cls-7 {
        opacity: .66;
      }

      .cls-8 {
        opacity: .55;
      }

      .cls-9 {
        fill: #abcae2;
      }
    </style>
  </defs>
  <g>
    <path class="cls-3" d="M186.64,121.33l33.62,72.1c1.51,3.24,.13,7.09-3.1,8.61l-119.8,56.43c-3.21,1.51-7.04,.12-8.55-3.12l-33.62-72.1c-1.51-3.23-.12-7.08,3.09-8.59l119.8-56.43c3.23-1.52,7.05-.13,8.56,3.1Z"/>
    <path class="cls-9" d="M256.26,88.54l33.62,72.1c1.51,3.24,.13,7.09-3.09,8.6l-57.97,27.31c-3.23,1.52-7.05,.13-8.57-3.11l-33.62-72.1c-1.51-3.23-.12-7.08,3.11-8.6l57.97-27.31c3.21-1.51,7.04-.12,8.55,3.11Z"/>
    <path class="cls-2" d="M256.26,88.54l4.14,8.88L59.33,192.13l-4.14-8.88c-1.51-3.23-.12-7.08,3.09-8.59l119.8-56.43c3.23-1.52,7.05-.13,8.56,3.1-1.51-3.23-.12-7.08,3.11-8.6l57.97-27.31c3.21-1.51,7.04-.12,8.55,3.11Z"/>
    <path class="cls-2" d="M289.45,159.71l.44,.93c1.51,3.24,.13,7.09-3.09,8.6l-57.97,27.31c-3.23,1.52-7.05,.13-8.57-3.11,1.51,3.24,.13,7.09-3.1,8.61l-119.8,56.43c-3.21,1.51-7.04,.12-8.55-3.12l-.44-.93,201.07-94.71Z"/>
    <path class="cls-2" d="M89.01,178.15c2.85,6.11,.23,13.37-5.84,16.23-6.07,2.86-13.31,.23-16.15-5.87-2.85-6.11-.23-13.37,5.84-16.23,6.07-2.86,13.31-.23,16.15,5.87Z"/>
    <path class="cls-3" d="M83.82,195.78c-6.83,3.22-14.99,.25-18.19-6.61-3.2-6.86-.25-15.06,6.58-18.28,6.83-3.22,14.99-.25,18.19,6.61,3.2,6.86,.25,15.06-6.58,18.28Zm-10.31-22.11c-5.3,2.5-7.59,8.86-5.11,14.19,2.48,5.33,8.82,7.63,14.12,5.13,5.3-2.5,7.59-8.86,5.11-14.19-2.48-5.33-8.82-7.63-14.12-5.13Z"/>
    <path class="cls-3" d="M86.66,185.25c-.11-.18-.25-.36-.43-.55-.02-.02-.02-.04-.04-.05,0,0,0,.01,.01,.02-.17-.18-.36-.36-.59-.53-.04-.03-.07-.05-.11-.08-.2-.15-.43-.29-.69-.43h0s-.06-.04-.1-.05c-.79-.41-1.83-.78-3.2-1.01,1.91-3.14,2.37-5.26,2.37-5.26h0s-.95-1.41-.95-1.41c-.02-.03-.06-.06-.09-.06-.09,0-.14,.09-.1,.19l.5,1.25-4.19,4.62c-.52-.13-1.03-.26-1.5-.38-.43-.05-1.47-.41-2.2-.68-.51-.19-.94-.52-1.26-.96l-.86-1.19s-.06-.06-.09-.09c.55-.46,.92-.84,1.09-1.04,.08-.1,.12-.23,.1-.38,0-.05-.05-.07-.09-.05l-1.49,1.23s-.02-.01-.03-.01c-.15-.02-.28-.01-.38,0-.1,.02-.12,.18-.03,.24l.04,.03-2.16,1.13s-.03,.1,.02,.11c.15,.04,.31,.04,.46-.01,.38-.14,1.18-.46,2.01-.91l1.33,2.28c.69,1.2,1.58,1.72,1.6,1.73,.05,.04,.11,.07,.17,.11,.24,.15,.49,.3,.77,.43,.1,.04,.22,.1,.35,.16l-4.66,2.87c-.29,.16-.57,.32-.86,.48-.06,.03-.12,.07-.16,.13,0,0,0,0,0,.01l-1.79,1.1-.35-.44c-.06-.07-.15-.02-.14,.07,0,.02,0,.03,.02,.05l.6,.81s.73-.14,1.92-.48c1.92-.54,5.06-1.6,8.22-3.38,2.44,1,5.52,2.08,6.92,1.84,.33-.06,.51-.45,.37-.83-.06-.15-.14-.32-.25-.5-.03-.05-.06-.09-.09-.14Z"/>
    <g class="cls-5">
      <polygon class="cls-9" points="148.15 140.44 111.55 157.68 109.83 153.99 146.43 136.75 148.15 140.44"/>
    </g>
    <g class="cls-5">
      <polygon class="cls-9" points="167.23 138.92 98.18 171.45 96.46 167.76 165.51 135.24 167.23 138.92"/>
    </g>
    <g class="cls-5">
      <polygon class="cls-9" points="242.8 100.44 204.48 118.49 201.64 112.4 239.96 94.35 242.8 100.44"/>
    </g>
    <g class="cls-8">
      <polygon class="cls-2" points="94.05 199.07 74.54 208.26 71.82 202.44 91.33 193.25 94.05 199.07"/>
    </g>
    <g class="cls-4">
      <polygon class="cls-2" points="177.05 159.98 98.24 197.1 95.53 191.28 174.34 154.15 177.05 159.98"/>
    </g>
    <g class="cls-8">
      <polygon class="cls-2" points="104.49 205.85 79.01 217.85 76.3 212.03 101.78 200.03 104.49 205.85"/>
    </g>
    <g class="cls-4">
      <polygon class="cls-2" points="181.52 169.57 108.69 203.88 105.97 198.06 178.81 163.75 181.52 169.57"/>
    </g>
    <g class="cls-8">
      <polygon class="cls-2" points="98.07 220.46 83.44 227.35 80.72 221.53 95.36 214.64 98.07 220.46"/>
    </g>
    <g class="cls-4">
      <polygon class="cls-2" points="185.95 179.06 102.26 218.48 99.55 212.66 183.24 173.24 185.95 179.06"/>
    </g>
    <g class="cls-8">
      <polygon class="cls-2" points="121.35 221.13 87.89 236.89 85.17 231.06 118.63 215.3 121.35 221.13"/>
    </g>
    <g class="cls-4">
      <polygon class="cls-2" points="190.4 188.6 125.54 219.15 122.82 213.33 187.69 182.78 190.4 188.6"/>
    </g>
    <g class="cls-4">
      <polygon class="cls-2" points="258.73 121.5 210.4 144.27 207.68 138.45 256.01 115.68 258.73 121.5"/>
    </g>
    <g class="cls-4">
      <polygon class="cls-2" points="261.37 131.96 216.7 153 213.99 147.18 258.66 126.14 261.37 131.96"/>
    </g>
    <g class="cls-4">
      <polygon class="cls-2" points="274.4 159.89 229.73 180.93 227.01 175.11 271.68 154.07 274.4 159.89"/>
    </g>
    <g class="cls-4">
      <polygon class="cls-2" points="269.13 139.89 217.8 164.06 215.09 158.24 266.41 134.07 269.13 139.89"/>
    </g>
    <g class="cls-4">
      <polygon class="cls-2" points="255.77 111.25 204.45 135.42 201.74 129.6 253.06 105.43 255.77 111.25"/>
    </g>
    <g class="cls-4">
      <polygon class="cls-2" points="267.8 152.14 228.02 170.88 225.31 165.06 265.08 146.32 267.8 152.14"/>
    </g>
    <g class="cls-5">
      <polygon class="cls-9" points="184.49 130.8 175.45 135.06 173.73 131.37 182.77 127.11 184.49 130.8"/>
    </g>
    <g class="cls-6">
      <polygon class="cls-2" points="167.97 211.89 92.75 247.32 89.98 241.37 165.2 205.94 167.97 211.89"/>
    </g>
    <g class="cls-7">
      <polygon class="cls-1" points="191.37 141.52 177.73 147.94 176.94 146.24 190.58 139.82 191.37 141.52"/>
      <polygon class="cls-1" points="194.94 149.17 181.3 155.6 180.15 153.14 193.79 146.71 194.94 149.17"/>
      <polygon class="cls-1" points="192.66 144.28 179.02 150.7 178.8 150.24 192.44 143.82 192.66 144.28"/>
      <polygon class="cls-1" points="196.25 151.98 182.61 158.41 182.4 157.95 196.04 151.52 196.25 151.98"/>
      <polygon class="cls-1" points="196.65 152.84 183.01 159.26 182.8 158.8 196.43 152.38 196.65 152.84"/>
      <polygon class="cls-1" points="192.22 143.35 178.58 149.77 178.09 148.72 191.73 142.29 192.22 143.35"/>
      <polygon class="cls-1" points="193.38 145.84 179.74 152.26 179.25 151.2 192.89 144.78 193.38 145.84"/>
      <polygon class="cls-1" points="198.88 157.62 185.24 164.04 184.44 162.34 198.08 155.91 198.88 157.62"/>
      <polygon class="cls-1" points="202.45 165.27 188.81 171.69 187.66 169.23 201.3 162.81 202.45 165.27"/>
      <polygon class="cls-1" points="200.16 160.37 186.52 166.79 186.31 166.33 199.95 159.91 200.16 160.37"/>
      <polygon class="cls-1" points="199.73 159.44 186.09 165.87 185.6 164.81 199.24 158.39 199.73 159.44"/>
      <polygon class="cls-1" points="200.89 161.93 187.25 168.35 186.76 167.3 200.4 160.87 200.89 161.93"/>
      <polygon class="cls-1" points="195.79 151 182.15 157.42 181.66 156.37 195.3 149.94 195.79 151"/>
      <polygon class="cls-1" points="197.64 154.97 184 161.39 183.51 160.33 197.15 153.91 197.64 154.97"/>
      <polygon class="cls-1" points="203.61 167.77 189.97 174.2 189.76 173.74 203.4 167.31 203.61 167.77"/>
      <polygon class="cls-1" points="204.01 168.63 190.37 175.05 190.16 174.59 203.8 168.17 204.01 168.63"/>
      <polygon class="cls-1" points="206.24 173.4 192.6 179.83 191.81 178.13 205.45 171.7 206.24 173.4"/>
      <polygon class="cls-1" points="209.81 181.06 196.17 187.48 195.02 185.02 208.66 178.59 209.81 181.06"/>
      <polygon class="cls-1" points="207.52 176.16 193.89 182.58 193.67 182.12 207.31 175.7 207.52 176.16"/>
      <polygon class="cls-1" points="207.09 175.23 193.45 181.66 192.96 180.6 206.6 174.17 207.09 175.23"/>
      <polygon class="cls-1" points="208.25 177.72 194.61 184.14 194.12 183.09 207.76 176.66 208.25 177.72"/>
      <polygon class="cls-1" points="203.15 166.79 189.52 173.21 189.02 172.15 202.66 165.73 203.15 166.79"/>
      <polygon class="cls-1" points="205 170.76 191.37 177.18 190.87 176.12 204.51 169.7 205 170.76"/>
      <polygon class="cls-1" points="211.99 185.73 198.35 192.16 197.56 190.46 211.2 184.03 211.99 185.73"/>
      <polygon class="cls-1" points="212.84 187.56 199.2 193.99 198.71 192.93 212.35 186.51 212.84 187.56"/>
      <polygon class="cls-1" points="210.75 183.09 197.12 189.51 196.62 188.45 210.26 182.03 210.75 183.09"/>
    </g>
  </g>
  <g>
    <path class="cls-3" d="M121.86,95.71l51.84,60.22c2.33,2.71,2.04,6.79-.66,9.13l-100.06,86.99c-2.68,2.33-6.74,2.04-9.08-.67L12.07,191.16c-2.32-2.7-2.03-6.78,.66-9.11L112.78,95.06c2.7-2.34,6.75-2.05,9.08,.65Z"/>
    <path class="cls-9" d="M180.01,45.15l51.84,60.22c2.33,2.71,2.04,6.79-.65,9.12l-48.42,42.09c-2.7,2.34-6.75,2.05-9.09-.66l-51.84-60.22c-2.32-2.7-2.03-6.78,.67-9.12l48.42-42.09c2.68-2.33,6.74-2.04,9.07,.66Z"/>
    <path class="cls-2" d="M180.01,45.15l6.39,7.42L18.45,198.58l-6.39-7.42c-2.32-2.7-2.03-6.78,.66-9.11L112.78,95.06c2.7-2.34,6.75-2.05,9.08,.65-2.32-2.7-2.03-6.78,.67-9.12l48.42-42.09c2.68-2.33,6.74-2.04,9.07,.66Z"/>
    <path class="cls-2" d="M231.18,104.6l.67,.78c2.33,2.71,2.04,6.79-.65,9.12l-48.42,42.09c-2.7,2.34-6.75,2.05-9.09-.66,2.33,2.71,2.04,6.79-.66,9.13l-100.06,86.99c-2.68,2.33-6.74,2.04-9.08-.67l-.67-.78L231.18,104.6Z"/>
    <path class="cls-2" d="M43.24,177.03c4.39,5.1,3.83,12.81-1.24,17.22-5.07,4.41-12.74,3.85-17.13-1.25-4.39-5.1-3.83-12.81,1.24-17.22,5.07-4.41,12.74-3.85,17.13,1.25Z"/>
    <path class="cls-3" d="M43.01,195.41c-5.7,4.96-14.36,4.33-19.29-1.4-4.93-5.73-4.31-14.43,1.4-19.39,5.7-4.96,14.36-4.33,19.29,1.4,4.93,5.73,4.31,14.43-1.4,19.39Zm-15.89-18.47c-4.43,3.85-4.91,10.6-1.08,15.05,3.83,4.45,10.55,4.94,14.98,1.09,4.43-3.85,4.91-10.6,1.08-15.05-3.83-4.45-10.55-4.94-14.98-1.09Z"/>
    <g class="cls-5">
      <polygon class="cls-9" points="89.97 124.6 59.41 151.18 56.75 148.09 87.32 121.52 89.97 124.6"/>
    </g>
    <g class="cls-5">
      <polygon class="cls-9" points="107.94 117.94 50.26 168.08 47.61 165 105.28 114.86 107.94 117.94"/>
    </g>
    <g class="cls-5">
      <polygon class="cls-9" points="170.27 60.29 138.27 88.11 133.89 83.02 165.89 55.2 170.27 60.29"/>
    </g>
    <g class="cls-8">
      <polygon class="cls-2" points="53.74 195.79 37.44 209.96 33.26 205.1 49.56 190.93 53.74 195.79"/>
    </g>
    <g class="cls-4">
      <polygon class="cls-2" points="123.07 135.52 57.24 192.75 53.06 187.88 118.88 130.66 123.07 135.52"/>
    </g>
    <g class="cls-8">
      <polygon class="cls-2" points="65.63 199.47 44.34 217.97 40.15 213.11 61.44 194.6 65.63 199.47"/>
    </g>
    <g class="cls-4">
      <polygon class="cls-2" points="129.97 143.53 69.13 196.42 64.94 191.56 125.78 138.67 129.97 143.53"/>
    </g>
    <g class="cls-8">
      <polygon class="cls-2" points="63.39 215.28 51.17 225.9 46.98 221.04 59.2 210.41 63.39 215.28"/>
    </g>
    <g class="cls-4">
      <polygon class="cls-2" points="136.79 151.46 66.89 212.23 62.71 207.37 132.61 146.6 136.79 151.46"/>
    </g>
    <g class="cls-8">
      <polygon class="cls-2" points="85.97 209.57 58.02 233.87 53.84 229 81.78 204.71 85.97 209.57"/>
    </g>
    <g class="cls-4">
      <polygon class="cls-2" points="143.65 159.43 89.47 206.53 85.28 201.66 139.46 154.57 143.65 159.43"/>
    </g>
    <g class="cls-4">
      <polygon class="cls-2" points="191.29 76.21 150.92 111.31 146.74 106.44 187.1 71.35 191.29 76.21"/>
    </g>
    <g class="cls-4">
      <polygon class="cls-2" points="196.66 85.56 159.35 117.99 155.16 113.13 192.47 80.69 196.66 85.56"/>
    </g>
    <g class="cls-4">
      <polygon class="cls-2" points="216.74 108.88 179.43 141.32 175.24 136.46 212.55 104.02 216.74 108.88"/>
    </g>
    <g class="cls-4">
      <polygon class="cls-2" points="206.26 91.07 163.4 128.34 159.21 123.47 202.08 86.21 206.26 91.07"/>
    </g>
    <g class="cls-4">
      <polygon class="cls-2" points="185.67 67.15 142.81 104.42 138.62 99.55 181.49 62.29 185.67 67.15"/>
    </g>
    <g class="cls-4">
      <polygon class="cls-2" points="208.3 103.23 175.07 132.11 170.89 127.25 204.11 98.36 208.3 103.23"/>
    </g>
    <g class="cls-6">
      <polygon class="cls-2" points="128.35 187.96 65.52 242.58 61.24 237.61 124.07 182.99 128.35 187.96"/>
    </g>
    <g class="cls-7">
      <polygon class="cls-1" points="131.87 113.85 120.48 123.76 119.25 122.34 130.64 112.43 131.87 113.85"/>
      <polygon class="cls-1" points="137.37 120.24 125.98 130.15 124.21 128.09 135.6 118.19 137.37 120.24"/>
      <polygon class="cls-1" points="133.85 116.15 122.46 126.06 122.13 125.67 133.52 115.77 133.85 116.15"/>
      <polygon class="cls-1" points="139.39 122.59 128 132.49 127.67 132.11 139.06 122.21 139.39 122.59"/>
      <polygon class="cls-1" points="140 123.31 128.61 133.21 128.28 132.83 139.67 122.92 140 123.31"/>
      <polygon class="cls-1" points="133.18 115.38 121.79 125.28 121.03 124.4 132.42 114.5 133.18 115.38"/>
      <polygon class="cls-1" points="134.97 117.46 123.58 127.36 122.82 126.48 134.21 116.57 134.97 117.46"/>
      <polygon class="cls-1" points="143.44 127.3 132.05 137.2 130.82 135.78 142.21 125.87 143.44 127.3"/>
      <polygon class="cls-1" points="148.94 133.69 137.55 143.59 135.78 141.53 147.17 131.63 148.94 133.69"/>
      <polygon class="cls-1" points="145.42 129.6 134.03 139.5 133.7 139.12 145.09 129.21 145.42 129.6"/>
      <polygon class="cls-1" points="144.75 128.82 133.36 138.73 132.6 137.84 143.99 127.94 144.75 128.82"/>
      <polygon class="cls-1" points="146.54 130.9 135.15 140.8 134.39 139.92 145.78 130.02 146.54 130.9"/>
      <polygon class="cls-1" points="138.68 121.77 127.29 131.67 126.53 130.79 137.92 120.89 138.68 121.77"/>
      <polygon class="cls-1" points="141.53 125.08 130.14 134.99 129.38 134.1 140.77 124.2 141.53 125.08"/>
      <polygon class="cls-1" points="150.74 135.78 139.35 145.68 139.02 145.3 150.41 135.39 150.74 135.78"/>
      <polygon class="cls-1" points="151.35 136.49 139.96 146.4 139.63 146.01 151.02 136.11 151.35 136.49"/>
      <polygon class="cls-1" points="154.79 140.48 143.4 150.39 142.17 148.97 153.57 139.06 154.79 140.48"/>
      <polygon class="cls-1" points="160.29 146.87 148.9 156.78 147.13 154.72 158.52 144.82 160.29 146.87"/>
      <polygon class="cls-1" points="156.77 142.78 145.38 152.69 145.05 152.3 156.44 142.4 156.77 142.78"/>
      <polygon class="cls-1" points="156.1 142.01 144.71 151.91 143.95 151.03 155.34 141.13 156.1 142.01"/>
      <polygon class="cls-1" points="157.89 144.09 146.5 153.99 145.74 153.11 157.13 143.2 157.89 144.09"/>
      <polygon class="cls-1" points="150.03 134.96 138.64 144.86 137.88 143.98 149.27 134.07 150.03 134.96"/>
      <polygon class="cls-1" points="152.88 138.27 141.49 148.17 140.73 147.29 152.12 137.39 152.88 138.27"/>
      <polygon class="cls-1" points="163.65 150.78 152.26 160.69 151.04 159.26 162.43 149.36 163.65 150.78"/>
      <polygon class="cls-1" points="164.97 152.31 153.57 162.21 152.81 161.33 164.21 151.43 164.97 152.31"/>
      <polygon class="cls-1" points="161.75 148.57 150.36 158.47 149.6 157.59 160.99 147.69 161.75 148.57"/>
    </g>
  </g>
</svg>