<svg xmlns="http://www.w3.org/2000/svg" viewBox="0 0 401.49 285.5" xmlns:v="https://vecta.io/nano"><path d="M-5.11 30.85H406.8v257.44H-5.11z" fill="#a48d96"/><path d="M357 285.5h-26.55c-.71-4.4-2.12-11.23-5.11-19.15-3.82-10.13-6.47-12.05-12.26-24-9.1-18.78-4.36-19.58-11.23-28.85-5.03-6.77-9.84-13.78-13.09-20.6-1.29-2.72-3.31-7.04-4.34-13.02-1.29-7.48-.38-13.78.51-17.74 3.8-1.16 12.88-3.37 23.74-.38 8.5 2.34 14.24 6.8 17.13 9.41 5.86 14.81 7.9 27.11 9.23 35.44 1.77 11.11.37 14.2 2.55 26.04 2.34 12.65 5.92 22.24 8.43 28.85 2.67 7.05 6.23 15.21 10.98 24z"/><path d="M265.79 224.92l-.64-63.17c1.46-.63 8.31-3.41 16.34-.51 7.97 2.88 11.46 9.3 12.19 10.73-1.97 10.76-3.25 23.84-2.31 38.63a158.54 158.54 0 0 0 1.66 14.84l-27.24-.52z"/><path d="M-5.11-5.56H406.8v60.83H-5.11z" fill="#192365"/><path d="M399.97 53.71l-5.9 1.82c-29.98 1.43-59.33-.61-89.14-.29-66.16-.46-132.31.38-198.44-.06-21.6.16-43.23-.28-64.82.57-17.53.69-33.05-.29-45.68-2.04-2.17-1-1.53-1.87 5.68-2.48l404.94.29-6.64 2.17z" fill="#221625"/><path d="M91.63 288.29H78.64l-1.18-7.11c2-3.96 1.31-8.15 1.01-12.31l-.64-6.05-.08-3.55a179.67 179.67 0 0 0-.51-9.01c1.38-4.33-3.21-6.42-3.86-10.11-.33-1.87-1.58-3.58-.76-5.63.35-.72.9-1.31 1.29-1.99l-1.29-7.17c-.66-1.55-1.29-3.26-1.86-5.11-1.33-4.35-1.92-8.33-2.15-11.68l-.93-7.42c-.16-2-.36-4.85-.45-8.29-.2-7.23-.37-13.26 1.04-20.47.89-4.52 1.1-4.39 2.03-8.61.88-3.99.22-8.19.85-12.23.31-2.01.65-3.51.04-5.43-.7-2.2-2.25-3.68-3.39-4.55-1.13-1.51-2.02-3.06-1.03-5 .23-.45 1.14-2.55 3.37-3.3 3.02-1.02 5.65 1.36 5.81 1.52 1.51 1.41 1.85 3.18 1.95 3.8.18 3.12-.06 6.31 1.21 9.29 1.16.96 4.1 3.68 4.9 8.08.27 1.49.23 2.83.09 3.88l1.87 5.43c-.31 1.96-.51 4.19-.47 6.65.41 20.66 18.26 43.71 18.99 52.55.07.87.23 2.78-.86 4.51-1.25 1.99-3.08 2.29-4.23 3.31-1.62 1.42-2.57 4.9.45 13.92 1.22 4.23.81 8.54.73 12.84-.04 2.07-.18 3.88-.66 6.3-.87 4.44-1.83 4.73-2.86 9.14-1.07 4.59-.35 5.64-1.68 8.62-1.09 2.43-2.64 4.13-3.77 5.17z" fill="#060306"/><path d="M161.58 288.29H131.6c-.53-1.78-.72-3.25-.8-4.25-.26-3.22.25-6.31 1.11-11.49 1.82-7.27-.77-13.42-1.78-16.49-1.89-5.78-4.73-10.17-7.06-13.12-.92-3.33-2.26-8.45-3.59-14.79-2.61-12.4-1.56-12.16-3.42-17.35-2.35-6.55-4.78-9.47-7.32-18.35-.59-2.05-.93-3.74-1.11-4.72l4.2-3.47c4.69-.12 7.09-.18 8.79.89 2.82 1.77 1.58 5.62 4.87 8.28 1.89 1.54 4 1.85 4.84 1.97 4.82.72 6.61-2.39 10.75-2.26 2.84.09 2.9 1.59 9.44 5.64 7.57 4.7 10.67 4.66 12.54 8.32 1.27 2.49 1.17 5.1.9 6.87-1.65.65-3.9 1.78-5.92 3.83-6.12 6.23-5.39 16.1-3.04 32.61 1.51 10.63 3.61 23.41 6.59 37.88z" fill="#020104"/><path d="M234.53 288.29h-14.99c-2.33-1.2-4.79-2.25-5.83-4.96-1.21-3.16-3.8-4.91-5.56-7.75l-2.81-4.74-2.48-4.26c-.9-1.82-3.63-6.36-11.39-17.93-.65-1.45-1.58-4.06-1.49-7.4.04-1.42.1-3.58 1.31-5.89 1.76-3.34 4.79-4.83 6.04-5.36 8.1-.34 14.18-.82 18.42-1.23 0 0 9.39-.89 16.71-.14 1.08.11 2.1.27 2.15.29a81.57 81.57 0 0 0 6.79 1.84l11.75 8.57c6.91 5.03 10.37 7.54 12.62 12.32.86 1.82 2.12 4.61.98 7.06-.96 2.05-3.37 3.38-7.03 3.96-5 .78-8.55.77-15.39.2-11.56-.97-14.75-1.03-15.39.42-.56 1.28 1.62 2.48 2.65 6.98.49 2.14.67 3.95.75 5.22l3.22 7.6c.45 1.89.64 3.72-1.02 5.19z" fill="#0b0707"/><path d="M131.59 255.32c3.43 5.54 1.65 11.62 1.82 17.5.02.67-.09 1.71-.18 2.8-.4 5.36-1.08 9.69-1.64 12.67H117.6c-.28-.3-.73-.82-1.17-1.52-1.27-1.99-1.57-3.95-2.07-8.73l-.42-4.12c-.23-1.86-.71-4.57-1.87-7.86-1.04-2.86-1.12-5.83-.94-8.8.17-2.79-.31-4.08-1.18-5.69-1.26-2.32-3.17-3.65-3.74-4.09-3.74-2.89-5.76-7.32-7.39-10.92a35.76 35.76 0 0 1-2.12-6.07c-7.37-27.29-12.23-37.29-15.49-40.57-.55-.56-2.76-2.64-3.02-5.69-.27-3.2 1.72-6 3.45-7.86 2.72 1.36 3.99 3.96 5.31 6.43 1.44 2.69 3.07 5.14 5.66 6.83 2.52 1.64 3.55 4.07 3.11 6.87-.68 4.33.57 7.88 3.6 10.89 1.47 1.46 1.14 3.85 2.74 5.22 3.4 7.64 8.07 14.6 12.26 21.81.73 1.26 2.37 5.57 5.56 10.76 1.81 2.95 7.44 12.14 10.61 11.12.56-.18.92-.64 1.12-.97z" fill="#120c0b"/><path d="M161.58 288.29l-4.02-10.98a41.8 41.8 0 0 1-.76-3.55c-1.89-11.35 2.63-14.56 1.64-23.49-.54-4.86-2.88-12.92-6.2-17.62 0 0-2.24-3.35-2.73-7.97-.32-3.03 2.04-4.15 4.77-4.5 5.29-.68 10.43.72 15.64 1.04 1.05.63 1.81 1.38 2.36 2.23 1.01 1.56.79 3.02 1.05 5.8.11 1.18.34 2.93.84 5.07l2.33 7.66a70.72 70.72 0 0 1 1.96 9.03c.71 4.79.46 6.57 1.13 13.03.53 5.14.78 7.71 1.42 10.21 1.99 7.71 4.8 11.29 3.2 13.12-.8.91-2.24.85-3.08.81-4.89-.19-11.22-.14-19.55.1z" fill="#1c140e"/><path d="M289.96 286.92h-31.65c-1.79-2.72-3.1-5.62-3.18-8.95.31-2.47 1.15-6.06 3.9-7.76 4.11-2.54 7.86 2.01 13.44.54 2.3-.61 3.28-1.81 15.02-17.03 3.15-4.08 4.7-6.09 7.57-6.78 3.54-.85 7.49.18 10.48 3.3.32 1.54.68 3.89.58 6.73-.32 9.71-5.63 16.96-9.42 22.14-1.49 2.04-3.7 4.8-6.74 7.8z" fill="#170e0f"/><path d="M136.52 14.52l-4.92-1.15c.82-.5 1.74-.79 2.61-1.2 1.23-.57 1.36-1.44 2.3-1.84.61-.26 1.56-.45 3.02 0 5.15-2.42 10.57-2.37 16.05-1.8 5.49.24 8.44 2.81 8.26 8.61-.06 2.09.54 4.21.83 6.31l1.07 1.34c.43 1.43.52 2.81-.45 4.08-1.68.1-4.37.03-7.12-1.29-5.46-2.62-5.92-7.65-10.97-10.86-1.96-1.25-5.26-2.62-10.67-2.21z" fill="#29121c"/><path d="M100.66 213.35c-3.72-5.4-9.62-9.87-7.19-17.84.6-1.97-1.15-3.27-2.68-4.37-5.1-3.65-7.54-8.96-9.16-14.77 2.28-3.35 1.39-7.58 3.09-11.1 2.65-2.11 6.71-4.6 12.06-5.54 3.29-.58 11.41-2 15.57 2.97 2.28 2.73 2.38 6.21 2.29 7.99-2.17-.91-3.31-.67-3.96-.24-2.23 1.49-.28 6.47-1.65 15.63a61.14 61.14 0 0 1-.41 2.36c3.36 2.71 4.5 5.26 4.93 7.08.69 2.95.1 3.9.93 7.7 1.13 5.15 3.28 6.42 2.69 8.07-.63 1.76-4.11 3.23-16.51 2.07z" fill="#150d09"/><path d="M68.5 122.41a.9.9 0 0 1 .73-.14c3.36-2.1 6.59-1.48 7.78 2.09 1.22 3.68 3.98 5.54 6.45 7.9.54.94.65 1.93.37 2.97-1.34 2.25-3.41 3.6-5.71 4.68a2.52 2.52 0 0 1-1.42-.32c-3.35-5.41-4.33-5.65-8.91-2.18-.47.6-.76.52-.87-.24-2.66-3.09-2.04-6.32-.4-9.59-.71-2.26-.57-4.18 1.99-5.18z" fill="#170e38"/><path d="M76.69 139.6l.84-.17a3.8 3.8 0 0 1 1.21.51c1.78 1.68 3.6 3.3 5.8 4.43 1.03.71 1.84 1.55 1.78 2.92-.09.74-.4 1.37-.89 1.91-.63.63-1.49.94-2.13 1.57-.4.53-.86.98-1.46 1.29a2.89 2.89 0 0 1-1.3.17l-1.22-.52c-1.63-.52-1.21-2.14-1.74-3.25-2.67-2.71-1.62-5.8-.9-8.85z" fill="#915739"/><path d="M84.72 165.27c-.43-1.5-1.58-1.77-2.93-1.71l.86-4.17.92-1.88 9.4-2.12c1.18 1.02 1.51 2 1.62 2.54.6 3.01-2.67 6.38-6.03 7.28-1.58.42-2.97.25-3.83.06z" fill="#412015"/><path d="M79.7 151.37a8.89 8.89 0 0 1 1.53 1.61c.92 1.24 1.34 2.48 1.53 3.29-2.19.26-3.58 1.13-4.68 1.43-1 .27-2.31 1.41-2.97-.07-.13-.29-.16-.55-.11-.77.16-.82 1.36-1.36 1.94-1.7.87-.49 1.96-1.5 2.76-3.79z" fill="#61342a"/><path d="M82.76 156.26l-2.43-4.8 1.5-.37c3.56.99 5.62 3.75 7.68 6.52-2.04 3.08-3.99 1.27-5.95-.11l-.8-1.24z" fill="#c57d48"/><path d="M82.65 159.39c4.02 2.27-.41 2.81-.86 4.17-1.24.99-2.58 2.65-3.8.12-1.02-2.13 1.23-1.57 2.06-2.18l2.59-2.11z" fill="#744536"/><path d="M79.7 151.37c-1.21 1.22-2.79 1.43-3.62.78-.44-.35-.67-.94-.66-1.48.02-1 .89-1.95 2.16-2.21l2.11 2.91z" fill="#3b1d1d"/><path d="M154.96 203.67c-3.26-1.62-4.51-3.32-6.35-4.72-2.88-2.17-5.91-2.57-9.09-2.99-7.63-1-9.67 2.43-13.15.51-3.79-2.1-2.63-6.85-6.88-9.36-2.47-1.45-5.28-1.24-7.15-.88-.66-3.5 2.57-4.48 4.21-6.5 6.36-1.52 13.29-2.91 20.75-4a235.62 235.62 0 0 1 29.23-2.43c2.95.43 7.49 1.46 12.34 4.25 3.5 2.01 6.07 4.29 7.81 6.12.97 1.31 2.13 2.58.82 4.32-5.24 1.93-9.24 1.98-12 1.63-1.86-.24-4.55-.84-5.72.56-.6.72-.28 1.35-.76 3.6-.49 2.27-.76 3.56-1.67 4.41-1.96 1.83-4.81-.28-6.61 1.44-1.55 1.49-.36 3.97-1.84 4.84-.43.25-1.32.51-3.96-.81z" fill="#070504"/><path d="M98.51 214.06c3.59-4.02 8.29-5.34 13.39-5.67 5.84 6.83 5.9 15.81 8.51 23.82 1.69 5.19 2.43 10.69 6.14 15l4.58 9.09c1.21 4.82 1.6 9.69.69 14.6-.54 2.93-1.77 5.12-5.34 3.77l-1.91-8.23-3.61-11.26c-7.55-13.67-17.49-26.01-22.44-41.13z" fill="#4e301a"/><path d="M169.55 222.34c-4.47 1.01-8.95-.46-13.41.05-2.6.29-6.35-1.05-3.97 4.72.77 1.85.69 3.74 1.88 5.31.68.9 1.46 1.3 1.76 1.5 3.84 2.56 4.69 13.02 3.11 22.31-.37 2.16-1.05 5.32-2.4 9.04a29.59 29.59 0 0 1-1.68-5.34c-.95-4.46-.68-8.32-.26-10.98.03-1.72-.05-8.55-5.03-12.8-.95-.81-1.95-1.42-2.92-1.87a7.75 7.75 0 0 0 2.32-.36c.55-.17 1.91-.6 1.9-1.08-.01-.43-1.2-.33-3.03-1.23-1.59-.78-4.15-.81-4.31-2.84-.19-2.42 2.95-1.36 4.25-2.84-1.6-.41-8.59-2.31-10.91-6.84-.85-1.66-.64-2.85-.58-3.12.38-1.85 2.2-3.28 3.89-3.44.46-.04.92.21 1.7.62 2.92 1.56 5.02 5.19 9.68 3.65-2.65-3.03-7.24-3.42-8.97-7.52 3.46 1.75 8.41 3.69 14.57 4.42a43.99 43.99 0 0 0 6.82.26l3.16 3.26 3.17 3-.73 2.11zm-10.99-16.97c-2.62-3.68-6.09-6.55-9.27-9.69-2.18-2.16-5-2.31-7.89-2.33-3.85-.03-7.67-.52-10.88-2.85-1.64-1.19-2.99-2.92-2.35-5.1.66-2.26 2.84-2.06 4.61-1.97 9.35.51 18.71 1.03 24.26 10.46.55.94 1.72 1.53 2.6 2.28-1.06 2.2 1.43 3.48 1.39 5.42.15 1.04.08 2.04-.44 2.97-.32.44-.74.72-1.26.85a9.67 9.67 0 0 1-.76-.04z" fill="#120d09"/><path d="M125.53 244.99c-4.64-3.23-6.98-8-7.73-13.66-1.02-7.72-2.24-15.37-5.26-22.55l3.35 3.15c.23-3.34-2.03-5.67-2.24-8.6.38-.32.42-1.06 1.1-1.01 1.79 5.42 5.08 10.46 3.47 16.72-.18.71.25 1.81.73 2.45 5.06 6.93 4.24 15.71 6.57 23.49z" fill="#241610"/><path d="M117.13 182.3l-4.78 3.94c-1.55.21-2.66 1.17-3.73 2.19l-3.67 1.29c-.87-2.52 1.31-3.21 2.3-4.56.8-1.1 2.64-1.93 1.56-3.71-.83-1.38-2.35-1.8-3.89-1.72l-9.87.61c-.56.02-1.15-.49-1.72-.76l13.88-3.02 12.35-2.86-2.43 8.58z" fill="#b46b31"/><path d="M271.02 258.01l-5.49 14.43-5.93-2.01a75.33 75.33 0 0 1-12.86-2.42 75.66 75.66 0 0 1-10.2-3.67c-1.15.27-2.94.55-5.03.21-3.8-.63-6.31-2.94-7.21-3.73-2.8-2.46-8.07-6.01-19.01-10.92 1.47-2 2.48-.8 3.43-.5 10.12 3.21 20.53 5.52 30.21 10.13 7.52 3.57 15.43.81 23.13.4 3.08-.16 3.82-2.82 2.41-5.67-1.93-3.89-4.37-7.2-7.63-9.79-2.22-1.76-3.15-1.9-5.01-3.1-2.87-1.85-6.65-5.17-9.93-11.61-5.04-4.99-8.74-11.03-13.48-16.23l-6.2-6.65c-1.07-2.57-3.4-7.12-8.15-10.97-8.09-6.57-17.32-6.34-19.8-6.2-.62-.08-1.42-.27-2.25-.69-2.41-1.24-3.33-3.57-3.58-4.28 1.37-1.19 12.35-10.45 21.57-6.84 2.34.92 4.12 2.48 5.57 3.77 6.85 6.1 5.14 10.34 9.18 13.47 6.87 5.31 22.12.98 32.52.99 1.07 0 3.49.03 5.2 1.67 1.16 1.11 1.88 2.85 1.76 4.54-.24 3.25-3.29 3.77-4.34 6.3-1.6 3.85 4.72 9.44 12.99 18.72a225.45 225.45 0 0 1 9.64 11.57c1.13 1.37 1.63 2.68 1.42 3.88-.29 1.65-1.83 2.64-2.32 2.98-2.14 1.45-5.42 4.68-10.6 12.24z" fill="#030202"/><path d="M114.54 59.39c-.27-2.33-.1-4.59 1.09-6.69a42.77 42.77 0 0 1 6.02-1.63l4.03-.57a8.89 8.89 0 0 0 .26 2.06 7.96 7.96 0 0 0 .48 1.43c-.76 1.4-2.1 3.47-4.34 5.4-1.74 1.49-3.45 2.41-4.73 2.97l-2.81-2.99z" fill="#491836"/><path d="M124.82 53.23s.59-.6.43-1.36c-.13-.62-.69-1.09-1.37-1.16 2.48-2.17 4.88-3.04 6.3-3.43 1.6-.44 3.63-1.02 5.41.04 2.89 1.72 2.03 3.36-.11 4.96-3.6-.23-7.05 1.28-10.67.94z" fill="#6d2d66"/><path d="M327.24 167.43l-3.75-1.02c-4.87-5-11.17-5.87-17.67-5.97-6.8-.1-13.67-.59-20.38.15-7.31.81-14.57 1.87-21.94 1.81a164.47 164.47 0 0 1-2.57 4.97c-5.01 9.33-6.62 10.25-7.79 10.6-.99.29-3.24.63-6.76-1.64a40.48 40.48 0 0 0 3-10.93 40.94 40.94 0 0 0 .32-4.87l2.84-3.82 3.18-.52c2.04-.31 10.82-1.6 23.65-1.81 17.63-.29 38.49 1.54 41.46 1.81 4.65 1.76 7.51 6.76 6.41 11.24z" fill="#1b1029"/><path d="M241.37 180.25c-2.25.62-7.85 2.23-10.97.25-6.81-4.31-5.65-23.37 3.13-26.99 4-1.65 8.52.36 10.65 1.5l1.3 3.29c.39.8 1.06 1.81 2.17 2.17 1 .32 1.64-.11 2.05.05.97.38.91 4.2-2.56 17.31-1.34.77-3.29 1.73-5.78 2.41z" fill="#c17533"/><path d="M283.49 34.56a53.52 53.52 0 0 1 4.39 6.55c3.12 5.48 4.8 10.67 5.74 14.77 1.56 2.84 1.24 6.11-.64 7.98-1.5 1.5-3.5 1.61-4.13 1.62-1.77-1.62-3.07-3.45-6.11-1.22-3.02 2.23-8.58-2.2-11.2-4.87-2.73-2.78-3.31-5.13-4.36-4.92-1.74.35-.5 6.79-3.37 8.25-1.96.99-5.72-.38-6.93-2.88-2.23-4.61 5.68-9.71 3.48-15.91-.58-1.62-1.59-3.19-1.24-5.37.29-1.77 2.01-2.8 2.23-2.93 2.31-1.34 5.17-.17 6.95.57 4.3 1.77 4.85 4.28 7.06 4.05 1.69-.18 3.22-1.99 6.19-5.62l1.94-.09z" fill="#211110"/><path d="M260.56 32.77c-1.07.08-1.57.89-2.12 1.64-.7 1.76-.85 3.95-3.38 4.24-1.31.02-2.32-.63-3.26-1.45l-.31-.66c1.74-3.32 2.59-7.68 7.93-6.86l1.03 1c.65.56.65 1.15.07 1.76l.03.34z" fill="#b253b7"/><path d="M136.52 14.52c2.32-1.32 4.65-.24 6.98-.03 1.9 2.98 3.8 5.96 4.33 9.57-.86 1-1.73 1.98-3.07 2.34-2.7-.1-5.39 1.28-8.11.09-.74-.5-1.15-1.18-1.15-2.09-3.46-3.68-.68-6.72 1.01-9.88z" fill="#c76a60"/><path d="M135.51 24.4l1.27.77c.65 1.1 2.07 1.93 1.25 3.55-1.26 1.5-2.72 1.71-4.36.65l-2.07-1.87c.84-1.62 1.83-3.05 3.92-3.11z" fill="#2b1115"/><path d="M147.64 23.29l-7.52-3.73c2.15-1.28 3.88-2.58 3.38-5.07 3.88-1.79 7.82-3.01 12.01-.96 1.37 1.31 1.06 2.96.95 4.58-2.72 2.1-4.51 5.78-8.81 5.18z" fill="#d47a47"/><path d="M155.48 18.69l.03-5.15c3.64 2.7 1.91 7.26 3.68 10.71 1.23 2.4 2.15 4.35 5.14 4.27.39-.46.83-.52 1.33-.19.39 4.11-3.32 4.59-5.6 6.35-5.08.25-5.84-3.42-6.51-7.18-1.39-3.39-.86-6.36 1.94-8.82z" fill="#502813"/><path d="M113.64 169.21c-1.94-5.57-6-7.38-11.63-6.93-2.15.17-4.73.96-6.35-1.54-.58-4.76 4.36-5.37 6.33-8.23.52-.76 1.8-1.22 2.33-2.27 1.24-1.94 3.08-3.17 5.01-4.31 8.69-2.75 17.3-5.71 25.43-9.87 2.45-1.25 4.1.1 5.86 1.38 1.33.65 2.89.91 3.82 2.23 1.07 1.76.68 3.91-.06 5.28-.5.92-.9 1.85-1.23 2.78-.75 2.15-1.06 4.1-1.09 8.13-.05 6.5-.07 9.75 1.56 11.6.74.84 2.02 1.88 2.04 3.46 0 .65-.23 1.36-.82 2.14-2.62 1.92-4.91 1.02-7.12-.8-3.57-2.94-7.28-3.79-11.07-.44-3.18 2.8-6.5.63-9.78.42-1.86-.18-3.13-1-3.24-3.03z" fill="#050303"/><path d="M115.35 170.21c.82.19 1.51.29 1.96.34 1.45.51 2.41 1.23 1.2 2.86-2.65 5.14-5 6.06-10.99 5.08-4.77-.78-9.44 1.04-14.2 1.11.15-2.99 2.62-.93 3.86-1.73 1.77-1.14 4.27-.19 6.52-1.98-3.78-1.48-7.89-.53-11.83-2.82 3.46-1.61 6.49-.24 9.32-1.06-1.33-1.96-4.13-.82-5.9-2.87 3.59-1.95 6.87.51 10.13.12.06-2.77-2.92-3.03-4.32-5.54 2.95.91 5.13 2 6.57 2.82 2.38 1.36 4.32 2.89 7.68 3.67z" fill="#d9893c"/><path d="M105.65 151.42c-2.92 3.55-7.49 5.33-9.99 9.32l-6.56 6.63c-.32.33-1.04 1.07-1.88.97-.52-.06-.98-.43-1.21-.85-.65-1.2.52-2.94.85-3.39 1.13-1.54 2.09-1.34 4.3-3.21 1.45-1.24 2.18-1.85 2.13-2.66-.09-1.53-2.81-2.04-3.01-4.01-.05-.56.11-1.03.25-1.32.1-.2 2.35-4.63 7.33-5.01 4.75-.37 7.61 3.28 7.8 3.54z" fill="#90522c"/><path d="M79.92 108.44l2.7-2.97c.99-1.17 2.59-2.83 4.9-4.28 3.51-2.21 6.89-2.85 18.11-3.98l10.48-.96c.48 1.49.68 2.86.61 4.08 0 0-.17 1.62-1.03 3.2-2.5 4.6-13.36 12.48-18.51 19.19-1.73 2.26-3.88 5.77-5.24 10.98l-8.46-.66c-4.83-1.23-6.78-3.25-7.64-4.96-.78-1.55-.78-3.2-2.32-4.44-1.07-.87-2.48-1.3-4.3-1.35l1.43-1.88c1.11-2.64 1.37-5.92 4.98-6.71l4.28-5.24z" fill="#0f0917"/><path d="M84.65 137.44l-2.21-2.15.29-2.84c2.86 1.39 5.94.05 8.86.75l2.2.06c.53 1.78.07 2.78-.12 3.13-1.12 2.02-4.87 2.8-9.02 1.06z" fill="#bb6e91"/><path d="M97.66 150.38l-.14 1.26c-3.98 1.94-9.62-.19-11.77-4.44l-2.26-1.71c-.45-.74-.52-1.5-.1-2.29 1.41-1.28 2.97-.63 4.5-.34 2.15.66 4.41.81 6.55 1.54 2.09 1.44 1.17 4.5 3.22 5.97z" fill="#cf854c"/><path d="M85.75 147.21c3.94 1.42 7.03 5.12 11.77 4.44.45.81 1.39 1.55.81 2.59-.87 1.54-1.99.44-2.9.04-1.5-.66-3.01-1.13-4.66-1-4.03.76-5.17-1.94-6.01-5l1-1.06z" fill="#491c0c"/><path d="M84.74 148.27l6.01 5c.39 1.2 2.83 1.3 1.78 3.28l-1.84-.17c-4.29-.76-6.77-3.79-8.98-7.16.19-2.93 2.17-.14 3.03-.95z" fill="#c67f42"/><path d="M83.68 143.36l-.19 2.14c-.91-.31-2.17-.87-3.47-1.87-1.83-1.42-2.83-3.04-3.34-4.03.74-.47 1.84-1.2 3.1-2.23 1.71-1.4 1.99-1.93 2.64-2.08 1.11-.26 2.97.65 6.24 5.99l2.05 1.31c-2.13 2.19-4.83-.71-7.04.77z" fill="#c17065"/><path d="M81.72 149.22l8.98 7.16-1.18 1.23c-4.29-.13-5.33-4.09-7.68-6.52-.27-.61-.66-1.21-.12-1.87z" fill="#53230f"/><path d="M118.51 173.41c.62-1.38-.46-2.05-1.2-2.86 3.71 1 6.96.61 10.03-2.15 3.76-3.39 7.46-1.22 10.7 1.15 2.03 1.49 3.82 3.12 6.54 2.82.73-.86.98-1.61.93-2.26-.11-1.26-1.3-1.75-2.46-3-1.42-1.53-2.71-4.11-2.35-6.55.25-1.7 1.42-4.01 3.48-4.8 3.44-1.3 5.96 2.95 10.77 1.94 2.03-.43 2.33-1.36 3.84-1.23 2.52.22 4.74 2.51 6.08 6.3.3 1.41-2.86 3.9 1.32 4.07 1.98.44 2.94 1.72 3.07 3.69-.4 1.42-.28 3.11-1.98 3.86-2.29 3.74-5.81 4.21-9.81 4.02-8.89-.44-17.8.42-26.72-.84-5.01-.71-9.74 1.23-13.62 4.72 1-2.88 1.59-5.82 1.38-8.89z" fill="#120d09"/><path d="M167.28 174.4c-.32-1.11-1.45-2.29.31-3.19 2.57-.45 4.41-3.49 7.5-2.14 3.3 3.22 5.94 7.31 11.13 8 1.12.15 1.82 1.31 2.12 2.49.04 1.57.21 3.15-.43 4.67-.75.78-1.56.9-2.44.22l-7.65-5.17c-1.1-.72-2.6-1.69-3.63-1-1.4.94-.63 2.66-.2 4.07.23.76.4 1.54.87 3.4-5.02-2.96-4.65-8.29-7.59-11.33z" fill="#b26c32"/><path d="M185.47 184.44l2-.81c1.16-.87 1.49-.14 1.69.87l1.5 2.82c.3.41.3.82-.01 1.23-.46.17-.9.14-1.32-.1l-1.8-1.16-2.05-2.84z" fill="#844f30"/><path d="M273.51 231.34c4.13-1.37 7.25-.66 8.92 3.87.67 1.81.72 3.11-.98 4.2l-6.01 2.27c-1.55.48-3.29 1.11-4.64-.4s-1.53-3.31-.47-5.05c1.01-1.66 1.2-3.86 3.18-4.89z" fill="#0f0a09"/><path d="M189.15 184.5l-1.69-.87c-.44-.99-2.37-1.99.02-2.97 2.8-.35 4.64.67 5.16 3.59l-.26.34-3.23-.1z" fill="#0e0907"/><path d="M134.32 51.49c1.71-.99 2.43-2.29 1.28-4.16-.66-2.94-2.65-5.61-1.83-8.86 1.34-1.35.24-3.62 1.84-4.87 1.15-.66 2.38-.69 3.64-.51 2.01.39 3.34 1.56 3.01 3.65-.26 1.64.84 2.31 1.54 3.31-.61 3.02-2.71 5.58-2.73 8.79.21 3.52 3.09 6.36 2.36 10.22-.36 1.91-.35 3.57-2.75 3.77-1.99-.93-1.55-3.46-3.07-4.69-1.05-1.83-2.29-3.54-3.46-5.29-.11-.48-.04-.93.19-1.36z" fill="#56251c"/><path d="M135.64 34.38c-.12 1.59.16 3.37-1.88 4.08l-.1-9.09 3.87-.88c.43-.39.88-.4 1.33-.03.99 3.09-.82 4.67-3.22 5.92z" fill="#854230"/><path d="M112.56 69.61c3.67-3.02 0-6.82 1.08-10.12a5.53 5.53 0 0 0 .9-.11l2.96 2.02c2.33.89 2.21 2.95 2.34 4.9-.33 1.57-.63 3.15-.79 4.75-.18 1.8-.91 3.09-3.04 2.86-1.3-.33-1.95-1.46-2.8-2.33-.41-.59-.6-1.26-.66-1.97z" fill="#9d4a71"/><path d="M134.32 51.49l.45 1.06c-1.04 5.24-4.85 7.26-9.58 8.2-.8-.08-1.46-.41-1.98-1.03-.96-2.03 1.11-3.32 1.23-5.09l.37-1.4c2.97-1.69 5.81-4.06 9.5-1.74z" fill="#dc7b9e"/><path d="M124.45 54.63l-.78 4.77c1.16 1.72-.35 3.2-.45 4.8-.21 1.29-.52 2.51-1.88 3.1-.79.25-1.55.17-2.28-.23l-.54-.58-1.02-5.09c1.36-3.23 5.52-3.6 6.94-6.78z" fill="#d06ea6"/><path d="M319.73 72.57c2.36 1.56 4.98-1.38 7.47.62 3.24 2.62 4.73 8.72 2.71 12.35-.54.98-.88 2.07-1.31 3.11 3.99 3.06 3.72 6.85 1.9 10.92a57.83 57.83 0 0 1-3.66 1.7c-11.53 4.88-22.37 5.13-29.56 4.51-8.38-.72-15.61-1.34-20.44-7.02-1.96-2.3-2.92-4.72-3.42-6.4 1.1-1.87 1.47-4.25 3.67-5.37l6.31-5.79c5.31-4.1 10.3-6.1 13.54-7.12 7.12-2.24 13.26-2.09 17.09-1.97 2.36.08 4.33.28 5.71.46z" fill="#120806"/><path d="M297.46 75.36c-6.57.29-9.37-.09-16.1.77-7.68.98-9.15 2.13-14.68 2.65-4.3.41-10.54.39-18.38-1.79-.78-1.76-.6-2.94-.42-3.56.93-3.08 5.89-5.17 12.32-4.32 5.8 3.2 12.14 3 18.46 2.83 3.45-.09 5.49-2.76 8.06-4.48l27.47-.01c-.16 3.12 3.39 1.97 4.38 3.79l1.15 1.32-.2-.01c-9.31 1.94-16.87 2.58-22.07 2.8z" fill="#985f2b"/><path d="M218.43 167.24l.3-2.1c2.2.64 4.17.02 6.07-1.07.92-.52 1.98-1.59 2.66.3-2.98 1.04-4.97 5.2-9.03 2.87z" fill="#ae9681"/><path d="M192.22 173.55c-.61 1.28-.14 1.87 1.21 1.89.36 1.25 3.05.2 2.4 2.24-.49 1.54-1.88.6-2.91.55-1.09-.17-2.58-1.13-2.42 1.2l3.94 2.89c.76.53 1.35 1.26.84 2.04-.77 1.16-1.71-.37-2.62-.11l-5.16-3.6c-.4-1.4-1.5-2.43-2.72-2.61-4.91-.73-7.43-4.47-10.35-7.75.02-2.1 1.38-2.59 3.13-2.6 3.76 2.31 6.91 6.2 12.23 4.46.76-.25 1.83.55 2.44 1.4z" fill="#cb7f5b"/><path d="M190.49 179.43c-1.28-.91-2.81-1.54-3.57-3.3 2.3.21 4.28.77 6 2.09l-2.42 1.2z" fill="#481a0b"/><path d="M308.31 126.41l2.21 3.97c.63 2.77 1.77 6.94 3.93 11.72 3.68 8.14 7.75 12.36 6.38 14.09-.77.98-2.41.06-9.21-.73h0c-3.09-.17-5.36 0-6.13.03-3.23.17-3.6-.54-7.69-.6-2.99-.05-4.98.4-6.48.48-3.53.17-8.7.15-15.19-.89-6.21.34-10.33.95-13.18 1.54-.82.17-2.22.48-3.22-.28-1.57-1.21-1.19-4.37-.85-6.82.44-3.19.97-3.32 1.08-5.76.14-3.11-.72-2.83-.3-4.6.52-2.18 1.94-3.08 3.32-7.2 1.8-5.4 8.53-9.84 10.13-10.86 2.01-1.28 4.75-3.01 8.77-4.3 4.86-1.57 8.72-1.58 15.78-1.6 2.44 0 2.87.09 3.31.26 3.01 1.16 3.67 4.55 7.35 11.56z" fill="#100b07"/><path d="M235.4 161.63c-1.04-2.43-2.38-4.01-5.53-3.56-6.07.88-10-4.57-15.47-5.63-1.18 1.3-2.51.51-3.8.26-.44-.19-.82-.46-1.16-.8-.63-.78-1.15-1.6-1.1-2.67.04-.51.21-.99.47-1.43a3.39 3.39 0 0 1 1.76-1.31c1.12-.4 2.22.12 3.56.12-.28-1.49-1.95-2.13-2.07-3.58-.61-1.49-.59-3.02-.34-4.57.47-.91.78-1.93 1.79-2.43 3.25.81 5.44-.95 7.44-3.14 3.78 1.81 5.89 4.96 7.08 8.84.09 2.87-.39 5.97 3.04 7.5 1.16 1.46 3.31 2.12 3.53 4.34l.82 8.07z" fill="#b0622b"/><path d="M234.58 153.56c-2.07-.12-3.06-1.62-4.04-3.15-.12-.1-1.1-.91-1.07-2.23.02-1.07.7-2.04 1.72-2.5l8.92-.57 3.39 8.49v1.71l-8.91-1.73z" fill="#68351b"/><path d="M140.7 62.54c1.52-3.46 1.38-6.66-1.42-9.49-1.66-1.68-2.19-3.33.39-4.69 2.08-3.46 5.91-3.52 9.16-4.73 1-.15 1.96-.48 2.95-.69 4.27-1.39 8.07-3.73 11.64-6.32 2.52-1.82 5.57-1.97 8.17-3.46 1.45-.83 2.86.16 3.86 1.44l1.04 1.86.63.51c.27 3.71.76 7.46-1.77 10.7a2.6 2.6 0 0 1-1.43.45c-3.04-2.83-6.36-2.44-9.41-.31-3.16 2.21-6.3 4.06-10.3 4.08-1.35 0-2.26 1.29-3.4 1.92-4.14.9-3.2 4.02-2.96 6.83-.49 2.35-2.73 3.83-3.11 6.24-.65 1.3-1.14 2.72-2.16 3.78-1.55 1.6-3.04 1.77-4.21-.48-.39-2.91-.52-5.73 2.34-7.65z" fill="#260f0c"/><path d="M175.45 34.6c-4.19.4-7.89 1.9-11.39 4.29-3.8 2.6-7.8 5.01-12.52 5.68-.46-3 2.74-7.93 6.64-9.32 3.83-1.36 6.82-3.67 9.44-6.61l1-1.13c4.89-1.1 7.26 1.36 6.82 7.08z" fill="#200b3f"/><path d="M183.33 36.66l1.78 3.86a3.92 3.92 0 0 1-1.03 1.04c-2.9 1.33-4.44-1.29-6.56-2.24-.72-.74-.22-1.88-.85-2.65l-.18-.21c2.44-5.34 4.58-.51 6.84.2z" fill="#be599f"/><path d="M256.48 58.43c.83.05 1.68.28 2.47.13 2.23-.4 3.05 4.14 5.38 1.85 1.83-1.8-1.26-3.83-.8-5.99.29-1.38-.55-3.19 1.12-4.02 1.33-.66 2.54.42 3.65 1.06 2.15 1.24 4.19 2.55 5 5.21 1.68 5.52 2.93 4.65 3.65 5.06 3.86 2.24 9.1-2.42 11.15-.5.63.59 1.04 1.88.11 4.95a51.84 51.84 0 0 0-6.9-.07c-2.53.14-4.81.46-6.79.84-7.45-.33-14.8.28-22 2.34-5.75 1.64-9.62 4.43-11.52 2.74-1.91-1.7-.78-6.82 1.75-9.91 2.93-3.57 8.2-4.96 13.71-3.69z" fill="#0d060c"/><path d="M245.53 52.55c1.55-.42 2.05-1.57 2.11-3.02 1.49-.64 2.93-1.5 4.67-.99 1.42.63 2.78 2.02 4.09-.35.69-1.25 1.52-2.64 3.28-2.77l1.71 1.16.23 1.97c.73 3.03.58 5.83-2.05 7.99h-.02c-4.18.76-8.32 1.79-12.57 2.16-1.25.02-2.22-.54-3.03-1.44-.52-.73-.69-1.55-.58-2.43.29-1.16.96-1.96 2.15-2.28z" fill="#874139"/><path d="M291.47 64.27c4.7.93 8.08-2.13 11.87-3.94 6.31-.18 12.42 1.58 18.66 2l-33.29 5.01c-1.08-.24-1.61-1.2-1.4-1.85.14-.44.62-.76 1.18-.85l.17-.04 2.8-.33z" fill="#c77fd8"/><g fill="#563036"><path d="M246.4 57.25c4.32-1.44 8.76-.54 13.14-.7l-3.07 1.88c-3.24 2.73-7.24 1.74-10.94 2.25-.59.39-1.2.47-1.85.18-1.66-3.13 1.98-2.28 2.71-3.61z"/><path d="M259.57,56.54c1.01-2.58,1.94-5.18,2.05-8,1.15,3.14,2.15,6.23-2.05,8Z"/></g><path d="M259.68 45.41c-.12 2.44-1.67 4.44-1.68 7.06 0 2.65-2.45 2.35-3.92 1.09-1.17-1-1.74-2.71-2.57-4.11-2-2.19-.92-4.17.39-6.14 1.73-1.58 1.78-3.96 2.78-5.89l3.76-3.01c.03 3.71 1.72 7.23 1.24 11z" fill="#aa593c"/><path d="M254.68 37.42c.36 2.29 3.89 5.12-1.1 6.5-2.17.65-3.17-.62-3.89-2.37.49-1.68 3.94-2.1 2.06-4.79 1.06-.15 2.07-.09 2.93.66z" fill="#632c45"/><path d="M143.57 40.52l-5.2-1.11c-1.24-2.36 5.37-1.37 1.21-4.54-1.53-1.74-1.2-3.66-.55-5.61.14-.84.64-1.37 1.41-1.66 1.21-.39 2.17.31 3.24.69 1.05.37 2.38.82 2.36-1.16-.47-.99-1.26-1.81-1.32-2.95l2.92-.89c2.24-2.17 3.84-5.44 7.84-4.6.58 2.9-1.14 5.85.18 8.73 1.1 3.57.01 6.47-2.86 8.69-1.62 1.25-2.56 2.9-3.55 4.63-1.79 3.13-3.05 3.01-5.68-.21z" fill="#c36c29"/><path d="M144.72 24.18c1.83-.07 3.33.4 3.86 2.41 1.1.76 1.92 1.64.04 2.33-2.35.86-4.76 1.22-7.05-.28l-1.7-.54c-.26.87-.72.98-1.36.35l-.97.05-.75-3.32c2.78.77 5.29-.67 7.94-.99z" fill="#401c0d"/><path d="M143.57 40.52c1.05.27 2.76 1.81 2.98.8 1.31-5.86 9.31-7.21 9.12-13.91.86 2.27.59 5.3 3.95 5.87-.68 2.87-3.67 3.54-5.34 5.52-1.79 2.13-3.16 4.53-5 6.59-3.06 1.43-6.22 2.56-9.61 2.95-.93-.8-2.87-.86-2.63-2.49.26-1.77 2.69-.77 3.53-2.17-.01-1.93-2.29-.66-2.85-1.98 1.84-.97 4.23.72 5.84-1.19z" fill="#a75b21"/><path d="M149.28 45.41c2.04-5.24 5.16-9.55 10.34-12.11l5.79-4.41 2.22-.23c1.19 2.35.47 3.66-1.95 4.8-5.52 2.61-11.29 5.05-14.14 11.12l-2.26.83z" fill="#29121c"/><path d="M177.61 168.39c-1.32.21-2.37.88-3.2 1.91l-6.82.92c.04-.73-.03-1.75-.65-2.63-.82-1.18-1.61-1.26-2.63-2.13-2.43-2.08-.99-4.91-3.47-6.98-.37-.31-1.55-1.29-2.82-1.05-.64.12-1.22.53-3.45 3.57-1.54 2.1-1.83 2.67-2.47 2.7-.27.02-1.01.04-2.73-2.53-2.3-3.42-2.73-4.32-3.72-4.48-.9-.15-1.65.43-1.81.53-1.71 1.14-1.04 4.65-.27 6.71 1.36 3.64 4.04 4.98 3.48 6.33-.31.75-1.43 1.02-2.46 1.11-3.51-7.47-10.74-8.89-17.99-11.16 4.22-5.39 6.82-6.43 8.5-5.96 1.9.54 3.2 3.22 4.27 2.78.61-.25.86-1.38.72-1.69-2.64-6.11 1.98-10.55 3.51-15.68-.67-1.96-1.68-3-3.69-1.39-2.25-1.91-4.12-1.59-6.94-.34-7.49 3.31-15.02 6.67-23.08 8.51l-13.8-9.64c-2.08-.69-1.45-2.91-2.38-4.25l-2.11-.35c-.57-.88-1.82-3.11-1.45-5.88a7.49 7.49 0 0 1 .5-1.86c4.84-2.1 5.94-5.61 4.26-10.46-.87-2.5-.75-4.73.21-6.49 1.23-2.26 3.77-3.14 5.68-3.75 6.03-1.92 9.14.61 12.02-1.47 1.19-.86 2.56-2.65 2.76-6.88-.41-.78-.48-1.4-.42-1.9.35-2.7 5.07-4.87 11.75-5.42a2.47 2.47 0 0 1 1.08.18c1.59.65 2.09 2.72 2.34 3.46 1.5 4.44 8.74 3.04 11.01 7.71 1.51 3.11.42 5.82.17 9.7-.61 9.46 7.1 11.16 19.72 31.68 5.45 8.86 9.84 18.07 14.77 20.3.53.24 3.09 1.28 3.26 3.09.11 1.24-.54 2.48-1.66 3.19z" fill="#0c0806"/><path d="M109.75 146.58l-4.09 4.84-6.87-2.87c3.24-2.96 6.68-4.83 10.96-1.97z" fill="#582d1a"/><path d="M109.75 146.58l-10.96 1.97-1.12 1.84c-2.84-.75-5.05-2-5.05-3.31 0-.31.12-1.33 4.8-3.43 2.15-.96 5.06-2.06 8.68-2.87 2.31 1.75 5.51.68 7.83 2.43l-.27 1.22-3.89 2.14z" fill="#a6622f"/><path d="M118.56 93.76c-1.13.73-2.75.9-2.99 2.64l-5.36 2.29c-9.08 3.63-9.03 2.39-13.44 4.39-.67.3-2.27 1.68-3.68.74-4.06-2.67-7.18-.18-10.46 1.65.6-4.17 4.41-6.42 6.02-9.98-.14-1.64 1.1-2.21 2.23-2.86 2.13-3.03 4.09-3.87 5.5-4.07 1.52-.21 1.86.41 4.18.12 1.97-.24 3.09-.79 4.31-.22.43.2.82.58 1.16 1.24l9.83.24a2.58 2.58 0 0 1 2.6 1.02 2.56 2.56 0 0 1 .1 2.81z" fill="#1c1149"/><path d="M113.83 70.54a5.12 5.12 0 0 1 1.2.79c1.22 1.09 1.57 2.49 1.68 3.08a36.54 36.54 0 0 1 1.24 7.69c.19 3.57-.16 6.63-.6 8.96-.1.07-1.78 1.24-3.71.45-1.3-.53-2.21-1.74-2.37-3.15-1.33-4.9 1.71-9.15 2.08-13.8-.75-1.45-1.04-2.84.48-4.02z" fill="#c87652"/><path d="M111.27 88.36c.93 2.72 3.55 1.38 5.28 2.19.23 2.97-2.43 2.33-3.85 2.77-3.15.98-6.44 1.56-9.71 2.12-1.03.18-2.55.5-3.01-.97-.47-1.52 1.07-1.85 1.99-2.42 1.12-.7 2.33-1.27 3.5-1.9.65-1.49 1.83-1.97 3.37-1.79.82.58 1.63.74 2.43-.02z" fill="#ca78d7"/><path d="M95.68 136.37c8.5 3.01 14.85-2.63 21.89-5.47.64.68 1.47 1.77 1.31 2.96-.32 2.4-4.41 3.4-10.65 5.82-2.51.97-6.26 2.52-10.78 4.78-4.07-.96-6.48-1.98-7.79-2.63-.68-.33-1.52-.79-1.51-1.39.02-.82 1.64-1.35 1.8-1.4l5.74-2.67z" fill="#ca6b8e"/><path d="M95.68 136.37l-1.5 1.91a10.79 10.79 0 0 1-3.37.7c-2.92.13-5.15-.95-6.17-1.55 2.52-2.44 7.31.37 9.04-3.9 1.87.1 2.77.87 1.99 2.83z" fill="#6f364a"/><path d="M86.55 138.51c2.02-1.77 4.13-1.51 6.28-.28-.35 1.28-1.64 1.44-2.52 2.09l-1.71.19c-1.22-.12-2.05-.63-2.05-2z" fill="#430d15"/><path d="M97.5 143.57l2.31-.45a.63.63 0 0 1 .8.4c-.32 5.46-4.29.67-6.03 2.14-2.24-.44-4.78.61-6.7-1.36.41-2.5 2.38-.97 3.6-1.37 2.09-.68 3.91 1.35 6.03.64z" fill="#551c09"/><path d="M97.5 143.57c-3.11 1.52-6.58-1.73-9.62.73l-4.2-.94c2.14-1.68 4.65-.66 6.97-.97 2.33.13 4.66.26 6.85 1.18z" fill="#a6622f"/><path d="M125.82 59.39c2.61-2.78 5.47-5.22 8.95-6.85 2.28.51 3.56 2.25 4.9 3.93q.13 6.61-5.75 8.3c-.73.3-1.43.68-2.19.89-.79.12-1.54.02-2.24-.35-1.35-.82-1.4-2.49-2.33-3.58-.54-.72-1.27-1.35-1.34-2.34z" fill="#d8843b"/><path d="M132.62 63.49c3.49-1.2 7.13-2.24 7.05-7.02 1.51 1.82.72 4.04 1.03 6.06l-1.2 7.83c.19.9.85 4.55-1.31 8.17-2.89 4.84-8.33 5.41-8.92 5.47l-4.91-1.49c.34-1.38.73-2.8 1.21-4.26 1.9-5.9 4.48-10.81 7.04-14.76z" fill="#894b20"/><path d="M138.5 28.44l1.36-.35-.29 6.78-3.93-.49 2.86-5.94z" fill="#cf7154"/><path d="M115.63 74.5l.03-1.88c3.86-.69.82-4.6 2.86-6.13l.09.27c3.99 3.13 2.55 7.24 2.01 11.18-4.16 2.49-3.26-2.39-4.99-3.44z" fill="#9a4f3e"/><path d="M125.82 59.39l2.76 1.13c-.03 3.96-1.96 5.12-5.58 3.8-.41-.24-.78-.52-1.12-.86-.85-1.99.4-3.06 1.79-4.06l2.16-.01z" fill="#985337"/><path d="M119.61 78.44c-.05-3.92.39-7.88-.99-11.68a3 3 0 0 1 .89-.04c1.6.18 2.66 1.73 3.66 3.42.99 1.69 2.29 4.15 3.52 7.39-.51.13-1.02.35-1.11.73-.23.91 2.09 1.89 1.9 2.65-.09.37-.8.69-2.98.72-.28 0-.56-.01-.84-.02-1.52.74-3.19.31-3.89-.77-.65-1-.23-2.21-.16-2.39z" fill="#bc6a30"/><path d="M120.71 68.48l-.31-1.81c.97-.85 1.22-2.03 1.48-3.21.23.05.45.08.68.08 1.35.26 2.04 1.13 2.26 2.45-.24 2.7-1.33 3.98-4.11 2.5z" fill="#e2876a"/><path d="M310.34 129.33c-1.8-1.47-2.93-2.76-3.58-3.6-.46-.59-.72-.99-.9-1.31-.34-.59-.67-1.36-1.17-2.91-1.03-3.15-3.32-4.68-6.38-4.51-5.61.31-11.2 1-16.8 1.55-2.36.23-3.52 2.4-5.38 3.39-1.69.89-1.12.76-3.66 2.44-3.54 2.34-3.96 2.55-4.66 3.31-1.28 1.4-1.15 2.75-2.33 4.32-1.78 2.38-2.29 5.58-4.89 7.4-1.17-.46-2.65-1.29-3.48-2.82-.73-1.35-.78-2.62-.79-3.09-.08-2.03-.96-5.22-4.5-10.28-.95-1.13-2.27-2.76-3.72-4.81-3.94-5.57-5.91-8.36-6.11-10.99-.42-5.61 4.33-7.72 4.02-14.26-.05-1.08-.32-2.73-1.45-4.71.68-2.25 1.99-4.02 3.98-5.28 7.05-.69 14.12-.91 21.14-2.06 1.15-.19 3.34-.76 4.79.42 2.72 2.2.78 8.65.08 10.77 2.3 4.47 5.72 6.55 10.95 5.83 2.92-.41 5.97-.27 6.79 3.92.35 1.79 3.11 2.64 4.12 2.1.86-.46.81-2.05.8-3.27-.1-7.45-.16-12.04 1.79-13.33 1.74-1.15 4.84.48 6.16 1.42 2.49 1.77 1.65 3.22 3.64 4.59 3.34 2.29 7.69 1.91 12.04 1.59.95-.07 1.91.16 2.04.98.16.97.71 1.47.98 2.13.37.89 1.38 2 4.31 2.7-2.71 3.37-5.18 5.86-6.94 7.53-3.83 3.62-4.76 4.57-6.06 6.19-2.13 2.65-4.5 7.08-4.85 14.68z" fill="#010101"/><path d="M273.08 83.04c-1.94.01-3.37-.48-3.83-.36-6.84 1.71-13.81 1.61-20.76 1.76-2.77 1.88-5.59 3.21-8.79.91-.17-.15-.39-.39-.48-.73-.41-1.6 2.65-3.64 3.6-4.28 5.66-3.78 12.58-1.86 29.19-3.57l1.82-.2c10.41-1.09 18.37-1.26 23.64-1.22-1.75 1.53-4 .87-5.98 1.39-1.73.45-3.46.91-4.11 2.9l-6.7 1.95c-4.06 1.12-5.62 1.44-7.59 1.45z" fill="#251015"/><path d="M275.64 81.51c3.82-1.19 7.34-4.25 11.73-1.87l4.87 7.11c-4.54.08-4.42-5.09-7.8-5.36-2.03 2.05-1.25 4.66-1.43 7.08-.11 1.48.25 3-.27 4.43-.4 1.11-1.05 2.2-2.49 1.93-1.27-.24-1.17-1.38-1.25-2.37-.19-2.23.72-4.71-1.43-6.51-1.52-1.09-.62-3.25-1.93-4.45z" fill="#8f562e"/><path d="M277.6 84.58c3.67 2.13.26 6.48 3.09 9.46 1.26-2.95.68-5.71.81-8.35.11-2.15.36-3.94 2.93-4.3l-.04.63c-.25 3.89-.36 5.86.35 7.16.33.61 1.04 1.55 2.73 2.26 0 .68-.13 1.77-.83 2.76-1.7 2.43-5.77 2.83-7.23 1.36-.67-.67-.48-1.34-1.01-4.68-.18-1.13-.49-2.24-.74-3.36l-.06-2.94z" fill="#3c2011"/><path d="M299.4 74.39c3.36-3.65 7.85-2.39 11.86-2.33 2.72.04 5.5.47 8.27.49-6.45 3.51-13.19 3.76-20.13 1.84z" fill="#563327"/><path d="M287.48 91.44c-.76.46-1.01 1.99-2.23 1.39-1.84-.9-2.41-8.27-.9-10.18 1.16 2.89 1.29 6.14 3.13 8.78z" fill="#8f562e"/><path d="M277.6 84.58l.06 2.94c-1.47 1.31-.58 4.14-3.09 4.78v-4.71c1.44-1.83.22-4.13 1.06-6.07 2.44-.12 1.99 1.61 1.97 3.07z" fill="#b1743d"/><path d="M287.59 66.32c6.48.4 12.49-.98 18.7-3.1 4.78-1.63 10.44-.68 15.71-.88l4.55.13c.44.2 1.09.28 1.28.62.77 1.38-.5 1.14-1.13 1.17l-11.15.43a4.31 4.31 0 0 1-.71-.09c-7.15 3.51-14.85 3.48-22.53 3.52-1.62 0-3.27-.53-4.82.37h.02c-1.44.63-2.88 1.28-4.28-.09 0-3.73 2.19-2.9 4.36-2.08z" fill="#d38379"/><g fill="#bd7c3b"><path d="M283.4 68.27l4.11.2c-.07 2.86-1.06 4.02-4.38 4.33-6.24.59-12.39 1.05-18.59-.07-1.59-.29-3.35-.33-4.08-2.21 2.52-2.92 6.06-1.89 8.77-1.33 4.26.87 7.73-.32 11.33-1.96 1.14-.18 2.03.31 2.83 1.04z"/><path d="M287.49 68.49c3.82-2.23 8.05-.39 12.04-1.24 5.06-1.08 10.2-1.78 15.31-2.65-2.05 1.22 4.41 2.96-.24 4.02-3.91-1.19-7.79-1.19-11.78-.13-5.07 1.35-10.22.36-15.34 0z"/></g><path d="M255.16 70.33l3.37.17-6.97 2.01-2.89 1.02c-4.37 2.99-8.93 5.56-14.23 6.52-1.11-.18-2.25-.29-3.07-1.22-.67-1.13-.35-2.2.2-3.26 3.01-3.38 7.09-3.84 11.24-4.12 2.05.09 3.66-1.25 5.51-1.68 2.24-.53 4.74-1.74 6.84.55z" fill="#bd753f"/><path d="M189.61 172.78c-1.45-.67-2.5-1.51-3.16-2.12a39.14 39.14 0 0 1-.71-6.95c-.02-1.13-.02-5 1.09-9.95.46-2.03.99-3.72 1.43-4.96 1.13-.63 2.54-1.59 3.9-3.05 2.87-3.09 3.74-6.56 4.05-8.23l6.21-2.4c.77 3.92 2.27 6.38 3.6 7.93 1.29 1.52 3.65 3.73 3.12 5.38-.2.62-.74.88-.67 1.47.1.73 1.04 1.22 1.91 1.53a45.61 45.61 0 0 0 2.94 6c2.4 4.09 5.1 7.2 7.4 9.45l-17.62 5.23c-4.96 1.45-9.24 2.64-13.49.68z" fill="#c4a774"/><path d="M247.74 134.46l-.02 9.1-1.39 3.23-2.84 6.79c-3.14-1.83-4.5-4.51-3.92-8.13-1.09.1-7.05.55-10.96-3.6-.98-1.04-1.62-2.14-2.06-3.14-4.45-3.61-4.98-5.74-2.32-9.35l12.2-5.38c4.02-2.8 8.79-3.3 12.15-1.2 1.69 1.05 2.67 2.54 3.22 3.66l-.06 2.17-4 5.84z" fill="#26160a"/><path d="M202.35 136.28a3.15 3.15 0 0 1-1.12-.94c-.63-.86-.69-1.93-.55-2.57.39-1.73 2.82-2.17 7.35-4.12l4.59-2.19c.61-.03 1.15.08 1.61.36a2.81 2.81 0 0 0 .88.94c.88 1.54-1.94 6.5-2.87 8.45-1.14 2.42-2.1 6.05-1.34 11.36-.69.37-1.93.89-3.1.45-1.34-.5-1.86-1.98-2.42-3.54l-3.04-8.21z" fill="#e4c696"/><path d="M213.43 130.4l1.11-1.91c2.83-1.22 5.79-.42 8.69-.47 1.33-.03 2.63.53 2.24 2.39-4.25 3.94.5 5.57 2.05 8.02.94 2.79 3.41 5.03 2.92 8.32-.43 1.16-1.27 2.03-2.49 1.76-1.17-.26-.83-1.51-.91-2.42-.11-1.25.3-2.55-.41-3.73-1.24-3.49-3.99-5.92-6.14-8.78-.55.44-1.16.7-1.88.66-1.94-.99-4.08-1.71-5.18-3.83z" fill="#6a3829"/><path d="M210.91 147.58l-.54-3.12c.7-1.54 1.76-2.01 3.29-1.14l3.63 1.5c2.29.97 1.24 2.53.68 4-.82 2.13-2.28 2.11-3.92 1.08-1.1-.69-2.1-1.54-3.14-2.32z" fill="#301310"/><path d="M218.53 133.25l1.96.32.05.96c-.06 1.81 1.2 4.24-1.3 5.06-2.37.78-3.74-1.16-4.8-3.04-.82-1.62-.76-3.14.83-4.21 1.32-.89 2.4-.22 3.26.91z" fill="#ce7247"/><path d="M218.53 133.25c-3.18-1.16-3.12 1.7-4.09 3.3l-1.07 1.77c-2.46.67-2.49-1.11-2.71-2.69.19-2.13 1.67-3.58 2.76-5.23 1.86.67 4.64-.3 5.1 2.86z" fill="#aa5266"/><path d="M210.67 135.63l2.71 2.7.28 5-3.29 1.14c-1.74-3.01-1.01-5.93.3-8.83z" fill="#73403f"/><path d="M231.33 148.55l-.08-2.32c.49-2.05 1.19-4 2.62-5.62 4.41-1.34 6.05.57 5.71 4.84-2.59 1.45-3.74 6.74-8.25 3.09z" fill="#af6337"/><path d="M185.11 40.52l.44.92c.87.95 2.41 1.88 1.89 3.21-1.29 3.31 1.14 4.57 2.96 6.25.48 4.32-2.66 4.89-5.67 5.16-1.94.18-3.97.05-5.94-.26-3.39-1.27-4.56-3.72-3.12-6.96 1.12-2.51.17-5.12.92-7.57 2.55-2.06 5.31 1.99 7.86-.25a2.55 2.55 0 0 1 .67-.5z" fill="#af5632"/><path d="M178.63 54.5c4.02-.19 8.43.63 10.74-4.07-.42-.69-.43-1.34.21-1.91.17 0 1.27.07 1.98.98.64.83.7 2.02.13 3 .43.39 1.63 1.58 2.03 3.55.48 2.4-.59 4.26-.85 4.69l-5.45 7.43a42.89 42.89 0 0 0-4.65-5.22c-3.34-3.18-6.01-4.7-5.72-6.53.14-.88.9-1.5 1.58-1.91z" fill="#844343"/><path d="M189.59 48.52l-.21 1.91c-3.54.34-6.42.27-4.04-4.68.57-1.19.16-2.86.2-4.31 2.22-.22 4.11.89 6.05 1.31.64 2.57-3.6 3.08-2 5.77z" fill="#cf6a48"/><path d="M249.69 41.56c2.01-.39 2.5 1.72 3.89 2.36-.04 2.09-2.26 3.36-2.07 5.53-1.28.77-2.57.64-3.87.07 2.33-2.23-1.66-6.09 2.05-7.96z" fill="#ab5272"/><path d="M143.35 63.66c.81-.85 1.58-1.28 3.29-2.82 1.31-1.18 2.74-3.42 2.8-8.11.7-1.32 1.4-3.12 2.98-3.02 5.97.37 9.8-4.27 14.86-6.01 3.87-1.33 6.15-.62 6.35 3.84a11.52 11.52 0 0 0-2.53 3.12c-2.34 4.23-1.32 8.86-.98 10.16.97 3.7 2.64 4.23 2.87 7.7.13 2.03-.24 3.52-.62 4.56-2.09 5.83 2.01 14.55-2.07 24.46-.37.89-.97 2.21-1.94 3.74-.5.05-1.23.17-1.91.63-1.46.99-1.81 2.95-2.52 4.59-1.35 3.69-3.03 7.19-2.9 11.36.09 2.89-.53 5.99-3.18 8.05-4.99 1.73-6.55.43-7.34-6.09 1.29-2.23 3.34-6.34 3.96-11.71 2.27-19.57-16.37-38.93-11.13-44.45z" fill="#0d0504"/><path d="M178.63 54.5c-.48.54-.53 1.76-.28 1.69 4.88-1.41 4.53 3.7 6.79 5.48 3.47 2.74.32 2.65-1.58 2.9-2.6.08-4.41 1.51-5.93 3.46-.49.12-.97.11-1.45-.01-1.21-.56-1.89-1.51-2.05-2.82-.14-1.42.3-2.99-1.07-4.1-.93-.63-1.86-1.24-2.3-2.34-.7-4.42 1.23-7.96 3.81-11.27l2.09-10.81 1.1 1.74c.64 1.09.71 2.11-.34 3.01 1.15 4.29-1.96 8.98 1.21 13.09z" fill="#71362c"/><path d="M174.58 47.48c-.39 3.76-.35 7.64-2.87 10.84-.49.99-1 1.93-2.27.86.09-1.8-.7-3.2-2.01-4.33-3.55-3.03-1.64-4.64 1.52-5.91 1.51-.61 3.34-.19 4.68-1.4l.95-.06z" fill="#422214"/><path d="M143.48 65.4l1.88-.9a3.5 3.5 0 0 1 .63.56c2.39 2.71-.54 8.24-2.19 14.21-.8 2.88-1.62 7-1.62 12.27l-3.34-1.19c.29-4.37-2.24-8.48-1.23-12.93 1.09-2.22.09-5.01 1.89-7.05 3.04-.28 2.76-3.23 3.98-4.97z" fill="#512205"/><path d="M149.44,52.73c1.46,3.53,2.92,7.06-2.8,8.11-2.53-4.31-2.09-5.59,2.8-8.11Z" fill="#8e4d20"/><path d="M177.42 41.41l.34-3.01c2.65-.23 4.42 1.82 6.67 2.61-1.99 6.44-4.57 2.15-7.02.4z" fill="#cd6d49"/><path d="M242.5 72.49l-9.77 4c-2.79 1.93-5.99 1.4-9.07 1.52-8.01.3-16.03.67-23.82-1.83-2.26-2.2-5.83-3.61-4.81-7.82.72-1.03 1.81-1.27 2.96-1.34.65-.07 1.61-.11 2.7.13 1.5.33 2.17.94 3.52 1.56.94.43 2.16.68 4.59 1.16 2.08.41 3.65.71 5.82.86 3.53.24 5.48.38 7.07-.42.3-.15 1.33-.68 2.83-1.17.34-.11.7-.2 1.22-.32 2.31-.53 4.37-.05 5.22.16a13.72 13.72 0 0 1 1.35.41l1.25.84 7.98.35c.67.47 1.7.76.97 1.93z" fill="#d993df"/><path d="M279.26 69.14l-32.76 2.67c-2.05.89-4.14 1.98-5.61-.38 9.68-3.4 20.03-3.66 30.2-4.77 5.66 0 11.16-2.16 16.89-1.28l.23.81c-2.05.44-4.53.28-5.36 2.39l-3.6.57z" fill="#b777c5"/><path d="M287.47 65.5c-4.28-.22-8.57 1.61-12.84-.07 4.54-1.82 9.24-.74 13.87-.78l-1.03.85z" fill="#211110"/><path d="M141.57 28.63c2.19-1.17 5.76 2.35 7.01-2.05.99.02 2.11-.05 2.42 1.15.33 1.29-.7 1.69-1.69 1.93-2.71.67-5.63 2.76-7.75-1.03z" fill="#95501f"/><path d="M152.55 119.08c1.02 2.71 2.17 4.69 3.07 6.03l3.32 5.16 3.06 5.55 2.2 4.72 2.18 3.31c2.56 3.66 4.95 7.47 6.62 11.57.87 2.12 2.56 3.36 3.59 5.19.25 1.09.05 2.03-.88 2.73-3.74 1.11-6.07-1.26-7.88-3.74-2.94-4.02-5.55-8.31-6.35-13.4-.41-2.58-1.77-4.82-3.49-6.52-5.69-5.61-9.16-12.93-15.1-18.44-4.09-3.79-6.5-9.04-2.18-14.72 1.09-1.44.45-2.83-.63-4.05-2.12-2.41-4.51-4.36-7.68-5.32-3.28-1-5.21-2.96-3.78-6.7.44-.24.89-.43 1.34-.57 7.14-2.21 15.6 7.36 17.12 9.12l3.26 6.81a53.74 53.74 0 0 1 2.02 10.51c.09.94.14 1.86.18 2.76z" fill="#170e1c"/><path d="M114.68 136.46c1.49-1.58 3.31-2.99 2.89-5.56 3.77-2.51 6.61-4.79 8.49-6.4 3.47-2.97 5-4.76 6.84-4.4 2.15.41 3.31 3.47 3.84 5.23.77 3.09-.38 6.16-2.7 7.42-6.76 3.69-12.72 9.04-20.58 10.59-1.87 1.19-4.1.34-6.16 1.19-.11.04-.39.16-.61.04-.58-.32-.22-2.03.15-3.37l7.82-4.74z" fill="#c17234"/><path d="M129.61 90.45l-2.95.03c-2.95-6.43-2.92-6.49 2.92-8.02 2.51-1.94 4.56-4.63 8.03-5.03 2.41 3.75 4.39 7.58 2.12 12.15-3.13.47-6.51.79-10.12.89z" fill="#1e0804"/><path d="M113.47 143.35l18.75-11.11c2.58-1.55 3.67-4.18 4.53-6.91 2.04 3.7 1.08 6.7-2.27 8.97-6.46 4.36-13.3 7.97-20.83 10.14l-.17-1.09z" fill="#703e1d"/><path d="M129.58 82.45c-5.07 1.18-1.39 5.55-2.92 8.02-2.23 2.26-4.36 4.76-8.1 3.28l-1.2-2.7-1.01-1.64c-.51-3.28.86-6.31 3.24-7.48 1.67-.82 3.35-.51 4.07-.33.76.35 1.89.75 3.3.9a10.52 10.52 0 0 0 2.62-.05z" fill="#401111"/><path d="M159.02,155.09c-4.06-1.96-6.39-6.03-10.85-7.59-1.3-.45-1.79-4.03-2.09-6.25-.19-1.4,1.64-1.4,2.02-.53,2.48,5.7,9.09,8.13,10.92,14.37Z" fill="#050303"/><path d="M114.68 136.46c-.92 3.4-2.16 6.29-6.67 4.7-.29-.1-.94.79-1.42 1.22-2.05.12-4.14-.03-5.99 1.14a3.52 3.52 0 0 1-.8-.4c.26-3.37 3.47-3.77 5.42-4.09 3.29-.53 6.26-1.91 9.45-2.57z" fill="#cf7853"/><path d="M123.66 81.6c-1.8.98-5.02 1.5-1.19 4.15.75.51 1.69 1.33 1.14 2.43-.73 1.45-1.94.8-2.95.32-1.7-.8-3.14-.66-4.31.91l-.72-14.92c2.03.61 2.87 2.41 3.98 3.94.87 1.66 2.55 2.29 4.05 3.16z" fill="#854228"/><path d="M90.31 140.32c.47-1.14 1.27-1.88 2.51-2.09l1.36.06c.39 3.89-2.62 1.29-3.88 2.03z" fill="#bd6939"/><path d="M131.49 64.58l1.13-1.09.39.37c1.16.98 3.13-.82 3.97 1.13 1.07 2.47-1.76 2.83-2.42 4.37.41 3.33-1.64 5.37-3.82 7.36-.8.22-1.45-.05-2-.61-.52-1.64-1.8-2.95-2.04-4.72 1.33-2.45 2.64-4.93 4.79-6.81z" fill="#894b20"/><path d="M123.72 65.39l-1.16-1.85c2.4-.21 4.46-1.13 6.02-3.02 1.4 1.01 1.21 2.38.87 3.78l-.23.78c-1.71 2.2-3.54 2.33-5.49.3z" fill="#632c0d"/><path d="M131.49 64.58c-.31 2.94-1.08 5.6-4.09 6.95-3.45-.69-3.26-2.49-1.23-4.55.99-1 2.48-1.46 3.35-2.67l-.07-.01 2.04.27z" fill="#de8576"/><path d="M130.81 76.27c1.92-2.26 1.08-5.53 2.85-7.84 1.09-.36 1.62.16 1.85 1.17 1.93 1.28 2.25 2.68.23 4.14l-4.05 2.65c-.35.44-.65.43-.88-.11z" fill="#c9762e"/><path d="M135.5 69.59l-1.85-1.17c-.99-2.33 1.9-1.46 2.25-2.64-.3-1.73-3.19.62-2.9-1.92 2.25-.69 4.25-.59 5.15 2.02.81 2.37-.8 3.17-2.65 3.71z" fill="#4b1d08"/><path d="M130.81 76.27c.3.01.59.05.88.11-1.08 2.95-3.01 2.18-5 1.15.12-2.83-4.58-.84-4.07-4.06l7 2.1 1.19.71z" fill="#62230c"/><path d="M129.61 75.56l-7-2.1-1.91-4.98c2.04-.02 2.98-1.11 3.01-3.09 2.12.67 3.95-.24 5.8-1.08-.07 1.83-1.55 2.8-2.59 3.97-1.25 1.41-.62 2.3.47 3.24 1.61.86 2.01 2.39 2.22 4.03z" fill="#d8843b"/><path d="M244.95 87.41l3.1 5.73c2.54 4.83 2.72 5.5 2.79 6.08.12 1.02.28 4.94-7.33 10.24-.99 1.28-2.1 2.61-3.34 3.98-1.01 1.11-2.01 2.14-2.98 3.08-1.69.18-4.22.62-6.99 1.87-4.51 2.03-5.86 4.38-10.16 6.58-1.69.86-4.37 1.93-8.19 2.24-2.04 2.53-5.61 1.59-7.94 3.48-.7.69-2.02 1.81-3.97 2.35-3.38.94-7.5-.24-9.78-3.22-1.2-1.56-1.55-3.74-1.24-6.7a20.79 20.79 0 0 1 .37-1.56c1.3-.95 3.2-2.3 5.54-3.84 9.68-6.4 14.51-9.6 18.82-10.63 4.65-1.11 6.63-2.1 10.81-4.59 2.59-1.55 4.56-3.1 5.85-4.2 2.79.55 4.15-1.33 5.55-3.2 2.04-2.72 3.33-1.99 6.75-5.21 1.07-1.01 1.86-1.9 2.33-2.46z" fill="#0c0705"/><path d="M240.38 84.01c-.42.03-1.2.15-2.03.65-.93.56-1.43 1.31-1.64 1.67-.36 3.37-3.82 3.08-5.6 4.76-1.38.73-3.48 1.69-6.18 2.26-1.66.35-2.09.25-4.55.52-5.16.59-7.74.88-9.57 2.26-2.77 2.09-2.04 4.36-4.12 4.97-3.09.91-7.89-3.19-7.81-6.36.02-.94.46-1.7.46-1.7.82-1.46 2.59-1.87 3.32-2.04 17.73-4.26 26.61-6.37 30.43-8.2.87-.42 3.48-1.75 5.54-.69.98.5 1.5 1.38 1.76 1.88z" fill="#351916"/><path d="M234.51 78.4c5.04-.69 8.53-5.89 14.16-4.87l-.24.81c-.1 2.33 2.53.51 3 1.97 2.88.97 7.87-2.19 8.05 4.09l-2.93.13c-4.9 1.04-9.94-.38-14.84.82-2.72-.2-5.84.56-7.2-2.96z" fill="#b66f34"/><path d="M241.58 80.62c4.99-.38 9.97-.96 14.97-.08-2.73 1.5-5.74.88-8.61.93-3 .05-5.82.42-8.4 2.02l-7.06.81c-.3-2.95 1.55-3.48 3.89-3.44 1.74.03 3.5.39 5.21-.24z" fill="#663722"/><path d="M199.63 74.35c10.9 2.81 22.01 2.18 33.1 2.14l-1.29 1.92a2.76 2.76 0 0 1-1.21 1.18c-3.42.61-7.12 2.11-10.16 1.86-7.71-.63-15.82 1.17-23.17-2.68-.72-2.48-.43-4.34 2.74-4.41z" fill="#ea9d98"/><path d="M230.62 78.46c.27-.04.55-.05.82-.05h3.07l7.07 2.22c-2.42 2.74-6.78.69-9.1 3.69l-.02-.01q-2.3-.58-2.46-4.69a2.35 2.35 0 0 1 .61-1.14z" fill="#8e4f26"/><path d="M188.75 135.67l-2.18-2.28c-1.37-1.03-3.25-1.18-4.45-2.53-2.37-3.05-6.4-5.41-4.26-10.32l12.66 1.86q.37 6.46 10.3 9.17l.7 3.87a14.35 14.35 0 0 0-3.18 2.67 14.25 14.25 0 0 0-2.72 4.61c-.99.42-1.75.4-2.24.32-2.36-.41-4.32-3.36-4.65-7.37z" fill="#1c1115"/><path d="M211.53 126.32c2.38-1.59 5.17-2.1 7.84-2.9 4.22-.33 7.48.16 9.6.64 3.27.74 4.58 1.64 4.9 2.75.18.63-.11.81.08 1.34.72 1.96 5.17.78 6.47 2.74 1.17 1.77-.49 5.7-2.49 6.09-1.2.23-2.23-.77-3.74-2.18-2.49-2.34-4.64-5.27-8.73-4.4-3.34-2.38-7.65.79-10.93-1.91l-3.01-2.17z" fill="#3a211c"/><path d="M248.52 121.56l1.68 1.85c-.06 1.06 1.53 1.83.54 3.05l-3.66-2.92c-1.11.77-.85 1.78-.75 2.76.11.99-.29 2.11-.69 2.52-.89.91-3.82-.1-7.13-2.36l.58-2.96c2.42-1.89 3.97-6.11 8.23-3.06l1.2 1.12z" fill="#42261a"/><path d="M233.87 140.61c2.56 1.39 2.08 4.22 1.53 5.85-.74 2.18-2.65-.78-4.14-.24l-1.68.27c-1.4-2.51-1.58-5.33-2.05-8.08 1.62 2.18 3.28 4.22 6.35 2.19z" fill="#5b2c13"/><path d="M239.72 124.36l-1.2 2.1-1.79-1.19c-1.1-1.01-2.13-.04-3.19.12-.69-.69-1.95-.24-2.49-1.23.88-4.61 2.6-5.52 7.5-3.97 1.48 1.08 1.9 2.46 1.18 4.16z" fill="#7c433e"/><path d="M180.04 65.23c3.85-.48 6.91 1.15 8.2 1.94.56.19 1.4.55 2.24 1.25.61.51 1.72 1.44 1.58 2.23-.17.99-2.21 1.44-3.83 1.71-1.91.32-13.98 2.34-15.28-1.43-.24-.69-.03-1.32.1-1.74 1.04-3.24 6.31-3.89 6.99-3.97z" fill="#bc9772"/><path d="M187.74 66.79c-3.33.22-6.71-1.42-10 .24.1-5.3 3.19-3.83 6.12-2.7 1.13 1.07 3.23.62 3.88 2.46z" fill="#b15d39"/><path d="M147.23 63.91c11.26-3 20.25 4.68 19.43 16.6-2.65 4.84-4.91 9.87-6.96 14.99l-.13-.06-6.08 13.25a80.01 80.01 0 0 1 .98-14.58c.84-5.27 1.71-7.28 1.67-10.92-.03-3.45-.87-8.44-4.77-14.53-4.23-1.35-6.31-2.49-6.22-3.42.05-.51.74-.95 2.08-1.34z" fill="#b62"/><path d="M178.48 121.44c-4.95-.69-7.14-2.92-7.98-3.94-1.95-2.38-.55-3.17-3.12-9.69-1.02-2.57-2.1-4.66-1.12-6.3.41-.69 1.06-1.07 1.56-1.29 3.12-3.51-.52-7.36.5-10.84 1.65-5.63-.44-11.84 2.81-17.17 1.15.75 2.91 2.07 4.38 4.2 5.96 8.6-.95 18.52 1.94 29.3 1.16 4.31 4.25 10.13 13.18 15.84-1.1.51-2.77 1.11-4.88 1.27-3.37.25-5.99-.78-7.26-1.38z" fill="#58412e"/><path d="M153.62,108.47c2.55-4.08,2.94-9.15,5.95-13.02-1.01,8.27-4.49,15.81-7.02,23.64-1.19-1.34-1.78-2.91-1.86-4.69,1.53-1.7-.49-5.16,2.93-5.93Z" fill="#975527"/><path d="M169.44 59.18l2.27-.85 2.89 1.17c1.76.23 2.12.79 2.22 1.07.58 1.67-4.2 4.56-4.5 4.73-2.46.52-3.62-1.08-4.68-2.86-.17-1.51.15-2.75 1.79-3.26z" fill="#6c2210"/><path d="M167.65 62.44c1.52 1.1 2.99 2.3 5.06 1.98l2.89.04.83 2.83c-.64 1.21-1.81 1.97-3.01 1.92-.84-.03-1.46-.45-1.73-.67-.54-2.57-4.03-3.19-4.03-6.11z" fill="#3d160c"/><path d="M175.6 64.46l-2.89-.04c-1.17-1.49-3.69-3.37 1.04-2.84 1.58.18 2.96-.41.85-2.09.9-.91 1.8-.7 2.37.26 1.18 1.99-.51 3.25-1.38 4.71z" fill="#af5b39"/><path d="M145.41 66.75l.34 1.74c1.48 1.51 2.78 3.17 4.12 4.8 2.17-.27 1.96-3.7 4.52-3.14 2.7 4.63 4.89 9.27 1.24 14.47-2.14 3.06-1.96 6.44-1.01 9.84 1.24 4.39-1.59 7.82-2.8 11.61-.33 1.03-1.86 1.27-3 .39l-3-6.27c-1.64-3.05-5.55-4.91-4.79-9.21.99-3.89.87-7.77.36-11.74-.61-4.69-.02-9.2 4.01-12.5z" fill="#da8732"/><path d="M144.08 95.27a14.72 14.72 0 0 1 1.75 4.94l-16.22-9.75c1.84-1.59 3.49-1.94 4.33-2.03 5.72-.64 9.81 6.27 10.14 6.84z" fill="#190e21"/><path d="M194.75 68.56a1.65 1.65 0 0 1 .34.03c.48.07 1.52.39 3.36 3.52.32.54.74 1.3 1.18 2.24-1.49.96-2.08 2.39-2.14 4.09-.27.34-1.39 1.68-3 1.68-2.17 0-3.73-2.41-4.03-4.36-.17-1.1.08-2.03.27-2.59l4.01-4.62z" fill="#d6869f"/><path d="M148.83 106.47c5.1-2.21 4.93-6.82 4.35-11.01-.61-4.44-.32-8.24 1.67-12.44 1.87-3.95 1.94-8.64-1.27-12.53-.69.2-1.43.05-1.89-.41-.64-.65-.67-1.84.06-2.68 5.1 1.24 9.15 9.93 6.53 14.97-2.24 4.3-3.87 8.37-1.52 13.09.6 1.2.04 2.3-.7 3.21-2.38 2.9-2.72 6.27-2.44 9.81-.41 2.26-.33 4.75-2.93 5.93l-1.86-7.93z" fill="#cb732c"/><path d="M210.35 109.01l-6.93 4.33-8.45 2.81c-.91-.75-2.98-2.67-3.2-5.41-.38-4.82 5.13-10.08 10.66-9.33 3.66.49 6.79 3.53 7.91 7.6z" fill="#d48d39"/><path d="M195.45 115.27c2.54-1.12 5.13-2.02 7.97-1.92-3.13 4.5-8.22 5.96-12.8 8.21-5.93-.07-10.64-2.1-12.84-8.09.54-.5 1.19-.82 1.89-1.02 2.79-.17 4.45 2.73 7.21 2.66 2.82 1.86 5.73-.8 8.57.17z" fill="#ddbe90"/><path d="M208.52 108.48c-1.87.46-1.95-.93-2.21-2.13-.6-2.48-.37-4.83 1.14-6.96l.24-1.42c3.15-2.35 5.76-.19 8.49 1.01 2.42 1.77 6.22 2.88 3.42 7.15l-2.03.42c-3.19-.18-5.92 1.81-9.04 1.93z" fill="#e1c39c"/><path d="M239.72 124.36l-2.22-3.08c-.23-.42-.7-1.15-1.54-1.59-3.33-1.73-8.62 3.2-10.18 1.69-.14-.14-.35-.42-.36-1.04 1.98-4.51 6.43-3.83 10.09-4.81 1.68 1.43 3.15 1.9 4.17 2.07 2.21.37 3.51-.47 5.22.29 1.28.58 2.02 1.72 2.43 2.54-1.25-.11-2.28.09-2.99.73-.9.8-.73 1.81-1.63 2.57-.64.55-1.6.79-2.98.62z" fill="#33133c"/><path d="M225.41 120.34l2.02 1.11c1.41.89 2.96 1.57 4.18 2.76l1.92 1.17c-4.14 1-8.35 1.07-12.58 1.06-2.73-.01-2.53-1.25-1.57-3.03l6.04-3.08z" fill="#452445"/><path d="M207.45 99.39l-1.14 6.96c-1.82-3.67-4.2-3.47-7.04-1.12-3.19 2.65-7.71 4.71-3.81 10.03-2.52 3.34-5.31 4.97-8.92 1.4l-.21-.99c-1.48-6.96-2.75-13.87-3.81-20.72 1.36-2.37 3-3.32 3.86-3.72 4.13-1.91 10.01.02 14.25 5.09 2.49.55 3.91 3.45 6.82 3.07z" fill="#bc742d"/><path d="M189.96 92.31c-2.53.75-4.16-.1-5.28-1.2-2.16-2.14-1.11-6.26-.85-7.22 7.11.07 14.93-.18 23.33-.94a234.24 234.24 0 0 0 22.16-3.06c-.25 3.17-1.42 4.81-2.23 5.65-1.06 1.1-1.93 1.25-8.91 3.74-2.71.97-2.89 1.06-3.59 1.21-3.47.75-6.26.2-7.42.01-3.47-.57-8.89-.65-17.21 1.81z" fill="#955629"/><path d="M192.59 94.38c-1.89-3.57-.35-5.48 3.04-6.8 3.33-1.29 6.85-.97 10.26-1.51.54-.09 1.68.36 1.7.63.41 4.9 4.16 3.5 6.99 3.8-3.65.83-7.32 1.56-10.93 2.52-1.56.42-3.96.45-3.02 3.31-3.03.79-5.43-.99-8.04-1.94z" fill="#794623"/><path d="M215.54 90.44c2.01-2.47 4.3-4.19 7.77-4.33 3.4-.13 4.58-3.28 6.23-5.65.07-.37.25-.66.55-.89l.54-.06c1.3.07 2.47.21 1.5 2.01-.52.97-.41 1.92.34 2.77-5.4 2.71-11 4.88-16.93 6.15z" fill="#663722"/><path d="M191.59 76.43c1.05 3.34 3.78 1.8 5.9 2.02 3.36.9 6.77.78 10.21.66 5.9-.2 7.56.69 10.38.71 2.9.02 7.2-.18 12.53-1.36-2.85 2.51-7.3 5.58-13.08 6.06-2.04.17-1.56-.2-6.52-.41-3.5-.15-9.61-.64-16.73-.3-6.1.29-7.3-1.45-5.21-7.34l2.52-.05z" fill="#d78646"/><path d="M231.62 124.22c-2.22.34-3.95-.08-4.18-2.76.39-.59 2.01-2.9 4.87-3.36.63-.1 3.25-.52 4.53 1.12.56.72.65 1.56.66 2.07-2.83-.75-4.33 1.14-5.88 2.93z" fill="#612364"/><path d="M194.75 68.56c-.21.57-.57 1.42-1.16 2.36-.96 1.53-2.41 3.86-4.84 4.25-.49.08-1.99.23-3.87-.97l-.21-1.73c1.83-1.01 3.5-2.61 5.85-1.28.59-2.03-1.4-2.27-1.72-3.46 2.11-.59 4.08-.2 5.96.83z" fill="#d8bac4"/><path d="M184.66 72.47l.09 1c.21.8-.12 1.4-.69 1.92-5.9 1.12-6.87.56-8.6-4.98l.05-.01c3.07.61 6.28.61 9.15 2.08z" fill="#e6c697"/><path d="M175.46 70.4c2.7 1.37 4.17 5.13 8.07 4.16.71-.19 6.08-1.61 6.9-.03.15.3.26.93-.65 2.25-.78.59-1.86 1.52-2.89 2.88-.45.6-1.04 1.38-1.55 2.55-.28.64-1.05 2.48-.88 4.82.14 1.93.77 2.13.85 3.67.06 1.15-.21 2.78-1.69 4.8l-4.09 17.87c-.27.11-.63.21-.88.04-.66-.45.36-2.23-.34-3.27-.3-.46-1.01-.88-2.72-.79-2.5-2.55-1.75-6.27-3.32-9.24-.81-1.54-.52-3.76-1.34-5.59-.79-1.77-.05-3.16 1.71-3.96.64-.15 1.47-.46 1.83-1.18.62-1.22-.68-2.5-1-4.77-.25-1.76.31-2.7.69-4.43.42-1.93.62-4.76-.49-8.62l1.78-1.16z" fill="#bb9763"/><path d="M172.94 70.94c.33.71 1.78 3.63 5 4.66 1.01.32 1.93.37 2.66.34-.2.44-.53 1.09-1.02 1.82-2.19 3.25-4.37 3.3-4.7 5.22-.23 1.32.34 3.17.96 4.25.73 1.27 1.07 2.68-1.35 2.16-3.27-3.5-3.59-5.84-3.27-7.33.41-1.91 1.92-2.66 2.1-4.73.19-2.1-1.12-3.92-2.19-5.1l1.82-1.28z" fill="#927140"/><path d="M151.38 66.25l2.2 2.63-.27 5.34c-.32 2.24-1.81 3.44-3.64 3.73-2.26.35-2.26-1.85-2.69-3.53-.66-2.63-2.29-4.99-1.76-7.96l6.15-.21z" fill="#e6865b"/><path d="M179.68 112.43c-.06-2.43.15-5.78 1.35-9.53.59-1.84 1.3-3.43 2.01-4.76l2.46 4.3 1.8 2.84c.95 1.25 1.44 3.95-.96 10.39l-6.65-3.24z" fill="#8a4c22"/><path d="M187.46 77.58l2.32-.79c-.63 3.25-.23 4.9 4 5.23 7.05.54 14.17 0 21.17 1.37 2.3.45 4.57-.22 6.59-1.57 2.69-1.8 5.7-2.54 8.92-2.41l-.93 1.07c-4.51.59-7.32 5.06-12.08 5.22-1.43.05-2.84.88-4.34.26-6.28-2.55-12.61-1.88-18.93-.22-2.28.6-4.52 1.13-6.69-.3-3.17-.69-3.04-3.07-2.82-5.49.31-1.52 1.76-1.69 2.79-2.37z" fill="#b76c30"/><path d="M235.4 161.63c-.34 3.69 2.17 6.92 1.97 10.77-2.75-.4-2.4-3.58-5.03-4.53 2.38 5.98-2.35 3.92-4.74 4.66l-9.13-6.26c-.65-.45-1.83-1.26-3.19-2.59-1.04-1.01-1.79-1.95-2.29-2.61.27-3.11-3.86-3.13-4.13-5.87l.48-1.37c1.71-1.01 3.56-1.75 5.32-2.67 3.36.22 6.47 1.24 9.33 2.99 1.73 1.06 3.56 1.95 5.59 1.81 4.19-.29 5.5 2.14 5.82 5.69z" fill="#351717"/><path d="M279.5 248.32c.54-.59 2.83-3.22 2.66-7.05-.18-3.99-3.06-6.46-3.9-7.19-.87-.75-.62-.31-4.74-2.74l-5.8-3.49c-2.72-1.41-3.15-1.28-4.03-2.11-1.66-1.56-2.16-3.93-2.17-6.28-1.72-.46-4.58-1.46-7.33-3.82-1.6-1.38-2.4-2.06-2.4-3.01.01-2.5 5.32-2.9 9.05-8.19 1.73-2.45 1.44-3.57 1.26-3.99-.42-.99-1.59-1.68-3.47-1.87-6-.61-11.89-.34-17.27 3.2-8.15 5.36-15.65 2.52-19.2-6.6-2.13-5.47-5.75-10.11-10.34-13.84-2.92-2.37-9.01-1.12-13.97 3.07-2.06 1.74-3.56 2.25-5.46.19-.01-.21-.02-.43-.04-.64-.13-2.04-3.17-2.62-2.53-5.05.26-.88.85-1.49 1.6-1.95.92-.68.72-1.82 1.08-2.74 1.04-3.75 3.74-5.12 7.36-5.2 5.96-.78 12.25.39 17.76-3.01 4.01.64 6.96-2.25 10.5-3.2 3.01.32 3.87 2.03 3.26 4.84-.35 1.61-.46 3.27-.98 4.83-.27 3.34.52 4.75 1.39 5.38 2.15 1.55 5.88-.82 8.64 1.38.46.37.77.76.95 1.03 1.07 3.41.25 7.53 4.47 9.71 3.51 1.81 6.1-.07 12.21 1.28 6.49 1.43 10.6 5.51 11.68 6.65 1.17 1.23 6.13 6.46 5.85 13.17-.09 2.16-.63 2-.54 3.7.26 4.94 4.81 6.96 8.71 12.24 1.6 2.17 3.49 5.43 4.69 10.14.41.27 2.19 1.5 2.74 3.87.49 2.12-.3 3.88-.77 4.65-1.7 2.81-6.15 4.02-10.91 2.67z" fill="#0e0907"/><ellipse cx="268.23" cy="32.86" rx="6.17" ry="13.78" transform="matrix(.087851 -.996134 .996134 .087851 211.94 297.17)" fill="#211110"/><path d="M283.49 34.56c-1.73 5.77-6.01 9.48-10.03 9.31-1.69-.07-4.91-.89-6.1-3.22-.84-1.65-.11-2.99-1.1-3.76-1.28-1-4.41-.22-5.21 1.51-.98 2.12 2.15 4.37.97 6.74-.32.64-1.09 1.56-2.03 1.5-.93-.06-1.51-1.06-1.59-1.21-.33-3.64-1.86-7.14-1.31-10.89.13-.5.4-1.24 1.02-1.84 2.1-2.01 5.31.38 11.11.56 5.97.18 8.91-2.16 12.72.1.72.43 1.24.89 1.55 1.19z" fill="#412a1a"/><path d="M329.29 181.31c-1.03.4-3.77-5.23-9.2-11.76-5-6.01-12.23-5.21-18.9-5.8-8.12-.72-16.22-.07-24.35.54-8.89.66-10.03 2.45-10.9 11.19-.62 6.16 1.49 7.66 6.57 7.9-.42 6.1 2.67 11.3 4.19 16.92 1.59 5.9 5.15 10.3 9.14 14.43 2.13 2.21 2.66 5.11 4.61 7.47 5.25 6.34 7.08 11.66 10.17 17.68 1.27 2.47 3.01 6 4.92 10.37-7.08-.09-10.89 2-13.07 3.94-1.83 1.63-1.73 2.47-4.98 6.13-2.97 3.34-5.52 5.51-7.79 7.4a87.51 87.51 0 0 1-11.36 8.04c-7.37 2.82-10.37 2.26-11.62.89-4.51-4.97 9.5-25.73 17.79-28.48 2.33-.77 4.58-1.78 6.94-2.43 3.31-.91 4.97-.99 5.81-2.36.62-1 .29-2.57-.33-5.63.08-7.8-4.8-15.21-11.66-17.66-2.18-1.08-3.12-2.84-2.94-5.26.55-7.24-3.38-12.95-6.63-18.83-1.12-2.02-3.4-2.49-5.69-2.4-2.82.12-5.65.15-8.47.04-4.34-.17-7.49-1.44-9.4-3.74 0 0-.02-.03-.04-.05-1.95-2.37-3.68-6.62-1.88-9.69 1.07-1.84 3.04-2.62 4.25-2.95 1.39-.36 2.85-.85 4.34-1.53 8.51-3.9 12.72-11.52 14.46-15.34.56-.38 1.15-.77 1.82-.78 14.4-.24 28.79-2.27 43.16-.94 11.62 1.07 14.11 4.7 15.43 6.02 6.29 6.27 6.81 16.22 5.61 16.69z" fill="#0f0a09"/></svg>