<svg xmlns="http://www.w3.org/2000/svg" width="281.8" height="164.2" xmlns:v="https://vecta.io/nano"><g fill="#e6e5e5"><path d="M157.5 114.3c-.4 15.5 2.9 30.8 5.6 46.1.3 1.8 1.5 2.3 3.2 2.2s2.5-1.3 2.9-2.7v-.3a342.58 342.58 0 0 1-6.1-45c-.2-3.3-5.5-3.7-5.6-.3z"/><path d="M153.3 119.9a48.13 48.13 0 0 1 10.8-5 16.87 16.87 0 0 1 5.5-.5 9.31 9.31 0 0 1 4.1 1.5c1.4.8 3.3 1.1 4.5-.1s1-2.8-.5-3.7a19.7 19.7 0 0 0-14.4-2.5c-5.5 1.2-9.9 3.7-14.6 6.6-1.5.9-1.2 2.7.1 3.7a4.09 4.09 0 0 0 4.5 0zm6.6 19.3l3.1-3h0c.1-.1.3-.2.4-.4a4.17 4.17 0 0 0 .8-.6l1.8-1.2a5.57 5.57 0 0 1 1.9-.9c.3-.1 1.2-.1 1.5-.2a1.76 1.76 0 0 1 .6-.1.37.37 0 0 0 .3-.1.6.6 0 0 0 .4-.1c.2 0 .4-.1.6-.1s.9-.1 1.2-.1a27.69 27.69 0 0 0 3-.3c1.8-.6 2.5-1.9 1.5-3.5a5.31 5.31 0 0 0-5-2.1 30.55 30.55 0 0 0-16.9 9.3c-1.3 1.3-.8 2.7.6 3.7s2.9.5 4.2-.3zm19.4-23.5c1.5 10.6 5.1 19.1 11.1 27.9a74.06 74.06 0 0 1 4 6.7c.6 1.2 1.2 2.3 1.8 3.4a11.73 11.73 0 0 0 1.9 3 4.27 4.27 0 0 0 5.1.8 2.73 2.73 0 0 0 1.3-1.5c1.2-2.2 2.9-3.9 4.1-6.1.8-1.4-.1-2.9-1.7-3.3a4.16 4.16 0 0 0-4.4 1.3 14.66 14.66 0 0 0-1.8 2.8 14.62 14.62 0 0 1-.9 1.5 9 9 0 0 0-.5.9c-.2.3-.4.4-.1.3a4.28 4.28 0 0 1 1.3-.5h.5a5.64 5.64 0 0 0 1.2.4c-.4-.3.1.3 0 0a9.74 9.74 0 0 0-.5-1.1c-.4-.8-.8-1.5-1.2-2.4-.8-1.6-1.6-3.2-2.5-4.7-1.9-3.2-4.1-6.8-5.8-10-3.3-6.5-4.9-12.8-6.5-19.8-.4-1.6-2.2-2.3-3.7-2.2s-2.1 1.1-2.7 2.6z"/><path d="M186 138.1a98.41 98.41 0 0 0 13.2-4.7c1.7-.8 2.1-2.3.7-3.8s-3.1-1.6-5.1-1.1-4.2 1.5-6.3 2l-3.3.8-1.5.3a2.49 2.49 0 0 1-.8.1h-.5c-.8.4-1.7.2-2.2 1.1-1.1 2 .6 3.4 2.5 4.4.8.5 2.2.4 3.3.9-.1-.1-.1 0 0 0zm-2.6-19.7c3.3-.3 7.4-.5 10.5-1.1 2.2-.4 3-1.2 2.9-3.1s-2.2-2-3.7-2.2a1.09 1.09 0 0 0-.5.1 88.51 88.51 0 0 1-10.1 1c-2.2.2-3.2.6-3.3 2.6s2 2.4 3.6 2.7z"/><path d="M205.7 108.1c-2 .3-4.1.3-5.9 1.4s-3.4 2.5-3.4 4.7c0 4.5 2.9 6.6 6.1 9.3 6.3 5.1 11.9 10.5 16.3 17.3 1.1 1.8.9 3.9 1.4 5.8.1.3-.4.7 0 .7s1.1-.5 1.3-.8-.3-.2-.4-.2a14.65 14.65 0 0 1-2.8-1.4 4.65 4.65 0 0 0-4.8-.4c-1.5 1-2.3 2.6-.6 3.9 4.1 3.1 8.9 5.2 12.8.6 1.4-1.6.9-4 .6-6a14.71 14.71 0 0 0-2-6c-4.6-7.4-10.6-13-17.5-18.3-1.5-1.1-3.1-2.1-4-3.8a1.49 1.49 0 0 1-.1-.6c0-.2.2-.2 0-.3a8.47 8.47 0 0 1 1.7-.4c1.7-.2 3.2-.8 3.6-2.6s-.8-2.4-2.3-2.9zm7.3-2.8c6.1 13.1 12 26.9 18.5 39.7 2.2 4.3 6.2 1.6 4.5-2.8-5.2-13-11.2-27.6-17.7-40.1-2.2-4.2-4.4 1-5.2 3 0 .1-.1.1-.1.2z"/><path d="M208.9 108.6a51.46 51.46 0 0 0 13.3-9.8c1.3-1.4 1.7-3.1.5-4.5s-2.4-.6-3.6.5a73.31 73.31 0 0 1-12.3 9c-1.5.9-2.2 2.3-1.5 3.9s2.1 1.7 3.6.9z"/><path d="M223.7 95.9c7.7 9.4 16.7 19.8 25.3 28.8 2.9 3 5.5-1.2 3-4.4-7.6-9.7-16.1-20.7-25.1-29.6-3-3-5.8 2.1-3.2 5.2z"/><path d="M230 93.5l7.6 1.6a18.21 18.21 0 0 1 7.5 2.6c5.2 3.3 10.5 6.7 16 9.7a2.5 2.5 0 0 0 3.6-1.1 4.26 4.26 0 0 0-.2-4.6c-.1-.1-.2-.1-.3-.2-9.4-10.6-17-22-24.1-34.2-1.3-1.1-2.5-1-3.5.3a5.14 5.14 0 0 0-.4 5.2 162.64 162.64 0 0 0 24.7 34.6c1.1-2 2.3-3.9 3.4-5.9-5.4-3.5-10.5-7.3-15.9-10.8a23.81 23.81 0 0 0-8-3.5 63.86 63.86 0 0 0-8.9-.9 3.6 3.6 0 0 0-3.4 2.5c-.5 1.6-.5 3.2.9 4.4 0 0-.4-.1 1 .3zm33.9-3.8a65.27 65.27 0 0 1-4.4-8.2c-1.2-2.7-3.3-6.2-5-9.1-3.5-5.8-7.6-11.7-11.8-17.3-.9 2-1.7 4.1-2.6 6.1 11 5.8 20.7 13.5 31.4 19.8 1.5.9 2.6-.1 3.4-1.3s.7-3.4-.4-4.2c-11.2-7.1-20.8-15.8-33.3-20.8-2.3-.9-3.5 3.7-2 5.8 3.9 5.5 8 11.9 11.8 17.9 1.9 3 3.3 6.3 5 9.4s2.9 6.4 5.7 8.8c1.2 1 2.7 0 3.4-1.4a4.56 4.56 0 0 0-.5-4.6s.3.5-.7-.9z"/><path d="M259.4 79.1l1.9-4.7a5.25 5.25 0 0 0 .4-2.7 3.21 3.21 0 0 0-1-2.1 1.38 1.38 0 0 0-1.8-.2 3.42 3.42 0 0 0-1.5 1.8l-1.9 4.5a4.56 4.56 0 0 0 .6 4.9c.6.7 1.1.4 1.8.2a1.73 1.73 0 0 0 1.5-1.7zm-18.6-27.7c12.3 6.1 23 14 34.5 21.5 2 1.3 3.8-1.8 3.5-4.1-.4-3.7.5-9.4 2.2-12.5 1.6-2.8.1-7.6-2.6-4.5-4.7 5.5-4.2 12.5-4.7 19.2 1.4-1.2 2.6-2.7 3.9-4a261.78 261.78 0 0 0-35.5-22.4 3 3 0 0 0-3 2.6c-.3 1.7.8 2.8 1.7 4.2 0-.1.1 0 0 0zm-219-4.1c-4 8.5-6.6 20.2-9.7 28.4S5 89 .7 95.5c-2.1 3.2.7 7.1 3.3 5.5 11.8-7.2 23.5-11.9 36.3-16.6a4.16 4.16 0 0 0 .5-4.4 3.4 3.4 0 0 0-3.6-2.2C22.5 81 12.2 86.2.7 95.5c.8 2.1 2.5 3.7 3.3 5.5 5.1-6.5 8.7-10.6 12.5-18.7s6.6-20.1 9.5-29.2a6.12 6.12 0 0 0-.9-5.6c-1.1-1.5-2.5-1.9-3.3-.2zm18.9 38.1c-7.2 9.4-18.9 25.7-26.9 32.7s-1.5 2.4-1.2 6 2.5 2.6 3.9 1.5c11.3-9.3 19.8-22.9 28.6-34.4 1.2-1.6.6-3.4-.3-5s-2-2.1-3.6-1.4a1.33 1.33 0 0 0-.5.6zm6.3 9.3a237.77 237.77 0 0 1-31.7 34.1c-1.9 1.7 1.4 5.7 4 6 3.5.5 7.6 2.6 10.9 4.2 1.6.8 3.7 1 3.9-1.1s-1.2-3.6-2.9-4.6a63.31 63.31 0 0 0-14-5.7c1.2 2.2 2.5 4.3 3.8 6.4 10.1-10.7 19.2-22.2 29.4-33a3.9 3.9 0 0 0 .4-4.5c-.7-1.5-2.1-2.6-3.8-1.8zm6.1 11c-3.2 4.6-8 12.4-10.4 16.6s-4.2 6.5-6 9.1-1.9 3-2.4 5.3.9 4.3 2.2 5.6c4.9 5 12.4 7.3 18 3.5 6.4-4.3 6.2-9.6 7.5-16.3.7-3.6-.2-7.5-.7-11.1-.7-4.3-1.9-8.8-3-13-.5-1.7-1.6-2.7-3.3-2.5s-2.2 1.5-1.9 3.2c1.1 5.7 2.9 11.5 2.9 17.3a25.78 25.78 0 0 1-3.8 14.1c-1.2 2-2.9 2.6-5.2 3.3-1.8.5-3.9-.2-5.6-1.1-.3-.1-.6-.5-.8-.7.3 0-.1.4.2-.2.9-1.6 1.3-2 2.4-3.9l5.1-8.8c2.3-4.1 6.8-11.6 9.6-16.5a3.4 3.4 0 0 0-.7-4.4 2.57 2.57 0 0 0-3.7.1c-.1.1-.2.2-.2.3s-.1-.1-.2.1zm27.3 4.7c-4.2-1.1-8.4-2.3-12.4.1-4.7 2.9-4.8 7-3.4 12s5.2 9.9 6.8 14.9c1.5 4.6 1 8.2-.7 12.5-.3.9-1.2 1.2-1.9 1.8a2.38 2.38 0 0 1-1.2.3 1.7 1.7 0 0 1-.7-.1c-.3-.1-.4-.1-.2-.1s-.6-.3-.5-.3c-.3-.2-.6-.5-.9-.7a6.34 6.34 0 0 1-1.2-2.1 6.54 6.54 0 0 0-3.5-4.1c-1.5-.8-4.3-.7-3.9 1.3a13.58 13.58 0 0 0 11.5 11.4c5.9.8 9.6-2.8 11-7.9 1.5-5.8-.3-10.2-2.5-15.5-2.1-5-6-9.5-6.4-15.1-.2-2.2 1.2-2.9 2.7-4.1a1.55 1.55 0 0 1 1.1-.3 2 2 0 0 1 .7-.1H76a.6.6 0 0 1 .4.1h0a9.2 9.2 0 0 1 .9.3c.4.1.1.2.7.3 3.4.2 4.6-1.7 2.4-4.6zm7.3 3.6c-2.7 14.2-3.1 29.7-4.2 44-.3 4.4 5.1 5.7 6 1.3 2.7-14.3 2.4-29.8 3.6-44.1.4-4.5-4.5-5.6-5.4-1.2z"/><path d="M97.6,117c-.5.7-.3,1.3-.2,2.1h0a4.17,4.17,0,0,0-.2.6,9.44,9.44,0,0,1-.3.9,7.93,7.93,0,0,1-.4.9,1.69,1.69,0,0,0-.2.5c-.1.1-.2.4-.1.3s-.1.2-.2.3a2.19,2.19,0,0,0-.3.5,4.17,4.17,0,0,1-.6.8c-.2.2-.5.6-.6.7s-.4.4-.3.2-.2.1-.2.2a15.26,15.26,0,0,1-1.6,1.1,2.19,2.19,0,0,0-.5.3c-.1.1.4-.2,0,0a6.89,6.89,0,0,1-1,.4,3.55,3.55,0,0,1-1,.2c-.3.1.6,0,0,0-.2,0-.5,0-.6.1-1.5.3-2.7,1.2-2.4,2.8s2.1,3.1,3.8,2.6c7.8-2.5,11.1-7.2,12.6-15.1.3-1.7-1.2-2.5-2.7-2.6s-2.4,1-3,2.2Z"/><path d="M88.6 136.8a12.61 12.61 0 0 1 1.6 2 10.28 10.28 0 0 1 1.2 2.8 54.27 54.27 0 0 1 1.3 6.8c.6 5.2.8 10 3.6 14.6a2.51 2.51 0 0 0 3.9.5c1.2-1.1 1.1-2.4.4-3.8-2-4.2-1.7-8.7-2.3-13.2a22.87 22.87 0 0 0-6.5-13.9 2.9 2.9 0 0 0-4.2.2c-1 1.3 0 2.7.9 3.8-.1 0-.2-.1.1.2zm16.3-16.4a114.81 114.81 0 0 0-1.4 16.5c0 5.5.3 11.1.8 16.7.2 2.5.7 4.8 2.5 6.7a3.8 3.8 0 0 0 4.6.8c1.3-.6 2.1-2 2.8-3.2a28.51 28.51 0 0 0 3.2-7.9 50.61 50.61 0 0 0 1.1-8.6c.4-6.7 1.6-13.4 1-20-.3-3.6-4.7-2.9-5.2.5-.8 6-.8 12.7-1.5 18.9-.3 2.9-.6 5.9-1.1 8.8a18.16 18.16 0 0 1-1.4 3.9 11.16 11.16 0 0 1-1 1.6c-.2.4-.5.7-.6 1a1.38 1.38 0 0 1-.3.4c-.3.6-.2.2.2.1s1-.2 1.4-.4h-.4c.5.1.9.3 1.4.4-1.2-1.6-1.1-4.1-1.2-5.9l-.4-10.4a166.43 166.43 0 0 1 1.1-20 2.27 2.27 0 0 0-2.6-2.4 3.55 3.55 0 0 0-3 2.5zm14.7 1.5c.9 7.4 1.2 14.9 1.6 22.4l.7 11.1c.1 1.7-.2 3.5.8 5.1s2.7 2.1 4.5 2.3c3.3.5 7 .8 10-.7a10.41 10.41 0 0 0 5.7-7.1 28 28 0 0 0-2.1-18.9c-3.3-6.8-8.7-12.4-13.9-17.4-2.6-2.5-6.5-.1-4.2 2.9 4.3 5.6 9.8 10.4 13 16.9a21.22 21.22 0 0 1 2.3 9.6c0 3.1-.3 6-2.6 8.3s-5.7 1.6-8.7.7a12.49 12.49 0 0 1 1.2.8c.4.3.3.8.2-.1 0-.2-.1-.8-.1-1.1a14.77 14.77 0 0 1-.1-2.1l-.3-4.5-.6-9.4c-.5-6.2-.7-12.5-1.4-18.8a3 3 0 0 0-2.9-2.8 2.81 2.81 0 0 0-3.1 2.8z"/></g><path d="M76,63.3C72.1,66,72.1,72,74.8,75.8s7.4,6,12.1,7.2c1.6.5,3.4.8,4.6,2a9.63,9.63,0,0,1,1.6,2.5A41.21,41.21,0,0,0,115,107.1a42.19,42.19,0,0,0,29.5.2c2.9-1.1,5.6-2.5,8.5-3.4s6-1.4,9-2.1a44.9,44.9,0,0,0,21-11,35.17,35.17,0,0,0,10.8-20.5c.9-6.9-.3-14.7,4.1-20.1,2-2.4,5-4.2,6.2-7.1a27.05,27.05,0,0,0-15,7.4,55.14,55.14,0,0,0-10,13.4c-1.7,2.9-3.3,6-6.1,7.9-3.7,2.6-8.7,2.7-13.3,2.9a83.65,83.65,0,0,0-29.8,7.7c-3.3,1.5-6.7,3.3-10.4,3.1-6.7-.5-11-7.3-16.9-10.6-3.4-1.9-7.3-2.5-10.9-3.6a41.63,41.63,0,0,1-15.4-8.5" fill="#d01a1c"/><path d="M75.9,63.2c-4,3-3.9,8.9-1.2,12.7a16.8,16.8,0,0,0,6.8,5.3,27.4,27.4,0,0,0,4,1.5c1.8.5,3.8.8,5.3,1.9s2.1,2.9,2.9,4.4a29.22,29.22,0,0,0,2.4,3.7,42.05,42.05,0,0,0,22.5,15.8,42.62,42.62,0,0,0,18.8,1c7-1.2,13.1-4.9,20-6.4,6.5-1.4,12.6-3,18.4-6.4a38.52,38.52,0,0,0,13.4-12.9,34.76,34.76,0,0,0,4.2-9.9c.9-3.7.9-7.6,1.2-11.4s.7-8.1,3-11.4c2-2.8,5.3-4.5,6.7-7.8,0-.1-.1-.2-.2-.1-9.4,1.2-16.6,7.9-21.7,15.4-1.4,2.1-2.7,4.3-4,6.4a23.86,23.86,0,0,1-4.2,5.8c-3.6,3.4-8.8,3.5-13.5,3.8A85.37,85.37,0,0,0,133,81c-4.3,1.8-8.7,4.8-13.5,4.5s-8.6-4.2-12.1-7.2a24.17,24.17,0,0,0-6-4,67.27,67.27,0,0,0-8.7-2.7,44.35,44.35,0,0,1-16.3-8.7c-.1-.1-.3.1-.2.2a43.59,43.59,0,0,0,15,8.4c3,1,6.2,1.5,9.2,2.7a25.24,25.24,0,0,1,7.5,5c3.5,3,7.2,6.6,12.1,6.6s9.7-3.2,14.2-5A83.45,83.45,0,0,1,151.1,76c3-.5,6-.8,9-1a61.72,61.72,0,0,0,7.4-.7,13.86,13.86,0,0,0,6.2-2.7,20.43,20.43,0,0,0,4.6-5.9c3-5.2,6.1-10.4,10.6-14.6a29.61,29.61,0,0,1,6.7-4.9,22,22,0,0,1,3.9-1.7,12.56,12.56,0,0,1,3.8-1c.6,0,.5,0,.2.6a2.18,2.18,0,0,1-.5.8,12.88,12.88,0,0,1-1.6,1.7,38.33,38.33,0,0,0-2.9,2.8A14.12,14.12,0,0,0,195,56c-1.4,5.7-.6,11.7-1.9,17.4A34.38,34.38,0,0,1,185,88.7a42.91,42.91,0,0,1-13.4,9.8,48,48,0,0,1-8,2.9c-2.9.8-5.9,1.2-8.8,2a62.06,62.06,0,0,0-8.2,3,36.32,36.32,0,0,1-8.5,2.6A41.6,41.6,0,0,1,94.6,89.9c-1.3-2.1-2-4.8-4.3-6s-5.1-1.5-7.5-2.5c-5-2-9.8-6-9.7-11.9a7.77,7.77,0,0,1,3-6.2s-.1-.2-.2-.1Z" fill="#1d1d1b"/><path d="M188.8 48.2l1.3 1.1 11.4-5.5c3-1.4 6.3-3.4 6.7-6.5s-2.5-6.1-5.5-7.7c-6.7-3.6-14.9-4-21.4-7.9-5.9-3.5-9.8-9.5-15.3-13.7-6.3-4.6-14.3-6.7-22-7a30.72 30.72 0 0 0-11.3 1.2c-4.5 1.4-8.3 4.1-12.6 5.9-6.1 2.5-13.2 3-18.7 6.6-8 5.2-11 15.7-19 21-4.5 2.9-10.4 4.3-12.8 8.9-1.5 2.9-1.1 6.6.3 9.6a26.82 26.82 0 0 0 6.3 7.9c5.3 5.1 12 10 19.4 9.3a34 34 0 0 1-4.7-8.8c-1-3.2-1-6.8.7-9.6 2.9-4.6 9.2-5.6 14.3-7.6 6.7-2.6 12.1-7.4 18.1-11.2s13.4-6.6 20.4-4.5c6.5 1.9 11.1 7.7 17.2 10.5 4.6 2.1 9.9 2.5 14.9 3.4s10.3 2.3 13.7 6.1" fill="#d01a1c"/><path d="M188.7 48.3l1.3 1.1s.1.1.1 0l12.3-5.9c2.7-1.4 5.9-3.5 5.9-6.8 0-2.9-2.3-5.1-4.6-6.6-3.4-2.2-7.5-3.3-11.4-4.3-4.3-1.2-8.7-2.5-12.5-5.1-3.4-2.4-6.1-5.5-9-8.4a36.74 36.74 0 0 0-9.4-7.2 40.54 40.54 0 0 0-11.8-3.7 46 46 0 0 0-12.3-.4 32 32 0 0 0-10.8 3.6 55.6 55.6 0 0 1-11.2 4.8 91.17 91.17 0 0 0-10.5 3.2c-6.8 2.8-10.5 8.7-14.6 14.5a33.83 33.83 0 0 1-7.7 8.3c-2.8 1.9-6.1 3.1-8.9 4.9a10.37 10.37 0 0 0-5 6.9c-.6 3.6.9 7.1 2.9 10a44.92 44.92 0 0 0 8.1 8.2 27.55 27.55 0 0 0 10.5 5.7 16.45 16.45 0 0 0 5.4.4.1.1 0 0 0 .1-.1h0c-2.5-3.8-5.2-7.8-5.4-12.5a10.12 10.12 0 0 1 6-9.8c3.2-1.6 6.7-2.4 10-3.7a58.55 58.55 0 0 0 10.8-6.3c6.6-4.7 13.8-9.9 22.3-9.9 4.4 0 8.3 1.8 11.8 4.4s6.7 5.3 10.6 7c9 3.9 20.9 1.4 28.2 9.2.1.1.3-.1.2-.2-4-4.2-9.8-5.5-15.3-6.3a71.82 71.82 0 0 1-10.3-1.9 27.8 27.8 0 0 1-8.5-4.5c-4.6-3.4-9.1-7.3-15-7.9-5.4-.5-10.7 1.4-15.3 3.9-5.1 2.9-9.6 6.8-14.7 9.7a41.72 41.72 0 0 1-8.1 3.6 55.41 55.41 0 0 0-6.8 2.5 11.53 11.53 0 0 0-4.9 4.1 10.94 10.94 0 0 0-1.3 7.3 21.92 21.92 0 0 0 3.4 8.4c.4.6.8 1.3 1.2 1.9.5.8.7 1-.4 1a16.14 16.14 0 0 1-4.9-.7c-6-1.8-11-6.2-15.2-10.7s-7.9-11.8-3-17.3c3.4-3.7 8.7-4.8 12.6-7.9 4.2-3.2 7-7.9 10-12.2a40 40 0 0 1 5.4-6.2 22 22 0 0 1 7.6-4.3c5.3-1.9 10.8-2.7 15.9-5.2 2.7-1.3 5.3-2.9 8.1-4.1a27 27 0 0 1 9.7-1.9 44.74 44.74 0 0 1 18.8 3.3 33.74 33.74 0 0 1 8.8 5.6c2.2 2 4.2 4.2 6.3 6.3a41.57 41.57 0 0 0 6.4 5.4 35.66 35.66 0 0 0 8.3 3.5c3.2.9 6.4 1.7 9.5 2.8 2.8 1 5.8 2.3 7.8 4.7a5.54 5.54 0 0 1-.3 8.1c-2.3 2.2-5.5 3.3-8.2 4.7l-4.4 2.2-2.2 1.1c-.5.2-.9.6-1.5.4a3.51 3.51 0 0 1-.9-.7c0-.2-.2-.1 0 0z" fill="#1d1d1b"/><path d="M124.6,84.1a23.12,23.12,0,0,1-7.1-2.1,8.57,8.57,0,0,1-4.6-5.4,15.28,15.28,0,0,1-.1-3.7,20.13,20.13,0,0,0-1.3-7.7c-.7-1.9-1.6-3.8-1.4-5.7a8.07,8.07,0,0,1,1.7-3.9A14.76,14.76,0,0,1,122,49.4a21.08,21.08,0,0,1,6.1.6l6,1.1a52,52,0,0,0,7.8,1c4,.1,8-.8,12-1.1s8.4.4,11.4,3a11.41,11.41,0,0,1,3.8,9.5,15.77,15.77,0,0,1-4.1,9.4,7.11,7.11,0,0,1-1.5,1.5,7.58,7.58,0,0,1-3.8,1.1,35.67,35.67,0,0,1-8,0c-.4-1.3.8-2.4,1.6-3.6a6.76,6.76,0,0,0-.5-8.2,9,9,0,0,0-2.7-2.1,22.4,22.4,0,0,0-22-.2,13.77,13.77,0,0,0-5.5,5.2,7.86,7.86,0,0,0-.3,7.3c1.5,3,4.9,4.5,8.1,5.8.5.2,1.1.5,1.2,1.1a1.52,1.52,0,0,1-.7,1.2,11.77,11.77,0,0,1-6.9,2.6" fill="#d01a1c"/><path d="M124.6,84c-3.5-.7-7.4-1.4-10-4.2s-1.4-6.4-1.8-9.9a24.72,24.72,0,0,0-1.1-4.7c-.6-1.7-1.5-3.4-1.5-5.3.1-3.4,3.3-6.5,6-8.3a14,14,0,0,1,9.8-1.9c3.8.5,7.5,1.4,11.4,2a37.21,37.21,0,0,0,10,.1c3.5-.4,7-1.1,10.6-.6,3.8.4,7.5,2,9.5,5.3a12.44,12.44,0,0,1,1.1,9.8c-1,3.3-3.3,7.8-7,8.6a25.6,25.6,0,0,1-5.5.5,26.2,26.2,0,0,1-2.8-.1,2.77,2.77,0,0,1-.9-.1c-.9-.7.1-1.8.5-2.4,1.5-2.1,2.4-4.3,1.6-6.9s-3.3-4.3-5.8-5.5a22.41,22.41,0,0,0-16.3-1.1c-5.4,1.7-12.1,6.4-10.5,13,.7,3.1,3.5,4.9,6.2,6.2l2.1.9a3.55,3.55,0,0,1,.9.4c1.3,1.1-.3,2-1,2.4a13,13,0,0,1-5.8,2c-.2,0-.2.3,0,.2a12.55,12.55,0,0,0,6.2-2.2c1.2-.8,2.1-2,.4-2.8-2.3-1.1-4.6-1.8-6.5-3.6a7.61,7.61,0,0,1-2.2-7.7c1.5-5.2,7.5-8.2,12.4-9.2a22.33,22.33,0,0,1,15,2.2c2.8,1.5,5.2,3.7,5,7.1a7,7,0,0,1-1.6,4.1,3.77,3.77,0,0,0-1.1,3s.1.1.1,0a37.6,37.6,0,0,0,7.5.1,8.16,8.16,0,0,0,5-1.7,15.72,15.72,0,0,0,5-11.1,11.43,11.43,0,0,0-4.2-9.1c-3.5-2.7-8.3-3-12.5-2.6-4.8.4-9.5,1.3-14.4.7s-9.6-2.1-14.5-2.3a13.64,13.64,0,0,0-10.1,4,14.54,14.54,0,0,0-3.3,4.5,7.76,7.76,0,0,0,.3,5.6,26.84,26.84,0,0,1,1.9,7.9c.1,2.1-.4,4.5.4,6.6,1.8,4.5,7.2,5.7,11.4,6.5.2-.2.3-.4.1-.4Z" fill="#1d1d1b"/><g fill="#e6e5e5"><path d="M74.2,62.8c-3.4,3.4-3.3,8.7-1.1,12.7,2.6,4.8,7.8,7.3,12.7,9,5.7,1.9,11.9,2.7,17,6.1,4.7,3.1,8.4,7.3,13.6,9.5a26,26,0,0,0,14.6,1.5,23.54,23.54,0,0,0,6.8-2.2,43.58,43.58,0,0,0,6.7-4.5,25.26,25.26,0,0,1,7.3-4.2,37.16,37.16,0,0,1,7.5-1.7c5.1-.7,10.4-1,15.3-2.7a32.41,32.41,0,0,0,21-23.5c.3-1.6-2.1-2.3-2.4-.7a30.61,30.61,0,0,1-16.7,20.7c-8.7,4.1-18.9,2.3-27.7,6.4-4.7,2.2-8.2,6.3-12.9,8.4a23.52,23.52,0,0,1-13.6,1.6c-5.1-.9-9.1-3.5-13-6.8a48.08,48.08,0,0,0-6.2-4.7A35,35,0,0,0,95,84.5c-5.6-1.7-12-2.7-16.6-6.6-3.6-3.1-6.2-9.3-2.4-13.2,1-1.2-.7-3-1.8-1.9Z"/><path d="M164.4,75.6c2.8-3.1,5.5-6.6,6.2-10.9a12,12,0,0,0-3.2-10.2c-6.3-6.8-16.3-3.9-24.3-3.6-4.2.1-8.1-1-12.1-2-3.7-.9-7.7-1.6-11.4-.2a20.81,20.81,0,0,0-9.4,7.4c-2.3,3.5-1.4,6.8.2,10.3a10.76,10.76,0,0,1,1.1,6.1c-.3,2.2-.5,4.2.5,6.3,2.1,4.4,7.2,5.8,11.5,6.9,1.6.4,2.3-2,.7-2.4-3.5-.8-7.7-1.8-9.7-5a6.93,6.93,0,0,1-.6-5.1,12.92,12.92,0,0,0-.1-4.8c-.8-2.9-3.1-5.8-2.4-8.9.8-3.4,4.5-6.1,7.4-7.7,6.5-3.6,13.6.7,20.3,1.4,7.5.9,15.5-2.6,22.8.4a10.17,10.17,0,0,1,6.4,8.7c.2,4.4-2.7,8.3-5.5,11.4-1.1,1.3.6,3.1,1.6,1.9Z" stroke="#e6e5e5" stroke-miterlimit="10"/><path d="M152,75.8c3.5-2.9,5.4-8.8,2.6-12.8-1.4-2-3.8-2.9-6-3.8a24.91,24.91,0,0,0-8-1.7,21.92,21.92,0,0,0-8,1.2,23.33,23.33,0,0,0-7,3.2c-3.7,2.6-6.4,7.4-4.6,12,1.9,4.8,7.4,6.7,12,7.8,1.5.5,2.3-2,.7-2.4-3.3-.8-7.2-1.9-9.4-4.7-2.5-3.2-1-7.4,1.7-9.8,3-2.7,7.6-4.1,11.6-4.7a21.85,21.85,0,0,1,13,2.6,5.37,5.37,0,0,1,2.9,5.5,8.2,8.2,0,0,1-3.1,5.8c-1.3,1,.4,2.8,1.6,1.8Z"/></g><g stroke="#e6e5e5"><ellipse cx="138.74" cy="70.84" rx="2.2" ry="2.3" transform="matrix(.282844 -.959166 .959166 .282844 31.54 183.87)" fill="#d01a1c"/><path d="M112.2 72.8a33.11 33.11 0 0 1-6.7 2.9c-.5.1-.3.9.2.7a42.34 42.34 0 0 0 6.9-3c.4-.2 0-.9-.4-.6zm-.4-3.6a8.6 8.6 0 0 0-3 .9 18.87 18.87 0 0 1-3.4.9 41 41 0 0 1-6.9 1 .4.4 0 0 0 0 .8 39.62 39.62 0 0 0 6.8-.9 20.25 20.25 0 0 0 3.3-.9l1.6-.6a4.71 4.71 0 0 1 1.7-.4.43.43 0 0 0 .4-.4c-.2-.3-.3-.4-.5-.4zm0-2.1l-8.3 1.2a60.33 60.33 0 0 1-8.5.2.35.35 0 1 0 0 .7 60.33 60.33 0 0 0 8.5-.2l8.3-1.2c.4 0 .4-.7 0-.7zm-1.6-2.9l-9.1-.8-9.4-.8a.35.35 0 1 0 0 .7l9.4.8 9.1.8c.4.1.4-.6 0-.7zM110 60a183.37 183.37 0 0 0-18-4.8c-.5-.1-.7.6-.2.7 6.1 1.4 12 3 18 4.8.2 0 .4-.1.4-.3a.52.52 0 0 0-.2-.4zm.3-1.6a53.62 53.62 0 0 1-12.9-9.3c-.3-.3-.9.2-.5.5a53 53 0 0 0 13 9.5c.4.1.8-.5.4-.7zm1.8-3.9a10.08 10.08 0 0 1-1.7-1.9c-.6-.7-1.1-1.5-1.6-2.2l-2.9-4.4a.403.403 0 0 0-.7.4l3.1 4.7 1.6 2.1a11.23 11.23 0 0 0 1.8 2 .41.41 0 0 0 .4-.7zm4.9-3.9l-2.3-9.1a.37.37 0 0 0-.5-.2c-.2.1-.3.2-.2.4l2.3 9.1a.37.37 0 0 0 .5.2.76.76 0 0 0 .2-.4zm8.8-2.3l-2.2-6.2-1.1-3.1a2.69 2.69 0 0 0-1.3-1.8c-.4-.2-.7.5-.2.7.7.3.9 1.5 1.1 2.2l1 2.8 2 5.6c.1.4.9.2.7-.2zm6.9.9a125.89 125.89 0 0 1-2.2-17.3c0-.5-.8-.5-.7 0a148.46 148.46 0 0 0 2.2 17.6c.1.4.8.2.7-.3zm4 1.1a25.06 25.06 0 0 0 1.6-4.6l1.5-5.4c1-3.5 1.9-7.1 2.8-10.6.1-.5-.6-.7-.7-.2l-2.7 10.2c-.4 1.7-.9 3.3-1.4 5a31.61 31.61 0 0 1-1.7 5.2c-.2.4.4.8.6.4zm6 1.1a190.21 190.21 0 0 1 7.6-18c.2-.4-.4-.8-.6-.4a194.57 194.57 0 0 0-7.7 18.2c-.1.4.5.6.7.2zm5.2-.4c1-5.3 3.6-10.1 5.3-15.2.1-.5-.6-.7-.7-.2-1.7 5.1-4.3 9.9-5.3 15.2-.2.4.6.6.7.2z" fill="#e6e5e5" stroke-miterlimit="10" stroke-width=".5"/></g><path d="M154.2 50.8c.2 0 .4-.1.4-.3a.52.52 0 0 0-.2-.4c-.2 0-.4.1-.4.3s0 .3.2.4z" fill="#1d1d1b"/><g fill="#e6e5e5"><g stroke="#e6e5e5" stroke-miterlimit="10" stroke-width=".5"><path d="M154.6 50.6a74.41 74.41 0 0 1 3.3-11.4c.1-.5-.6-.7-.7-.2a74.41 74.41 0 0 0-3.3 11.4c-.1.4.6.6.7.2zm6.4.6a58.49 58.49 0 0 1 4.4-8.2c.1-.2.1-.4-.1-.5s-.4-.1-.5.1h0a67.8 67.8 0 0 0-4.5 8.4c-.2.4.5.6.7.2zm2.1 1.1c3.5-2.7 6.9-5.4 10.2-8.2.4-.3-.1-.9-.5-.5-3.3 2.8-6.7 5.6-10.2 8.3-.4.2.1.7.5.4zm3.2 1.8a32.78 32.78 0 0 0 7.4-3.3l8.2-4.6c.4-.2.1-.9-.4-.7l-8 4.5a38.25 38.25 0 0 1-7.4 3.4.37.37 0 0 0-.2.5.76.76 0 0 0 .4.2zm2.4 3c3.8.1 7-1.3 10.4-2.7l5.6-2.4a21.55 21.55 0 0 0 4.8-2.4c.4-.3-.1-.8-.5-.5a28.22 28.22 0 0 1-4.6 2.3l-5.3 2.3c-3.4 1.4-6.6 2.9-10.3 2.8a.43.43 0 0 0-.4.4c0 .1.2.2.3.2zm1 2.6a7.62 7.62 0 0 0 3-.2l3.7-1 7.4-2.2c.5-.2.3-.9-.2-.7l-6.9 2.1-3.4 1a7.51 7.51 0 0 1-3.3.4c-.5-.2-.8.5-.3.6zm.6 2.2c3 .7 6.1.4 9.1.9.5.1.7-.6.2-.7-3-.5-6.1-.3-9.1-.9-.5-.2-.7.6-.2.7zm-.1 3.2c2.3.7 4.2 2.2 6.5 2.9.2 0 .4-.1.4-.3a.52.52 0 0 0-.2-.4c-2.3-.6-4.2-2.1-6.5-2.9-.2 0-.4.1-.4.3a.52.52 0 0 0 .2.4zm-1.1 3.4l2.2 3.6c.1.2.3.2.5.1s.2-.3.1-.5l-2.2-3.6c-.1-.2-.3-.2-.5-.1a.75.75 0 0 0-.1.5zM140.6 73a41.19 41.19 0 0 1 3.5 3.7c.4.3.9 0 .6-.5a42.72 42.72 0 0 0-3.6-3.8c-.1-.2-.4-.1-.5.1h0a.28.28 0 0 0 0 .5zm-2.6.1a5 5 0 0 0-.2 2.7l.2 2.9c0 .5.8.5.7 0l-.2-2.7c0-.4-.1-.9-.1-1.3a2.46 2.46 0 0 1 .1-1.2c.3-.4-.3-.8-.5-.4zm-1.8-2a56.45 56.45 0 0 0-5.3 7.8c-.2.4.4.8.6.4a59.44 59.44 0 0 1 5.3-7.8c.3-.4-.3-.8-.6-.4z"/><path d="M136.1 70.5l-10.5 5.8c-.4.2-.1.9.4.7l10.5-5.8a.35.35 0 0 0 .1-.5.37.37 0 0 0-.5-.2zm2.6-2.1a13.75 13.75 0 0 0 .4-4.5l.4-4.7c.1-.5-.7-.5-.7 0a34.19 34.19 0 0 0-.4 4.5c-.1 1.5.1 3.2-.4 4.5-.2.4.5.6.7.2zm-1.8.6c-1.8-2.5-2.9-5.4-4.7-7.9-.3-.4-.8.1-.5.5 1.8 2.5 2.9 5.4 4.7 7.9.3.4.8-.2.5-.5z"/><path d="M136.2 69.6c-4-1-7.9-2.1-11.8-3.4-.5-.1-.7.6-.2.7 3.9 1.3 7.8 2.4 11.8 3.4.5.1.7-.6.2-.7z"/><path d="M135.5 70.1a18.21 18.21 0 0 0-3.3.1c-1.1 0-2.1.1-3.2.2a45.23 45.23 0 0 0-6.3.8c-.5.1-.3.8.2.7a44.77 44.77 0 0 1 6.4-.8c1.1-.1 2.1-.1 3.1-.1a16.05 16.05 0 0 1 3.1 0c.4 0 .4-.8 0-.9zm5.4.1l12.7-3.8c.4-.1.3-.9-.3-.8l-12.7 3.8c-.3.2-.1.9.3.8zm-1.2-1.3a100.11 100.11 0 0 1 8.5-7.4c.4-.3-.1-.8-.5-.5a100.11 100.11 0 0 0-8.5 7.4c-.4.3.1.8.5.5zm1.3 2.2c4.2 1.1 8.4-.5 12.6-.2a.35.35 0 1 0 0-.7c-4.1-.3-8.3 1.3-12.4.2-.4-.2-.7.6-.2.7z"/></g><path d="M91.8,87.2c6,13.5,20.1,22.4,34.7,23.9a36.84,36.84,0,0,0,11-.5c4.4-.8,8.4-2.6,12.5-4.1,8.6-3.2,18-3.6,26-8.4a41,41,0,0,0,15.6-16.9A37.72,37.72,0,0,0,195,70.4a36.85,36.85,0,0,0,.4-5.8c0-2.5-.3-5,.2-7.4,1-4.6,5.1-7.4,8.3-10.5,2.7-2.6,5-5.9,5.1-9.8.1-4.3-2.9-7-6.6-8.6-4.5-1.9-9.4-2.8-14-4.3a30.32,30.32,0,0,1-12.3-7.3c-3.1-3.1-5.9-6.5-9.4-9A41.37,41.37,0,0,0,144.4.2a38.9,38.9,0,0,0-11.8,1.3c-4.2,1.2-7.9,3.3-11.8,5.3-4.2,2.1-8.6,2.8-13.1,4.1a24.54,24.54,0,0,0-10.4,5.9c-5.5,5.3-8.7,12.7-14.7,17.6-3.1,2.5-7,3.5-10.3,5.5a10.16,10.16,0,0,0-5.1,9.3c.3,4.2,2.5,8,5.1,11.2a38.47,38.47,0,0,0,10.5,9.2c4.4,2.6,9.3,3.2,14,4.5,4.5,1.3,7.9,4.1,11.4,7.1,3,2.5,6.3,5.2,10.3,5.8,4.3.7,8-1.3,11.8-3a78.72,78.72,0,0,1,27.4-7.1c4.3-.3,8.6-.3,12.6-1.8s6.6-4.5,8.8-7.9,3.9-7.2,6.3-10.4a32.72,32.72,0,0,1,9.2-8.2,35.61,35.61,0,0,1,11.2-4.3c1.6-.3,1-2.7-.6-2.4a35.86,35.86,0,0,0-20,11.4,53,53,0,0,0-6.5,9.7c-1.9,3.4-4,6.9-7.4,8.9-3.6,2.1-8,2.2-12,2.5a83.64,83.64,0,0,0-13.2,1.7A71.6,71.6,0,0,0,133.4,80c-2,.8-3.9,1.7-5.8,2.6a20.18,20.18,0,0,1-5.8,2.1c-4,.6-7.5-1.7-10.5-4.1s-6.1-5.5-9.7-7.2c-4.4-2.2-9.4-2.4-14-4.1-4.4-1.6-8.1-4.7-11.3-8-2.9-2.9-5.6-6.5-6.5-10.6s1.1-7.1,4.6-9,6.8-2.9,9.8-5.3a43.17,43.17,0,0,0,7.3-8.1,82.56,82.56,0,0,1,6.8-8.8,22.69,22.69,0,0,1,9.8-6c4.1-1.2,8.3-1.8,12.3-3.6s7.5-4.1,11.6-5.4a39,39,0,0,1,22.7.1,36.4,36.4,0,0,1,10.3,5c3.5,2.4,6.1,5.6,9.1,8.7A30.57,30.57,0,0,0,185,25.7c4.4,1.8,9.1,2.7,13.6,4.1,3.6,1.1,8.2,2.9,8,7.4-.2,3.9-3.3,6.9-6,9.4-3.1,2.8-6.3,5.8-7.3,10.1s-.1,8.5-.6,12.7a36.41,36.41,0,0,1-9.2,19.7,38.4,38.4,0,0,1-20,11.6c-4.6,1.1-9.2,1.9-13.6,3.5-4.1,1.5-8,3.3-12.3,4.2-13.8,2.8-29-2.9-38.1-13.5a36,36,0,0,1-5.4-8.5,1.22,1.22,0,1,0-2.3.8Z"/><path d="M97.2,71.2c-2.6-3.3-5.2-7-5.7-11.3a9.19,9.19,0,0,1,4.8-9.8c3.2-1.7,6.9-2.3,10.4-3.7a53.82,53.82,0,0,0,10.7-6.1c6.5-4.5,13.5-9.7,21.8-9.9,4.3-.1,7.9,1.6,11.3,4.1s6.6,5.4,10.4,7.2c8.6,4,19.3,1.8,27.1,7.6,1.3,1,2.6-1.2,1.3-2.1-7.5-5.6-17.3-4.1-25.7-7-4.3-1.5-7.7-4.7-11.4-7.4s-7.5-4.6-12-4.8c-8.7-.4-16.3,4.7-23.2,9.5a61.17,61.17,0,0,1-11.3,6.7c-3.7,1.5-7.8,2-11.2,4.1a11.9,11.9,0,0,0-5.7,11.5c.5,5.1,3.4,9.4,6.4,13.4,1.1,1,2.9-.8,2-2Z"/></g></svg>